<svg xmlns="http://www.w3.org/2000/svg" xmlns:xlink="http://www.w3.org/1999/xlink" width="500" zoomAndPan="magnify" viewBox="0 0 375 374.999991" height="500" preserveAspectRatio="xMidYMid meet" version="1.0"><defs><clipPath id="d514ab7f56"><path d="M 92 143 L 327.976562 143 L 327.976562 245 L 92 245 Z M 92 143 " clip-rule="nonzero"/></clipPath><clipPath id="9505e9083e"><path d="M 46.726562 99 L 327.976562 99 L 327.976562 275.941406 L 46.726562 275.941406 Z M 46.726562 99 " clip-rule="nonzero"/></clipPath></defs><path fill="#5b666e" d="M 238.550781 176.832031 C 234.996094 180.242188 230.820312 182.679688 226.1875 184.34375 C 222.929688 185.511719 219.574219 186.269531 216.148438 186.695312 C 213.921875 186.972656 211.691406 186.957031 209.464844 186.554688 C 206.15625 185.957031 203.726562 184.160156 202.089844 181.257812 C 200.90625 179.15625 200.222656 176.894531 200.042969 174.484375 C 200.023438 174.246094 200.035156 173.988281 199.953125 173.769531 C 199.417969 172.355469 199.675781 170.96875 200.148438 169.621094 C 201.339844 166.238281 202.640625 162.902344 204.773438 159.960938 C 209.472656 153.488281 215.34375 148.484375 222.847656 145.527344 C 223.585938 145.234375 224.339844 144.996094 225.113281 144.816406 C 225.316406 144.769531 225.515625 144.730469 225.96875 144.976562 C 224.097656 145.902344 222.300781 146.480469 220.664062 147.398438 C 219.039062 148.308594 217.429688 149.238281 215.941406 150.363281 C 214.445312 151.492188 212.960938 152.628906 211.710938 154.039062 C 212.957031 153.128906 214.179688 152.195312 215.445312 151.320312 C 219.816406 148.304688 224.554688 146.175781 229.847656 145.414062 C 233.597656 144.871094 237.277344 145.128906 240.792969 146.632812 C 244.613281 148.261719 247.074219 151.074219 247.734375 155.238281 C 248.128906 157.746094 247.914062 160.257812 247.1875 162.707031 C 245.5625 168.183594 242.660156 172.890625 238.550781 176.832031 Z M 210.296875 139.585938 C 206.722656 140.855469 203.074219 141.863281 199.40625 142.808594 C 194.664062 144.035156 190.046875 145.640625 185.410156 147.195312 C 182.992188 148.003906 180.558594 148.742188 178.007812 149.027344 C 176.898438 149.148438 175.804688 149.132812 174.730469 148.816406 C 173.597656 148.480469 173.101562 147.738281 173.25 146.558594 C 173.445312 145.050781 173.753906 143.566406 174.289062 142.140625 C 175.867188 137.933594 176.96875 133.605469 177.71875 129.175781 C 178.15625 126.59375 178.746094 124.039062 179.804688 121.625 C 180.871094 119.199219 182.273438 117.007812 184.402344 115.359375 C 186.554688 113.691406 189.039062 112.859375 192.324219 112.867188 C 193.902344 112.898438 195.902344 113.378906 197.722656 114.4375 C 201.382812 116.566406 205.03125 118.71875 208.648438 120.921875 C 210.238281 121.886719 211.675781 123.0625 212.886719 124.507812 C 214.527344 126.464844 216.128906 128.449219 217.433594 130.644531 C 219.085938 133.414062 218.582031 135.394531 215.851562 137.105469 C 214.121094 138.191406 212.210938 138.90625 210.296875 139.585938 Z M 182.515625 118.984375 C 180.277344 121.902344 179.441406 125.332031 178.894531 128.867188 C 180.359375 125.667969 181.898438 122.496094 182.515625 118.984375 Z M 270.917969 218.933594 C 270.589844 216.019531 269.9375 213.167969 269.230469 210.324219 C 268.53125 207.519531 267.835938 204.710938 267.367188 201.851562 C 267.214844 200.933594 267.070312 200.011719 266.839844 199.113281 C 266.523438 197.890625 265.84375 197.421875 264.589844 197.421875 C 263.820312 197.417969 263.089844 197.609375 262.363281 197.824219 C 256.902344 199.421875 251.601562 201.457031 246.40625 203.769531 C 243.574219 205.03125 240.796875 206.398438 238.175781 208.070312 C 236.441406 209.175781 235.160156 210.558594 234.734375 212.628906 C 234.652344 213.03125 234.53125 213.363281 234.023438 213.519531 C 233.496094 213.683594 233.371094 214.167969 233.542969 214.707031 C 233.664062 215.085938 233.929688 215.355469 234.214844 215.605469 C 234.6875 216.011719 235.222656 216.328125 235.773438 216.613281 C 237.515625 217.515625 239.273438 218.390625 241 219.324219 C 242.917969 220.359375 244.683594 221.601562 246.167969 223.226562 C 247.804688 225.015625 249.152344 227 250.378906 229.085938 C 252.40625 232.527344 254.234375 236.085938 256.375 239.460938 C 257.226562 240.800781 258.089844 242.128906 259.101562 243.347656 C 260.636719 245.191406 262.714844 245.121094 264.152344 243.203125 C 264.695312 242.488281 265.144531 241.714844 265.496094 240.882812 C 266.003906 239.679688 266.480469 238.460938 266.894531 237.214844 C 267.761719 234.601562 268.582031 231.96875 269.539062 229.386719 C 270.496094 226.800781 271.050781 224.167969 271.015625 221.410156 C 271.003906 220.585938 271.011719 219.761719 270.917969 218.933594 Z M 118.367188 271.828125 C 117.453125 270.53125 116.523438 269.25 115.582031 267.972656 C 113.417969 265.03125 111.285156 262.070312 109.242188 259.042969 C 106.570312 255.089844 104.707031 250.765625 103.375 246.21875 C 101.730469 240.625 100.335938 234.972656 100.449219 229.074219 C 100.449219 228.9375 100.441406 228.796875 100.414062 228.660156 C 100.285156 228.0625 99.894531 227.925781 99.472656 228.355469 C 98.972656 228.875 98.539062 229.4375 98.277344 230.136719 C 96.839844 233.984375 96.179688 237.980469 95.921875 242.054688 C 95.902344 242.367188 95.898438 242.746094 96.132812 242.933594 C 96.683594 243.382812 96.671875 244.015625 96.828125 244.601562 C 97.015625 245.300781 97.167969 246.015625 97.417969 246.6875 C 97.886719 247.949219 98.40625 248.144531 99.65625 247.582031 C 99.925781 247.882812 99.96875 248.199219 100.046875 248.496094 C 100.980469 251.90625 102.390625 255.113281 104.15625 258.171875 C 105.144531 259.878906 106.230469 261.554688 107.78125 262.773438 C 108.65625 263.460938 109.296875 264.226562 109.796875 265.171875 C 109.894531 265.351562 109.996094 265.535156 110.109375 265.707031 C 111.085938 267.210938 112.0625 268.710938 113.378906 269.949219 C 114.402344 270.914062 115.445312 271.855469 116.449219 272.839844 C 117.136719 273.511719 117.804688 274.207031 118.609375 274.75 C 119.0625 275.058594 119.382812 274.898438 119.445312 274.347656 C 119.488281 273.957031 119.378906 273.585938 119.203125 273.25 C 118.949219 272.761719 118.683594 272.277344 118.367188 271.828125 Z M 118.367188 271.828125 " fill-opacity="1" fill-rule="nonzero"/><g clip-path="url(#d514ab7f56)"><path fill="#fff4e2" d="M 327.390625 148.5625 C 326.625 150.921875 325.558594 153.167969 324.410156 155.367188 C 323.566406 156.988281 322.632812 158.550781 321.582031 160.050781 C 319.816406 162.558594 317.496094 164.386719 314.875 165.917969 C 311.910156 167.652344 308.753906 168.917969 305.503906 169.960938 C 304.890625 170.15625 304.496094 170.496094 304.230469 171.0625 C 303.5625 172.5 302.832031 173.90625 302.199219 175.359375 C 301.253906 177.546875 299.667969 179.21875 297.90625 180.71875 C 294.941406 183.238281 291.871094 185.632812 288.722656 187.917969 C 285.714844 190.105469 282.910156 192.554688 279.9375 194.785156 C 278.28125 196.023438 276.578125 197.191406 274.890625 198.386719 C 272.785156 199.882812 270.6875 201.390625 268.5625 202.859375 C 266.515625 204.269531 264.371094 205.503906 262.023438 206.367188 C 257.242188 208.125 252.449219 209.863281 247.628906 211.519531 C 242.25 213.367188 236.890625 215.261719 231.40625 216.769531 C 227.21875 217.921875 222.976562 218.84375 218.699219 219.589844 C 215.953125 220.070312 213.199219 220.472656 210.414062 220.671875 C 207.394531 220.882812 204.375 221.089844 201.34375 221.054688 C 200.578125 221.046875 199.980469 221.308594 199.386719 221.804688 C 198.277344 222.734375 197.117188 223.601562 195.929688 224.425781 C 191.542969 227.472656 187.027344 230.320312 182.476562 233.109375 C 180.539062 234.296875 178.527344 235.363281 176.527344 236.441406 C 174.558594 237.5 172.578125 238.550781 170.5625 239.523438 C 167.644531 240.929688 164.6875 242.25 161.613281 243.285156 C 158.492188 244.332031 155.3125 245.054688 151.980469 244.839844 C 150.714844 244.789062 149.433594 244.980469 148.175781 244.660156 C 148.007812 244.617188 147.832031 244.601562 147.671875 244.542969 C 147.386719 244.4375 147.308594 244.253906 147.488281 243.980469 C 147.757812 243.570312 148.136719 243.410156 148.625 243.394531 C 152.617188 243.269531 156.472656 242.429688 160.234375 241.125 C 162.484375 240.347656 164.664062 239.402344 166.820312 238.40625 C 167.667969 238.015625 168.496094 237.59375 169.335938 237.195312 C 169.554688 237.089844 169.816406 237.003906 169.886719 236.757812 C 170.09375 236.054688 170.695312 235.765625 171.226562 235.390625 C 172.699219 234.355469 174.324219 233.589844 175.902344 232.753906 C 179.34375 230.925781 182.667969 228.902344 186.007812 226.910156 C 188.289062 225.550781 190.558594 224.183594 192.828125 222.8125 C 193.300781 222.527344 193.761719 222.226562 194.21875 221.914062 C 194.464844 221.746094 194.886719 221.625 194.839844 221.296875 C 194.777344 220.890625 194.316406 220.929688 193.988281 220.882812 C 193.753906 220.84375 193.507812 220.84375 193.269531 220.855469 C 190.820312 220.988281 188.382812 220.722656 185.945312 220.597656 C 183.617188 220.480469 181.28125 220.285156 178.953125 220.089844 C 176.417969 219.875 173.890625 219.585938 171.355469 219.378906 C 169.164062 219.195312 166.984375 218.855469 164.796875 218.628906 C 162.296875 218.367188 159.804688 218.078125 157.3125 217.773438 C 153.414062 217.304688 149.53125 216.738281 145.671875 216.027344 C 144.625 215.835938 143.664062 215.898438 142.660156 216.335938 C 136.523438 219.011719 130.191406 221.140625 123.742188 222.925781 C 116.9375 224.808594 110.042969 226.339844 103.167969 227.960938 C 102.46875 228.125 101.746094 228.257812 101.027344 228.292969 C 99.886719 228.347656 99.199219 228.929688 98.761719 229.9375 C 98.105469 231.4375 97.734375 233.003906 97.515625 234.613281 C 97.132812 237.417969 97.054688 240.238281 97.085938 243.066406 C 97.089844 243.496094 97.316406 244.222656 96.714844 244.273438 C 96.324219 244.304688 96.363281 243.558594 96.261719 243.136719 C 96.027344 242.152344 96.058594 241.152344 96.0625 240.152344 C 96.066406 239.578125 95.960938 239.160156 95.226562 239.132812 C 94.640625 239.109375 94.503906 238.597656 94.417969 238.089844 C 94.210938 236.863281 94.15625 235.625 94.210938 234.382812 C 94.25 233.460938 94.054688 232.632812 93.554688 231.835938 C 92.320312 229.867188 92.242188 227.710938 92.839844 225.554688 C 93.816406 222.027344 95.410156 218.8125 97.847656 216.03125 C 99.574219 214.066406 101.132812 211.953125 102.910156 210.039062 C 105.320312 207.445312 107.800781 204.914062 110.761719 202.890625 C 113.417969 201.082031 116.191406 199.484375 119.074219 198.09375 C 122.859375 196.273438 126.6875 194.546875 130.570312 192.929688 C 135.242188 190.984375 139.929688 189.070312 144.652344 187.238281 C 149.433594 185.378906 154.230469 183.554688 159.058594 181.808594 C 163.691406 180.136719 168.328125 178.464844 173.019531 176.964844 C 178.363281 175.25 183.707031 173.523438 189.089844 171.917969 C 191.960938 171.0625 194.839844 170.238281 197.71875 169.40625 C 198.636719 169.144531 198.804688 169.242188 198.957031 170.179688 C 199.09375 171.027344 199.027344 171.890625 199.21875 172.742188 C 199.824219 175.429688 200.863281 177.921875 202.347656 180.234375 C 202.878906 181.058594 203.597656 181.707031 204.308594 182.351562 C 204.722656 182.726562 205.242188 182.925781 205.804688 183 C 207.433594 183.214844 208.847656 183.851562 210.285156 184.695312 C 212.199219 185.824219 214.386719 186.449219 216.628906 186.714844 C 217.597656 186.832031 218.535156 186.625 219.464844 186.300781 C 220.960938 185.777344 222.484375 185.335938 223.992188 184.84375 C 225.980469 184.191406 227.746094 183.160156 229.320312 181.769531 C 231.847656 179.539062 234.40625 177.34375 236.949219 175.132812 C 239.871094 172.589844 242.511719 169.800781 244.652344 166.558594 C 245.992188 164.527344 246.96875 162.335938 247.671875 160.015625 C 247.691406 159.949219 247.71875 159.882812 247.726562 159.816406 C 247.882812 158.832031 248.441406 158.394531 249.441406 158.226562 C 252.5 157.71875 255.550781 157.160156 258.582031 156.53125 C 263.742188 155.464844 268.902344 154.390625 274.035156 153.191406 C 282.019531 151.332031 289.976562 149.355469 297.945312 147.421875 C 302.664062 146.273438 307.402344 145.191406 312.207031 144.464844 C 313.941406 144.207031 315.671875 143.917969 317.4375 143.898438 C 318.085938 143.890625 318.738281 143.691406 319.386719 143.722656 C 321.273438 143.808594 323.175781 143.820312 324.972656 144.542969 C 325.355469 144.695312 325.628906 144.644531 325.769531 144.199219 C 325.90625 143.765625 326.109375 143.265625 326.605469 143.269531 C 327.179688 143.273438 327.3125 143.871094 327.476562 144.304688 C 328.011719 145.726562 327.835938 147.1875 327.390625 148.5625 Z M 327.390625 148.5625 " fill-opacity="1" fill-rule="nonzero"/></g><g clip-path="url(#9505e9083e)"><path fill="#838b90" d="M 326.414062 142.542969 C 325.570312 141.617188 324.519531 141.085938 323.332031 140.75 C 320.972656 140.085938 318.542969 139.773438 316.136719 139.339844 C 312 138.597656 307.828125 138.074219 303.710938 137.238281 C 300.03125 136.488281 296.347656 135.773438 292.613281 135.34375 C 289.191406 134.949219 285.773438 134.550781 282.359375 134.113281 C 277.441406 133.484375 272.542969 132.738281 267.605469 132.257812 C 263.769531 131.882812 259.921875 131.621094 256.082031 131.304688 C 252.753906 131.035156 249.417969 130.882812 246.09375 130.609375 C 244.992188 130.519531 243.894531 130.472656 242.796875 130.382812 C 239.878906 130.148438 236.96875 129.835938 234.039062 129.835938 C 229.386719 129.839844 224.734375 129.8125 220.082031 129.863281 C 219.089844 129.871094 218.398438 129.566406 217.769531 128.816406 C 214.53125 124.964844 211.179688 121.210938 207.695312 117.589844 C 204.164062 113.914062 200.730469 110.140625 196.945312 106.710938 C 194.164062 104.191406 191.109375 102.101562 187.710938 100.515625 C 185.988281 99.710938 184.191406 99.085938 182.261719 99.035156 C 180.300781 98.980469 179.328125 99.699219 178.710938 101.539062 C 178.582031 101.933594 178.445312 102.328125 178.378906 102.734375 C 177.898438 105.660156 177.507812 108.59375 177.523438 111.570312 C 177.53125 113.1875 177.503906 114.808594 177.515625 116.429688 C 177.527344 118.40625 177.285156 120.351562 176.777344 122.257812 C 176.292969 124.070312 176.128906 125.917969 176.082031 127.78125 C 176.042969 129.46875 176.128906 131.164062 175.988281 132.84375 C 175.65625 136.75 174.503906 140.46875 173.300781 144.179688 C 172.804688 145.707031 171.933594 146.78125 170.640625 147.703125 C 166.914062 150.367188 163.226562 153.089844 159.726562 156.050781 C 154.804688 160.210938 149.796875 164.261719 144.703125 168.207031 C 139.5 172.238281 134.484375 176.496094 129.457031 180.742188 C 126.246094 183.453125 123.050781 186.179688 119.78125 188.820312 C 116.292969 191.632812 112.878906 194.527344 109.558594 197.53125 C 106.878906 199.960938 104.203125 202.398438 101.554688 204.859375 C 97.59375 208.542969 93.625 212.230469 90.582031 216.761719 C 90.285156 217.203125 89.957031 217.316406 89.445312 217.179688 C 88.214844 216.851562 86.96875 216.578125 85.734375 216.269531 C 79.917969 214.816406 74.074219 213.480469 68.289062 211.910156 C 64.964844 211.007812 61.640625 210.085938 58.226562 209.570312 C 56.523438 209.3125 54.820312 209.113281 53.097656 209.003906 C 51.515625 208.902344 49.933594 208.800781 48.351562 208.859375 C 47.753906 208.882812 47.125 208.996094 46.933594 209.675781 C 46.746094 210.328125 47.277344 210.679688 47.714844 211 C 48.578125 211.636719 49.53125 212.125 50.472656 212.628906 C 57.105469 216.167969 63.53125 220.058594 69.773438 224.242188 C 75.097656 227.816406 79.128906 232.53125 81.660156 238.484375 C 82.644531 240.800781 83.820312 243.03125 85.128906 245.183594 C 87.550781 249.15625 90.101562 253.046875 92.765625 256.863281 C 94.367188 259.15625 96.132812 261.324219 98.121094 263.285156 C 100.257812 265.390625 102.574219 267.289062 105.03125 269.023438 C 108.652344 271.582031 112.515625 273.679688 116.660156 275.257812 C 117.238281 275.476562 117.835938 275.648438 118.433594 275.808594 C 118.871094 275.921875 119.261719 275.789062 119.53125 275.414062 C 119.808594 275.023438 119.738281 274.613281 119.496094 274.25 C 119.207031 273.824219 118.882812 273.417969 118.550781 273.023438 C 117.53125 271.8125 116.472656 270.628906 115.476562 269.398438 C 113.113281 266.480469 110.761719 263.554688 108.4375 260.605469 C 105.53125 256.914062 102.855469 253.066406 100.785156 248.839844 C 98.625 244.4375 96.824219 239.882812 95.398438 235.195312 C 94.28125 231.53125 93.945312 227.769531 94.425781 223.949219 C 94.484375 223.484375 94.652344 223.089844 94.933594 222.730469 C 95.628906 221.828125 96.328125 220.933594 97.132812 220.125 C 101.003906 216.230469 105.414062 213.070312 110.289062 210.5625 C 114.066406 208.617188 118.03125 207.125 122.070312 205.828125 C 124.636719 205 127.09375 203.949219 129.464844 202.652344 C 131.914062 201.316406 134.3125 199.886719 136.84375 198.703125 C 139.253906 197.574219 141.753906 196.902344 144.441406 197.070312 C 145.929688 197.160156 147.367188 197.511719 148.800781 197.882812 C 150.40625 198.300781 152.027344 198.585938 153.695312 198.554688 C 154.8125 198.535156 155.886719 198.277344 156.953125 198.015625 C 158.53125 197.628906 160.023438 197.8125 161.476562 198.488281 C 161.695312 198.589844 161.917969 198.691406 162.140625 198.785156 C 164.035156 199.578125 165.992188 199.761719 168.011719 199.421875 C 170.054688 199.074219 171.894531 198.226562 173.664062 197.210938 C 174.847656 196.53125 176.085938 196.054688 177.425781 195.839844 C 178.976562 195.59375 180.429688 195.089844 181.804688 194.335938 C 182.378906 194.023438 182.96875 193.738281 183.558594 193.453125 C 185.101562 192.703125 186.722656 192.332031 188.445312 192.324219 C 189.972656 192.320312 191.457031 192.640625 192.960938 192.832031 C 195.097656 193.101562 197.167969 193.171875 198.839844 191.464844 C 198.855469 191.449219 198.902344 191.464844 199.015625 191.472656 C 198.929688 191.636719 198.875 191.789062 198.785156 191.917969 C 197.605469 193.550781 196.710938 195.332031 195.972656 197.195312 C 195.402344 198.632812 194.53125 199.851562 193.425781 200.921875 C 189.910156 204.316406 186.097656 207.289062 181.6875 209.453125 C 179.644531 210.453125 177.679688 211.597656 175.742188 212.796875 C 172.539062 214.777344 169.886719 217.367188 167.46875 220.21875 C 163.886719 224.453125 160.316406 228.695312 156.726562 232.925781 C 153.761719 236.417969 150.835938 239.945312 147.515625 243.117188 C 147.339844 243.285156 147.171875 243.457031 147.011719 243.640625 C 146.84375 243.835938 146.78125 244.0625 146.90625 244.308594 C 147.027344 244.554688 147.253906 244.648438 147.503906 244.621094 C 147.742188 244.597656 147.980469 244.539062 148.207031 244.464844 C 149.496094 244.066406 150.816406 243.828125 152.140625 243.609375 C 155.648438 243.027344 159.101562 242.214844 162.453125 241.027344 C 165.09375 240.09375 167.523438 238.714844 170.027344 237.476562 C 175.742188 234.644531 181.351562 231.625 186.710938 228.15625 C 190.414062 225.757812 194.109375 223.347656 197.476562 220.484375 C 199.574219 218.699219 201.628906 216.863281 203.707031 215.050781 C 204.539062 214.328125 205.410156 213.640625 206.105469 212.78125 C 206.734375 212 207.421875 211.273438 208.148438 210.589844 C 210.15625 208.691406 212.039062 206.683594 213.777344 204.539062 C 215.039062 202.976562 216.144531 201.328125 216.828125 199.410156 C 217.488281 197.554688 217.273438 195.976562 215.632812 194.710938 C 214.429688 193.78125 213.375 192.683594 212.3125 191.605469 C 210.839844 190.113281 209.238281 188.824219 207.15625 188.257812 C 207.898438 188.214844 208.625 188.179688 209.347656 188.222656 C 210.867188 188.3125 212.367188 188.503906 213.667969 189.421875 C 214.375 189.921875 214.941406 190.578125 215.570312 191.164062 C 216.25 191.800781 216.933594 192.433594 217.722656 192.929688 C 218.113281 193.175781 218.507812 193.335938 218.957031 192.976562 C 220.21875 191.964844 221.566406 191.046875 222.757812 189.957031 C 225.976562 187.003906 229.777344 185.660156 234.089844 185.738281 C 238.207031 185.8125 238.726562 185.503906 242.023438 183.214844 C 242.195312 183.097656 242.355469 182.96875 242.523438 182.84375 C 244.238281 181.570312 245.996094 180.351562 247.84375 179.277344 C 251.804688 176.972656 255.765625 174.671875 259.757812 172.417969 C 262.910156 170.640625 266.117188 168.96875 269.585938 167.859375 C 271.957031 167.101562 274.402344 166.695312 276.847656 166.269531 C 280.40625 165.65625 283.820312 164.644531 286.917969 162.71875 C 288.527344 161.71875 290.160156 160.753906 291.8125 159.824219 C 294.480469 158.316406 297.089844 156.695312 299.839844 155.332031 C 301.089844 154.714844 302.402344 154.296875 303.804688 154.292969 C 305.449219 154.289062 306.921875 153.820312 308.25 152.863281 C 308.699219 152.539062 309.164062 152.242188 309.617188 151.929688 C 313.375 149.332031 317.519531 148.355469 322.058594 148.789062 C 324.273438 149 325.925781 148.050781 326.882812 146.269531 C 327.558594 145.003906 327.371094 143.597656 326.414062 142.542969 Z M 213.882812 181.457031 C 213.304688 180.996094 213.023438 180.4375 212.722656 179.910156 C 211.3125 177.417969 210.5625 174.714844 210.1875 171.886719 C 209.929688 169.941406 210.09375 168.042969 210.667969 166.175781 C 210.789062 165.78125 210.933594 165.390625 211.226562 165.078125 C 211.351562 164.945312 211.507812 164.863281 211.6875 164.929688 C 211.863281 164.992188 211.949219 165.15625 211.941406 165.339844 C 211.917969 165.820312 211.859375 166.300781 211.855469 166.78125 C 211.828125 169.691406 212.21875 172.546875 212.925781 175.367188 C 213.34375 177.035156 213.824219 178.691406 213.988281 180.414062 C 214.019531 180.71875 214.117188 181.019531 213.882812 181.457031 Z M 213.382812 129.957031 C 212.722656 129.546875 212.050781 129.945312 211.359375 130.082031 C 211.023438 130.148438 210.675781 130.230469 210.335938 130.214844 C 208.078125 130.097656 205.898438 130.710938 203.679688 130.9375 C 199.777344 131.339844 196.207031 132.808594 192.671875 134.332031 C 190.472656 135.28125 188.378906 136.515625 186.453125 137.980469 C 186 138.324219 185.453125 138.433594 184.976562 138.714844 C 183.644531 139.503906 182.296875 140.265625 180.964844 141.058594 C 180.273438 141.472656 179.796875 142.125 179.289062 142.730469 C 178.914062 143.171875 178.507812 143.488281 177.898438 143.488281 C 177.304688 143.488281 176.863281 143.828125 176.460938 144.214844 C 176.0625 144.597656 175.6875 145 175.292969 145.386719 C 175.070312 145.605469 174.828125 145.796875 174.515625 145.878906 C 174.378906 145.914062 174.226562 145.894531 174.160156 145.757812 C 174.121094 145.675781 174.121094 145.542969 174.167969 145.464844 C 174.269531 145.289062 174.398438 145.125 174.53125 144.96875 C 177.839844 141.207031 180.375 136.964844 182.273438 132.34375 C 183.3125 129.820312 183.917969 127.167969 184.382812 124.476562 C 184.707031 122.574219 185.148438 120.695312 186.058594 118.964844 C 186.1875 118.71875 186.308594 118.46875 186.457031 118.238281 C 187.0625 117.3125 187.710938 117.085938 188.753906 117.441406 C 189.648438 117.746094 190.402344 118.273438 191.101562 118.90625 C 192.070312 119.792969 192.863281 120.839844 193.742188 121.808594 C 194.589844 122.746094 195.613281 123.300781 196.851562 123.492188 C 197.941406 123.664062 199.03125 123.816406 200.109375 124.042969 C 201.941406 124.429688 203.621094 125.25 205.316406 126.011719 C 207.078125 126.804688 208.898438 127.441406 210.71875 128.074219 C 211.691406 128.410156 212.660156 128.773438 213.625 129.132812 C 213.84375 129.214844 214.136719 129.289062 214.089844 129.597656 C 214.039062 129.953125 213.734375 129.964844 213.382812 129.957031 Z M 223.382812 156.402344 C 222.355469 159.628906 221.652344 162.921875 221.246094 166.28125 C 221.101562 167.476562 221.003906 168.679688 220.929688 169.878906 C 220.785156 172.285156 220.746094 174.695312 220.679688 177.105469 C 220.644531 178.429688 220.558594 179.773438 220.210938 181.082031 C 219.824219 181.070312 219.828125 180.777344 219.777344 180.570312 C 219.347656 178.757812 219.046875 176.925781 218.882812 175.070312 C 218.671875 172.628906 218.671875 170.191406 218.886719 167.75 C 219.21875 164.011719 219.976562 160.390625 221.8125 157.070312 C 222.242188 156.292969 222.710938 155.535156 223.535156 154.855469 C 223.746094 155.511719 223.523438 155.960938 223.382812 156.402344 Z M 235.832031 150.625 C 235.800781 150.757812 235.730469 150.882812 235.675781 151.007812 C 232.824219 157.484375 230.945312 164.238281 230.078125 171.261719 C 229.820312 173.347656 229.566406 175.429688 229.164062 177.496094 C 229.082031 177.917969 228.960938 178.335938 228.859375 178.757812 C 228.390625 178.148438 228.351562 177.496094 228.238281 176.871094 C 227.277344 171.589844 228.023438 166.4375 229.449219 161.347656 C 230.203125 158.65625 231.179688 156.039062 232.46875 153.550781 C 233.007812 152.507812 233.625 151.511719 234.511719 150.714844 C 234.769531 150.484375 235.039062 150.265625 235.386719 150.183594 C 235.746094 150.105469 235.925781 150.28125 235.832031 150.625 Z M 235.832031 150.625 " fill-opacity="1" fill-rule="nonzero"/></g><path fill="#394851" d="M 304.683594 169.328125 C 304.285156 169.125 303.867188 168.953125 303.441406 168.824219 C 299.003906 167.472656 294.484375 166.628906 289.835938 166.585938 C 286.496094 166.519531 283.242188 167.039062 280.039062 167.925781 C 274.773438 169.378906 270.121094 172.007812 265.882812 175.40625 C 264.707031 176.351562 263.5 177.285156 262.535156 178.46875 C 262.316406 178.734375 262.089844 178.996094 261.984375 179.335938 C 261.910156 179.585938 261.910156 179.820312 262.144531 179.984375 C 262.34375 180.121094 262.550781 180.058594 262.71875 179.925781 C 262.933594 179.757812 263.136719 179.570312 263.332031 179.375 C 263.746094 178.960938 264.175781 178.566406 264.640625 178.207031 C 267.660156 175.890625 271.117188 174.433594 274.65625 173.152344 C 278.40625 171.796875 282.347656 171.671875 286.269531 171.488281 C 288.644531 171.382812 291.019531 171.535156 293.375 171.867188 C 296.542969 172.316406 299.75 172.507812 302.886719 173.171875 C 303.363281 173.273438 303.675781 173.164062 303.933594 172.765625 C 304.40625 172.039062 304.808594 171.277344 305.140625 170.480469 C 305.398438 169.859375 305.308594 169.652344 304.683594 169.328125 Z M 284.105469 168.777344 C 284.761719 169.011719 285.1875 169.46875 285.625 169.992188 C 284.191406 170.34375 283.953125 170.15625 284.105469 168.777344 Z M 288.097656 170.03125 C 287.980469 170.175781 287.789062 170.152344 287.617188 170.140625 C 287.308594 170.121094 287.085938 169.960938 287.019531 169.664062 C 286.921875 169.238281 286.753906 168.816406 286.828125 168.160156 C 287.398438 168.675781 287.734375 169.101562 288.035156 169.558594 C 288.132812 169.703125 288.226562 169.871094 288.097656 170.03125 Z M 290.621094 170.328125 C 290.207031 170.492188 289.695312 170.277344 289.660156 169.882812 C 289.613281 169.347656 289.648438 168.804688 289.648438 168.265625 C 289.726562 168.234375 289.800781 168.203125 289.878906 168.171875 C 290.164062 168.664062 290.460938 169.148438 290.722656 169.648438 C 290.835938 169.875 291.023438 170.167969 290.621094 170.328125 Z M 295.46875 170.898438 C 295.136719 171.027344 294.78125 171.003906 294.480469 170.796875 C 294.308594 170.679688 294.371094 170.492188 294.460938 170.335938 C 294.683594 169.960938 294.871094 169.554688 295.242188 169.199219 C 295.546875 169.585938 295.53125 169.949219 295.621094 170.273438 C 295.6875 170.503906 295.765625 170.78125 295.46875 170.898438 Z M 298.40625 171.417969 C 298.269531 171.410156 298.132812 171.398438 297.996094 171.382812 C 297.117188 171.289062 297.003906 171.089844 297.464844 170.375 C 297.734375 169.953125 297.953125 169.476562 298.488281 169.105469 C 298.714844 169.765625 298.773438 170.367188 298.828125 170.972656 C 298.851562 171.257812 298.714844 171.433594 298.40625 171.417969 Z M 301.089844 171.34375 C 301.039062 171.753906 300.738281 171.839844 300.40625 171.738281 C 299.980469 171.613281 300.148438 171.324219 300.292969 171.085938 C 300.550781 170.660156 300.703125 170.160156 301.242188 169.664062 C 301.183594 170.351562 301.152344 170.847656 301.089844 171.34375 Z M 217.964844 202.609375 C 217.035156 204.945312 215.636719 206.992188 214.097656 208.9375 C 212.152344 211.398438 210.039062 213.71875 207.785156 215.902344 C 205.878906 217.75 203.835938 219.441406 201.667969 220.976562 C 200.484375 221.8125 199.464844 222.855469 198.246094 223.640625 C 197.75 223.960938 197.265625 224.285156 196.710938 224.484375 C 196.515625 224.554688 196.292969 224.648438 196.15625 224.425781 C 196.054688 224.261719 196.171875 224.09375 196.277344 223.957031 C 196.609375 223.511719 197.015625 223.136719 197.453125 222.800781 C 198.515625 221.976562 199.5625 221.136719 200.652344 220.351562 C 203.808594 218.078125 206.4375 215.25 209.074219 212.433594 C 210.464844 210.953125 211.921875 209.527344 213.128906 207.882812 C 214.546875 205.949219 215.65625 203.859375 216.355469 201.5625 C 216.746094 200.265625 216.902344 198.941406 216.566406 197.585938 C 216.296875 196.496094 215.792969 195.574219 214.8125 195.015625 C 213.433594 194.230469 212.371094 193.105469 211.386719 191.910156 C 209.882812 190.074219 207.957031 189.21875 205.167969 189.195312 C 203.765625 189.082031 202.164062 189.695312 200.730469 190.832031 C 200.355469 191.132812 199.964844 191.417969 199.566406 191.6875 C 199.335938 191.839844 199.058594 192 198.804688 191.789062 C 198.492188 191.535156 198.65625 191.210938 198.796875 190.9375 C 199.277344 190 199.9375 189.191406 200.871094 188.695312 C 203.625 187.230469 206.40625 186.96875 209.257812 188.492188 C 210.898438 189.371094 212.1875 190.65625 213.554688 191.859375 C 213.996094 192.246094 214.410156 192.671875 214.921875 192.957031 C 217.992188 194.648438 219.308594 199.238281 217.964844 202.609375 Z M 204.894531 131.6875 C 201.652344 131.984375 198.632812 133 195.746094 134.425781 C 190.03125 137.25 184.398438 140.21875 178.996094 143.621094 C 175.675781 145.714844 172.253906 147.644531 168.875 149.644531 C 168.558594 149.832031 168.257812 150.078125 167.785156 150.050781 C 167.722656 149.597656 168.015625 149.480469 168.214844 149.3125 C 169.171875 148.515625 170.195312 147.820312 171.234375 147.136719 C 174.945312 144.699219 178.652344 142.246094 182.386719 139.839844 C 185.515625 137.824219 188.628906 135.785156 191.941406 134.070312 C 195.429688 132.265625 199.078125 130.953125 202.996094 130.53125 C 205.765625 130.234375 208.523438 129.820312 211.300781 129.558594 C 213.296875 129.371094 215.292969 129.511719 217.285156 129.347656 C 217.699219 129.3125 218.414062 129.203125 218.449219 129.679688 C 218.488281 130.289062 217.777344 130.058594 217.386719 130.089844 C 216.007812 130.203125 214.667969 130.53125 213.304688 130.707031 C 210.503906 131.066406 207.703125 131.429688 204.894531 131.6875 Z M 228.511719 169.046875 C 228.230469 171.230469 228.183594 173.441406 228.816406 175.609375 C 229.171875 176.832031 229.4375 178.082031 229.746094 179.320312 C 229.828125 179.65625 229.886719 179.996094 229.828125 180.339844 C 229.792969 180.550781 229.71875 180.753906 229.496094 180.820312 C 229.273438 180.886719 229.097656 180.757812 228.949219 180.609375 C 228.644531 180.3125 228.449219 179.945312 228.316406 179.554688 C 227.4375 177.003906 226.742188 174.417969 226.714844 171.75 C 226.816406 168.332031 227.53125 165.070312 228.230469 161.800781 C 228.769531 159.296875 229.554688 156.878906 230.769531 154.617188 C 231.476562 153.308594 232.304688 152.082031 233.363281 151.027344 C 233.828125 150.558594 234.351562 150.164062 234.972656 149.929688 C 235.285156 149.8125 235.667969 149.652344 235.90625 150.027344 C 236.121094 150.363281 235.828125 150.597656 235.632812 150.835938 C 235.609375 150.859375 235.585938 150.886719 235.558594 150.910156 C 232.601562 153.589844 231.179688 157.121094 230.171875 160.851562 C 229.445312 163.542969 228.867188 166.28125 228.511719 169.046875 Z M 267.585938 203.726562 C 267.691406 203.898438 267.574219 204.074219 267.457031 204.191406 C 266.628906 205.027344 265.714844 205.746094 264.6875 206.324219 C 260.792969 208.507812 256.648438 210.066406 252.386719 211.363281 C 247.25 212.921875 242.046875 214.25 236.886719 215.714844 C 236.390625 215.855469 235.902344 216.011719 235.472656 216.144531 C 235.238281 216.105469 235.019531 216.148438 234.988281 215.921875 C 234.953125 215.652344 235.199219 215.582031 235.378906 215.515625 C 237 214.945312 238.542969 214.164062 240.195312 213.671875 C 243.527344 212.683594 246.824219 211.578125 250.0625 210.3125 C 252.375 209.410156 254.78125 208.808594 257.121094 207.988281 C 259.75 207.058594 262.378906 206.128906 264.867188 204.863281 C 265.605469 204.488281 266.316406 204.066406 267.042969 203.675781 C 267.222656 203.582031 267.445312 203.492188 267.585938 203.726562 Z M 223.78125 155.199219 C 223.625 155.507812 223.445312 155.800781 223.261719 156.09375 C 220.851562 159.992188 219.726562 164.25 219.464844 168.808594 C 219.289062 171.925781 219.480469 174.996094 219.925781 178.066406 C 220.050781 178.921875 220.296875 179.746094 220.523438 180.574219 C 220.632812 180.972656 220.734375 181.375 220.804688 181.78125 C 220.863281 182.117188 220.941406 182.554688 220.566406 182.699219 C 220.113281 182.875 219.914062 182.425781 219.722656 182.113281 C 219.558594 181.851562 219.445312 181.558594 219.324219 181.277344 C 218.523438 179.453125 218.324219 177.492188 218.039062 175.550781 C 217.796875 173.878906 217.753906 172.191406 217.792969 170.238281 C 217.640625 166.371094 218.445312 162.425781 220.117188 158.652344 C 220.71875 157.289062 221.480469 156.023438 222.542969 154.960938 C 222.6875 154.816406 222.832031 154.664062 222.992188 154.535156 C 223.207031 154.363281 223.449219 154.160156 223.730469 154.363281 C 224.058594 154.601562 223.917969 154.921875 223.78125 155.199219 Z M 211.757812 166.398438 C 210.511719 169.980469 210.65625 173.574219 211.707031 177.164062 C 212.089844 178.480469 212.863281 179.578125 213.703125 180.636719 C 214.132812 181.175781 214.597656 181.691406 214.832031 182.355469 C 214.890625 182.519531 214.949219 182.691406 214.8125 182.839844 C 214.675781 182.996094 214.5 182.949219 214.335938 182.894531 C 213.835938 182.726562 213.433594 182.40625 213.039062 182.066406 C 210.769531 180.089844 209.652344 177.515625 209.136719 174.617188 C 208.945312 173.527344 208.886719 172.429688 208.902344 171.164062 C 208.808594 169.539062 209.058594 167.816406 209.824219 166.1875 C 210.105469 165.589844 210.433594 165.027344 210.898438 164.558594 C 211.125 164.332031 211.390625 164.144531 211.726562 164.304688 C 212.058594 164.460938 212.09375 164.777344 212.082031 165.097656 C 212.0625 165.554688 211.90625 165.976562 211.757812 166.398438 Z M 287.519531 147.777344 C 286.820312 146.625 286.730469 145.453125 287.476562 144.289062 C 288.15625 143.226562 289.351562 142.621094 290.617188 142.636719 C 291.3125 142.632812 291.886719 142.914062 292.332031 143.433594 C 293.164062 144.40625 293.363281 145.507812 292.90625 146.699219 C 292.4375 147.917969 291.648438 148.847656 290.304688 149.089844 C 289.101562 149.308594 288.160156 148.824219 287.519531 147.777344 Z M 311.121094 154.164062 C 309.929688 154.585938 308.753906 155.054688 307.574219 155.507812 C 307.480469 155.542969 307.371094 155.53125 307.292969 155.539062 C 306.914062 155.542969 306.546875 155.515625 306.386719 155.148438 C 306.199219 154.722656 306.4375 154.390625 306.773438 154.1875 C 307.488281 153.761719 308.078125 153.191406 308.703125 152.65625 C 309.019531 152.390625 309.378906 152.183594 309.789062 152.09375 C 310.425781 151.953125 311.085938 152.191406 311.429688 152.6875 C 311.816406 153.238281 311.738281 153.949219 311.121094 154.164062 Z M 311.121094 154.164062 " fill-opacity="1" fill-rule="nonzero"/></svg>