<svg xmlns="http://www.w3.org/2000/svg" xmlns:xlink="http://www.w3.org/1999/xlink" width="500" zoomAndPan="magnify" viewBox="0 0 375 374.999991" height="500" preserveAspectRatio="xMidYMid meet" version="1.0"><defs><clipPath id="ab0ddba818"><path d="M 142 151 L 243 151 L 243 253.535156 L 142 253.535156 Z M 142 151 " clip-rule="nonzero"/></clipPath><clipPath id="128c6430cc"><path d="M 150 147 L 262.109375 147 L 262.109375 240 L 150 240 Z M 150 147 " clip-rule="nonzero"/></clipPath><clipPath id="cbce280d41"><path d="M 126 127 L 181.621094 127 L 181.621094 176 L 126 176 Z M 126 127 " clip-rule="nonzero"/></clipPath><clipPath id="df21733424"><path d="M 118.027344 169.777344 C 112.882812 160.652344 115.179688 148.539062 120.953125 139.800781 C 126.722656 131.066406 136.464844 125.273438 146.761719 123.402344 C 157.054688 121.53125 167.851562 123.351562 177.40625 127.636719 C 178.769531 128.25 180.183594 128.96875 180.984375 130.234375 C 181.785156 131.5 181.679688 133.453125 180.386719 134.207031 C 179.023438 135.003906 177.144531 134.128906 175.777344 134.90625 C 174.128906 135.835938 174.335938 138.371094 173.058594 139.769531 C 170.8125 142.230469 166.097656 139.5 163.582031 141.6875 C 162.226562 142.863281 162.085938 145.082031 160.628906 146.128906 C 158.527344 147.644531 155.292969 145.714844 153.074219 147.054688 C 150.625 148.519531 151.246094 152.816406 148.777344 154.242188 C 146.585938 155.519531 143.035156 153.75 141.554688 155.828125 C 140.417969 157.433594 141.710938 160.023438 140.382812 161.464844 C 139.578125 162.335938 138.230469 162.320312 137.09375 162.671875 C 135.175781 163.277344 132.054688 164.214844 130.882812 165.835938 C 129.300781 168.003906 130.152344 172.027344 128.578125 174.195312 C 127.484375 175.703125 126.445312 176.128906 123.964844 176.128906 C 121.136719 176.121094 119.125 171.703125 118.027344 169.777344 Z M 118.027344 169.777344 " clip-rule="nonzero"/></clipPath><clipPath id="19a1210bc4"><path d="M 119 169 L 131 169 L 131 176.4375 L 119 176.4375 Z M 119 169 " clip-rule="nonzero"/></clipPath><clipPath id="1d2abe8863"><path d="M 118.027344 169.777344 C 112.882812 160.652344 115.179688 148.539062 120.953125 139.800781 C 126.722656 131.066406 136.464844 125.273438 146.761719 123.402344 C 157.054688 121.53125 167.851562 123.351562 177.40625 127.636719 C 178.769531 128.25 180.183594 128.96875 180.984375 130.234375 C 181.785156 131.5 181.679688 133.453125 180.386719 134.207031 C 179.023438 135.003906 177.144531 134.128906 175.777344 134.90625 C 174.128906 135.835938 174.335938 138.371094 173.058594 139.769531 C 170.8125 142.230469 166.097656 139.5 163.582031 141.6875 C 162.226562 142.863281 162.085938 145.082031 160.628906 146.128906 C 158.527344 147.644531 155.292969 145.714844 153.074219 147.054688 C 150.625 148.519531 151.246094 152.816406 148.777344 154.242188 C 146.585938 155.519531 143.035156 153.75 141.554688 155.828125 C 140.417969 157.433594 141.710938 160.023438 140.382812 161.464844 C 139.578125 162.335938 138.230469 162.320312 137.09375 162.671875 C 135.175781 163.277344 132.054688 164.214844 130.882812 165.835938 C 129.300781 168.003906 130.152344 172.027344 128.578125 174.195312 C 127.484375 175.703125 126.445312 176.128906 123.964844 176.128906 C 121.136719 176.121094 119.125 171.703125 118.027344 169.777344 Z M 118.027344 169.777344 " clip-rule="nonzero"/></clipPath><clipPath id="16d10519e9"><path d="M 145 151 L 152 151 L 152 157 L 145 157 Z M 145 151 " clip-rule="nonzero"/></clipPath><clipPath id="1ff02f824a"><path d="M 118.027344 169.777344 C 112.882812 160.652344 115.179688 148.539062 120.953125 139.800781 C 126.722656 131.066406 136.464844 125.273438 146.761719 123.402344 C 157.054688 121.53125 167.851562 123.351562 177.40625 127.636719 C 178.769531 128.25 180.183594 128.96875 180.984375 130.234375 C 181.785156 131.5 181.679688 133.453125 180.386719 134.207031 C 179.023438 135.003906 177.144531 134.128906 175.777344 134.90625 C 174.128906 135.835938 174.335938 138.371094 173.058594 139.769531 C 170.8125 142.230469 166.097656 139.5 163.582031 141.6875 C 162.226562 142.863281 162.085938 145.082031 160.628906 146.128906 C 158.527344 147.644531 155.292969 145.714844 153.074219 147.054688 C 150.625 148.519531 151.246094 152.816406 148.777344 154.242188 C 146.585938 155.519531 143.035156 153.75 141.554688 155.828125 C 140.417969 157.433594 141.710938 160.023438 140.382812 161.464844 C 139.578125 162.335938 138.230469 162.320312 137.09375 162.671875 C 135.175781 163.277344 132.054688 164.214844 130.882812 165.835938 C 129.300781 168.003906 130.152344 172.027344 128.578125 174.195312 C 127.484375 175.703125 126.445312 176.128906 123.964844 176.128906 C 121.136719 176.121094 119.125 171.703125 118.027344 169.777344 Z M 118.027344 169.777344 " clip-rule="nonzero"/></clipPath><clipPath id="5a9b4879cd"><path d="M 116 165 L 131 165 L 131 176.4375 L 116 176.4375 Z M 116 165 " clip-rule="nonzero"/></clipPath><clipPath id="cd4a0e05ec"><path d="M 118.027344 169.777344 C 112.882812 160.652344 115.179688 148.539062 120.953125 139.800781 C 126.722656 131.066406 136.464844 125.273438 146.761719 123.402344 C 157.054688 121.53125 167.851562 123.351562 177.40625 127.636719 C 178.769531 128.25 180.183594 128.96875 180.984375 130.234375 C 181.785156 131.5 181.679688 133.453125 180.386719 134.207031 C 179.023438 135.003906 177.144531 134.128906 175.777344 134.90625 C 174.128906 135.835938 174.335938 138.371094 173.058594 139.769531 C 170.8125 142.230469 166.097656 139.5 163.582031 141.6875 C 162.226562 142.863281 162.085938 145.082031 160.628906 146.128906 C 158.527344 147.644531 155.292969 145.714844 153.074219 147.054688 C 150.625 148.519531 151.246094 152.816406 148.777344 154.242188 C 146.585938 155.519531 143.035156 153.75 141.554688 155.828125 C 140.417969 157.433594 141.710938 160.023438 140.382812 161.464844 C 139.578125 162.335938 138.230469 162.320312 137.09375 162.671875 C 135.175781 163.277344 132.054688 164.214844 130.882812 165.835938 C 129.300781 168.003906 130.152344 172.027344 128.578125 174.195312 C 127.484375 175.703125 126.445312 176.128906 123.964844 176.128906 C 121.136719 176.121094 119.125 171.703125 118.027344 169.777344 Z M 118.027344 169.777344 " clip-rule="nonzero"/></clipPath><clipPath id="ef2737abbb"><path d="M 118 133 L 122 133 L 122 164 L 118 164 Z M 118 133 " clip-rule="nonzero"/></clipPath><clipPath id="4e3b3bfe31"><path d="M 118.027344 169.777344 C 112.882812 160.652344 115.179688 148.539062 120.953125 139.800781 C 126.722656 131.066406 136.464844 125.273438 146.761719 123.402344 C 157.054688 121.53125 167.851562 123.351562 177.40625 127.636719 C 178.769531 128.25 180.183594 128.96875 180.984375 130.234375 C 181.785156 131.5 181.679688 133.453125 180.386719 134.207031 C 179.023438 135.003906 177.144531 134.128906 175.777344 134.90625 C 174.128906 135.835938 174.335938 138.371094 173.058594 139.769531 C 170.8125 142.230469 166.097656 139.5 163.582031 141.6875 C 162.226562 142.863281 162.085938 145.082031 160.628906 146.128906 C 158.527344 147.644531 155.292969 145.714844 153.074219 147.054688 C 150.625 148.519531 151.246094 152.816406 148.777344 154.242188 C 146.585938 155.519531 143.035156 153.75 141.554688 155.828125 C 140.417969 157.433594 141.710938 160.023438 140.382812 161.464844 C 139.578125 162.335938 138.230469 162.320312 137.09375 162.671875 C 135.175781 163.277344 132.054688 164.214844 130.882812 165.835938 C 129.300781 168.003906 130.152344 172.027344 128.578125 174.195312 C 127.484375 175.703125 126.445312 176.128906 123.964844 176.128906 C 121.136719 176.121094 119.125 171.703125 118.027344 169.777344 Z M 118.027344 169.777344 " clip-rule="nonzero"/></clipPath><clipPath id="9ecda2eccf"><path d="M 124 128 L 137 128 L 137 151 L 124 151 Z M 124 128 " clip-rule="nonzero"/></clipPath><clipPath id="e754d52727"><path d="M 118.027344 169.777344 C 112.882812 160.652344 115.179688 148.539062 120.953125 139.800781 C 126.722656 131.066406 136.464844 125.273438 146.761719 123.402344 C 157.054688 121.53125 167.851562 123.351562 177.40625 127.636719 C 178.769531 128.25 180.183594 128.96875 180.984375 130.234375 C 181.785156 131.5 181.679688 133.453125 180.386719 134.207031 C 179.023438 135.003906 177.144531 134.128906 175.777344 134.90625 C 174.128906 135.835938 174.335938 138.371094 173.058594 139.769531 C 170.8125 142.230469 166.097656 139.5 163.582031 141.6875 C 162.226562 142.863281 162.085938 145.082031 160.628906 146.128906 C 158.527344 147.644531 155.292969 145.714844 153.074219 147.054688 C 150.625 148.519531 151.246094 152.816406 148.777344 154.242188 C 146.585938 155.519531 143.035156 153.75 141.554688 155.828125 C 140.417969 157.433594 141.710938 160.023438 140.382812 161.464844 C 139.578125 162.335938 138.230469 162.320312 137.09375 162.671875 C 135.175781 163.277344 132.054688 164.214844 130.882812 165.835938 C 129.300781 168.003906 130.152344 172.027344 128.578125 174.195312 C 127.484375 175.703125 126.445312 176.128906 123.964844 176.128906 C 121.136719 176.121094 119.125 171.703125 118.027344 169.777344 Z M 118.027344 169.777344 " clip-rule="nonzero"/></clipPath><clipPath id="3a270f1688"><path d="M 132 124 L 156 124 L 156 139 L 132 139 Z M 132 124 " clip-rule="nonzero"/></clipPath><clipPath id="1eb367e2ac"><path d="M 118.027344 169.777344 C 112.882812 160.652344 115.179688 148.539062 120.953125 139.800781 C 126.722656 131.066406 136.464844 125.273438 146.761719 123.402344 C 157.054688 121.53125 167.851562 123.351562 177.40625 127.636719 C 178.769531 128.25 180.183594 128.96875 180.984375 130.234375 C 181.785156 131.5 181.679688 133.453125 180.386719 134.207031 C 179.023438 135.003906 177.144531 134.128906 175.777344 134.90625 C 174.128906 135.835938 174.335938 138.371094 173.058594 139.769531 C 170.8125 142.230469 166.097656 139.5 163.582031 141.6875 C 162.226562 142.863281 162.085938 145.082031 160.628906 146.128906 C 158.527344 147.644531 155.292969 145.714844 153.074219 147.054688 C 150.625 148.519531 151.246094 152.816406 148.777344 154.242188 C 146.585938 155.519531 143.035156 153.75 141.554688 155.828125 C 140.417969 157.433594 141.710938 160.023438 140.382812 161.464844 C 139.578125 162.335938 138.230469 162.320312 137.09375 162.671875 C 135.175781 163.277344 132.054688 164.214844 130.882812 165.835938 C 129.300781 168.003906 130.152344 172.027344 128.578125 174.195312 C 127.484375 175.703125 126.445312 176.128906 123.964844 176.128906 C 121.136719 176.121094 119.125 171.703125 118.027344 169.777344 Z M 118.027344 169.777344 " clip-rule="nonzero"/></clipPath><clipPath id="205a975b9e"><path d="M 141 122.304688 L 166 122.304688 L 166 132 L 141 132 Z M 141 122.304688 " clip-rule="nonzero"/></clipPath><clipPath id="2eba1b7f36"><path d="M 118.027344 169.777344 C 112.882812 160.652344 115.179688 148.539062 120.953125 139.800781 C 126.722656 131.066406 136.464844 125.273438 146.761719 123.402344 C 157.054688 121.53125 167.851562 123.351562 177.40625 127.636719 C 178.769531 128.25 180.183594 128.96875 180.984375 130.234375 C 181.785156 131.5 181.679688 133.453125 180.386719 134.207031 C 179.023438 135.003906 177.144531 134.128906 175.777344 134.90625 C 174.128906 135.835938 174.335938 138.371094 173.058594 139.769531 C 170.8125 142.230469 166.097656 139.5 163.582031 141.6875 C 162.226562 142.863281 162.085938 145.082031 160.628906 146.128906 C 158.527344 147.644531 155.292969 145.714844 153.074219 147.054688 C 150.625 148.519531 151.246094 152.816406 148.777344 154.242188 C 146.585938 155.519531 143.035156 153.75 141.554688 155.828125 C 140.417969 157.433594 141.710938 160.023438 140.382812 161.464844 C 139.578125 162.335938 138.230469 162.320312 137.09375 162.671875 C 135.175781 163.277344 132.054688 164.214844 130.882812 165.835938 C 129.300781 168.003906 130.152344 172.027344 128.578125 174.195312 C 127.484375 175.703125 126.445312 176.128906 123.964844 176.128906 C 121.136719 176.121094 119.125 171.703125 118.027344 169.777344 Z M 118.027344 169.777344 " clip-rule="nonzero"/></clipPath><clipPath id="e104ce23be"><path d="M 131 127 L 138 127 L 138 139 L 131 139 Z M 131 127 " clip-rule="nonzero"/></clipPath><clipPath id="2df8f68e3a"><path d="M 118.027344 169.777344 C 112.882812 160.652344 115.179688 148.539062 120.953125 139.800781 C 126.722656 131.066406 136.464844 125.273438 146.761719 123.402344 C 157.054688 121.53125 167.851562 123.351562 177.40625 127.636719 C 178.769531 128.25 180.183594 128.96875 180.984375 130.234375 C 181.785156 131.5 181.679688 133.453125 180.386719 134.207031 C 179.023438 135.003906 177.144531 134.128906 175.777344 134.90625 C 174.128906 135.835938 174.335938 138.371094 173.058594 139.769531 C 170.8125 142.230469 166.097656 139.5 163.582031 141.6875 C 162.226562 142.863281 162.085938 145.082031 160.628906 146.128906 C 158.527344 147.644531 155.292969 145.714844 153.074219 147.054688 C 150.625 148.519531 151.246094 152.816406 148.777344 154.242188 C 146.585938 155.519531 143.035156 153.75 141.554688 155.828125 C 140.417969 157.433594 141.710938 160.023438 140.382812 161.464844 C 139.578125 162.335938 138.230469 162.320312 137.09375 162.671875 C 135.175781 163.277344 132.054688 164.214844 130.882812 165.835938 C 129.300781 168.003906 130.152344 172.027344 128.578125 174.195312 C 127.484375 175.703125 126.445312 176.128906 123.964844 176.128906 C 121.136719 176.121094 119.125 171.703125 118.027344 169.777344 Z M 118.027344 169.777344 " clip-rule="nonzero"/></clipPath><clipPath id="65db94c698"><path d="M 123 134 L 128 134 L 128 150 L 123 150 Z M 123 134 " clip-rule="nonzero"/></clipPath><clipPath id="887d02e7a6"><path d="M 118.027344 169.777344 C 112.882812 160.652344 115.179688 148.539062 120.953125 139.800781 C 126.722656 131.066406 136.464844 125.273438 146.761719 123.402344 C 157.054688 121.53125 167.851562 123.351562 177.40625 127.636719 C 178.769531 128.25 180.183594 128.96875 180.984375 130.234375 C 181.785156 131.5 181.679688 133.453125 180.386719 134.207031 C 179.023438 135.003906 177.144531 134.128906 175.777344 134.90625 C 174.128906 135.835938 174.335938 138.371094 173.058594 139.769531 C 170.8125 142.230469 166.097656 139.5 163.582031 141.6875 C 162.226562 142.863281 162.085938 145.082031 160.628906 146.128906 C 158.527344 147.644531 155.292969 145.714844 153.074219 147.054688 C 150.625 148.519531 151.246094 152.816406 148.777344 154.242188 C 146.585938 155.519531 143.035156 153.75 141.554688 155.828125 C 140.417969 157.433594 141.710938 160.023438 140.382812 161.464844 C 139.578125 162.335938 138.230469 162.320312 137.09375 162.671875 C 135.175781 163.277344 132.054688 164.214844 130.882812 165.835938 C 129.300781 168.003906 130.152344 172.027344 128.578125 174.195312 C 127.484375 175.703125 126.445312 176.128906 123.964844 176.128906 C 121.136719 176.121094 119.125 171.703125 118.027344 169.777344 Z M 118.027344 169.777344 " clip-rule="nonzero"/></clipPath><clipPath id="110300cb20"><path d="M 139 124 L 153 124 L 153 131 L 139 131 Z M 139 124 " clip-rule="nonzero"/></clipPath><clipPath id="3048923c09"><path d="M 118.027344 169.777344 C 112.882812 160.652344 115.179688 148.539062 120.953125 139.800781 C 126.722656 131.066406 136.464844 125.273438 146.761719 123.402344 C 157.054688 121.53125 167.851562 123.351562 177.40625 127.636719 C 178.769531 128.25 180.183594 128.96875 180.984375 130.234375 C 181.785156 131.5 181.679688 133.453125 180.386719 134.207031 C 179.023438 135.003906 177.144531 134.128906 175.777344 134.90625 C 174.128906 135.835938 174.335938 138.371094 173.058594 139.769531 C 170.8125 142.230469 166.097656 139.5 163.582031 141.6875 C 162.226562 142.863281 162.085938 145.082031 160.628906 146.128906 C 158.527344 147.644531 155.292969 145.714844 153.074219 147.054688 C 150.625 148.519531 151.246094 152.816406 148.777344 154.242188 C 146.585938 155.519531 143.035156 153.75 141.554688 155.828125 C 140.417969 157.433594 141.710938 160.023438 140.382812 161.464844 C 139.578125 162.335938 138.230469 162.320312 137.09375 162.671875 C 135.175781 163.277344 132.054688 164.214844 130.882812 165.835938 C 129.300781 168.003906 130.152344 172.027344 128.578125 174.195312 C 127.484375 175.703125 126.445312 176.128906 123.964844 176.128906 C 121.136719 176.121094 119.125 171.703125 118.027344 169.777344 Z M 118.027344 169.777344 " clip-rule="nonzero"/></clipPath><clipPath id="1028126bb2"><path d="M 157 122.304688 L 170 122.304688 L 170 128 L 157 128 Z M 157 122.304688 " clip-rule="nonzero"/></clipPath><clipPath id="5a340a08be"><path d="M 118.027344 169.777344 C 112.882812 160.652344 115.179688 148.539062 120.953125 139.800781 C 126.722656 131.066406 136.464844 125.273438 146.761719 123.402344 C 157.054688 121.53125 167.851562 123.351562 177.40625 127.636719 C 178.769531 128.25 180.183594 128.96875 180.984375 130.234375 C 181.785156 131.5 181.679688 133.453125 180.386719 134.207031 C 179.023438 135.003906 177.144531 134.128906 175.777344 134.90625 C 174.128906 135.835938 174.335938 138.371094 173.058594 139.769531 C 170.8125 142.230469 166.097656 139.5 163.582031 141.6875 C 162.226562 142.863281 162.085938 145.082031 160.628906 146.128906 C 158.527344 147.644531 155.292969 145.714844 153.074219 147.054688 C 150.625 148.519531 151.246094 152.816406 148.777344 154.242188 C 146.585938 155.519531 143.035156 153.75 141.554688 155.828125 C 140.417969 157.433594 141.710938 160.023438 140.382812 161.464844 C 139.578125 162.335938 138.230469 162.320312 137.09375 162.671875 C 135.175781 163.277344 132.054688 164.214844 130.882812 165.835938 C 129.300781 168.003906 130.152344 172.027344 128.578125 174.195312 C 127.484375 175.703125 126.445312 176.128906 123.964844 176.128906 C 121.136719 176.121094 119.125 171.703125 118.027344 169.777344 Z M 118.027344 169.777344 " clip-rule="nonzero"/></clipPath><clipPath id="dd68589867"><path d="M 126 153 L 129 153 L 129 157 L 126 157 Z M 126 153 " clip-rule="nonzero"/></clipPath><clipPath id="69310943cd"><path d="M 118.027344 169.777344 C 112.882812 160.652344 115.179688 148.539062 120.953125 139.800781 C 126.722656 131.066406 136.464844 125.273438 146.761719 123.402344 C 157.054688 121.53125 167.851562 123.351562 177.40625 127.636719 C 178.769531 128.25 180.183594 128.96875 180.984375 130.234375 C 181.785156 131.5 181.679688 133.453125 180.386719 134.207031 C 179.023438 135.003906 177.144531 134.128906 175.777344 134.90625 C 174.128906 135.835938 174.335938 138.371094 173.058594 139.769531 C 170.8125 142.230469 166.097656 139.5 163.582031 141.6875 C 162.226562 142.863281 162.085938 145.082031 160.628906 146.128906 C 158.527344 147.644531 155.292969 145.714844 153.074219 147.054688 C 150.625 148.519531 151.246094 152.816406 148.777344 154.242188 C 146.585938 155.519531 143.035156 153.75 141.554688 155.828125 C 140.417969 157.433594 141.710938 160.023438 140.382812 161.464844 C 139.578125 162.335938 138.230469 162.320312 137.09375 162.671875 C 135.175781 163.277344 132.054688 164.214844 130.882812 165.835938 C 129.300781 168.003906 130.152344 172.027344 128.578125 174.195312 C 127.484375 175.703125 126.445312 176.128906 123.964844 176.128906 C 121.136719 176.121094 119.125 171.703125 118.027344 169.777344 Z M 118.027344 169.777344 " clip-rule="nonzero"/></clipPath><clipPath id="384f2be59c"><path d="M 140 141 L 143 141 L 143 144 L 140 144 Z M 140 141 " clip-rule="nonzero"/></clipPath><clipPath id="baa40c0f31"><path d="M 118.027344 169.777344 C 112.882812 160.652344 115.179688 148.539062 120.953125 139.800781 C 126.722656 131.066406 136.464844 125.273438 146.761719 123.402344 C 157.054688 121.53125 167.851562 123.351562 177.40625 127.636719 C 178.769531 128.25 180.183594 128.96875 180.984375 130.234375 C 181.785156 131.5 181.679688 133.453125 180.386719 134.207031 C 179.023438 135.003906 177.144531 134.128906 175.777344 134.90625 C 174.128906 135.835938 174.335938 138.371094 173.058594 139.769531 C 170.8125 142.230469 166.097656 139.5 163.582031 141.6875 C 162.226562 142.863281 162.085938 145.082031 160.628906 146.128906 C 158.527344 147.644531 155.292969 145.714844 153.074219 147.054688 C 150.625 148.519531 151.246094 152.816406 148.777344 154.242188 C 146.585938 155.519531 143.035156 153.75 141.554688 155.828125 C 140.417969 157.433594 141.710938 160.023438 140.382812 161.464844 C 139.578125 162.335938 138.230469 162.320312 137.09375 162.671875 C 135.175781 163.277344 132.054688 164.214844 130.882812 165.835938 C 129.300781 168.003906 130.152344 172.027344 128.578125 174.195312 C 127.484375 175.703125 126.445312 176.128906 123.964844 176.128906 C 121.136719 176.121094 119.125 171.703125 118.027344 169.777344 Z M 118.027344 169.777344 " clip-rule="nonzero"/></clipPath><clipPath id="24a4c83da0"><path d="M 156 132 L 159 132 L 159 135 L 156 135 Z M 156 132 " clip-rule="nonzero"/></clipPath><clipPath id="7f358c744a"><path d="M 118.027344 169.777344 C 112.882812 160.652344 115.179688 148.539062 120.953125 139.800781 C 126.722656 131.066406 136.464844 125.273438 146.761719 123.402344 C 157.054688 121.53125 167.851562 123.351562 177.40625 127.636719 C 178.769531 128.25 180.183594 128.96875 180.984375 130.234375 C 181.785156 131.5 181.679688 133.453125 180.386719 134.207031 C 179.023438 135.003906 177.144531 134.128906 175.777344 134.90625 C 174.128906 135.835938 174.335938 138.371094 173.058594 139.769531 C 170.8125 142.230469 166.097656 139.5 163.582031 141.6875 C 162.226562 142.863281 162.085938 145.082031 160.628906 146.128906 C 158.527344 147.644531 155.292969 145.714844 153.074219 147.054688 C 150.625 148.519531 151.246094 152.816406 148.777344 154.242188 C 146.585938 155.519531 143.035156 153.75 141.554688 155.828125 C 140.417969 157.433594 141.710938 160.023438 140.382812 161.464844 C 139.578125 162.335938 138.230469 162.320312 137.09375 162.671875 C 135.175781 163.277344 132.054688 164.214844 130.882812 165.835938 C 129.300781 168.003906 130.152344 172.027344 128.578125 174.195312 C 127.484375 175.703125 126.445312 176.128906 123.964844 176.128906 C 121.136719 176.121094 119.125 171.703125 118.027344 169.777344 Z M 118.027344 169.777344 " clip-rule="nonzero"/></clipPath><clipPath id="f310be9295"><path d="M 170 128 L 173 128 L 173 130 L 170 130 Z M 170 128 " clip-rule="nonzero"/></clipPath><clipPath id="5c271b99ba"><path d="M 118.027344 169.777344 C 112.882812 160.652344 115.179688 148.539062 120.953125 139.800781 C 126.722656 131.066406 136.464844 125.273438 146.761719 123.402344 C 157.054688 121.53125 167.851562 123.351562 177.40625 127.636719 C 178.769531 128.25 180.183594 128.96875 180.984375 130.234375 C 181.785156 131.5 181.679688 133.453125 180.386719 134.207031 C 179.023438 135.003906 177.144531 134.128906 175.777344 134.90625 C 174.128906 135.835938 174.335938 138.371094 173.058594 139.769531 C 170.8125 142.230469 166.097656 139.5 163.582031 141.6875 C 162.226562 142.863281 162.085938 145.082031 160.628906 146.128906 C 158.527344 147.644531 155.292969 145.714844 153.074219 147.054688 C 150.625 148.519531 151.246094 152.816406 148.777344 154.242188 C 146.585938 155.519531 143.035156 153.75 141.554688 155.828125 C 140.417969 157.433594 141.710938 160.023438 140.382812 161.464844 C 139.578125 162.335938 138.230469 162.320312 137.09375 162.671875 C 135.175781 163.277344 132.054688 164.214844 130.882812 165.835938 C 129.300781 168.003906 130.152344 172.027344 128.578125 174.195312 C 127.484375 175.703125 126.445312 176.128906 123.964844 176.128906 C 121.136719 176.121094 119.125 171.703125 118.027344 169.777344 Z M 118.027344 169.777344 " clip-rule="nonzero"/></clipPath></defs><path fill="#b72c34" d="M 181.035156 131.675781 C 182.382812 132.773438 182.132812 134.9375 181.339844 136.484375 C 180.542969 138.03125 179.308594 139.410156 178.992188 141.125 C 178.71875 142.585938 179.136719 144.238281 178.371094 145.511719 C 177.367188 147.199219 174.867188 147.367188 173.660156 148.914062 C 172.613281 150.257812 172.703125 152.433594 171.242188 153.300781 C 170.191406 153.929688 168.683594 153.589844 167.777344 154.398438 C 166.871094 155.210938 167.023438 156.722656 166.363281 157.765625 C 165.0625 159.839844 161.472656 159.003906 159.945312 160.917969 C 158.941406 162.167969 159.132812 164.28125 157.75 165.082031 C 156.445312 165.839844 154.667969 164.824219 153.320312 165.507812 C 151.457031 166.453125 152 169.714844 150.175781 170.726562 C 148.460938 171.679688 146.101562 169.828125 144.449219 170.878906 C 143.261719 171.636719 143.183594 173.484375 142 174.238281 C 140.335938 175.300781 137.855469 173.449219 136.269531 174.605469 C 135.539062 175.128906 135.273438 176.140625 134.496094 176.574219 C 133.566406 177.09375 132.429688 176.574219 131.367188 176.492188 C 129.601562 176.378906 127.992188 177.589844 126.222656 177.679688 C 124.453125 177.769531 122.753906 176.628906 121.792969 175.121094 C 120.832031 173.609375 120.496094 171.789062 120.398438 170 C 120.285156 167.710938 120.523438 165.460938 121.117188 163.25 C 121.710938 161.039062 122.632812 158.972656 123.875 157.050781 C 126.011719 153.761719 128.992188 151.140625 132.085938 148.734375 C 137.570312 144.46875 143.433594 140.816406 149.679688 137.773438 C 155.921875 134.730469 162.414062 132.367188 169.148438 130.675781 C 173.027344 129.707031 177.398438 129.039062 180.800781 131.136719 " fill-opacity="1" fill-rule="nonzero"/><path fill="#ffc2c5" d="M 121.980469 175.90625 C 122.714844 177.480469 124.429688 178.34375 126.105469 178.5 C 127.007812 178.550781 127.886719 178.417969 128.734375 178.101562 C 129.222656 177.914062 129.722656 177.777344 130.234375 177.6875 C 130.75 177.652344 131.257812 177.699219 131.757812 177.828125 C 132.671875 178.003906 133.605469 178.09375 134.402344 177.519531 C 135.070312 177.039062 135.449219 176.226562 136.148438 175.796875 C 136.90625 175.328125 137.917969 175.515625 138.757812 175.570312 C 139.667969 175.683594 140.542969 175.554688 141.382812 175.183594 C 142.304688 174.71875 142.945312 173.863281 143.601562 173.09375 C 144.253906 172.324219 145.085938 171.46875 146.191406 171.558594 C 146.945312 171.617188 146.921875 170.460938 146.191406 170.378906 C 144.214844 170.222656 143.078125 172.011719 141.898438 173.277344 C 141.34375 173.960938 140.628906 174.339844 139.75 174.417969 C 138.855469 174.464844 137.960938 174.269531 137.066406 174.34375 C 136.171875 174.398438 135.421875 174.757812 134.816406 175.414062 C 134.324219 175.941406 133.898438 176.722656 133.105469 176.8125 C 132.652344 176.828125 132.203125 176.773438 131.761719 176.65625 C 131.257812 176.542969 130.75 176.507812 130.234375 176.554688 C 129.246094 176.667969 128.359375 177.136719 127.394531 177.347656 C 125.527344 177.765625 123.742188 176.84375 122.429688 175.5625 C 122.308594 175.453125 122.1875 175.445312 122.058594 175.542969 C 121.929688 175.644531 121.90625 175.765625 121.980469 175.90625 Z M 121.980469 175.90625 " fill-opacity="1" fill-rule="nonzero"/><path fill="#ffc2c5" d="M 180.613281 130.09375 C 180.839844 131.085938 181.386719 131.992188 181.652344 132.980469 C 181.914062 133.886719 181.878906 134.78125 181.546875 135.667969 C 180.941406 137.253906 179.71875 138.515625 179.125 140.125 C 178.476562 141.90625 179.074219 144.058594 178.078125 145.71875 C 177.230469 147.128906 175.246094 147.300781 174.058594 148.308594 C 173.289062 148.953125 172.929688 149.871094 172.597656 150.785156 C 172.292969 151.605469 171.90625 152.636719 170.972656 152.898438 C 170.820312 152.953125 170.707031 153.054688 170.628906 153.195312 C 170.554688 153.339844 170.539062 153.492188 170.582031 153.648438 C 170.625 153.804688 170.71875 153.925781 170.855469 154.011719 C 170.996094 154.09375 171.144531 154.121094 171.300781 154.089844 C 172.214844 153.804688 172.867188 153.226562 173.265625 152.359375 C 173.703125 151.515625 173.867188 150.53125 174.394531 149.738281 C 174.882812 149.007812 175.722656 148.644531 176.503906 148.300781 C 177.3125 147.996094 178.03125 147.546875 178.660156 146.953125 C 180.175781 145.316406 179.652344 143.0625 180.121094 141.070312 C 180.542969 139.242188 181.949219 137.878906 182.632812 136.164062 C 183.464844 134.054688 182.746094 131.378906 181.132812 129.804688 C 181.023438 129.699219 180.90625 129.683594 180.773438 129.761719 C 180.644531 129.839844 180.597656 129.949219 180.636719 130.09375 Z M 180.613281 130.09375 " fill-opacity="1" fill-rule="nonzero"/><path fill="#ef959a" d="M 150.03125 147.882812 C 159.898438 154.3125 170.058594 161.050781 176.238281 171.085938 C 179.367188 176.164062 181.625 182.226562 186.707031 185.351562 C 190.199219 187.5 194.578125 187.910156 197.96875 190.226562 C 205.042969 195.03125 205.46875 206.15625 212.589844 210.902344 C 216.398438 213.441406 221.492188 213.640625 225.050781 216.523438 C 227.640625 218.613281 229.019531 221.808594 230.601562 224.734375 C 232.183594 227.660156 234.316406 230.632812 237.507812 231.585938 C 232.820312 232.027344 230.035156 226.289062 225.664062 224.542969 C 223.332031 223.609375 220.703125 223.894531 218.25 223.351562 C 213.628906 222.328125 210.179688 218.539062 207.371094 214.726562 C 204.558594 210.914062 201.925781 206.75 197.867188 204.308594 C 194.445312 202.253906 190.300781 201.621094 186.945312 199.460938 C 180.128906 195.070312 178.410156 185.800781 172.886719 179.855469 C 169.820312 176.5625 165.660156 174.371094 162.742188 170.941406 C 159.972656 167.671875 158.535156 163.519531 156.652344 159.667969 C 154.773438 155.816406 152.136719 151.984375 148.132812 150.460938 " fill-opacity="1" fill-rule="nonzero"/><path fill="#ef959a" d="M 156.1875 144.828125 C 157.148438 146.265625 159.109375 146.617188 160.835938 146.550781 C 162.558594 146.484375 164.347656 146.148438 165.984375 146.695312 C 169.96875 148.035156 170.847656 153.644531 174.523438 155.6875 C 178.089844 157.671875 183.132812 155.632812 186.324219 158.1875 C 188.703125 160.097656 189.246094 164.042969 192.121094 165.054688 C 193.652344 165.589844 195.464844 165.078125 196.875 165.859375 C 199.089844 167.082031 198.816406 170.335938 200.019531 172.558594 C 201.484375 175.269531 204.914062 176.074219 207.878906 176.921875 C 210.84375 177.769531 214.195312 179.523438 214.457031 182.597656 C 212.71875 180.808594 209.847656 180.820312 207.402344 181.316406 C 204.957031 181.808594 202.449219 182.652344 200.019531 182.113281 C 195.363281 181.058594 193.195312 175.550781 189.023438 173.226562 C 187.476562 172.367188 185.644531 171.929688 184.414062 170.664062 C 182.644531 168.835938 182.664062 165.824219 181.011719 163.878906 C 178.320312 160.710938 172.941406 162.03125 169.492188 159.703125 C 167.351562 158.261719 166.335938 155.679688 164.742188 153.640625 C 161.765625 149.832031 156.925781 148.09375 152.347656 146.539062 " fill-opacity="1" fill-rule="nonzero"/><path fill="#ef959a" d="M 144.441406 153.027344 C 146.316406 153.394531 147.480469 155.324219 147.941406 157.183594 C 148.402344 159.042969 148.40625 161.015625 149.117188 162.792969 C 150.082031 165.199219 152.203125 166.90625 154.136719 168.644531 C 159.425781 173.371094 163.828125 178.984375 168.203125 184.570312 L 176.527344 195.175781 C 179.0625 198.417969 181.621094 201.671875 183.421875 205.378906 C 185.308594 209.242188 186.410156 213.628906 189.378906 216.734375 C 190.527344 217.933594 191.910156 218.890625 193.0625 220.085938 C 194.214844 221.28125 195.152344 222.828125 195.082031 224.472656 C 192.578125 220.03125 185.945312 220.15625 182.21875 216.671875 C 179.582031 214.210938 178.8125 210.351562 176.738281 207.410156 C 174.09375 203.683594 169.550781 201.714844 166.722656 198.125 C 164.375 195.152344 163.382812 191.277344 161.007812 188.332031 C 159.546875 186.539062 157.636719 185.128906 156.441406 183.164062 C 155.621094 181.804688 155.179688 180.238281 154.371094 178.878906 C 152.878906 176.386719 150.28125 174.78125 148.40625 172.558594 C 145.363281 168.957031 144.457031 164.078125 142.8125 159.652344 C 141.167969 155.226562 138.0625 150.667969 133.367188 150.089844 " fill-opacity="1" fill-rule="nonzero"/><g clip-path="url(#ab0ddba818)"><path fill="#faaaab" d="M 142.742188 155.632812 C 144.269531 156.285156 145.601562 157.214844 146.742188 158.425781 C 147.882812 159.632812 148.734375 161.019531 149.300781 162.582031 C 149.992188 164.53125 150.277344 166.824219 151.914062 168.089844 C 153.3125 169.1875 155.425781 169.214844 156.535156 170.597656 C 157.480469 171.777344 157.328125 173.484375 157.902344 174.882812 C 159.414062 178.539062 164.691406 178.429688 167.847656 180.820312 C 170.492188 182.828125 171.351562 186.398438 171.675781 189.703125 C 171.996094 193.003906 171.992188 196.476562 173.546875 199.410156 C 174.71875 201.628906 176.675781 203.3125 178.582031 204.941406 C 181.332031 207.292969 184.089844 209.648438 187.113281 211.628906 C 189.90625 213.457031 192.988281 215.046875 195.019531 217.699219 C 196.867188 220.109375 197.722656 223.269531 199.992188 225.285156 C 204.011719 228.84375 211.292969 227.847656 214.011719 232.484375 C 215.359375 234.773438 215.378906 238.191406 217.816406 239.234375 C 219.203125 239.832031 220.789062 239.328125 222.300781 239.339844 C 222.921875 239.355469 223.53125 239.453125 224.128906 239.644531 C 224.722656 239.832031 225.28125 240.097656 225.800781 240.441406 C 226.320312 240.789062 226.78125 241.199219 227.1875 241.675781 C 227.589844 242.152344 227.921875 242.675781 228.175781 243.246094 L 228.175781 243.367188 C 227.859375 244.167969 228.605469 245.011719 229.398438 245.335938 C 230.191406 245.664062 231.097656 245.730469 231.796875 246.222656 C 232.738281 246.875 233.058594 248.097656 233.710938 249.039062 C 234.617188 250.339844 236.128906 251.0625 237.574219 251.722656 L 241.226562 253.40625 C 241.351562 253.476562 241.488281 253.515625 241.632812 253.519531 C 242.101562 253.488281 242.167969 252.746094 241.832031 252.421875 C 241.492188 252.097656 240.984375 252.039062 240.546875 251.867188 C 239.046875 251.273438 238.492188 249.476562 237.511719 248.207031 C 236.457031 246.835938 234.855469 246.011719 233.308594 245.261719 L 233.167969 244.527344 L 211.953125 225.273438 C 209.484375 223.035156 206.988281 220.773438 205.0625 218.046875 C 203.414062 215.710938 202.210938 213.074219 200.527344 210.75 C 198.847656 208.429688 196.640625 206.390625 194.582031 204.3125 C 190.003906 199.683594 186 194.601562 182.566406 189.070312 C 180.5 185.742188 178.652344 182.25 176.144531 179.25 C 172.359375 174.710938 167.269531 171.492188 162.789062 167.648438 C 157.441406 163.058594 153.039062 157.695312 149.578125 151.554688 " fill-opacity="1" fill-rule="nonzero"/></g><g clip-path="url(#128c6430cc)"><path fill="#faaaab" d="M 150.84375 149.878906 L 160.980469 158.824219 L 171.746094 168.335938 L 191.882812 186.105469 C 196.132812 189.855469 200.394531 193.617188 205.015625 196.894531 C 208.0625 199.050781 211.289062 201.023438 213.832031 203.746094 C 215.988281 206.054688 217.578125 208.820312 219.367188 211.429688 C 221.867188 215.039062 224.746094 218.320312 227.996094 221.269531 C 231.25 224.21875 234.796875 226.761719 238.632812 228.894531 C 242.816406 231.222656 247.28125 233.015625 251.722656 234.796875 L 262.089844 238.953125 L 261.378906 239.957031 C 261.550781 236.585938 258.746094 233.832031 255.898438 232 C 253.046875 230.167969 249.824219 228.605469 248.132812 225.683594 C 246.964844 223.664062 246.671875 221.167969 245.1875 219.359375 C 241.875 215.289062 234.75 216.859375 231.039062 213.140625 C 227.871094 209.988281 228.414062 204.175781 224.878906 201.4375 C 222.003906 199.21875 217.414062 199.917969 215.011719 197.191406 C 213.363281 195.324219 213.359375 192.4375 211.828125 190.472656 C 209.09375 186.972656 203.101562 188.023438 200.023438 184.824219 C 197.144531 181.828125 198.03125 176.332031 194.804688 173.710938 C 192.171875 171.566406 188.226562 172.515625 185.007812 171.441406 C 182.710938 170.675781 180.902344 168.925781 179.183594 167.230469 L 168.582031 156.796875 C 166.625 154.863281 164.5625 152.878906 161.980469 151.972656 C 160.152344 151.335938 158.207031 151.277344 156.335938 150.835938 C 154.464844 150.398438 152.542969 149.449219 151.746094 147.699219 Z M 150.84375 149.878906 " fill-opacity="1" fill-rule="nonzero"/></g><path fill="#faaaab" d="M 139.570312 158.777344 C 141.988281 160.042969 144.113281 161.691406 145.941406 163.722656 C 147.769531 165.753906 149.183594 168.042969 150.1875 170.585938 C 151.003906 172.667969 151.554688 174.972656 153.085938 176.59375 C 154.953125 178.585938 157.871094 179.152344 160.085938 180.769531 C 162.929688 182.824219 164.3125 186.28125 165.792969 189.464844 C 169.085938 196.511719 173.414062 202.851562 178.773438 208.484375 C 181.273438 211.113281 184.042969 213.648438 185.453125 216.992188 C 187.246094 221.238281 186.667969 226.410156 189.335938 230.15625 C 190.394531 231.652344 191.894531 232.777344 193.09375 234.136719 C 194.296875 235.5 195.304688 237.269531 195.023438 239.074219 L 194.738281 239.035156 C 194.316406 237.511719 192.792969 236.574219 191.304688 236.039062 C 189.816406 235.503906 188.207031 235.210938 186.917969 234.289062 C 182.824219 231.335938 184.679688 224.53125 181.785156 220.390625 C 179.4375 217.035156 174.621094 216.328125 171.917969 213.25 C 169.464844 210.4375 169.203125 206.117188 166.527344 203.511719 C 164.109375 201.164062 160.109375 200.628906 158.355469 197.746094 C 156.605469 194.863281 157.960938 191.039062 156.789062 187.871094 C 154.894531 182.769531 147.289062 181.363281 145.964844 176.082031 C 145.449219 174.035156 146.042969 171.761719 145.207031 169.820312 C 144.375 167.878906 142.347656 166.773438 140.621094 165.535156 C 138.894531 164.292969 137.230469 162.367188 137.699219 160.296875 " fill-opacity="1" fill-rule="nonzero"/><path fill="#ff7681" d="M 118.027344 169.777344 C 112.882812 160.652344 115.179688 148.539062 120.953125 139.800781 C 126.722656 131.066406 136.464844 125.273438 146.761719 123.402344 C 157.054688 121.53125 167.851562 123.351562 177.40625 127.636719 C 178.769531 128.25 180.183594 128.96875 180.984375 130.234375 C 181.785156 131.5 181.679688 133.453125 180.386719 134.207031 C 179.023438 135.003906 177.144531 134.128906 175.777344 134.90625 C 174.128906 135.835938 174.335938 138.371094 173.058594 139.769531 C 170.8125 142.230469 166.097656 139.5 163.582031 141.6875 C 162.226562 142.863281 162.085938 145.082031 160.628906 146.128906 C 158.527344 147.644531 155.292969 145.714844 153.074219 147.054688 C 150.625 148.519531 151.246094 152.816406 148.777344 154.242188 C 146.585938 155.519531 143.035156 153.75 141.554688 155.828125 C 140.417969 157.433594 141.710938 160.019531 140.382812 161.464844 C 139.578125 162.335938 138.230469 162.320312 137.09375 162.671875 C 135.175781 163.277344 132.054688 164.214844 130.882812 165.835938 C 129.300781 168.003906 130.152344 172.027344 128.578125 174.195312 C 127.484375 175.703125 126.445312 176.128906 123.964844 176.128906 C 121.136719 176.121094 119.125 171.703125 118.027344 169.777344 Z M 118.027344 169.777344 " fill-opacity="1" fill-rule="nonzero"/><g clip-path="url(#cbce280d41)"><g clip-path="url(#df21733424)"><path fill="#d23639" d="M 180.523438 129.066406 C 180.753906 130.03125 180.644531 131.117188 179.773438 131.734375 C 178.71875 132.464844 176.902344 131.886719 175.667969 132.046875 C 174.972656 132.105469 174.316406 132.304688 173.703125 132.640625 C 173.085938 132.972656 172.5625 133.417969 172.132812 133.96875 C 171.484375 134.8125 171.261719 136.753906 170.242188 137.09375 C 168.960938 137.515625 167.117188 136.683594 165.792969 136.6875 C 164.949219 136.660156 164.128906 136.796875 163.335938 137.105469 C 162.546875 137.410156 161.847656 137.855469 161.238281 138.445312 C 160.378906 139.316406 159.878906 140.417969 159.339844 141.492188 C 158.863281 142.453125 158.695312 143.105469 157.542969 143.0625 C 156.214844 143.011719 154.984375 142.589844 153.625 142.746094 C 152.832031 142.828125 152.097656 143.074219 151.414062 143.480469 C 150.734375 143.890625 150.171875 144.425781 149.726562 145.085938 C 149.058594 146.070312 148.742188 147.25 148.449219 148.375 C 148.230469 149.230469 148.152344 150.3125 147.296875 150.71875 C 146.441406 151.125 145.144531 150.910156 144.195312 150.992188 C 142.691406 151.113281 141.273438 151.40625 140.054688 152.378906 C 138.988281 153.273438 138.332031 154.410156 138.09375 155.78125 C 137.921875 156.628906 138.15625 158.640625 137.390625 159.191406 C 136.921875 159.53125 135.992188 159.472656 135.453125 159.53125 C 134.558594 159.59375 133.675781 159.742188 132.808594 159.976562 C 131.140625 160.535156 129.800781 161.535156 128.789062 162.972656 C 126.496094 166.109375 126.292969 170.511719 127.503906 174.09375 C 128.296875 176.441406 131.355469 175.851562 131.628906 173.535156 C 131.933594 170.917969 130.976562 166.09375 134.128906 164.792969 C 135.359375 164.285156 136.847656 164.484375 138.128906 164.179688 C 138.917969 164.023438 139.640625 163.714844 140.296875 163.253906 C 140.957031 162.792969 141.496094 162.222656 141.914062 161.535156 C 142.644531 160.25 142.679688 158.855469 142.863281 157.433594 C 143.050781 156.007812 143.320312 156.027344 144.648438 155.933594 C 147.445312 155.726562 150.234375 155.679688 151.957031 153.074219 C 152.625 152.058594 152.945312 150.859375 153.242188 149.691406 C 153.488281 148.710938 153.46875 147.683594 154.589844 147.617188 C 155.902344 147.546875 157.1875 148.082031 158.527344 147.960938 C 159.28125 147.898438 159.996094 147.691406 160.667969 147.339844 C 161.339844 146.988281 161.914062 146.515625 162.394531 145.929688 C 163.179688 144.980469 163.609375 143.875 164.1875 142.800781 C 164.917969 141.441406 165.734375 141.527344 167.210938 141.742188 C 170.425781 142.207031 173.769531 142.027344 175.273438 138.65625 C 175.445312 138.269531 175.640625 137.132812 176.003906 136.863281 C 176.449219 136.519531 177.753906 136.792969 178.277344 136.769531 C 179.917969 136.691406 181.496094 136.332031 182.640625 135.078125 C 184.507812 133.027344 184.503906 129.449219 182.136719 127.828125 C 181.316406 127.261719 180.335938 128.195312 180.542969 129.054688 Z M 180.523438 129.066406 " fill-opacity="1" fill-rule="nonzero"/></g></g><g clip-path="url(#19a1210bc4)"><g clip-path="url(#1d2abe8863)"><path fill="#d23639" d="M 127.53125 170.265625 C 127.40625 172.570312 126.34375 175.257812 123.628906 175.082031 C 122.386719 175.007812 120.867188 174.5 120.082031 175.851562 C 119.296875 177.199219 120.535156 178.601562 121.769531 179.0625 C 124.398438 180.046875 127.589844 178.996094 129.308594 176.847656 C 130.199219 175.769531 130.703125 174.535156 130.820312 173.144531 C 130.917969 171.628906 130.40625 170.585938 129.421875 169.488281 C 128.746094 168.753906 127.597656 169.367188 127.550781 170.261719 Z M 127.53125 170.265625 " fill-opacity="1" fill-rule="nonzero"/></g></g><g clip-path="url(#16d10519e9)"><g clip-path="url(#1ff02f824a)"><path fill="#d23639" d="M 149.789062 151.929688 C 149.308594 152.660156 148.699219 153.257812 147.964844 153.726562 C 147.234375 154.160156 146.402344 154.476562 145.800781 155.070312 C 145.65625 155.21875 145.566406 155.398438 145.527344 155.601562 C 145.492188 155.804688 145.511719 156.003906 145.589844 156.195312 C 145.667969 156.386719 145.792969 156.542969 145.964844 156.660156 C 146.136719 156.777344 146.324219 156.839844 146.53125 156.847656 C 148.757812 156.816406 150.367188 154.3125 151.125 152.496094 C 151.457031 151.691406 150.230469 151.292969 149.792969 151.929688 Z M 149.789062 151.929688 " fill-opacity="1" fill-rule="nonzero"/></g></g><g clip-path="url(#5a9b4879cd)"><g clip-path="url(#cd4a0e05ec)"><path fill="#d23639" d="M 129.023438 165.769531 C 127.882812 166.449219 127.382812 167.675781 127.007812 168.917969 C 126.605469 170.246094 126.640625 172.128906 125.59375 173.132812 C 124.542969 174.140625 123 174.152344 121.707031 173.710938 C 120.246094 173.207031 119.058594 171.765625 117.4375 171.882812 C 117.257812 171.886719 117.085938 171.925781 116.921875 171.996094 C 116.757812 172.066406 116.613281 172.164062 116.488281 172.292969 C 116.363281 172.417969 116.265625 172.5625 116.195312 172.726562 C 116.121094 172.890625 116.085938 173.0625 116.082031 173.238281 C 115.949219 175.359375 118.363281 176.804688 120.101562 177.492188 C 121.066406 177.890625 122.070312 178.097656 123.113281 178.105469 C 124.15625 178.113281 125.164062 177.925781 126.136719 177.542969 C 127.078125 177.183594 127.890625 176.640625 128.582031 175.910156 C 129.273438 175.179688 129.773438 174.335938 130.082031 173.378906 C 130.722656 171.320312 130.246094 169.023438 130.542969 166.914062 C 130.65625 166.078125 129.878906 165.257812 129.039062 165.757812 Z M 129.023438 165.769531 " fill-opacity="1" fill-rule="nonzero"/></g></g><g clip-path="url(#ef2737abbb)"><g clip-path="url(#4e3b3bfe31)"><path fill="#d23639" d="M 119.378906 163.222656 C 119.078125 162.808594 118.929688 162.34375 118.9375 161.832031 C 118.960938 161.257812 119.125 160.726562 119.425781 160.238281 C 119.929688 159.332031 120.238281 158.363281 120.34375 157.332031 C 120.402344 156.277344 120 155.28125 119.746094 154.277344 C 119.460938 153.371094 119.570312 152.515625 120.078125 151.714844 C 120.535156 150.984375 121.117188 150.308594 121.414062 149.472656 C 121.714844 148.5625 121.644531 147.679688 121.195312 146.832031 C 120.832031 146.039062 120.222656 145.300781 120.074219 144.417969 C 119.882812 143.265625 120.441406 142.039062 120.597656 140.902344 C 120.773438 139.667969 120.769531 138.429688 120.585938 137.195312 C 120.414062 136.054688 120.125 134.691406 119.363281 133.792969 C 119.019531 133.390625 118.519531 133.839844 118.578125 134.25 C 118.683594 134.773438 118.828125 135.289062 119.003906 135.792969 C 119.160156 136.363281 119.285156 136.941406 119.371094 137.527344 C 119.519531 138.59375 119.519531 139.660156 119.371094 140.726562 C 119.203125 141.894531 118.714844 143.050781 118.804688 144.246094 C 118.875 145.242188 119.371094 146.074219 119.839844 146.925781 C 120.257812 147.683594 120.546875 148.4375 120.167969 149.28125 C 119.792969 150.121094 119.199219 150.714844 118.820312 151.496094 C 118.390625 152.398438 118.308594 153.332031 118.574219 154.292969 C 118.804688 155.277344 119.328125 156.230469 119.359375 157.257812 C 119.390625 158.449219 118.679688 159.515625 118.578125 160.695312 C 118.496094 161.707031 118.355469 162.617188 119.074219 163.457031 C 119.210938 163.621094 119.511719 163.398438 119.375 163.222656 Z M 119.378906 163.222656 " fill-opacity="1" fill-rule="nonzero"/></g></g><g clip-path="url(#9ecda2eccf)"><g clip-path="url(#e754d52727)"><path fill="#d23639" d="M 136.046875 149.699219 C 135.132812 149.429688 135.609375 147.832031 135.496094 147.164062 C 135.355469 146.328125 134.71875 145.808594 134.035156 145.367188 C 133.351562 144.921875 132.804688 144.597656 132.574219 143.835938 C 132.410156 143.113281 132.363281 142.382812 132.433594 141.640625 C 132.484375 140.179688 132.535156 138.515625 131.304688 137.5 C 130.664062 136.964844 129.613281 136.765625 129.421875 135.84375 C 129.328125 135.394531 129.355469 134.921875 129.296875 134.46875 C 129.238281 134.007812 129.144531 133.554688 129.007812 133.109375 C 128.695312 132.132812 128.214844 131.246094 127.570312 130.445312 C 126.9375 129.65625 126.085938 128.832031 125.109375 128.507812 C 124.59375 128.335938 124.128906 129.09375 124.5625 129.457031 C 125.269531 130.039062 126.023438 130.5 126.601562 131.222656 C 127.171875 131.921875 127.585938 132.707031 127.84375 133.574219 C 127.972656 134 128.054688 134.433594 128.089844 134.875 C 128.09375 135.382812 128.15625 135.886719 128.273438 136.378906 C 128.570312 137.347656 129.367188 137.734375 130.167969 138.207031 C 131.53125 139.023438 131.210938 140.804688 131.207031 142.160156 C 131.175781 142.9375 131.296875 143.6875 131.570312 144.414062 C 131.914062 145.171875 132.457031 145.730469 133.203125 146.097656 C 133.59375 146.273438 133.957031 146.492188 134.296875 146.753906 C 134.730469 147.144531 134.734375 147.652344 134.742188 148.195312 C 134.742188 149.015625 134.9375 150.027344 135.886719 150.246094 C 136.054688 150.277344 136.164062 150.210938 136.210938 150.042969 C 136.257812 149.875 136.199219 149.761719 136.035156 149.703125 Z M 136.046875 149.699219 " fill-opacity="1" fill-rule="nonzero"/></g></g><g clip-path="url(#3a270f1688)"><g clip-path="url(#1eb367e2ac)"><path fill="#d23639" d="M 155.117188 138.597656 C 155.117188 137.84375 154.648438 137.292969 154.046875 136.902344 C 153.316406 136.414062 152.445312 136.402344 151.601562 136.234375 C 151.136719 136.179688 150.707031 136.023438 150.308594 135.777344 C 150.007812 135.53125 149.761719 135.238281 149.578125 134.898438 C 149.1875 134.246094 148.878906 133.523438 148.3125 133 C 147.644531 132.382812 146.800781 132.226562 145.925781 132.167969 C 145.046875 132.109375 144.277344 132.042969 143.695312 131.285156 C 143.113281 130.527344 142.789062 129.757812 142.078125 129.175781 C 141.335938 128.613281 140.523438 128.171875 139.648438 127.851562 C 138.601562 127.421875 137.59375 126.921875 136.617188 126.355469 C 135.601562 125.753906 134.707031 124.980469 133.691406 124.371094 C 133.144531 124.039062 132.640625 124.777344 133.035156 125.226562 C 133.742188 125.964844 134.542969 126.585938 135.429688 127.097656 C 136.242188 127.613281 137.085938 128.074219 137.960938 128.476562 C 138.859375 128.886719 139.75 129.160156 140.578125 129.621094 C 141.304688 130.039062 141.878906 130.613281 142.296875 131.34375 C 142.769531 132.074219 143.289062 132.761719 144.125 133.082031 C 144.964844 133.398438 145.789062 133.269531 146.617188 133.421875 C 148.203125 133.707031 148.445312 135.644531 149.574219 136.539062 C 150.410156 137.195312 151.433594 137.167969 152.4375 137.21875 C 153.300781 137.261719 154.628906 137.5 154.652344 138.601562 C 154.667969 138.738281 154.746094 138.808594 154.882812 138.808594 C 155.019531 138.808594 155.097656 138.738281 155.117188 138.601562 Z M 155.117188 138.597656 " fill-opacity="1" fill-rule="nonzero"/></g></g><g clip-path="url(#205a975b9e)"><g clip-path="url(#2eba1b7f36)"><path fill="#d23639" d="M 165.339844 131.414062 C 165.429688 130.683594 164.847656 129.953125 164.308594 129.519531 C 163.667969 129.007812 162.9375 128.742188 162.113281 128.734375 C 161.695312 128.773438 161.292969 128.710938 160.902344 128.554688 C 160.617188 128.359375 160.402344 128.101562 160.261719 127.789062 C 159.917969 127.191406 159.601562 126.546875 158.988281 126.179688 C 158.257812 125.738281 157.445312 125.902344 156.648438 125.902344 C 156.277344 125.945312 155.976562 125.824219 155.738281 125.539062 C 155.472656 125.171875 155.3125 124.785156 155.007812 124.441406 C 154.417969 123.789062 153.519531 123.636719 152.6875 123.585938 C 151.609375 123.523438 150.53125 123.492188 149.457031 123.425781 C 148.257812 123.34375 147.058594 123.242188 145.863281 123.121094 C 144.640625 122.992188 143.324219 122.671875 142.101562 122.808594 C 141.984375 122.808594 141.878906 122.851562 141.789062 122.929688 C 141.703125 123.003906 141.648438 123.101562 141.632812 123.21875 C 141.617188 123.335938 141.640625 123.445312 141.707031 123.546875 C 141.769531 123.644531 141.859375 123.710938 141.972656 123.742188 C 142.925781 124.132812 144.039062 124.171875 145.054688 124.28125 C 146.070312 124.390625 147.148438 124.496094 148.199219 124.578125 C 149.246094 124.65625 150.238281 124.71875 151.257812 124.765625 C 152.054688 124.804688 153.117188 124.671875 153.839844 125.078125 C 154.144531 125.292969 154.371094 125.574219 154.523438 125.914062 C 154.726562 126.285156 155.003906 126.582031 155.355469 126.8125 C 156.035156 127.214844 156.820312 127.0625 157.550781 127.050781 C 158.28125 127.042969 158.644531 127.394531 159.011719 128.027344 C 159.378906 128.660156 159.691406 129.253906 160.285156 129.589844 C 161.152344 130.085938 162.113281 129.734375 163.019531 129.894531 C 163.449219 129.980469 163.8125 130.179688 164.117188 130.496094 C 164.390625 130.824219 164.632812 131.175781 164.847656 131.546875 C 164.917969 131.660156 165.015625 131.699219 165.144531 131.664062 C 165.269531 131.632812 165.335938 131.546875 165.339844 131.414062 Z M 165.339844 131.414062 " fill-opacity="1" fill-rule="nonzero"/></g></g><g clip-path="url(#e104ce23be)"><g clip-path="url(#2df8f68e3a)"><path fill="#d23639" d="M 132.488281 127.277344 C 131.574219 127.71875 131.484375 128.867188 131.832031 129.722656 C 132.292969 130.859375 133.476562 131.476562 133.925781 132.601562 C 134.183594 133.238281 134.136719 133.914062 134.257812 134.578125 C 134.359375 135.117188 134.570312 135.601562 134.894531 136.042969 C 135.574219 136.980469 136.53125 137.503906 137.550781 138.003906 C 137.746094 138.101562 138 137.832031 137.804688 137.675781 C 137.019531 137.113281 136.320312 136.464844 135.703125 135.722656 C 135 134.796875 135.164062 133.765625 135.011719 132.683594 C 134.859375 131.605469 134.054688 130.886719 133.3125 130.199219 C 132.683594 129.613281 131.710938 128.421875 132.722656 127.660156 C 132.855469 127.582031 132.882812 127.476562 132.804688 127.34375 C 132.726562 127.210938 132.621094 127.183594 132.488281 127.261719 Z M 132.488281 127.277344 " fill-opacity="1" fill-rule="nonzero"/></g></g><g clip-path="url(#65db94c698)"><g clip-path="url(#887d02e7a6)"><path fill="#d23639" d="M 124.820312 134.253906 C 123.765625 135.105469 123.511719 136.523438 123.742188 137.804688 C 124.023438 139.34375 125.015625 140.621094 125.671875 142.003906 C 126.035156 142.734375 126.332031 143.46875 126.257812 144.304688 C 126.191406 145.085938 125.734375 145.734375 125.457031 146.449219 C 125.203125 147.03125 125.171875 147.625 125.359375 148.234375 C 125.539062 148.746094 125.976562 149.234375 126.5625 149.140625 C 126.609375 149.125 126.652344 149.101562 126.6875 149.066406 C 126.722656 149.027344 126.75 148.984375 126.761719 148.9375 C 126.773438 148.886719 126.773438 148.839844 126.761719 148.789062 C 126.75 148.742188 126.726562 148.699219 126.691406 148.660156 C 126.324219 148.257812 126.046875 147.980469 126.089844 147.382812 C 126.132812 146.78125 126.554688 146.140625 126.820312 145.550781 C 127.0625 144.933594 127.175781 144.292969 127.164062 143.628906 C 127.148438 142.96875 127.011719 142.332031 126.75 141.722656 C 126.238281 140.453125 125.363281 139.363281 124.863281 138.089844 C 124.421875 136.992188 124.304688 135.53125 125.226562 134.632812 C 125.476562 134.382812 125.109375 134.039062 124.863281 134.269531 Z M 124.820312 134.253906 " fill-opacity="1" fill-rule="nonzero"/></g></g><g clip-path="url(#110300cb20)"><g clip-path="url(#3048923c09)"><path fill="#d23639" d="M 140.066406 124.972656 C 141.246094 124.5 142.289062 125.335938 142.988281 126.210938 C 143.691406 127.085938 144.488281 127.910156 145.617188 128.238281 C 146.746094 128.566406 148.039062 128.417969 149.246094 128.511719 C 149.835938 128.550781 150.394531 128.707031 150.917969 128.988281 C 151.15625 129.105469 151.371094 129.253906 151.566406 129.4375 C 151.734375 129.640625 151.882812 129.859375 152.015625 130.085938 C 152.082031 130.191406 152.175781 130.230469 152.296875 130.195312 C 152.421875 130.164062 152.484375 130.082031 152.484375 129.957031 C 152.542969 129.445312 152.167969 128.886719 151.839844 128.527344 C 151.414062 128.082031 150.898438 127.789062 150.296875 127.652344 C 148.917969 127.285156 147.480469 127.628906 146.097656 127.347656 C 144.710938 127.066406 143.992188 126.019531 142.980469 125.191406 C 142.148438 124.5 140.933594 123.910156 139.871094 124.5 C 139.628906 124.636719 139.796875 125.070312 140.066406 124.964844 Z M 140.066406 124.972656 " fill-opacity="1" fill-rule="nonzero"/></g></g><g clip-path="url(#1028126bb2)"><g clip-path="url(#5a340a08be)"><path fill="#d23639" d="M 157.800781 122.050781 C 159.027344 122.011719 159.820312 123.054688 160.632812 123.804688 C 161.460938 124.535156 162.417969 124.976562 163.511719 125.132812 C 164.5 125.316406 165.519531 125.382812 166.472656 125.742188 C 166.917969 125.902344 167.320312 126.132812 167.679688 126.441406 C 167.972656 126.765625 168.246094 127.105469 168.503906 127.460938 C 168.554688 127.5 168.613281 127.527344 168.675781 127.535156 C 168.742188 127.542969 168.804688 127.535156 168.863281 127.511719 C 168.925781 127.484375 168.976562 127.445312 169.015625 127.394531 C 169.054688 127.34375 169.078125 127.285156 169.085938 127.222656 C 169.164062 126.253906 168.070312 125.441406 167.316406 125.070312 C 166.289062 124.570312 165.179688 124.457031 164.066406 124.285156 C 163.453125 124.207031 162.855469 124.066406 162.273438 123.859375 C 161.671875 123.597656 161.125 123.25 160.632812 122.8125 C 159.773438 122.109375 158.914062 121.425781 157.738281 121.589844 C 157.472656 121.625 157.539062 122.054688 157.800781 122.050781 Z M 157.800781 122.050781 " fill-opacity="1" fill-rule="nonzero"/></g></g><g clip-path="url(#dd68589867)"><g clip-path="url(#69310943cd)"><path fill="#d23639" d="M 126.929688 153.808594 C 127.074219 153.996094 127.195312 154.199219 127.296875 154.414062 C 127.410156 154.613281 127.5 154.824219 127.574219 155.039062 C 127.695312 155.496094 127.746094 155.957031 127.714844 156.429688 C 127.714844 156.53125 127.753906 156.617188 127.824219 156.6875 C 127.894531 156.761719 127.980469 156.796875 128.082031 156.796875 C 128.183594 156.796875 128.269531 156.761719 128.339844 156.6875 C 128.410156 156.617188 128.449219 156.53125 128.449219 156.429688 C 128.480469 155.875 128.386719 155.339844 128.164062 154.832031 C 128.070312 154.574219 127.945312 154.328125 127.796875 154.101562 C 127.636719 153.871094 127.457031 153.664062 127.257812 153.472656 C 127.035156 153.25 126.734375 153.574219 126.921875 153.808594 Z M 126.929688 153.808594 " fill-opacity="1" fill-rule="nonzero"/></g></g><g clip-path="url(#384f2be59c)"><g clip-path="url(#baa40c0f31)"><path fill="#d23639" d="M 140.179688 142.253906 C 140.390625 142.289062 140.59375 142.351562 140.785156 142.445312 C 140.972656 142.542969 141.148438 142.65625 141.3125 142.789062 C 141.480469 142.929688 141.636719 143.085938 141.78125 143.25 L 141.832031 143.3125 C 141.792969 143.265625 141.855469 143.347656 141.855469 143.351562 L 141.949219 143.480469 L 142.027344 143.621094 C 142.042969 143.652344 142.058594 143.679688 142.074219 143.707031 L 142.128906 143.773438 C 142.152344 143.804688 142.152344 143.808594 142.128906 143.773438 C 142.210938 143.914062 142.335938 143.964844 142.492188 143.921875 C 142.519531 143.914062 142.546875 143.90625 142.570312 143.886719 C 142.710938 143.804688 142.757812 143.679688 142.714844 143.523438 C 142.632812 143.246094 142.488281 143 142.289062 142.789062 C 142.117188 142.585938 141.921875 142.410156 141.695312 142.265625 C 141.246094 141.988281 140.757812 141.832031 140.234375 141.796875 C 139.988281 141.773438 139.929688 142.1875 140.175781 142.226562 Z M 140.179688 142.253906 " fill-opacity="1" fill-rule="nonzero"/></g></g><g clip-path="url(#24a4c83da0)"><g clip-path="url(#7f358c744a)"><path fill="#d23639" d="M 156.070312 132.464844 C 156.105469 132.6875 156.183594 132.898438 156.300781 133.089844 C 156.421875 133.296875 156.578125 133.46875 156.769531 133.609375 C 156.953125 133.757812 157.160156 133.867188 157.390625 133.9375 C 157.507812 133.96875 157.628906 133.992188 157.753906 134.003906 C 157.824219 134.015625 157.894531 134.015625 157.960938 134.003906 C 158.015625 133.988281 158.0625 133.960938 158.101562 133.921875 L 158.074219 133.941406 C 158.085938 133.9375 158.097656 133.929688 158.105469 133.921875 C 158.128906 133.90625 158.152344 133.886719 158.175781 133.867188 C 158.230469 133.808594 158.253906 133.738281 158.242188 133.660156 C 158.234375 133.578125 158.191406 133.515625 158.125 133.476562 C 158.238281 133.652344 158.265625 133.679688 158.214844 133.566406 L 158.175781 133.515625 C 158.148438 133.492188 158.121094 133.472656 158.089844 133.457031 C 158.058594 133.457031 158.066406 133.457031 158.089844 133.457031 L 158.027344 133.410156 C 157.992188 133.386719 157.949219 133.371094 157.902344 133.367188 C 157.835938 133.351562 157.765625 133.34375 157.695312 133.347656 L 157.726562 133.347656 L 157.617188 133.347656 L 157.476562 133.308594 L 157.410156 133.285156 C 157.332031 133.253906 157.472656 133.3125 157.410156 133.285156 L 157.347656 133.257812 C 157.300781 133.257812 157.296875 133.238281 157.347656 133.257812 C 157.324219 133.25 157.300781 133.242188 157.277344 133.226562 C 157.234375 133.207031 157.195312 133.183594 157.15625 133.15625 C 157.113281 133.132812 157.074219 133.101562 157.035156 133.074219 L 156.976562 133.023438 C 156.902344 132.960938 156.835938 132.894531 156.769531 132.820312 L 156.769531 132.796875 L 156.726562 132.738281 C 156.703125 132.703125 156.679688 132.664062 156.65625 132.625 C 156.617188 132.546875 156.585938 132.464844 156.570312 132.378906 C 156.527344 132.230469 156.433594 132.175781 156.285156 132.21875 C 156.136719 132.257812 156.082031 132.355469 156.125 132.503906 Z M 156.070312 132.464844 " fill-opacity="1" fill-rule="nonzero"/></g></g><g clip-path="url(#f310be9295)"><g clip-path="url(#5c271b99ba)"><path fill="#d23639" d="M 170.34375 129.171875 C 170.570312 129.363281 170.824219 129.496094 171.117188 129.5625 C 171.261719 129.59375 171.40625 129.605469 171.554688 129.605469 C 171.753906 129.617188 171.933594 129.5625 172.09375 129.453125 C 172.1875 129.351562 172.210938 129.242188 172.15625 129.117188 C 172.105469 128.992188 172.011719 128.925781 171.875 128.921875 C 171.796875 128.921875 171.71875 128.933594 171.644531 128.957031 L 171.226562 128.957031 C 171.273438 128.957031 171.226562 128.957031 171.226562 128.957031 L 171.101562 128.957031 C 171.046875 128.945312 170.996094 128.925781 170.945312 128.902344 C 170.902344 128.902344 170.988281 128.925781 170.945312 128.902344 L 170.90625 128.902344 L 170.832031 128.863281 L 170.679688 128.769531 C 170.542969 128.691406 170.425781 128.714844 170.332031 128.839844 C 170.234375 128.964844 170.242188 129.082031 170.347656 129.195312 Z M 170.34375 129.171875 " fill-opacity="1" fill-rule="nonzero"/></g></g><path fill="#b72c34" d="M 179.71875 133.222656 C 179.746094 133.214844 179.757812 133.199219 179.757812 133.167969 C 179.757812 133.140625 179.746094 133.125 179.71875 133.117188 C 179.691406 133.125 179.679688 133.140625 179.679688 133.167969 C 179.679688 133.199219 179.691406 133.214844 179.71875 133.222656 Z M 179.71875 133.222656 " fill-opacity="1" fill-rule="nonzero"/><path fill="#ffc2c5" d="M 180.984375 131.910156 C 181.347656 133.113281 179.90625 134.003906 178.933594 134.285156 C 177.769531 134.617188 176.496094 134.71875 175.476562 135.425781 C 173.648438 136.6875 173.648438 139.484375 171.410156 140.25 C 169.429688 140.929688 167.253906 140.449219 165.242188 141.007812 C 164.21875 141.285156 163.363281 141.828125 162.683594 142.644531 C 162.011719 143.464844 161.542969 144.410156 160.9375 145.273438 C 160.671875 145.699219 160.328125 146.046875 159.910156 146.320312 C 159.492188 146.597656 159.039062 146.773438 158.542969 146.851562 C 157.476562 147 156.378906 146.808594 155.3125 146.742188 C 154.246094 146.675781 153.164062 146.71875 152.21875 147.226562 C 151.269531 147.734375 150.695312 148.667969 150.324219 149.660156 C 149.953125 150.652344 149.789062 151.703125 149.25 152.609375 C 148.65625 153.597656 147.613281 153.949219 146.527344 154.128906 C 144.53125 154.464844 141.800781 154.457031 140.800781 156.628906 C 140.238281 157.839844 140.863281 159.1875 140.332031 160.390625 C 139.871094 161.433594 138.824219 162.148438 137.773438 162.558594 C 135.414062 163.492188 132.609375 163.515625 130.75 165.46875 C 130.339844 165.902344 130.023438 166.398438 129.804688 166.957031 C 129.761719 167.121094 129.78125 167.273438 129.863281 167.421875 C 129.945312 167.570312 130.070312 167.667969 130.230469 167.714844 C 130.394531 167.757812 130.550781 167.742188 130.703125 167.660156 C 130.851562 167.578125 130.953125 167.457031 131.003906 167.292969 C 132.011719 164.886719 135.296875 164.675781 137.425781 164 C 138.667969 163.660156 139.738281 163.035156 140.644531 162.117188 C 141.058594 161.660156 141.367188 161.136719 141.5625 160.550781 C 141.757812 159.964844 141.828125 159.363281 141.769531 158.75 C 141.734375 158.128906 141.675781 157.492188 142.035156 156.949219 C 142.328125 156.546875 142.703125 156.25 143.164062 156.058594 C 144.1875 155.578125 145.359375 155.542969 146.453125 155.394531 C 147.550781 155.246094 148.769531 154.929688 149.640625 154.113281 C 150.4375 153.363281 150.804688 152.285156 151.101562 151.285156 C 151.390625 150.339844 151.640625 149.25 152.425781 148.585938 C 153.210938 147.917969 154.28125 147.917969 155.246094 147.964844 C 157.421875 148.074219 159.722656 148.457031 161.363281 146.660156 C 162.753906 145.144531 163.285156 142.851562 165.449219 142.203125 C 167.453125 141.601562 169.621094 142.078125 171.625 141.441406 C 172.660156 141.125 173.476562 140.515625 174.074219 139.613281 C 174.703125 138.671875 174.992188 137.46875 175.824219 136.6875 C 176.714844 135.824219 178.109375 135.769531 179.238281 135.402344 C 180.296875 135.058594 181.378906 134.304688 181.703125 133.175781 C 181.847656 132.660156 181.808594 132.164062 181.582031 131.679688 C 181.433594 131.335938 180.875 131.582031 180.984375 131.933594 Z M 180.984375 131.910156 " fill-opacity="1" fill-rule="nonzero"/><path fill="#ffc2c5" d="M 130.476562 166.109375 C 130.035156 166.558594 129.789062 167.097656 129.746094 167.722656 C 129.675781 168.316406 129.660156 168.914062 129.699219 169.507812 C 129.753906 170.753906 129.699219 171.929688 129.113281 173.0625 C 128.554688 174.148438 127.730469 174.96875 126.640625 175.523438 C 126.097656 175.792969 125.523438 175.972656 124.925781 176.0625 C 124.644531 176.101562 124.359375 176.121094 124.078125 176.121094 C 123.730469 176.058594 123.398438 176.097656 123.078125 176.234375 C 123.007812 176.277344 122.949219 176.332031 122.90625 176.402344 C 122.859375 176.472656 122.832031 176.546875 122.824219 176.628906 C 122.8125 176.710938 122.820312 176.789062 122.847656 176.867188 C 122.875 176.945312 122.914062 177.015625 122.972656 177.074219 C 123.441406 177.527344 124.347656 177.386719 124.945312 177.3125 C 125.636719 177.222656 126.300781 177.039062 126.9375 176.75 C 128.164062 176.203125 129.140625 175.363281 129.863281 174.230469 C 130.574219 173.117188 130.941406 171.898438 130.957031 170.574219 C 130.957031 169.875 130.886719 169.175781 130.882812 168.472656 C 130.84375 167.835938 130.933594 167.21875 131.152344 166.617188 C 131.328125 166.25 130.820312 165.734375 130.515625 166.125 Z M 130.476562 166.109375 " fill-opacity="1" fill-rule="nonzero"/><path fill="#ffc2c5" d="M 181.011719 130.761719 C 181.039062 132.261719 181.886719 133.5 183.054688 134.386719 C 184.414062 135.410156 186.152344 135.761719 187.808594 136.023438 C 189.53125 136.304688 191.320312 136.390625 192.859375 137.324219 C 193.941406 138.011719 194.8125 138.910156 195.46875 140.015625 C 196.855469 142.183594 197.753906 144.648438 199.332031 146.695312 C 200.175781 147.832031 201.230469 148.710938 202.496094 149.335938 C 204.023438 150.066406 205.6875 150.375 207.328125 150.742188 C 209.089844 151.132812 211.019531 151.617188 212.371094 152.890625 C 212.675781 153.160156 212.9375 153.46875 213.160156 153.8125 C 213.378906 154.160156 213.542969 154.527344 213.660156 154.921875 C 213.773438 155.316406 213.832031 155.714844 213.832031 156.125 C 213.835938 156.535156 213.78125 156.9375 213.667969 157.328125 C 213.621094 157.515625 213.6875 157.644531 213.863281 157.71875 C 214.039062 157.792969 214.175781 157.75 214.277344 157.589844 C 215.007812 156.324219 214.785156 154.804688 214.097656 153.566406 C 213.269531 152.191406 212.101562 151.226562 210.59375 150.671875 C 207.566406 149.421875 203.847656 149.628906 201.285156 147.359375 C 199.3125 145.605469 198.320312 143.042969 197.054688 140.777344 C 196.441406 139.644531 195.6875 138.621094 194.789062 137.703125 C 193.691406 136.65625 192.410156 135.9375 190.945312 135.546875 C 189.03125 134.992188 187 134.910156 185.097656 134.234375 C 183.480469 133.65625 181.941406 132.445312 181.648438 130.65625 C 181.589844 130.289062 181 130.378906 181.003906 130.742188 Z M 181.011719 130.761719 " fill-opacity="1" fill-rule="nonzero"/><path fill="#ffc2c5" d="M 122.480469 176.652344 C 124.15625 177.21875 125.613281 178.132812 126.847656 179.402344 C 128.128906 180.753906 129.125 182.289062 129.84375 184.007812 C 131.304688 187.386719 131.628906 191.128906 133.109375 194.492188 C 133.789062 196.097656 134.808594 197.4375 136.175781 198.515625 C 137.582031 199.519531 139.101562 200.292969 140.734375 200.84375 C 143.710938 201.960938 147.226562 202.929688 149.101562 205.730469 C 149.605469 206.460938 149.90625 207.269531 150.007812 208.152344 C 150.121094 209.285156 149.914062 210.417969 149.945312 211.550781 C 149.980469 213.144531 150.675781 215.28125 152.53125 215.445312 C 152.703125 215.441406 152.8125 215.359375 152.859375 215.191406 C 152.902344 215.027344 152.851562 214.898438 152.703125 214.8125 C 151.148438 213.992188 150.898438 212.304688 150.984375 210.699219 C 151.089844 209.691406 151.089844 208.679688 150.984375 207.671875 C 150.859375 206.902344 150.601562 206.183594 150.207031 205.515625 C 148.53125 202.625 145.226562 201.296875 142.242188 200.21875 C 140.625 199.632812 138.992188 199.046875 137.535156 198.113281 C 136.070312 197.171875 134.976562 195.90625 134.246094 194.320312 C 133.488281 192.726562 133.078125 190.988281 132.65625 189.28125 C 132.242188 187.441406 131.683594 185.648438 130.984375 183.898438 C 129.492188 180.371094 126.671875 176.683594 122.628906 176.070312 C 122.449219 176.042969 122.335938 176.117188 122.285156 176.292969 C 122.238281 176.46875 122.300781 176.589844 122.46875 176.660156 Z M 122.480469 176.652344 " fill-opacity="1" fill-rule="nonzero"/><path fill="#ffc2c5" d="M 139.25 162.074219 C 143.371094 164.855469 143.636719 170.167969 143.703125 174.667969 C 143.769531 179.171875 143.984375 184.304688 147.632812 187.472656 C 150.464844 189.929688 154.292969 190.582031 157.691406 191.902344 C 159.332031 192.535156 160.933594 193.363281 162.136719 194.691406 C 163.679688 196.382812 164.261719 198.714844 164.542969 200.910156 C 164.90625 203.714844 164.820312 206.648438 165.855469 209.320312 C 166.6875 211.460938 168.222656 213.507812 170.523438 214.136719 C 171.101562 214.296875 171.289062 213.480469 170.765625 213.269531 C 166.015625 211.320312 166.144531 205.460938 165.648438 201.214844 C 165.390625 198.9375 164.917969 196.574219 163.519531 194.691406 C 162.398438 193.230469 160.992188 192.132812 159.300781 191.398438 C 156.011719 189.878906 152.234375 189.375 149.207031 187.308594 C 145.230469 184.601562 144.886719 179.570312 144.792969 175.1875 C 144.730469 172.4375 144.730469 169.578125 143.765625 166.96875 C 142.960938 164.792969 141.621094 162.6875 139.507812 161.609375 C 139.359375 161.542969 139.246094 161.578125 139.164062 161.714844 C 139.082031 161.855469 139.105469 161.96875 139.234375 162.066406 Z M 139.25 162.074219 " fill-opacity="1" fill-rule="nonzero"/><path fill="#ffc2c5" d="M 175.359375 135.894531 C 176.222656 139.761719 180.90625 140.308594 184.128906 140.792969 C 186.101562 141.09375 188.054688 141.566406 189.53125 142.988281 C 190.785156 144.195312 191.597656 145.773438 192.40625 147.289062 C 193.21875 148.808594 194.101562 150.441406 195.355469 151.71875 C 196.621094 152.945312 198.054688 153.929688 199.652344 154.679688 C 202.722656 156.21875 206.230469 157.28125 208.679688 159.796875 C 210.328125 161.511719 211.164062 163.820312 212.800781 165.539062 C 214.234375 167.042969 216.457031 168.164062 218.507812 167.28125 C 218.996094 167.074219 218.644531 166.289062 218.144531 166.433594 C 216.253906 166.980469 214.441406 165.910156 213.238281 164.5 C 211.910156 162.9375 211.097656 161 209.746094 159.445312 C 207.484375 156.847656 204.136719 155.648438 201.101562 154.21875 C 199.519531 153.542969 198.054688 152.664062 196.71875 151.578125 C 195.429688 150.484375 194.523438 149.050781 193.710938 147.558594 C 192.894531 146.0625 192.109375 144.488281 191.019531 143.136719 C 189.867188 141.707031 188.40625 140.757812 186.632812 140.28125 C 184.542969 139.726562 182.324219 139.753906 180.242188 139.128906 C 178.46875 138.605469 176.617188 137.550781 175.957031 135.722656 C 175.933594 135.636719 175.886719 135.574219 175.8125 135.535156 C 175.738281 135.492188 175.660156 135.480469 175.578125 135.503906 C 175.492188 135.527344 175.429688 135.574219 175.390625 135.648438 C 175.347656 135.722656 175.335938 135.800781 175.359375 135.886719 Z M 175.359375 135.894531 " fill-opacity="1" fill-rule="nonzero"/><path fill="#ffc2c5" d="M 169.039062 141.800781 C 173.914062 143.332031 175.582031 148.789062 179.367188 151.734375 C 182.589844 154.242188 186.628906 155.214844 190.332031 156.804688 C 192.15625 157.519531 193.804688 158.527344 195.28125 159.820312 C 196.945312 161.378906 197.902344 163.425781 198.882812 165.445312 C 199.867188 167.464844 200.984375 169.417969 202.796875 170.820312 C 204.609375 172.226562 206.753906 173.015625 208.890625 173.707031 C 213.132812 175.074219 218.65625 176.664062 219.625 181.753906 C 219.714844 182.214844 220.5 182.121094 220.453125 181.640625 C 220.023438 177.253906 215.460938 174.859375 211.757812 173.59375 C 209.546875 172.839844 207.253906 172.246094 205.179688 171.15625 C 204.171875 170.640625 203.269531 169.988281 202.464844 169.191406 C 201.671875 168.34375 201.011719 167.402344 200.484375 166.367188 C 199.363281 164.289062 198.523438 162.054688 197.015625 160.207031 C 195.707031 158.683594 194.140625 157.492188 192.324219 156.632812 C 188.644531 154.785156 184.5 153.929688 181.011719 151.683594 C 178.714844 150.199219 177.179688 148.023438 175.53125 145.890625 C 173.929688 143.839844 171.894531 141.703125 169.210938 141.257812 C 169.136719 141.238281 169.0625 141.246094 168.996094 141.285156 C 168.925781 141.324219 168.882812 141.382812 168.859375 141.460938 C 168.839844 141.535156 168.847656 141.609375 168.890625 141.675781 C 168.929688 141.746094 168.984375 141.789062 169.0625 141.8125 Z M 169.039062 141.800781 " fill-opacity="1" fill-rule="nonzero"/><path fill="#ffc2c5" d="M 148.480469 154.734375 C 150.390625 155.496094 151.433594 157.421875 151.910156 159.332031 C 152.496094 161.6875 152.339844 164.1875 153.136719 166.503906 C 154.507812 170.5 158.066406 173.15625 161.636719 175.105469 C 165.390625 177.160156 169.582031 178.660156 172.714844 181.6875 C 176.058594 184.914062 177.027344 189.488281 178.222656 193.796875 C 178.796875 196.070312 179.644531 198.230469 180.765625 200.289062 C 181.859375 202.179688 183.410156 204.070312 185.464844 204.941406 C 185.578125 205.003906 185.699219 205.011719 185.824219 204.976562 C 185.949219 204.941406 186.042969 204.867188 186.109375 204.753906 C 186.175781 204.640625 186.191406 204.523438 186.164062 204.394531 C 186.132812 204.269531 186.066406 204.171875 185.957031 204.097656 C 184.226562 203.019531 182.84375 201.601562 181.800781 199.84375 C 180.78125 198.027344 180.007812 196.113281 179.472656 194.097656 C 178.238281 189.796875 177.363281 185.1875 174.304688 181.734375 C 171.382812 178.417969 167.164062 176.710938 163.3125 174.742188 C 159.769531 172.914062 155.929688 170.53125 154.359375 166.695312 C 153.335938 164.191406 153.53125 161.417969 152.777344 158.847656 C 152.171875 156.800781 150.867188 154.636719 148.667969 154.09375 C 148.472656 154.082031 148.351562 154.171875 148.300781 154.359375 C 148.246094 154.546875 148.308594 154.6875 148.480469 154.78125 Z M 148.480469 154.734375 " fill-opacity="1" fill-rule="nonzero"/><path fill="#ffc2c5" d="M 159.808594 147.339844 C 162.242188 151.339844 166.980469 152.691406 170.816406 154.902344 C 172.875 156.023438 174.554688 157.566406 175.847656 159.523438 C 177.144531 161.550781 177.988281 163.828125 178.832031 166.070312 C 179.675781 168.3125 180.542969 170.625 181.847656 172.65625 C 183.289062 174.824219 185.125 176.578125 187.355469 177.921875 C 189.597656 179.335938 192.007812 180.441406 194.300781 181.78125 C 196.859375 183.28125 199.144531 185.148438 201.398438 187.0625 C 205.710938 190.71875 210.285156 194.777344 216.015625 195.921875 C 216.695312 196.0625 217.378906 196.136719 218.070312 196.148438 C 218.597656 196.148438 218.75 195.285156 218.199219 195.195312 C 216.832031 195.007812 215.492188 194.695312 214.179688 194.265625 C 212.855469 193.796875 211.59375 193.207031 210.386719 192.492188 C 207.886719 191.03125 205.632812 189.203125 203.441406 187.355469 C 201.191406 185.445312 198.960938 183.496094 196.496094 181.867188 C 194.277344 180.386719 191.863281 179.253906 189.554688 177.945312 C 187.316406 176.6875 185.144531 175.238281 183.558594 173.191406 C 182.097656 171.304688 181.164062 169.070312 180.316406 166.855469 C 179.464844 164.644531 178.6875 162.375 177.558594 160.273438 C 176.46875 158.183594 174.964844 156.453125 173.050781 155.082031 C 169.394531 152.519531 164.730469 151.480469 161.546875 148.242188 C 161.15625 147.84375 160.804688 147.417969 160.492188 146.957031 C 160.21875 146.5625 159.578125 146.921875 159.832031 147.324219 Z M 159.808594 147.339844 " fill-opacity="1" fill-rule="nonzero"/><path fill="#ffc2c5" d="M 129.84375 172.609375 C 130.453125 176.367188 133.914062 178.582031 136.636719 180.824219 C 138.101562 181.980469 139.339844 183.34375 140.351562 184.910156 C 141.226562 186.386719 142.019531 187.90625 142.722656 189.472656 C 143.417969 191.035156 144.238281 192.53125 145.179688 193.964844 C 146.171875 195.394531 147.375 196.613281 148.792969 197.621094 C 151.691406 199.707031 155.140625 200.941406 157.828125 203.332031 C 159.355469 204.738281 160.664062 206.324219 161.753906 208.089844 C 162.3125 208.960938 162.847656 209.863281 163.332031 210.773438 C 163.808594 211.722656 164.332031 212.648438 164.902344 213.546875 C 165.167969 213.910156 165.882812 213.703125 165.699219 213.210938 C 165.0625 211.480469 164.058594 209.832031 163.101562 208.265625 C 162.175781 206.710938 161.113281 205.261719 159.90625 203.914062 C 158.675781 202.589844 157.285156 201.457031 155.742188 200.515625 C 154.21875 199.582031 152.625 198.78125 151.09375 197.867188 C 149.546875 197 148.175781 195.910156 146.984375 194.597656 C 145.90625 193.269531 145.003906 191.832031 144.28125 190.285156 C 142.730469 187.203125 141.421875 183.933594 138.894531 181.503906 C 135.96875 178.675781 131.613281 176.726562 130.464844 172.472656 C 130.355469 172.066406 129.777344 172.242188 129.84375 172.644531 Z M 129.84375 172.609375 " fill-opacity="1" fill-rule="nonzero"/><path fill="#ffffff" d="M 136.792969 129.984375 C 131.03125 132.304688 126.039062 137.558594 122.75 142.714844 C 120.910156 145.527344 119.632812 148.574219 118.917969 151.859375 C 118.351562 154.621094 117.769531 158.558594 119.828125 160.824219 C 120.585938 161.660156 121.789062 161.125 122.136719 160.21875 C 122.632812 158.90625 122.402344 157.5 122.449219 156.125 C 122.5 154.628906 122.71875 153.15625 123.105469 151.707031 C 123.847656 149.027344 125.007812 146.539062 126.582031 144.242188 C 129.722656 139.53125 133.71875 135.355469 137.542969 131.265625 C 138.027344 130.75 137.554688 129.667969 136.792969 129.984375 Z M 136.792969 129.984375 " fill-opacity="0.47" fill-rule="nonzero"/><path fill="#ffffff" d="M 159.433594 125.257812 C 156.777344 123.960938 153.035156 124.523438 150.210938 124.867188 C 147.542969 125.195312 144.464844 125.597656 142.535156 127.71875 C 142.378906 127.886719 142.285156 128.082031 142.257812 128.3125 C 142.234375 128.542969 142.277344 128.753906 142.394531 128.953125 C 142.507812 129.152344 142.671875 129.296875 142.882812 129.386719 C 143.097656 129.476562 143.3125 129.496094 143.539062 129.441406 C 146.0625 128.792969 148.621094 128.332031 151.210938 128.058594 C 153.714844 127.8125 156.765625 128.214844 159.128906 127.328125 C 159.992188 127.027344 160.386719 125.726562 159.433594 125.257812 Z M 159.433594 125.257812 " fill-opacity="0.47" fill-rule="nonzero"/></svg>