<svg xmlns="http://www.w3.org/2000/svg" xmlns:xlink="http://www.w3.org/1999/xlink" width="500" zoomAndPan="magnify" viewBox="0 0 375 374.999991" height="500" preserveAspectRatio="xMidYMid meet" version="1.0"><defs><clipPath id="f943b92e85"><path d="M 124 156 L 138 156 L 138 162 L 124 162 Z M 124 156 " clip-rule="nonzero"/></clipPath><clipPath id="3fdb49240f"><path d="M 199.105469 44.316406 L 304.433594 134.636719 L 176.027344 284.371094 L 70.703125 194.050781 Z M 199.105469 44.316406 " clip-rule="nonzero"/></clipPath><clipPath id="f55eb1c28d"><path d="M 199.105469 44.316406 L 304.433594 134.636719 L 176.027344 284.371094 L 70.703125 194.050781 Z M 199.105469 44.316406 " clip-rule="nonzero"/></clipPath><clipPath id="b6fc7ffa61"><path d="M 199.105469 44.316406 L 304.433594 134.636719 L 176.027344 284.371094 L 70.703125 194.050781 Z M 199.105469 44.316406 " clip-rule="nonzero"/></clipPath><clipPath id="79f9431672"><path d="M 147 164 L 200 164 L 200 203 L 147 203 Z M 147 164 " clip-rule="nonzero"/></clipPath><clipPath id="e11726a95b"><path d="M 199.105469 44.316406 L 304.433594 134.636719 L 176.027344 284.371094 L 70.703125 194.050781 Z M 199.105469 44.316406 " clip-rule="nonzero"/></clipPath><clipPath id="c326bd0407"><path d="M 199.105469 44.316406 L 304.433594 134.636719 L 176.027344 284.371094 L 70.703125 194.050781 Z M 199.105469 44.316406 " clip-rule="nonzero"/></clipPath><clipPath id="d49010006e"><path d="M 199.105469 44.316406 L 304.433594 134.636719 L 176.027344 284.371094 L 70.703125 194.050781 Z M 199.105469 44.316406 " clip-rule="nonzero"/></clipPath><clipPath id="238ebd8a95"><path d="M 131 144 L 191 144 L 191 164 L 131 164 Z M 131 144 " clip-rule="nonzero"/></clipPath><clipPath id="a3a7032ff8"><path d="M 199.105469 44.316406 L 304.433594 134.636719 L 176.027344 284.371094 L 70.703125 194.050781 Z M 199.105469 44.316406 " clip-rule="nonzero"/></clipPath><clipPath id="bc58425eaa"><path d="M 199.105469 44.316406 L 304.433594 134.636719 L 176.027344 284.371094 L 70.703125 194.050781 Z M 199.105469 44.316406 " clip-rule="nonzero"/></clipPath><clipPath id="15edd73856"><path d="M 199.105469 44.316406 L 304.433594 134.636719 L 176.027344 284.371094 L 70.703125 194.050781 Z M 199.105469 44.316406 " clip-rule="nonzero"/></clipPath><clipPath id="7b0443d1e0"><path d="M 158 202 L 171 202 L 171 216 L 158 216 Z M 158 202 " clip-rule="nonzero"/></clipPath><clipPath id="120ed6a4bb"><path d="M 199.105469 44.316406 L 304.433594 134.636719 L 176.027344 284.371094 L 70.703125 194.050781 Z M 199.105469 44.316406 " clip-rule="nonzero"/></clipPath><clipPath id="5e06481c00"><path d="M 199.105469 44.316406 L 304.433594 134.636719 L 176.027344 284.371094 L 70.703125 194.050781 Z M 199.105469 44.316406 " clip-rule="nonzero"/></clipPath><clipPath id="3af5aa8cca"><path d="M 199.105469 44.316406 L 304.433594 134.636719 L 176.027344 284.371094 L 70.703125 194.050781 Z M 199.105469 44.316406 " clip-rule="nonzero"/></clipPath><clipPath id="5f2a08ff1c"><path d="M 150 202 L 166 202 L 166 217 L 150 217 Z M 150 202 " clip-rule="nonzero"/></clipPath><clipPath id="be8c4fe70f"><path d="M 199.105469 44.316406 L 304.433594 134.636719 L 176.027344 284.371094 L 70.703125 194.050781 Z M 199.105469 44.316406 " clip-rule="nonzero"/></clipPath><clipPath id="420c707c9b"><path d="M 199.105469 44.316406 L 304.433594 134.636719 L 176.027344 284.371094 L 70.703125 194.050781 Z M 199.105469 44.316406 " clip-rule="nonzero"/></clipPath><clipPath id="a32fdcfd3f"><path d="M 199.105469 44.316406 L 304.433594 134.636719 L 176.027344 284.371094 L 70.703125 194.050781 Z M 199.105469 44.316406 " clip-rule="nonzero"/></clipPath><clipPath id="ef4a906655"><path d="M 149 203 L 161 203 L 161 213 L 149 213 Z M 149 203 " clip-rule="nonzero"/></clipPath><clipPath id="fc98fe2a61"><path d="M 199.105469 44.316406 L 304.433594 134.636719 L 176.027344 284.371094 L 70.703125 194.050781 Z M 199.105469 44.316406 " clip-rule="nonzero"/></clipPath><clipPath id="db91649c8c"><path d="M 199.105469 44.316406 L 304.433594 134.636719 L 176.027344 284.371094 L 70.703125 194.050781 Z M 199.105469 44.316406 " clip-rule="nonzero"/></clipPath><clipPath id="2b6fb953d0"><path d="M 199.105469 44.316406 L 304.433594 134.636719 L 176.027344 284.371094 L 70.703125 194.050781 Z M 199.105469 44.316406 " clip-rule="nonzero"/></clipPath><clipPath id="f598ad1a08"><path d="M 141 202 L 156 202 L 156 209 L 141 209 Z M 141 202 " clip-rule="nonzero"/></clipPath><clipPath id="37121eb40a"><path d="M 199.105469 44.316406 L 304.433594 134.636719 L 176.027344 284.371094 L 70.703125 194.050781 Z M 199.105469 44.316406 " clip-rule="nonzero"/></clipPath><clipPath id="8bc79ca219"><path d="M 199.105469 44.316406 L 304.433594 134.636719 L 176.027344 284.371094 L 70.703125 194.050781 Z M 199.105469 44.316406 " clip-rule="nonzero"/></clipPath><clipPath id="7628bf80cb"><path d="M 199.105469 44.316406 L 304.433594 134.636719 L 176.027344 284.371094 L 70.703125 194.050781 Z M 199.105469 44.316406 " clip-rule="nonzero"/></clipPath><clipPath id="255e40533f"><path d="M 163 185 L 173 185 L 173 206 L 163 206 Z M 163 185 " clip-rule="nonzero"/></clipPath><clipPath id="717d85ac4f"><path d="M 199.105469 44.316406 L 304.433594 134.636719 L 176.027344 284.371094 L 70.703125 194.050781 Z M 199.105469 44.316406 " clip-rule="nonzero"/></clipPath><clipPath id="16f7252788"><path d="M 199.105469 44.316406 L 304.433594 134.636719 L 176.027344 284.371094 L 70.703125 194.050781 Z M 199.105469 44.316406 " clip-rule="nonzero"/></clipPath><clipPath id="de15ec2616"><path d="M 199.105469 44.316406 L 304.433594 134.636719 L 176.027344 284.371094 L 70.703125 194.050781 Z M 199.105469 44.316406 " clip-rule="nonzero"/></clipPath><clipPath id="4ebec7cd6f"><path d="M 148 184 L 158 184 L 158 206 L 148 206 Z M 148 184 " clip-rule="nonzero"/></clipPath><clipPath id="631af2e826"><path d="M 199.105469 44.316406 L 304.433594 134.636719 L 176.027344 284.371094 L 70.703125 194.050781 Z M 199.105469 44.316406 " clip-rule="nonzero"/></clipPath><clipPath id="058d1aadde"><path d="M 199.105469 44.316406 L 304.433594 134.636719 L 176.027344 284.371094 L 70.703125 194.050781 Z M 199.105469 44.316406 " clip-rule="nonzero"/></clipPath><clipPath id="5fd69bed72"><path d="M 199.105469 44.316406 L 304.433594 134.636719 L 176.027344 284.371094 L 70.703125 194.050781 Z M 199.105469 44.316406 " clip-rule="nonzero"/></clipPath><clipPath id="041f7b7558"><path d="M 158 184 L 168 184 L 168 206 L 158 206 Z M 158 184 " clip-rule="nonzero"/></clipPath><clipPath id="42f997de65"><path d="M 199.105469 44.316406 L 304.433594 134.636719 L 176.027344 284.371094 L 70.703125 194.050781 Z M 199.105469 44.316406 " clip-rule="nonzero"/></clipPath><clipPath id="fd3ba020a4"><path d="M 199.105469 44.316406 L 304.433594 134.636719 L 176.027344 284.371094 L 70.703125 194.050781 Z M 199.105469 44.316406 " clip-rule="nonzero"/></clipPath><clipPath id="0f4a391ce0"><path d="M 199.105469 44.316406 L 304.433594 134.636719 L 176.027344 284.371094 L 70.703125 194.050781 Z M 199.105469 44.316406 " clip-rule="nonzero"/></clipPath><clipPath id="f5637f5a64"><path d="M 153 185 L 163 185 L 163 206 L 153 206 Z M 153 185 " clip-rule="nonzero"/></clipPath><clipPath id="113eccf316"><path d="M 199.105469 44.316406 L 304.433594 134.636719 L 176.027344 284.371094 L 70.703125 194.050781 Z M 199.105469 44.316406 " clip-rule="nonzero"/></clipPath><clipPath id="4e71cc0c90"><path d="M 199.105469 44.316406 L 304.433594 134.636719 L 176.027344 284.371094 L 70.703125 194.050781 Z M 199.105469 44.316406 " clip-rule="nonzero"/></clipPath><clipPath id="992a4aef2d"><path d="M 199.105469 44.316406 L 304.433594 134.636719 L 176.027344 284.371094 L 70.703125 194.050781 Z M 199.105469 44.316406 " clip-rule="nonzero"/></clipPath><clipPath id="69be6eec69"><path d="M 131 144 L 149 144 L 149 149 L 131 149 Z M 131 144 " clip-rule="nonzero"/></clipPath><clipPath id="67b23f1ed1"><path d="M 199.105469 44.316406 L 304.433594 134.636719 L 176.027344 284.371094 L 70.703125 194.050781 Z M 199.105469 44.316406 " clip-rule="nonzero"/></clipPath><clipPath id="56e5418453"><path d="M 199.105469 44.316406 L 304.433594 134.636719 L 176.027344 284.371094 L 70.703125 194.050781 Z M 199.105469 44.316406 " clip-rule="nonzero"/></clipPath><clipPath id="a9107e2316"><path d="M 199.105469 44.316406 L 304.433594 134.636719 L 176.027344 284.371094 L 70.703125 194.050781 Z M 199.105469 44.316406 " clip-rule="nonzero"/></clipPath><clipPath id="aa77bff1b8"><path d="M 125 148 L 145 148 L 145 153 L 125 153 Z M 125 148 " clip-rule="nonzero"/></clipPath><clipPath id="a8bba8004f"><path d="M 199.105469 44.316406 L 304.433594 134.636719 L 176.027344 284.371094 L 70.703125 194.050781 Z M 199.105469 44.316406 " clip-rule="nonzero"/></clipPath><clipPath id="e5463b8758"><path d="M 199.105469 44.316406 L 304.433594 134.636719 L 176.027344 284.371094 L 70.703125 194.050781 Z M 199.105469 44.316406 " clip-rule="nonzero"/></clipPath><clipPath id="abef57d2bd"><path d="M 199.105469 44.316406 L 304.433594 134.636719 L 176.027344 284.371094 L 70.703125 194.050781 Z M 199.105469 44.316406 " clip-rule="nonzero"/></clipPath><clipPath id="f79617b013"><path d="M 144 145 L 158 145 L 158 165 L 144 165 Z M 144 145 " clip-rule="nonzero"/></clipPath><clipPath id="6cdc897656"><path d="M 199.105469 44.316406 L 304.433594 134.636719 L 176.027344 284.371094 L 70.703125 194.050781 Z M 199.105469 44.316406 " clip-rule="nonzero"/></clipPath><clipPath id="2cb4482148"><path d="M 199.105469 44.316406 L 304.433594 134.636719 L 176.027344 284.371094 L 70.703125 194.050781 Z M 199.105469 44.316406 " clip-rule="nonzero"/></clipPath><clipPath id="e2af0f646d"><path d="M 199.105469 44.316406 L 304.433594 134.636719 L 176.027344 284.371094 L 70.703125 194.050781 Z M 199.105469 44.316406 " clip-rule="nonzero"/></clipPath><clipPath id="4612eabc8e"><path d="M 134 156 L 148 156 L 148 176 L 134 176 Z M 134 156 " clip-rule="nonzero"/></clipPath><clipPath id="0ea18fe7f3"><path d="M 199.105469 44.316406 L 304.433594 134.636719 L 176.027344 284.371094 L 70.703125 194.050781 Z M 199.105469 44.316406 " clip-rule="nonzero"/></clipPath><clipPath id="6f072b302f"><path d="M 199.105469 44.316406 L 304.433594 134.636719 L 176.027344 284.371094 L 70.703125 194.050781 Z M 199.105469 44.316406 " clip-rule="nonzero"/></clipPath><clipPath id="74a1b1723e"><path d="M 199.105469 44.316406 L 304.433594 134.636719 L 176.027344 284.371094 L 70.703125 194.050781 Z M 199.105469 44.316406 " clip-rule="nonzero"/></clipPath><clipPath id="86f9ff4f51"><path d="M 141 149 L 155 149 L 155 169 L 141 169 Z M 141 149 " clip-rule="nonzero"/></clipPath><clipPath id="5e1f4556bc"><path d="M 199.105469 44.316406 L 304.433594 134.636719 L 176.027344 284.371094 L 70.703125 194.050781 Z M 199.105469 44.316406 " clip-rule="nonzero"/></clipPath><clipPath id="b2d2f672e5"><path d="M 199.105469 44.316406 L 304.433594 134.636719 L 176.027344 284.371094 L 70.703125 194.050781 Z M 199.105469 44.316406 " clip-rule="nonzero"/></clipPath><clipPath id="6ab266f0ca"><path d="M 199.105469 44.316406 L 304.433594 134.636719 L 176.027344 284.371094 L 70.703125 194.050781 Z M 199.105469 44.316406 " clip-rule="nonzero"/></clipPath><clipPath id="5c6b870337"><path d="M 137 152 L 151 152 L 151 172 L 137 172 Z M 137 152 " clip-rule="nonzero"/></clipPath><clipPath id="f4f7268411"><path d="M 199.105469 44.316406 L 304.433594 134.636719 L 176.027344 284.371094 L 70.703125 194.050781 Z M 199.105469 44.316406 " clip-rule="nonzero"/></clipPath><clipPath id="145d2a5dc2"><path d="M 199.105469 44.316406 L 304.433594 134.636719 L 176.027344 284.371094 L 70.703125 194.050781 Z M 199.105469 44.316406 " clip-rule="nonzero"/></clipPath><clipPath id="92da66424e"><path d="M 199.105469 44.316406 L 304.433594 134.636719 L 176.027344 284.371094 L 70.703125 194.050781 Z M 199.105469 44.316406 " clip-rule="nonzero"/></clipPath><clipPath id="a1229a0060"><path d="M 207 90 L 233 90 L 233 118 L 207 118 Z M 207 90 " clip-rule="nonzero"/></clipPath><clipPath id="229d98d79a"><path d="M 199.105469 44.316406 L 304.433594 134.636719 L 176.027344 284.371094 L 70.703125 194.050781 Z M 199.105469 44.316406 " clip-rule="nonzero"/></clipPath><clipPath id="5b5e80d499"><path d="M 199.105469 44.316406 L 304.433594 134.636719 L 176.027344 284.371094 L 70.703125 194.050781 Z M 199.105469 44.316406 " clip-rule="nonzero"/></clipPath><clipPath id="a08584e188"><path d="M 199.105469 44.316406 L 304.433594 134.636719 L 176.027344 284.371094 L 70.703125 194.050781 Z M 199.105469 44.316406 " clip-rule="nonzero"/></clipPath><clipPath id="e724ab0530"><path d="M 162 135 L 177 135 L 177 157 L 162 157 Z M 162 135 " clip-rule="nonzero"/></clipPath><clipPath id="ecd66e4546"><path d="M 199.105469 44.316406 L 304.433594 134.636719 L 176.027344 284.371094 L 70.703125 194.050781 Z M 199.105469 44.316406 " clip-rule="nonzero"/></clipPath><clipPath id="3e80c03287"><path d="M 199.105469 44.316406 L 304.433594 134.636719 L 176.027344 284.371094 L 70.703125 194.050781 Z M 199.105469 44.316406 " clip-rule="nonzero"/></clipPath><clipPath id="4ec406ef86"><path d="M 199.105469 44.316406 L 304.433594 134.636719 L 176.027344 284.371094 L 70.703125 194.050781 Z M 199.105469 44.316406 " clip-rule="nonzero"/></clipPath><clipPath id="52e34f6119"><path d="M 166 117 L 189 117 L 189 145 L 166 145 Z M 166 117 " clip-rule="nonzero"/></clipPath><clipPath id="ed2250252a"><path d="M 199.105469 44.316406 L 304.433594 134.636719 L 176.027344 284.371094 L 70.703125 194.050781 Z M 199.105469 44.316406 " clip-rule="nonzero"/></clipPath><clipPath id="f808f0e21d"><path d="M 199.105469 44.316406 L 304.433594 134.636719 L 176.027344 284.371094 L 70.703125 194.050781 Z M 199.105469 44.316406 " clip-rule="nonzero"/></clipPath><clipPath id="ae5bfc0150"><path d="M 199.105469 44.316406 L 304.433594 134.636719 L 176.027344 284.371094 L 70.703125 194.050781 Z M 199.105469 44.316406 " clip-rule="nonzero"/></clipPath><clipPath id="18da66c515"><path d="M 173 73 L 237 73 L 237 133 L 173 133 Z M 173 73 " clip-rule="nonzero"/></clipPath><clipPath id="7c35187395"><path d="M 199.105469 44.316406 L 304.433594 134.636719 L 176.027344 284.371094 L 70.703125 194.050781 Z M 199.105469 44.316406 " clip-rule="nonzero"/></clipPath><clipPath id="33ddb8365b"><path d="M 199.105469 44.316406 L 304.433594 134.636719 L 176.027344 284.371094 L 70.703125 194.050781 Z M 199.105469 44.316406 " clip-rule="nonzero"/></clipPath><clipPath id="b4d86f6892"><path d="M 199.105469 44.316406 L 304.433594 134.636719 L 176.027344 284.371094 L 70.703125 194.050781 Z M 199.105469 44.316406 " clip-rule="nonzero"/></clipPath><clipPath id="e837114459"><path d="M 178 115 L 182 115 L 182 121 L 178 121 Z M 178 115 " clip-rule="nonzero"/></clipPath><clipPath id="5a481eab79"><path d="M 199.105469 44.316406 L 304.433594 134.636719 L 176.027344 284.371094 L 70.703125 194.050781 Z M 199.105469 44.316406 " clip-rule="nonzero"/></clipPath><clipPath id="596a3a9465"><path d="M 199.105469 44.316406 L 304.433594 134.636719 L 176.027344 284.371094 L 70.703125 194.050781 Z M 199.105469 44.316406 " clip-rule="nonzero"/></clipPath><clipPath id="eca1862b59"><path d="M 199.105469 44.316406 L 304.433594 134.636719 L 176.027344 284.371094 L 70.703125 194.050781 Z M 199.105469 44.316406 " clip-rule="nonzero"/></clipPath><clipPath id="cd1ad4a79e"><path d="M 183 112 L 189 112 L 189 118 L 183 118 Z M 183 112 " clip-rule="nonzero"/></clipPath><clipPath id="bd170ff067"><path d="M 199.105469 44.316406 L 304.433594 134.636719 L 176.027344 284.371094 L 70.703125 194.050781 Z M 199.105469 44.316406 " clip-rule="nonzero"/></clipPath><clipPath id="6e6d92431f"><path d="M 199.105469 44.316406 L 304.433594 134.636719 L 176.027344 284.371094 L 70.703125 194.050781 Z M 199.105469 44.316406 " clip-rule="nonzero"/></clipPath><clipPath id="4ec89baa3d"><path d="M 199.105469 44.316406 L 304.433594 134.636719 L 176.027344 284.371094 L 70.703125 194.050781 Z M 199.105469 44.316406 " clip-rule="nonzero"/></clipPath><clipPath id="4dfe8e306c"><path d="M 190 101 L 194 101 L 194 106 L 190 106 Z M 190 101 " clip-rule="nonzero"/></clipPath><clipPath id="2b16306945"><path d="M 199.105469 44.316406 L 304.433594 134.636719 L 176.027344 284.371094 L 70.703125 194.050781 Z M 199.105469 44.316406 " clip-rule="nonzero"/></clipPath><clipPath id="b16ec462e0"><path d="M 199.105469 44.316406 L 304.433594 134.636719 L 176.027344 284.371094 L 70.703125 194.050781 Z M 199.105469 44.316406 " clip-rule="nonzero"/></clipPath><clipPath id="2dad5c0da7"><path d="M 199.105469 44.316406 L 304.433594 134.636719 L 176.027344 284.371094 L 70.703125 194.050781 Z M 199.105469 44.316406 " clip-rule="nonzero"/></clipPath><clipPath id="5f1cc6db20"><path d="M 179 98 L 188 98 L 188 111 L 179 111 Z M 179 98 " clip-rule="nonzero"/></clipPath><clipPath id="a51d652de6"><path d="M 199.105469 44.316406 L 304.433594 134.636719 L 176.027344 284.371094 L 70.703125 194.050781 Z M 199.105469 44.316406 " clip-rule="nonzero"/></clipPath><clipPath id="54f97ff7cb"><path d="M 199.105469 44.316406 L 304.433594 134.636719 L 176.027344 284.371094 L 70.703125 194.050781 Z M 199.105469 44.316406 " clip-rule="nonzero"/></clipPath><clipPath id="5715a207d8"><path d="M 199.105469 44.316406 L 304.433594 134.636719 L 176.027344 284.371094 L 70.703125 194.050781 Z M 199.105469 44.316406 " clip-rule="nonzero"/></clipPath><clipPath id="d9b7c80868"><path d="M 185 87 L 195 87 L 195 97 L 185 97 Z M 185 87 " clip-rule="nonzero"/></clipPath><clipPath id="d22b76d74c"><path d="M 199.105469 44.316406 L 304.433594 134.636719 L 176.027344 284.371094 L 70.703125 194.050781 Z M 199.105469 44.316406 " clip-rule="nonzero"/></clipPath><clipPath id="007ca0538d"><path d="M 199.105469 44.316406 L 304.433594 134.636719 L 176.027344 284.371094 L 70.703125 194.050781 Z M 199.105469 44.316406 " clip-rule="nonzero"/></clipPath><clipPath id="c348fbc29f"><path d="M 199.105469 44.316406 L 304.433594 134.636719 L 176.027344 284.371094 L 70.703125 194.050781 Z M 199.105469 44.316406 " clip-rule="nonzero"/></clipPath><clipPath id="bbda247eba"><path d="M 133 155 L 192 155 L 192 194 L 133 194 Z M 133 155 " clip-rule="nonzero"/></clipPath><clipPath id="3352a303bd"><path d="M 199.105469 44.316406 L 304.433594 134.636719 L 176.027344 284.371094 L 70.703125 194.050781 Z M 199.105469 44.316406 " clip-rule="nonzero"/></clipPath><clipPath id="7d3ccaab5c"><path d="M 199.105469 44.316406 L 304.433594 134.636719 L 176.027344 284.371094 L 70.703125 194.050781 Z M 199.105469 44.316406 " clip-rule="nonzero"/></clipPath><clipPath id="f6c959db2e"><path d="M 199.105469 44.316406 L 304.433594 134.636719 L 176.027344 284.371094 L 70.703125 194.050781 Z M 199.105469 44.316406 " clip-rule="nonzero"/></clipPath><clipPath id="0a1dfa5fe2"><path d="M 190 152 L 206 152 L 206 166 L 190 166 Z M 190 152 " clip-rule="nonzero"/></clipPath><clipPath id="9c7501a6c3"><path d="M 199.105469 44.316406 L 304.433594 134.636719 L 176.027344 284.371094 L 70.703125 194.050781 Z M 199.105469 44.316406 " clip-rule="nonzero"/></clipPath><clipPath id="d05f300dbf"><path d="M 199.105469 44.316406 L 304.433594 134.636719 L 176.027344 284.371094 L 70.703125 194.050781 Z M 199.105469 44.316406 " clip-rule="nonzero"/></clipPath><clipPath id="d2c6a3a809"><path d="M 199.105469 44.316406 L 304.433594 134.636719 L 176.027344 284.371094 L 70.703125 194.050781 Z M 199.105469 44.316406 " clip-rule="nonzero"/></clipPath><clipPath id="a95d0a365b"><path d="M 188 155 L 198 155 L 198 165 L 188 165 Z M 188 155 " clip-rule="nonzero"/></clipPath><clipPath id="3717a8b332"><path d="M 199.105469 44.316406 L 304.433594 134.636719 L 176.027344 284.371094 L 70.703125 194.050781 Z M 199.105469 44.316406 " clip-rule="nonzero"/></clipPath><clipPath id="79435502a8"><path d="M 199.105469 44.316406 L 304.433594 134.636719 L 176.027344 284.371094 L 70.703125 194.050781 Z M 199.105469 44.316406 " clip-rule="nonzero"/></clipPath><clipPath id="b10a6b6995"><path d="M 199.105469 44.316406 L 304.433594 134.636719 L 176.027344 284.371094 L 70.703125 194.050781 Z M 199.105469 44.316406 " clip-rule="nonzero"/></clipPath><clipPath id="d8b6767bba"><path d="M 190 162 L 207 162 L 207 168 L 190 168 Z M 190 162 " clip-rule="nonzero"/></clipPath><clipPath id="936efce75a"><path d="M 199.105469 44.316406 L 304.433594 134.636719 L 176.027344 284.371094 L 70.703125 194.050781 Z M 199.105469 44.316406 " clip-rule="nonzero"/></clipPath><clipPath id="d14c89800c"><path d="M 199.105469 44.316406 L 304.433594 134.636719 L 176.027344 284.371094 L 70.703125 194.050781 Z M 199.105469 44.316406 " clip-rule="nonzero"/></clipPath><clipPath id="b84698c95c"><path d="M 199.105469 44.316406 L 304.433594 134.636719 L 176.027344 284.371094 L 70.703125 194.050781 Z M 199.105469 44.316406 " clip-rule="nonzero"/></clipPath><clipPath id="7c523fed08"><path d="M 190 165 L 203 165 L 203 171 L 190 171 Z M 190 165 " clip-rule="nonzero"/></clipPath><clipPath id="bebf16c215"><path d="M 199.105469 44.316406 L 304.433594 134.636719 L 176.027344 284.371094 L 70.703125 194.050781 Z M 199.105469 44.316406 " clip-rule="nonzero"/></clipPath><clipPath id="493780c8bf"><path d="M 199.105469 44.316406 L 304.433594 134.636719 L 176.027344 284.371094 L 70.703125 194.050781 Z M 199.105469 44.316406 " clip-rule="nonzero"/></clipPath><clipPath id="3e0cc1e1fc"><path d="M 199.105469 44.316406 L 304.433594 134.636719 L 176.027344 284.371094 L 70.703125 194.050781 Z M 199.105469 44.316406 " clip-rule="nonzero"/></clipPath><clipPath id="47bcacaae0"><path d="M 87 168 L 115 168 L 115 221 L 87 221 Z M 87 168 " clip-rule="nonzero"/></clipPath><clipPath id="a005d8a6ce"><path d="M 199.105469 44.316406 L 304.433594 134.636719 L 176.027344 284.371094 L 70.703125 194.050781 Z M 199.105469 44.316406 " clip-rule="nonzero"/></clipPath><clipPath id="85f586d28f"><path d="M 199.105469 44.316406 L 304.433594 134.636719 L 176.027344 284.371094 L 70.703125 194.050781 Z M 199.105469 44.316406 " clip-rule="nonzero"/></clipPath><clipPath id="60d5aa8b8c"><path d="M 199.105469 44.316406 L 304.433594 134.636719 L 176.027344 284.371094 L 70.703125 194.050781 Z M 199.105469 44.316406 " clip-rule="nonzero"/></clipPath><clipPath id="0e84217730"><path d="M 87 168 L 112 168 L 112 221 L 87 221 Z M 87 168 " clip-rule="nonzero"/></clipPath><clipPath id="8cebcd6b10"><path d="M 199.105469 44.316406 L 304.433594 134.636719 L 176.027344 284.371094 L 70.703125 194.050781 Z M 199.105469 44.316406 " clip-rule="nonzero"/></clipPath><clipPath id="9e07d8a384"><path d="M 199.105469 44.316406 L 304.433594 134.636719 L 176.027344 284.371094 L 70.703125 194.050781 Z M 199.105469 44.316406 " clip-rule="nonzero"/></clipPath><clipPath id="0b0995b780"><path d="M 199.105469 44.316406 L 304.433594 134.636719 L 176.027344 284.371094 L 70.703125 194.050781 Z M 199.105469 44.316406 " clip-rule="nonzero"/></clipPath><clipPath id="3418c7c103"><path d="M 106 179 L 122 179 L 122 201 L 106 201 Z M 106 179 " clip-rule="nonzero"/></clipPath><clipPath id="f5768fb53d"><path d="M 199.105469 44.316406 L 304.433594 134.636719 L 176.027344 284.371094 L 70.703125 194.050781 Z M 199.105469 44.316406 " clip-rule="nonzero"/></clipPath><clipPath id="df2eb0d861"><path d="M 199.105469 44.316406 L 304.433594 134.636719 L 176.027344 284.371094 L 70.703125 194.050781 Z M 199.105469 44.316406 " clip-rule="nonzero"/></clipPath><clipPath id="8bd78b24d6"><path d="M 199.105469 44.316406 L 304.433594 134.636719 L 176.027344 284.371094 L 70.703125 194.050781 Z M 199.105469 44.316406 " clip-rule="nonzero"/></clipPath><clipPath id="6302312d15"><path d="M 114 175 L 130 175 L 130 201 L 114 201 Z M 114 175 " clip-rule="nonzero"/></clipPath><clipPath id="0130ff80b9"><path d="M 199.105469 44.316406 L 304.433594 134.636719 L 176.027344 284.371094 L 70.703125 194.050781 Z M 199.105469 44.316406 " clip-rule="nonzero"/></clipPath><clipPath id="4ded4572eb"><path d="M 199.105469 44.316406 L 304.433594 134.636719 L 176.027344 284.371094 L 70.703125 194.050781 Z M 199.105469 44.316406 " clip-rule="nonzero"/></clipPath><clipPath id="864593e5f6"><path d="M 199.105469 44.316406 L 304.433594 134.636719 L 176.027344 284.371094 L 70.703125 194.050781 Z M 199.105469 44.316406 " clip-rule="nonzero"/></clipPath><clipPath id="eeb936f034"><path d="M 121 173 L 137 173 L 137 199 L 121 199 Z M 121 173 " clip-rule="nonzero"/></clipPath><clipPath id="c2ecf059e4"><path d="M 199.105469 44.316406 L 304.433594 134.636719 L 176.027344 284.371094 L 70.703125 194.050781 Z M 199.105469 44.316406 " clip-rule="nonzero"/></clipPath><clipPath id="ad51291c56"><path d="M 199.105469 44.316406 L 304.433594 134.636719 L 176.027344 284.371094 L 70.703125 194.050781 Z M 199.105469 44.316406 " clip-rule="nonzero"/></clipPath><clipPath id="70ff307362"><path d="M 199.105469 44.316406 L 304.433594 134.636719 L 176.027344 284.371094 L 70.703125 194.050781 Z M 199.105469 44.316406 " clip-rule="nonzero"/></clipPath><clipPath id="88d2880b42"><path d="M 126 170 L 144 170 L 144 199 L 126 199 Z M 126 170 " clip-rule="nonzero"/></clipPath><clipPath id="4fc5e33c4a"><path d="M 199.105469 44.316406 L 304.433594 134.636719 L 176.027344 284.371094 L 70.703125 194.050781 Z M 199.105469 44.316406 " clip-rule="nonzero"/></clipPath><clipPath id="c3e92bfcc3"><path d="M 199.105469 44.316406 L 304.433594 134.636719 L 176.027344 284.371094 L 70.703125 194.050781 Z M 199.105469 44.316406 " clip-rule="nonzero"/></clipPath><clipPath id="f474f949dd"><path d="M 199.105469 44.316406 L 304.433594 134.636719 L 176.027344 284.371094 L 70.703125 194.050781 Z M 199.105469 44.316406 " clip-rule="nonzero"/></clipPath><clipPath id="bae7dc0d9b"><path d="M 161 163 L 170 163 L 170 170 L 161 170 Z M 161 163 " clip-rule="nonzero"/></clipPath><clipPath id="f5fa39def5"><path d="M 199.105469 44.316406 L 304.433594 134.636719 L 176.027344 284.371094 L 70.703125 194.050781 Z M 199.105469 44.316406 " clip-rule="nonzero"/></clipPath><clipPath id="ccf5c6235c"><path d="M 199.105469 44.316406 L 304.433594 134.636719 L 176.027344 284.371094 L 70.703125 194.050781 Z M 199.105469 44.316406 " clip-rule="nonzero"/></clipPath><clipPath id="34f4ad1dee"><path d="M 199.105469 44.316406 L 304.433594 134.636719 L 176.027344 284.371094 L 70.703125 194.050781 Z M 199.105469 44.316406 " clip-rule="nonzero"/></clipPath><clipPath id="e3f3e25999"><path d="M 165 174 L 173 174 L 173 179 L 165 179 Z M 165 174 " clip-rule="nonzero"/></clipPath><clipPath id="0bb6c2c41d"><path d="M 199.105469 44.316406 L 304.433594 134.636719 L 176.027344 284.371094 L 70.703125 194.050781 Z M 199.105469 44.316406 " clip-rule="nonzero"/></clipPath><clipPath id="eb2717bf1f"><path d="M 199.105469 44.316406 L 304.433594 134.636719 L 176.027344 284.371094 L 70.703125 194.050781 Z M 199.105469 44.316406 " clip-rule="nonzero"/></clipPath><clipPath id="9e2577c43d"><path d="M 199.105469 44.316406 L 304.433594 134.636719 L 176.027344 284.371094 L 70.703125 194.050781 Z M 199.105469 44.316406 " clip-rule="nonzero"/></clipPath><clipPath id="8f42b51cd9"><path d="M 164 180 L 169 180 L 169 184 L 164 184 Z M 164 180 " clip-rule="nonzero"/></clipPath><clipPath id="8c78605d33"><path d="M 199.105469 44.316406 L 304.433594 134.636719 L 176.027344 284.371094 L 70.703125 194.050781 Z M 199.105469 44.316406 " clip-rule="nonzero"/></clipPath><clipPath id="dbf2f2601a"><path d="M 199.105469 44.316406 L 304.433594 134.636719 L 176.027344 284.371094 L 70.703125 194.050781 Z M 199.105469 44.316406 " clip-rule="nonzero"/></clipPath><clipPath id="45c84a2dda"><path d="M 199.105469 44.316406 L 304.433594 134.636719 L 176.027344 284.371094 L 70.703125 194.050781 Z M 199.105469 44.316406 " clip-rule="nonzero"/></clipPath><clipPath id="322828ade9"><path d="M 163 170 L 169 170 L 169 175 L 163 175 Z M 163 170 " clip-rule="nonzero"/></clipPath><clipPath id="ebd929c2a3"><path d="M 199.105469 44.316406 L 304.433594 134.636719 L 176.027344 284.371094 L 70.703125 194.050781 Z M 199.105469 44.316406 " clip-rule="nonzero"/></clipPath><clipPath id="c911585ca4"><path d="M 199.105469 44.316406 L 304.433594 134.636719 L 176.027344 284.371094 L 70.703125 194.050781 Z M 199.105469 44.316406 " clip-rule="nonzero"/></clipPath><clipPath id="f525cb61ff"><path d="M 199.105469 44.316406 L 304.433594 134.636719 L 176.027344 284.371094 L 70.703125 194.050781 Z M 199.105469 44.316406 " clip-rule="nonzero"/></clipPath><clipPath id="5a7390a3cd"><path d="M 151 161 L 156 161 L 156 166 L 151 166 Z M 151 161 " clip-rule="nonzero"/></clipPath><clipPath id="3cc3db06e7"><path d="M 199.105469 44.316406 L 304.433594 134.636719 L 176.027344 284.371094 L 70.703125 194.050781 Z M 199.105469 44.316406 " clip-rule="nonzero"/></clipPath><clipPath id="2de425087f"><path d="M 199.105469 44.316406 L 304.433594 134.636719 L 176.027344 284.371094 L 70.703125 194.050781 Z M 199.105469 44.316406 " clip-rule="nonzero"/></clipPath><clipPath id="3ee851719e"><path d="M 199.105469 44.316406 L 304.433594 134.636719 L 176.027344 284.371094 L 70.703125 194.050781 Z M 199.105469 44.316406 " clip-rule="nonzero"/></clipPath><clipPath id="84348808f3"><path d="M 148 172 L 152 172 L 152 176 L 148 176 Z M 148 172 " clip-rule="nonzero"/></clipPath><clipPath id="ad1988b337"><path d="M 199.105469 44.316406 L 304.433594 134.636719 L 176.027344 284.371094 L 70.703125 194.050781 Z M 199.105469 44.316406 " clip-rule="nonzero"/></clipPath><clipPath id="41df47e606"><path d="M 199.105469 44.316406 L 304.433594 134.636719 L 176.027344 284.371094 L 70.703125 194.050781 Z M 199.105469 44.316406 " clip-rule="nonzero"/></clipPath><clipPath id="4658954c47"><path d="M 199.105469 44.316406 L 304.433594 134.636719 L 176.027344 284.371094 L 70.703125 194.050781 Z M 199.105469 44.316406 " clip-rule="nonzero"/></clipPath><clipPath id="5d8aadeec5"><path d="M 152 177 L 157 177 L 157 182 L 152 182 Z M 152 177 " clip-rule="nonzero"/></clipPath><clipPath id="b656502013"><path d="M 199.105469 44.316406 L 304.433594 134.636719 L 176.027344 284.371094 L 70.703125 194.050781 Z M 199.105469 44.316406 " clip-rule="nonzero"/></clipPath><clipPath id="9976572afa"><path d="M 199.105469 44.316406 L 304.433594 134.636719 L 176.027344 284.371094 L 70.703125 194.050781 Z M 199.105469 44.316406 " clip-rule="nonzero"/></clipPath><clipPath id="58ac7124be"><path d="M 199.105469 44.316406 L 304.433594 134.636719 L 176.027344 284.371094 L 70.703125 194.050781 Z M 199.105469 44.316406 " clip-rule="nonzero"/></clipPath><clipPath id="c93f153c12"><path d="M 219 149 L 248 149 L 248 174 L 219 174 Z M 219 149 " clip-rule="nonzero"/></clipPath><clipPath id="1b47b895c4"><path d="M 199.105469 44.316406 L 304.433594 134.636719 L 176.027344 284.371094 L 70.703125 194.050781 Z M 199.105469 44.316406 " clip-rule="nonzero"/></clipPath><clipPath id="8a298ebbd6"><path d="M 199.105469 44.316406 L 304.433594 134.636719 L 176.027344 284.371094 L 70.703125 194.050781 Z M 199.105469 44.316406 " clip-rule="nonzero"/></clipPath><clipPath id="bf93b67948"><path d="M 199.105469 44.316406 L 304.433594 134.636719 L 176.027344 284.371094 L 70.703125 194.050781 Z M 199.105469 44.316406 " clip-rule="nonzero"/></clipPath><clipPath id="0116f51e26"><path d="M 169 182 L 192 182 L 192 198 L 169 198 Z M 169 182 " clip-rule="nonzero"/></clipPath><clipPath id="6dc6e8beca"><path d="M 199.105469 44.316406 L 304.433594 134.636719 L 176.027344 284.371094 L 70.703125 194.050781 Z M 199.105469 44.316406 " clip-rule="nonzero"/></clipPath><clipPath id="fee09668a8"><path d="M 199.105469 44.316406 L 304.433594 134.636719 L 176.027344 284.371094 L 70.703125 194.050781 Z M 199.105469 44.316406 " clip-rule="nonzero"/></clipPath><clipPath id="89a80bc057"><path d="M 199.105469 44.316406 L 304.433594 134.636719 L 176.027344 284.371094 L 70.703125 194.050781 Z M 199.105469 44.316406 " clip-rule="nonzero"/></clipPath><clipPath id="df47639e4e"><path d="M 187 184 L 214 184 L 214 205 L 187 205 Z M 187 184 " clip-rule="nonzero"/></clipPath><clipPath id="e3d027f21c"><path d="M 199.105469 44.316406 L 304.433594 134.636719 L 176.027344 284.371094 L 70.703125 194.050781 Z M 199.105469 44.316406 " clip-rule="nonzero"/></clipPath><clipPath id="753e714749"><path d="M 199.105469 44.316406 L 304.433594 134.636719 L 176.027344 284.371094 L 70.703125 194.050781 Z M 199.105469 44.316406 " clip-rule="nonzero"/></clipPath><clipPath id="165db947ba"><path d="M 199.105469 44.316406 L 304.433594 134.636719 L 176.027344 284.371094 L 70.703125 194.050781 Z M 199.105469 44.316406 " clip-rule="nonzero"/></clipPath><clipPath id="293a47a058"><path d="M 202 146 L 265 146 L 265 207 L 202 207 Z M 202 146 " clip-rule="nonzero"/></clipPath><clipPath id="ac9cbf571d"><path d="M 199.105469 44.316406 L 304.433594 134.636719 L 176.027344 284.371094 L 70.703125 194.050781 Z M 199.105469 44.316406 " clip-rule="nonzero"/></clipPath><clipPath id="b283d4e20a"><path d="M 199.105469 44.316406 L 304.433594 134.636719 L 176.027344 284.371094 L 70.703125 194.050781 Z M 199.105469 44.316406 " clip-rule="nonzero"/></clipPath><clipPath id="b3cae2da62"><path d="M 199.105469 44.316406 L 304.433594 134.636719 L 176.027344 284.371094 L 70.703125 194.050781 Z M 199.105469 44.316406 " clip-rule="nonzero"/></clipPath><clipPath id="5fdb1c1953"><path d="M 214 198 L 220 198 L 220 202 L 214 202 Z M 214 198 " clip-rule="nonzero"/></clipPath><clipPath id="d13e04263e"><path d="M 199.105469 44.316406 L 304.433594 134.636719 L 176.027344 284.371094 L 70.703125 194.050781 Z M 199.105469 44.316406 " clip-rule="nonzero"/></clipPath><clipPath id="90820b2a12"><path d="M 199.105469 44.316406 L 304.433594 134.636719 L 176.027344 284.371094 L 70.703125 194.050781 Z M 199.105469 44.316406 " clip-rule="nonzero"/></clipPath><clipPath id="bd4bcce6ef"><path d="M 199.105469 44.316406 L 304.433594 134.636719 L 176.027344 284.371094 L 70.703125 194.050781 Z M 199.105469 44.316406 " clip-rule="nonzero"/></clipPath><clipPath id="a6a4a2155f"><path d="M 217 192 L 223 192 L 223 197 L 217 197 Z M 217 192 " clip-rule="nonzero"/></clipPath><clipPath id="8e9668db08"><path d="M 199.105469 44.316406 L 304.433594 134.636719 L 176.027344 284.371094 L 70.703125 194.050781 Z M 199.105469 44.316406 " clip-rule="nonzero"/></clipPath><clipPath id="1d6ba2f4d9"><path d="M 199.105469 44.316406 L 304.433594 134.636719 L 176.027344 284.371094 L 70.703125 194.050781 Z M 199.105469 44.316406 " clip-rule="nonzero"/></clipPath><clipPath id="e0ab7746a4"><path d="M 199.105469 44.316406 L 304.433594 134.636719 L 176.027344 284.371094 L 70.703125 194.050781 Z M 199.105469 44.316406 " clip-rule="nonzero"/></clipPath><clipPath id="284c4cc50a"><path d="M 229 187 L 235 187 L 235 191 L 229 191 Z M 229 187 " clip-rule="nonzero"/></clipPath><clipPath id="31fd5cb75c"><path d="M 199.105469 44.316406 L 304.433594 134.636719 L 176.027344 284.371094 L 70.703125 194.050781 Z M 199.105469 44.316406 " clip-rule="nonzero"/></clipPath><clipPath id="dc31ecd241"><path d="M 199.105469 44.316406 L 304.433594 134.636719 L 176.027344 284.371094 L 70.703125 194.050781 Z M 199.105469 44.316406 " clip-rule="nonzero"/></clipPath><clipPath id="7d163eee07"><path d="M 199.105469 44.316406 L 304.433594 134.636719 L 176.027344 284.371094 L 70.703125 194.050781 Z M 199.105469 44.316406 " clip-rule="nonzero"/></clipPath><clipPath id="9f21933ecb"><path d="M 224 193 L 237 193 L 237 201 L 224 201 Z M 224 193 " clip-rule="nonzero"/></clipPath><clipPath id="b42500db8c"><path d="M 199.105469 44.316406 L 304.433594 134.636719 L 176.027344 284.371094 L 70.703125 194.050781 Z M 199.105469 44.316406 " clip-rule="nonzero"/></clipPath><clipPath id="f0b05d834c"><path d="M 199.105469 44.316406 L 304.433594 134.636719 L 176.027344 284.371094 L 70.703125 194.050781 Z M 199.105469 44.316406 " clip-rule="nonzero"/></clipPath><clipPath id="431fae6814"><path d="M 199.105469 44.316406 L 304.433594 134.636719 L 176.027344 284.371094 L 70.703125 194.050781 Z M 199.105469 44.316406 " clip-rule="nonzero"/></clipPath><clipPath id="b6d3bc42e7"><path d="M 238 188 L 248 188 L 248 197 L 238 197 Z M 238 188 " clip-rule="nonzero"/></clipPath><clipPath id="391c7a8f79"><path d="M 199.105469 44.316406 L 304.433594 134.636719 L 176.027344 284.371094 L 70.703125 194.050781 Z M 199.105469 44.316406 " clip-rule="nonzero"/></clipPath><clipPath id="3c8670237f"><path d="M 199.105469 44.316406 L 304.433594 134.636719 L 176.027344 284.371094 L 70.703125 194.050781 Z M 199.105469 44.316406 " clip-rule="nonzero"/></clipPath><clipPath id="92b20adeae"><path d="M 199.105469 44.316406 L 304.433594 134.636719 L 176.027344 284.371094 L 70.703125 194.050781 Z M 199.105469 44.316406 " clip-rule="nonzero"/></clipPath><clipPath id="1bb30ea317"><path d="M 121 152 L 141 152 L 141 159 L 121 159 Z M 121 152 " clip-rule="nonzero"/></clipPath><clipPath id="3efbdce3fe"><path d="M 199.105469 44.316406 L 304.433594 134.636719 L 176.027344 284.371094 L 70.703125 194.050781 Z M 199.105469 44.316406 " clip-rule="nonzero"/></clipPath><clipPath id="a115fb145d"><path d="M 199.105469 44.316406 L 304.433594 134.636719 L 176.027344 284.371094 L 70.703125 194.050781 Z M 199.105469 44.316406 " clip-rule="nonzero"/></clipPath><clipPath id="fe79cc77c6"><path d="M 199.105469 44.316406 L 304.433594 134.636719 L 176.027344 284.371094 L 70.703125 194.050781 Z M 199.105469 44.316406 " clip-rule="nonzero"/></clipPath><clipPath id="37eacfb8a1"><path d="M 202 187 L 210 187 L 210 203 L 202 203 Z M 202 187 " clip-rule="nonzero"/></clipPath><clipPath id="f391fe069a"><path d="M 199.105469 44.316406 L 304.433594 134.636719 L 176.027344 284.371094 L 70.703125 194.050781 Z M 199.105469 44.316406 " clip-rule="nonzero"/></clipPath><clipPath id="c69958e1c2"><path d="M 199.105469 44.316406 L 304.433594 134.636719 L 176.027344 284.371094 L 70.703125 194.050781 Z M 199.105469 44.316406 " clip-rule="nonzero"/></clipPath><clipPath id="4e6d2144f6"><path d="M 199.105469 44.316406 L 304.433594 134.636719 L 176.027344 284.371094 L 70.703125 194.050781 Z M 199.105469 44.316406 " clip-rule="nonzero"/></clipPath><clipPath id="85ea6efc06"><path d="M 186 185 L 190 185 L 190 198 L 186 198 Z M 186 185 " clip-rule="nonzero"/></clipPath><clipPath id="dfe4f02849"><path d="M 199.105469 44.316406 L 304.433594 134.636719 L 176.027344 284.371094 L 70.703125 194.050781 Z M 199.105469 44.316406 " clip-rule="nonzero"/></clipPath><clipPath id="3adbf82d0f"><path d="M 199.105469 44.316406 L 304.433594 134.636719 L 176.027344 284.371094 L 70.703125 194.050781 Z M 199.105469 44.316406 " clip-rule="nonzero"/></clipPath><clipPath id="19bd6d9c1b"><path d="M 199.105469 44.316406 L 304.433594 134.636719 L 176.027344 284.371094 L 70.703125 194.050781 Z M 199.105469 44.316406 " clip-rule="nonzero"/></clipPath><clipPath id="67d81ce846"><path d="M 169 182 L 181 182 L 181 190 L 169 190 Z M 169 182 " clip-rule="nonzero"/></clipPath><clipPath id="ce32bd8984"><path d="M 199.105469 44.316406 L 304.433594 134.636719 L 176.027344 284.371094 L 70.703125 194.050781 Z M 199.105469 44.316406 " clip-rule="nonzero"/></clipPath><clipPath id="f6ad908e4e"><path d="M 199.105469 44.316406 L 304.433594 134.636719 L 176.027344 284.371094 L 70.703125 194.050781 Z M 199.105469 44.316406 " clip-rule="nonzero"/></clipPath><clipPath id="decb79edad"><path d="M 199.105469 44.316406 L 304.433594 134.636719 L 176.027344 284.371094 L 70.703125 194.050781 Z M 199.105469 44.316406 " clip-rule="nonzero"/></clipPath><clipPath id="323fc412ea"><path d="M 162 155 L 174 155 L 174 157 L 162 157 Z M 162 155 " clip-rule="nonzero"/></clipPath><clipPath id="83d7db2aa1"><path d="M 199.105469 44.316406 L 304.433594 134.636719 L 176.027344 284.371094 L 70.703125 194.050781 Z M 199.105469 44.316406 " clip-rule="nonzero"/></clipPath><clipPath id="34776d935d"><path d="M 199.105469 44.316406 L 304.433594 134.636719 L 176.027344 284.371094 L 70.703125 194.050781 Z M 199.105469 44.316406 " clip-rule="nonzero"/></clipPath><clipPath id="269e6198f0"><path d="M 199.105469 44.316406 L 304.433594 134.636719 L 176.027344 284.371094 L 70.703125 194.050781 Z M 199.105469 44.316406 " clip-rule="nonzero"/></clipPath><clipPath id="7bbe92416e"><path d="M 167 136 L 177 136 L 177 146 L 167 146 Z M 167 136 " clip-rule="nonzero"/></clipPath><clipPath id="b293a97aef"><path d="M 199.105469 44.316406 L 304.433594 134.636719 L 176.027344 284.371094 L 70.703125 194.050781 Z M 199.105469 44.316406 " clip-rule="nonzero"/></clipPath><clipPath id="e956c2f727"><path d="M 199.105469 44.316406 L 304.433594 134.636719 L 176.027344 284.371094 L 70.703125 194.050781 Z M 199.105469 44.316406 " clip-rule="nonzero"/></clipPath><clipPath id="989176db50"><path d="M 199.105469 44.316406 L 304.433594 134.636719 L 176.027344 284.371094 L 70.703125 194.050781 Z M 199.105469 44.316406 " clip-rule="nonzero"/></clipPath><clipPath id="5c6e4c6150"><path d="M 173 118 L 185 118 L 185 132 L 173 132 Z M 173 118 " clip-rule="nonzero"/></clipPath><clipPath id="11b45aa101"><path d="M 199.105469 44.316406 L 304.433594 134.636719 L 176.027344 284.371094 L 70.703125 194.050781 Z M 199.105469 44.316406 " clip-rule="nonzero"/></clipPath><clipPath id="7ff929ad69"><path d="M 199.105469 44.316406 L 304.433594 134.636719 L 176.027344 284.371094 L 70.703125 194.050781 Z M 199.105469 44.316406 " clip-rule="nonzero"/></clipPath><clipPath id="4552bf29cb"><path d="M 199.105469 44.316406 L 304.433594 134.636719 L 176.027344 284.371094 L 70.703125 194.050781 Z M 199.105469 44.316406 " clip-rule="nonzero"/></clipPath></defs><g clip-path="url(#f943b92e85)"><g clip-path="url(#3fdb49240f)"><g clip-path="url(#f55eb1c28d)"><g clip-path="url(#b6fc7ffa61)"><path fill="#fc5538" d="M 125.253906 161.335938 C 125.574219 161.609375 126.035156 161.675781 126.429688 161.476562 C 131.757812 158.765625 136.578125 158.664062 136.625 158.664062 C 137.210938 158.65625 137.679688 158.171875 137.667969 157.589844 C 137.660156 157.003906 137.179688 156.535156 136.59375 156.542969 C 136.378906 156.542969 131.253906 156.640625 125.464844 159.585938 C 124.941406 159.851562 124.734375 160.488281 125 161.011719 C 125.066406 161.140625 125.152344 161.25 125.253906 161.335938 Z M 125.253906 161.335938 " fill-opacity="1" fill-rule="nonzero"/></g></g></g></g><g clip-path="url(#79f9431672)"><g clip-path="url(#e11726a95b)"><g clip-path="url(#c326bd0407)"><g clip-path="url(#d49010006e)"><path fill="#682a0c" d="M 188.175781 171.355469 C 188.175781 171.355469 194.863281 177.121094 188.503906 183.789062 C 182.816406 189.746094 169.945312 198.207031 147.859375 202.140625 C 147.4375 202.21875 147.527344 202.847656 147.957031 202.800781 C 157.070312 201.824219 172.167969 199.066406 185.558594 191.28125 C 190.324219 188.507812 196.066406 184.179688 198.28125 179.128906 C 200.539062 173.972656 199.253906 167.945312 191.5625 164.472656 Z M 188.175781 171.355469 " fill-opacity="1" fill-rule="nonzero"/></g></g></g></g><g clip-path="url(#238ebd8a95)"><g clip-path="url(#a3a7032ff8)"><g clip-path="url(#bc58425eaa)"><g clip-path="url(#15edd73856)"><path fill="#682a0c" d="M 182.144531 159.515625 C 182.144531 159.515625 183.898438 150.867188 174.78125 149.480469 C 166.222656 148.179688 153.214844 151.636719 132.308594 163.773438 C 131.914062 164.003906 131.535156 163.453125 131.898438 163.175781 C 138.257812 158.28125 151.941406 148.941406 167.859375 145.351562 C 173.238281 144.136719 180.523438 144.550781 185.371094 147.195312 C 190.320312 149.890625 192.996094 155.441406 189.046875 162.886719 Z M 182.144531 159.515625 " fill-opacity="1" fill-rule="nonzero"/></g></g></g></g><g clip-path="url(#7b0443d1e0)"><g clip-path="url(#120ed6a4bb)"><g clip-path="url(#5e06481c00)"><g clip-path="url(#3af5aa8cca)"><path fill="#fc5538" d="M 159.292969 215.59375 C 159.648438 215.898438 160.175781 215.941406 160.582031 215.667969 C 168.382812 210.375 170.453125 204.53125 170.539062 204.285156 C 170.726562 203.730469 170.433594 203.125 169.878906 202.9375 C 169.324219 202.746094 168.722656 203.039062 168.53125 203.589844 C 168.503906 203.664062 166.546875 209.054688 159.386719 213.910156 C 158.902344 214.242188 158.777344 214.902344 159.105469 215.386719 C 159.160156 215.464844 159.222656 215.535156 159.292969 215.59375 Z M 159.292969 215.59375 " fill-opacity="1" fill-rule="nonzero"/></g></g></g></g><g clip-path="url(#5f2a08ff1c)"><g clip-path="url(#be8c4fe70f)"><g clip-path="url(#420c707c9b)"><g clip-path="url(#a32fdcfd3f)"><path fill="#fc5538" d="M 151.269531 216.3125 C 151.585938 216.585938 152.042969 216.65625 152.4375 216.457031 C 161.609375 211.835938 165.242188 204.550781 165.394531 204.242188 C 165.648438 203.71875 165.433594 203.082031 164.90625 202.824219 C 164.378906 202.566406 163.742188 202.785156 163.488281 203.308594 C 163.453125 203.378906 159.984375 210.273438 151.480469 214.5625 C 150.957031 214.824219 150.746094 215.460938 151.011719 215.988281 C 151.078125 216.113281 151.164062 216.226562 151.269531 216.3125 Z M 151.269531 216.3125 " fill-opacity="1" fill-rule="nonzero"/></g></g></g></g><g clip-path="url(#ef4a906655)"><g clip-path="url(#fc98fe2a61)"><g clip-path="url(#db91649c8c)"><g clip-path="url(#2b6fb953d0)"><path fill="#fc5538" d="M 149.558594 212.085938 C 149.8125 212.308594 150.171875 212.402344 150.523438 212.308594 C 154.402344 211.265625 159.960938 205.441406 160.195312 205.195312 C 160.597656 204.769531 160.582031 204.097656 160.15625 203.695312 C 159.726562 203.292969 159.058594 203.308594 158.65625 203.730469 C 157.167969 205.296875 152.710938 209.523438 149.972656 210.257812 C 149.40625 210.410156 149.070312 210.992188 149.222656 211.558594 C 149.28125 211.769531 149.398438 211.953125 149.558594 212.085938 Z M 149.558594 212.085938 " fill-opacity="1" fill-rule="nonzero"/></g></g></g></g><g clip-path="url(#f598ad1a08)"><g clip-path="url(#37121eb40a)"><g clip-path="url(#8bc79ca219)"><g clip-path="url(#7628bf80cb)"><path fill="#fc5538" d="M 142.074219 208.515625 C 142.25 208.664062 142.472656 208.757812 142.714844 208.769531 C 148.027344 209.019531 155.015625 204.269531 155.308594 204.066406 C 155.792969 203.734375 155.914062 203.074219 155.582031 202.589844 C 155.253906 202.109375 154.589844 201.984375 154.109375 202.316406 C 154.042969 202.363281 147.410156 206.867188 142.8125 206.652344 C 142.226562 206.621094 141.730469 207.074219 141.703125 207.660156 C 141.6875 208 141.835938 208.308594 142.074219 208.515625 Z M 142.074219 208.515625 " fill-opacity="1" fill-rule="nonzero"/></g></g></g></g><g clip-path="url(#255e40533f)"><g clip-path="url(#717d85ac4f)"><g clip-path="url(#16f7252788)"><g clip-path="url(#de15ec2616)"><path fill="#ff542c" d="M 167.476562 205.035156 C 167.914062 205.5 168.519531 205.808594 169.203125 205.863281 C 170.664062 205.976562 171.941406 204.882812 172.050781 203.421875 C 172.617188 195.957031 168.371094 186.941406 168.1875 186.5625 C 167.558594 185.242188 165.972656 184.675781 164.652344 185.304688 C 163.328125 185.933594 162.769531 187.515625 163.398438 188.839844 C 163.46875 188.980469 167.21875 196.992188 166.761719 203.015625 C 166.703125 203.789062 166.980469 204.507812 167.476562 205.035156 Z M 167.476562 205.035156 " fill-opacity="1" fill-rule="nonzero"/></g></g></g></g><g clip-path="url(#4ebec7cd6f)"><g clip-path="url(#631af2e826)"><g clip-path="url(#058d1aadde)"><g clip-path="url(#5fd69bed72)"><path fill="#d83705" d="M 152.863281 204.199219 C 153.300781 204.664062 153.90625 204.972656 154.589844 205.027344 C 156.050781 205.140625 157.328125 204.046875 157.4375 202.585938 C 158.003906 195.121094 153.757812 186.105469 153.574219 185.726562 C 152.945312 184.40625 151.359375 183.839844 150.039062 184.46875 C 148.71875 185.097656 148.15625 186.679688 148.785156 188 C 148.824219 188.082031 152.605469 196.132812 152.148438 202.179688 C 152.089844 202.953125 152.367188 203.675781 152.863281 204.199219 Z M 152.863281 204.199219 " fill-opacity="1" fill-rule="nonzero"/></g></g></g></g><g clip-path="url(#041f7b7558)"><g clip-path="url(#42f997de65)"><g clip-path="url(#fd3ba020a4)"><g clip-path="url(#0f4a391ce0)"><path fill="#d83705" d="M 162.609375 204.503906 C 163.046875 204.972656 163.65625 205.28125 164.339844 205.335938 C 165.800781 205.445312 167.078125 204.355469 167.1875 202.894531 C 167.753906 195.429688 163.507812 186.414062 163.324219 186.035156 C 162.695312 184.710938 161.109375 184.148438 159.789062 184.777344 C 158.464844 185.40625 157.90625 186.988281 158.535156 188.308594 C 158.601562 188.453125 162.355469 196.460938 161.898438 202.484375 C 161.839844 203.257812 162.117188 203.980469 162.609375 204.503906 Z M 162.609375 204.503906 " fill-opacity="1" fill-rule="nonzero"/></g></g></g></g><g clip-path="url(#f5637f5a64)"><g clip-path="url(#113eccf316)"><g clip-path="url(#4e71cc0c90)"><g clip-path="url(#992a4aef2d)"><path fill="#ff542c" d="M 157.714844 205.101562 C 158.152344 205.566406 158.757812 205.878906 159.445312 205.929688 C 160.90625 206.042969 162.179688 204.953125 162.289062 203.492188 C 162.859375 196.023438 158.609375 187.011719 158.425781 186.628906 C 157.796875 185.308594 156.214844 184.742188 154.890625 185.375 C 153.570312 186 153.007812 187.582031 153.636719 188.90625 C 153.675781 188.984375 157.460938 197.035156 157 203.082031 C 156.941406 203.855469 157.21875 204.578125 157.714844 205.101562 Z M 157.714844 205.101562 " fill-opacity="1" fill-rule="nonzero"/></g></g></g></g><g clip-path="url(#69be6eec69)"><g clip-path="url(#67b23f1ed1)"><g clip-path="url(#56e5418453)"><g clip-path="url(#a9107e2316)"><path fill="#fc5538" d="M 132.085938 146.824219 C 132.308594 147.011719 132.609375 147.113281 132.921875 147.070312 C 141.515625 145.890625 146.585938 148.597656 146.636719 148.625 C 147.152344 148.90625 147.796875 148.71875 148.078125 148.207031 C 148.359375 147.695312 148.171875 147.054688 147.664062 146.769531 C 147.433594 146.644531 141.976562 143.683594 132.632812 144.96875 C 132.050781 145.046875 131.644531 145.582031 131.726562 146.160156 C 131.765625 146.429688 131.898438 146.660156 132.085938 146.824219 Z M 132.085938 146.824219 " fill-opacity="1" fill-rule="nonzero"/></g></g></g></g><g clip-path="url(#aa77bff1b8)"><g clip-path="url(#a8bba8004f)"><g clip-path="url(#e5463b8758)"><g clip-path="url(#abef57d2bd)"><path fill="#fc5538" d="M 125.644531 151.648438 C 125.902344 151.871094 126.261719 151.964844 126.613281 151.871094 C 135.847656 149.359375 143.003906 152.175781 143.078125 152.203125 C 143.621094 152.421875 144.238281 152.160156 144.457031 151.617188 C 144.675781 151.074219 144.414062 150.457031 143.867188 150.238281 C 143.550781 150.109375 135.96875 147.125 126.054688 149.824219 C 125.488281 149.976562 125.15625 150.558594 125.3125 151.125 C 125.367188 151.335938 125.488281 151.515625 125.644531 151.648438 Z M 125.644531 151.648438 " fill-opacity="1" fill-rule="nonzero"/></g></g></g></g><g clip-path="url(#f79617b013)"><g clip-path="url(#6cdc897656)"><g clip-path="url(#2cb4482148)"><g clip-path="url(#e2af0f646d)"><path fill="#ff542c" d="M 144.882812 148.257812 C 144.898438 147.621094 145.140625 146.984375 145.613281 146.488281 C 146.625 145.425781 148.300781 145.386719 149.363281 146.398438 C 154.792969 151.566406 157.679688 161.101562 157.800781 161.503906 C 158.21875 162.90625 157.421875 164.386719 156.015625 164.800781 C 154.613281 165.21875 153.136719 164.417969 152.71875 163.011719 C 152.671875 162.863281 150.089844 154.40625 145.707031 150.238281 C 145.144531 149.703125 144.871094 148.976562 144.882812 148.257812 Z M 144.882812 148.257812 " fill-opacity="1" fill-rule="nonzero"/></g></g></g></g><g clip-path="url(#4612eabc8e)"><g clip-path="url(#0ea18fe7f3)"><g clip-path="url(#6f072b302f)"><g clip-path="url(#74a1b1723e)"><path fill="#d83705" d="M 134.589844 158.644531 C 134.601562 158.007812 134.84375 157.371094 135.320312 156.875 C 136.328125 155.8125 138.007812 155.773438 139.070312 156.785156 C 144.496094 161.953125 147.386719 171.488281 147.507812 171.890625 C 147.925781 173.292969 147.125 174.769531 145.722656 175.1875 C 144.320312 175.605469 142.839844 174.804688 142.421875 173.402344 C 142.398438 173.316406 139.808594 164.808594 135.414062 160.625 C 134.851562 160.089844 134.574219 159.363281 134.589844 158.644531 Z M 134.589844 158.644531 " fill-opacity="1" fill-rule="nonzero"/></g></g></g></g><g clip-path="url(#86f9ff4f51)"><g clip-path="url(#5e1f4556bc)"><g clip-path="url(#b2d2f672e5)"><g clip-path="url(#6ab266f0ca)"><path fill="#d83705" d="M 141.625 151.902344 C 141.640625 151.265625 141.878906 150.628906 142.355469 150.128906 C 143.363281 149.070312 145.042969 149.03125 146.105469 150.039062 C 151.535156 155.207031 154.421875 164.742188 154.542969 165.148438 C 154.960938 166.550781 154.164062 168.027344 152.757812 168.445312 C 151.355469 168.859375 149.878906 168.058594 149.457031 166.65625 C 149.414062 166.503906 146.828125 158.046875 142.449219 153.878906 C 141.886719 153.34375 141.609375 152.621094 141.625 151.902344 Z M 141.625 151.902344 " fill-opacity="1" fill-rule="nonzero"/></g></g></g></g><g clip-path="url(#5c6b870337)"><g clip-path="url(#f4f7268411)"><g clip-path="url(#145d2a5dc2)"><g clip-path="url(#92da66424e)"><path fill="#ff542c" d="M 137.585938 154.730469 C 137.601562 154.09375 137.84375 153.457031 138.316406 152.960938 C 139.328125 151.898438 141.003906 151.859375 142.066406 152.871094 C 147.496094 158.039062 150.386719 167.574219 150.503906 167.976562 C 150.921875 169.378906 150.125 170.859375 148.722656 171.273438 C 147.316406 171.691406 145.839844 170.890625 145.421875 169.488281 C 145.394531 169.402344 142.808594 160.894531 138.414062 156.710938 C 137.847656 156.175781 137.574219 155.453125 137.585938 154.730469 Z M 137.585938 154.730469 " fill-opacity="1" fill-rule="nonzero"/></g></g></g></g><g clip-path="url(#a1229a0060)"><g clip-path="url(#229d98d79a)"><g clip-path="url(#5b5e80d499)"><g clip-path="url(#a08584e188)"><path fill="#d83705" d="M 215.429688 90.375 C 215.429688 90.375 206.636719 98.058594 207.855469 106.425781 C 209.070312 114.785156 215.394531 117.585938 215.394531 117.585938 C 215.394531 117.585938 216.632812 117.316406 218.414062 116.601562 C 221.519531 115.351562 226.289062 112.746094 229.058594 107.859375 C 233.417969 100.175781 233.066406 92.160156 231.609375 91.769531 C 230.15625 91.375 220.027344 105.769531 215.039062 100.703125 C 214.734375 100.394531 214.472656 100.085938 214.242188 99.773438 C 212.769531 97.800781 212.71875 95.851562 213.167969 94.246094 C 213.800781 91.964844 215.429688 90.375 215.429688 90.375 Z M 215.429688 90.375 " fill-opacity="1" fill-rule="nonzero"/></g></g></g></g><g clip-path="url(#e724ab0530)"><g clip-path="url(#ecd66e4546)"><g clip-path="url(#3e80c03287)"><g clip-path="url(#4ec406ef86)"><path fill="#ff542c" d="M 168.664062 135.117188 C 168.664062 135.117188 168.132812 135.714844 167.375 136.835938 C 166.722656 137.785156 165.914062 139.105469 165.128906 140.75 C 163.457031 144.21875 161.886719 149.125 162.207031 154.9375 C 162.230469 155.40625 162.265625 155.882812 162.320312 156.363281 C 162.5625 156.308594 162.804688 156.257812 163.042969 156.207031 C 163.460938 156.121094 163.878906 156.042969 164.292969 155.980469 C 164.8125 155.894531 165.320312 155.824219 165.828125 155.765625 C 166.050781 155.742188 166.269531 155.71875 166.488281 155.703125 C 167.453125 155.605469 168.414062 155.566406 169.351562 155.5625 C 169.578125 155.5625 169.804688 155.5625 170.035156 155.566406 C 170.253906 155.570312 170.476562 155.574219 170.707031 155.585938 C 170.988281 155.59375 171.269531 155.613281 171.550781 155.628906 C 171.714844 155.636719 171.871094 155.648438 172.03125 155.660156 C 172.195312 155.671875 172.355469 155.6875 172.519531 155.707031 C 172.578125 155.707031 172.632812 155.714844 172.6875 155.71875 C 172.804688 155.726562 172.910156 155.742188 172.996094 155.75 C 173.003906 155.75 173.011719 155.75 173.015625 155.753906 C 173.066406 155.757812 173.113281 155.761719 173.160156 155.769531 C 173.214844 155.777344 173.277344 155.78125 173.332031 155.789062 C 173.5 153.6875 173.933594 150.855469 174.976562 147.851562 C 175.324219 146.839844 175.746094 145.808594 176.25 144.78125 C 176.480469 144.3125 176.726562 143.84375 176.988281 143.371094 Z M 168.664062 135.117188 " fill-opacity="1" fill-rule="nonzero"/></g></g></g></g><g clip-path="url(#52e34f6119)"><g clip-path="url(#ed2250252a)"><g clip-path="url(#f808f0e21d)"><g clip-path="url(#ae5bfc0150)"><path fill="#ff542c" d="M 171.511719 120.226562 C 170.71875 120.984375 169.9375 121.914062 169.175781 123.023438 C 167.015625 126.1875 166.246094 129.222656 166.328125 131.96875 C 166.515625 138.796875 171.945312 143.824219 174.136719 144.476562 C 176.332031 145.132812 177.707031 144.949219 178.796875 142.363281 C 179.238281 141.320312 179.632812 139.886719 180.015625 137.957031 C 180.382812 136.121094 181.28125 134.515625 182.402344 133.164062 C 182.957031 132.492188 183.5625 131.875 184.1875 131.324219 C 185.324219 130.320312 186.503906 129.519531 187.496094 128.929688 C 188.890625 128.09375 189.355469 126.296875 188.554688 124.871094 C 185.40625 119.289062 179.628906 115.414062 174.085938 118.34375 C 173.21875 118.792969 172.355469 119.417969 171.511719 120.226562 Z M 171.511719 120.226562 " fill-opacity="1" fill-rule="nonzero"/></g></g></g></g><g clip-path="url(#18da66c515)"><g clip-path="url(#7c35187395)"><g clip-path="url(#33ddb8365b)"><g clip-path="url(#b4d86f6892)"><path fill="#ff542c" d="M 173.523438 113.039062 C 173.53125 118.324219 175.050781 123.15625 178.273438 126.71875 C 183.066406 132.023438 187.695312 132.960938 191.238281 132.476562 C 195.148438 131.949219 197.726562 129.695312 197.726562 129.695312 C 198.3125 134.171875 202.984375 130.640625 202.984375 130.640625 C 207.414062 132.726562 211.488281 126.132812 213.6875 121.566406 C 214.765625 119.332031 215.394531 117.585938 215.394531 117.585938 C 215.394531 117.585938 208.917969 112.707031 210.210938 102.144531 C 210.695312 98.199219 212.273438 95.234375 214.058594 93.074219 C 216.457031 90.152344 219.234375 88.691406 220.234375 88.230469 C 220.382812 88.160156 220.535156 88.292969 220.511719 88.453125 C 220.453125 88.867188 220.527344 89.304688 220.609375 89.632812 C 220.765625 90.265625 221.375 90.714844 222.019531 90.609375 C 223.285156 90.40625 224.6875 88.703125 225.183594 88.042969 C 225.238281 87.972656 225.363281 88.007812 225.367188 88.101562 C 225.390625 88.503906 225.511719 88.871094 225.644531 89.167969 C 225.996094 89.925781 226.964844 90.210938 227.660156 89.742188 C 228.871094 88.929688 229.941406 86.960938 231.570312 87.925781 C 232.261719 88.328125 233.027344 88.464844 233.757812 88.460938 C 235.484375 88.453125 236.628906 86.613281 235.917969 85.035156 C 229.226562 70.144531 208.5 70.15625 192.101562 80.804688 C 180.316406 88.457031 173.5 101.785156 173.523438 113.039062 Z M 173.523438 113.039062 " fill-opacity="1" fill-rule="nonzero"/></g></g></g></g><g clip-path="url(#e837114459)"><g clip-path="url(#5a481eab79)"><g clip-path="url(#596a3a9465)"><g clip-path="url(#eca1862b59)"><path fill="#d83705" d="M 179.109375 120.445312 C 179.972656 120.675781 181 119.5625 181.308594 118.523438 C 181.609375 117.5 181.351562 116.09375 180.601562 115.8125 C 179.746094 115.492188 178.320312 116.660156 178.085938 118.007812 C 177.921875 118.960938 178.3125 120.234375 179.109375 120.445312 Z M 179.109375 120.445312 " fill-opacity="1" fill-rule="nonzero"/></g></g></g></g><g clip-path="url(#cd1ad4a79e)"><g clip-path="url(#bd170ff067)"><g clip-path="url(#6e6d92431f)"><g clip-path="url(#4ec89baa3d)"><path fill="#d83705" d="M 183.78125 116.917969 C 184.472656 117.601562 186.144531 117.128906 187.082031 116.253906 C 188.105469 115.289062 188.628906 113.476562 187.90625 112.757812 C 187.210938 112.074219 185.539062 112.546875 184.605469 113.421875 C 183.582031 114.386719 183.058594 116.199219 183.78125 116.917969 Z M 183.78125 116.917969 " fill-opacity="1" fill-rule="nonzero"/></g></g></g></g><g clip-path="url(#4dfe8e306c)"><g clip-path="url(#2b16306945)"><g clip-path="url(#b16ec462e0)"><g clip-path="url(#2dad5c0da7)"><path fill="#d83705" d="M 191.320312 105.894531 C 191.902344 106.109375 192.882812 105.214844 193.207031 104.246094 C 193.582031 103.113281 193.128906 101.652344 192.5 101.535156 C 191.894531 101.425781 191.132812 102.539062 190.886719 103.496094 C 190.664062 104.375 190.734375 105.675781 191.320312 105.894531 Z M 191.320312 105.894531 " fill-opacity="1" fill-rule="nonzero"/></g></g></g></g><g clip-path="url(#5f1cc6db20)"><g clip-path="url(#a51d652de6)"><g clip-path="url(#54f97ff7cb)"><g clip-path="url(#5715a207d8)"><path fill="#d83705" d="M 181.816406 110.867188 C 183.527344 111.402344 185.910156 108.820312 186.84375 106.476562 C 187.984375 103.609375 187.546875 99.636719 185.859375 99.015625 C 184.113281 98.375 180.953125 101.292969 180.167969 104.542969 C 179.578125 106.976562 180.144531 110.34375 181.816406 110.867188 Z M 181.816406 110.867188 " fill-opacity="1" fill-rule="nonzero"/></g></g></g></g><g clip-path="url(#d9b7c80868)"><g clip-path="url(#d22b76d74c)"><g clip-path="url(#007ca0538d)"><g clip-path="url(#c348fbc29f)"><path fill="#d83705" d="M 186.058594 96.070312 C 187.140625 97.054688 190.367188 95.628906 192.144531 93.527344 C 193.476562 91.945312 194.589844 89.273438 193.675781 88.304688 C 192.6875 87.261719 189.453125 88.300781 187.628906 90.261719 C 185.929688 92.082031 185.035156 95.140625 186.058594 96.070312 Z M 186.058594 96.070312 " fill-opacity="1" fill-rule="nonzero"/></g></g></g></g><g clip-path="url(#bbda247eba)"><g clip-path="url(#3352a303bd)"><g clip-path="url(#7d3ccaab5c)"><g clip-path="url(#f6c959db2e)"><path fill="#ff542c" d="M 134.460938 172.117188 C 133.679688 172.835938 133.265625 173.859375 133.335938 174.917969 C 133.5625 178.457031 133.3125 185.757812 138.972656 192.445312 C 139.558594 193.136719 140.417969 193.539062 141.316406 193.570312 C 145.304688 193.695312 157.171875 193.726562 167.527344 190.167969 C 167.53125 190.171875 167.53125 190.171875 167.53125 190.171875 C 168.339844 189.898438 169.132812 189.597656 169.917969 189.277344 C 171.695312 188.550781 173.40625 187.703125 174.992188 186.714844 C 176.933594 185.503906 178.679688 184.238281 180.246094 182.945312 C 189.40625 175.417969 192.402344 167.054688 191.5625 164.476562 C 190.851562 162.292969 183.335938 156.953125 173.332031 155.789062 L 173.324219 155.789062 C 173.304688 155.78125 173.25 155.773438 173.160156 155.769531 C 169.773438 155.390625 166.105469 155.496094 162.320312 156.363281 C 161.863281 156.46875 161.40625 156.582031 160.949219 156.710938 C 160.136719 156.933594 159.335938 157.179688 158.546875 157.445312 C 146.925781 161.332031 137.636719 169.203125 134.460938 172.117188 Z M 134.460938 172.117188 " fill-opacity="1" fill-rule="nonzero"/></g></g></g></g><g clip-path="url(#0a1dfa5fe2)"><g clip-path="url(#9c7501a6c3)"><g clip-path="url(#d05f300dbf)"><g clip-path="url(#d2c6a3a809)"><path fill="#ff542c" d="M 190.9375 165.144531 C 190.9375 165.144531 208.527344 158.527344 205.582031 153.890625 C 202.636719 149.253906 190.109375 164.078125 190.109375 164.078125 Z M 190.9375 165.144531 " fill-opacity="1" fill-rule="nonzero"/></g></g></g></g><g clip-path="url(#a95d0a365b)"><g clip-path="url(#3717a8b332)"><g clip-path="url(#79435502a8)"><g clip-path="url(#b10a6b6995)"><path fill="#ff542c" d="M 190.109375 164.078125 C 190.109375 164.078125 199.0625 158.476562 196.589844 155.644531 C 194.113281 152.816406 188.695312 163.097656 188.695312 163.097656 Z M 190.109375 164.078125 " fill-opacity="1" fill-rule="nonzero"/></g></g></g></g><g clip-path="url(#d8b6767bba)"><g clip-path="url(#936efce75a)"><g clip-path="url(#d14c89800c)"><g clip-path="url(#b84698c95c)"><path fill="#ff542c" d="M 190.683594 164.820312 C 190.683594 164.820312 207.074219 159.507812 206.859375 164.277344 C 206.644531 169.046875 194.078125 166.714844 190.582031 165.886719 Z M 190.683594 164.820312 " fill-opacity="1" fill-rule="nonzero"/></g></g></g></g><g clip-path="url(#7c523fed08)"><g clip-path="url(#bebf16c215)"><g clip-path="url(#493780c8bf)"><g clip-path="url(#3e0cc1e1fc)"><path fill="#ff542c" d="M 190.636719 165.316406 C 190.636719 165.316406 202.980469 165.488281 202.335938 168.875 C 201.695312 172.261719 192.191406 168.363281 190.464844 167.652344 Z M 190.636719 165.316406 " fill-opacity="1" fill-rule="nonzero"/></g></g></g></g><g clip-path="url(#47bcacaae0)"><g clip-path="url(#a005d8a6ce)"><g clip-path="url(#85f586d28f)"><g clip-path="url(#60d5aa8b8c)"><path fill="#ff542c" d="M 92.914062 175.226562 C 87.378906 178.402344 91.1875 183.390625 91.1875 183.390625 C 87.964844 187.3125 86.042969 193.988281 89.066406 197.445312 C 90.289062 198.84375 91.792969 199.625 93.15625 200.070312 C 92.191406 201.871094 91.558594 204.101562 92.953125 205.695312 C 93.902344 206.777344 95.457031 207.058594 97.097656 206.96875 C 96.234375 211.027344 96.445312 216.121094 101.203125 219.566406 C 105.921875 222.972656 109.25 216.863281 111.363281 210.246094 C 111.363281 210.238281 111.367188 210.234375 111.367188 210.234375 C 112.160156 207.734375 112.78125 205.164062 113.234375 203.003906 C 113.390625 202.269531 113.527344 201.582031 113.640625 200.964844 C 114.015625 198.972656 114.199219 197.671875 114.199219 197.671875 L 111.097656 182.082031 C 111.097656 182.082031 110.542969 180.84375 109.605469 179.105469 C 109.234375 178.402344 108.796875 177.621094 108.308594 176.808594 C 105.914062 172.828125 102.3125 168.054688 98.789062 168.042969 C 98.464844 168.046875 98.144531 168.078125 97.820312 168.164062 C 91.5 169.808594 92.914062 175.226562 92.914062 175.226562 Z M 92.914062 175.226562 " fill-opacity="1" fill-rule="nonzero"/></g></g></g></g><g clip-path="url(#0e84217730)"><g clip-path="url(#8cebcd6b10)"><g clip-path="url(#9e07d8a384)"><g clip-path="url(#0b0995b780)"><path fill="#d83705" d="M 92.914062 175.226562 C 87.378906 178.402344 91.1875 183.390625 91.1875 183.390625 C 87.96875 187.3125 86.042969 193.984375 89.066406 197.445312 C 90.292969 198.84375 91.792969 199.625 93.152344 200.070312 C 92.191406 201.871094 91.558594 204.097656 92.957031 205.695312 C 93.902344 206.777344 95.457031 207.058594 97.09375 206.96875 C 96.234375 211.027344 96.445312 216.125 101.207031 219.566406 C 105.917969 222.972656 109.25 216.863281 111.363281 210.242188 C 111.207031 210.453125 107.597656 215.46875 103.5625 210.851562 C 99.4375 206.136719 100.929688 201.503906 100.929688 201.503906 C 100.929688 201.503906 99.082031 202.5625 97.707031 200.988281 C 96.332031 199.417969 98.265625 196.59375 98.265625 196.59375 C 98.265625 196.59375 94.761719 196.351562 93.191406 193.289062 C 91.621094 190.222656 92.167969 186.417969 96.605469 181.984375 C 96.605469 181.984375 94.007812 180.914062 93.855469 178.835938 C 93.699219 176.757812 95.898438 174.839844 96.800781 174.605469 C 96.800781 174.605469 94.332031 169.332031 98.785156 168.042969 C 98.464844 168.042969 98.140625 168.082031 97.820312 168.164062 C 91.5 169.808594 92.914062 175.226562 92.914062 175.226562 Z M 92.914062 175.226562 " fill-opacity="1" fill-rule="nonzero"/></g></g></g></g><g clip-path="url(#3418c7c103)"><g clip-path="url(#f5768fb53d)"><g clip-path="url(#df2eb0d861)"><g clip-path="url(#8bd78b24d6)"><path fill="#ff542c" d="M 107.039062 181.515625 C 105.527344 188.167969 109.773438 196.757812 111.5 199.882812 C 111.960938 200.707031 112.910156 201.140625 113.824219 200.929688 C 114.742188 200.722656 115.710938 200.339844 116.636719 199.894531 C 119.152344 198.679688 121.347656 196.972656 121.347656 196.972656 L 116.953125 180.265625 C 114.839844 179.320312 112.878906 179.03125 111.316406 179.007812 C 110.765625 179.003906 110.257812 179.03125 109.8125 179.074219 C 108.457031 179.207031 107.34375 180.1875 107.039062 181.515625 Z M 107.039062 181.515625 " fill-opacity="1" fill-rule="nonzero"/></g></g></g></g><g clip-path="url(#6302312d15)"><g clip-path="url(#0130ff80b9)"><g clip-path="url(#4ded4572eb)"><g clip-path="url(#864593e5f6)"><path fill="#d83705" d="M 129.4375 195.453125 C 129.4375 195.453125 123.667969 202.160156 120.289062 199.566406 C 117.171875 197.171875 113.183594 185.144531 114.316406 178.308594 C 114.511719 177.105469 115.40625 176.136719 116.578125 175.824219 C 118.101562 175.414062 120.542969 175.339844 123.859375 177.03125 Z M 129.4375 195.453125 " fill-opacity="1" fill-rule="nonzero"/></g></g></g></g><g clip-path="url(#eeb936f034)"><g clip-path="url(#c2ecf059e4)"><g clip-path="url(#ad51291c56)"><g clip-path="url(#70ff307362)"><path fill="#ff542c" d="M 136.996094 195.320312 C 136.996094 195.320312 129.617188 201.628906 126.816406 197.027344 C 124.019531 192.421875 118.402344 174.589844 123.191406 173.734375 C 127.984375 172.875 130.261719 174.214844 130.261719 174.214844 Z M 136.996094 195.320312 " fill-opacity="1" fill-rule="nonzero"/></g></g></g></g><g clip-path="url(#88d2880b42)"><g clip-path="url(#4fc5e33c4a)"><g clip-path="url(#c3e92bfcc3)"><g clip-path="url(#f474f949dd)"><path fill="#d83705" d="M 143.273438 193.605469 C 143.273438 193.605469 136.546875 200.902344 133.777344 197.492188 C 131.007812 194.082031 122.683594 172.515625 129.277344 171.1875 C 129.277344 171.1875 133.085938 170.410156 135.757812 170.960938 C 135.757812 170.960938 137.546875 177.746094 140.664062 181.089844 C 140.898438 181.339844 141.015625 181.667969 141.011719 182.007812 C 140.992188 183.894531 141.101562 190.113281 143.273438 193.605469 Z M 143.273438 193.605469 " fill-opacity="1" fill-rule="nonzero"/></g></g></g></g><g clip-path="url(#bae7dc0d9b)"><g clip-path="url(#f5fa39def5)"><g clip-path="url(#ccf5c6235c)"><g clip-path="url(#34f4ad1dee)"><path fill="#ff7b69" d="M 169.609375 165.351562 C 169.964844 166.707031 168.027344 168.496094 166.117188 168.957031 C 164.289062 169.398438 161.828125 168.785156 161.480469 167.460938 C 161.125 166.105469 163.0625 164.3125 164.976562 163.851562 C 166.804688 163.410156 169.261719 164.023438 169.609375 165.351562 Z M 169.609375 165.351562 " fill-opacity="1" fill-rule="nonzero"/></g></g></g></g><g clip-path="url(#e3f3e25999)"><g clip-path="url(#0bb6c2c41d)"><g clip-path="url(#eb2717bf1f)"><g clip-path="url(#9e2577c43d)"><path fill="#ff7b69" d="M 172.164062 175.875 C 172.375 176.886719 170.382812 178.394531 168.433594 178.578125 C 167.207031 178.695312 165.472656 178.339844 165.253906 177.476562 C 165.007812 176.511719 166.695312 175.074219 168.394531 174.730469 C 169.96875 174.414062 171.972656 174.957031 172.164062 175.875 Z M 172.164062 175.875 " fill-opacity="1" fill-rule="nonzero"/></g></g></g></g><g clip-path="url(#8f42b51cd9)"><g clip-path="url(#8c78605d33)"><g clip-path="url(#dbf2f2601a)"><g clip-path="url(#45c84a2dda)"><path fill="#ff7b69" d="M 168.394531 183.605469 C 167.988281 184.148438 166.871094 183.953125 166.3125 183.761719 C 165.277344 183.402344 164.140625 182.351562 164.390625 181.558594 C 164.625 180.804688 166.066406 180.402344 167.097656 180.855469 C 168.261719 181.367188 168.882812 182.957031 168.394531 183.605469 Z M 168.394531 183.605469 " fill-opacity="1" fill-rule="nonzero"/></g></g></g></g><g clip-path="url(#322828ade9)"><g clip-path="url(#ebd929c2a3)"><g clip-path="url(#c911585ca4)"><g clip-path="url(#f525cb61ff)"><path fill="#ff7b69" d="M 168 171.746094 C 168.253906 172.601562 167.164062 173.699219 166.078125 173.984375 C 165.496094 174.132812 164.453125 174.171875 164.035156 173.546875 C 163.542969 172.8125 164.132812 171.460938 165.09375 170.957031 C 166.171875 170.398438 167.746094 170.886719 168 171.746094 Z M 168 171.746094 " fill-opacity="1" fill-rule="nonzero"/></g></g></g></g><g clip-path="url(#5a7390a3cd)"><g clip-path="url(#3cc3db06e7)"><g clip-path="url(#2de425087f)"><g clip-path="url(#3ee851719e)"><path fill="#ff7b69" d="M 155.039062 161.992188 C 155.613281 162.546875 155.246094 163.882812 154.570312 164.625 C 154.066406 165.171875 153.082031 165.738281 152.449219 165.367188 C 151.75 164.957031 151.71875 163.546875 152.332031 162.699219 C 152.988281 161.785156 154.453125 161.425781 155.039062 161.992188 Z M 155.039062 161.992188 " fill-opacity="1" fill-rule="nonzero"/></g></g></g></g><g clip-path="url(#84348808f3)"><g clip-path="url(#ad1988b337)"><g clip-path="url(#41df47e606)"><g clip-path="url(#4658954c47)"><path fill="#ff7b69" d="M 151.664062 172.707031 C 151.976562 173.292969 151.253906 174.246094 150.644531 174.710938 C 149.902344 175.273438 148.671875 175.613281 148.246094 175.140625 C 147.785156 174.621094 148.28125 173.132812 149.308594 172.546875 C 150.113281 172.089844 151.351562 172.125 151.664062 172.707031 Z M 151.664062 172.707031 " fill-opacity="1" fill-rule="nonzero"/></g></g></g></g><g clip-path="url(#5d8aadeec5)"><g clip-path="url(#b656502013)"><g clip-path="url(#9976572afa)"><g clip-path="url(#58ac7124be)"><path fill="#ff7b69" d="M 156.574219 178.957031 C 156.9375 179.902344 155.953125 181.101562 154.925781 181.507812 C 154.0625 181.851562 152.75 181.796875 152.292969 181.035156 C 151.773438 180.164062 152.527344 178.664062 153.667969 178.167969 C 154.710938 177.714844 156.21875 178.035156 156.574219 178.957031 Z M 156.574219 178.957031 " fill-opacity="1" fill-rule="nonzero"/></g></g></g></g><g clip-path="url(#c93f153c12)"><g clip-path="url(#1b47b895c4)"><g clip-path="url(#8a298ebbd6)"><g clip-path="url(#bf93b67948)"><path fill="#d83705" d="M 221.042969 161.910156 L 221.046875 161.914062 C 220.222656 163.597656 219.875 164.777344 219.875 164.777344 C 219.875 164.777344 219.878906 164.78125 219.886719 164.796875 C 220.023438 165.183594 222.464844 171.339844 230.460938 173.109375 C 238.597656 174.90625 246.785156 166.960938 247.023438 166.726562 C 246.953125 166.785156 245.265625 168.246094 242.988281 168.699219 C 241.546875 168.988281 239.867188 168.867188 238.214844 167.730469 C 238.214844 167.730469 238.214844 167.730469 238.207031 167.730469 C 237.703125 167.375 237.191406 166.925781 236.695312 166.359375 C 231.996094 161.019531 247.101562 151.964844 246.8125 150.492188 C 246.523438 149.011719 238.558594 148.074219 230.566406 151.863281 C 225.449219 154.289062 222.5 158.90625 221.042969 161.910156 Z M 221.042969 161.910156 " fill-opacity="1" fill-rule="nonzero"/></g></g></g></g><g clip-path="url(#0116f51e26)"><g clip-path="url(#6dc6e8beca)"><g clip-path="url(#fee09668a8)"><g clip-path="url(#89a80bc057)"><path fill="#ff542c" d="M 169.917969 189.277344 C 170.234375 189.59375 170.554688 189.894531 170.875 190.183594 C 175.765625 194.609375 181.269531 196.421875 185.355469 197.140625 L 185.359375 197.144531 C 186.941406 197.425781 188.316406 197.546875 189.359375 197.589844 C 190.710938 197.644531 191.511719 197.578125 191.511719 197.578125 L 189.847656 185.976562 C 189.320312 185.914062 188.792969 185.828125 188.277344 185.734375 C 187 185.492188 185.785156 185.164062 184.644531 184.785156 C 183.011719 184.246094 181.535156 183.597656 180.246094 182.945312 C 178.679688 184.238281 176.933594 185.503906 174.992188 186.714844 C 173.40625 187.703125 171.695312 188.550781 169.917969 189.277344 Z M 169.917969 189.277344 " fill-opacity="1" fill-rule="nonzero"/></g></g></g></g><g clip-path="url(#df47639e4e)"><g clip-path="url(#e3d027f21c)"><g clip-path="url(#753e714749)"><g clip-path="url(#165db947ba)"><path fill="#ff542c" d="M 187.257812 187.605469 C 186.492188 189.699219 187.238281 196.734375 192.25 201.007812 C 194.445312 202.875 197.460938 204.21875 201.53125 204.382812 C 203.039062 204.449219 204.382812 204.347656 205.566406 204.109375 C 207.160156 203.796875 208.472656 203.234375 209.53125 202.484375 C 213.917969 199.398438 213.996094 193.121094 211.609375 187.753906 C 210.945312 186.261719 209.226562 185.558594 207.722656 186.179688 C 206.535156 186.667969 205.003906 187.1875 203.324219 187.488281 C 202.191406 187.699219 200.988281 187.796875 199.78125 187.722656 C 198.507812 187.648438 197.222656 187.367188 196.007812 186.789062 C 193.671875 185.679688 192.015625 185.097656 190.792969 184.964844 C 188.769531 184.726562 187.945312 185.730469 187.257812 187.605469 Z M 187.257812 187.605469 " fill-opacity="1" fill-rule="nonzero"/></g></g></g></g><g clip-path="url(#293a47a058)"><g clip-path="url(#ac9cbf571d)"><g clip-path="url(#b283d4e20a)"><g clip-path="url(#b3cae2da62)"><path fill="#ff542c" d="M 205.941406 176.195312 C 205.941406 176.195312 202.082031 180.597656 206.507812 181.511719 C 206.507812 181.511719 204.929688 183.074219 203.890625 185.695312 C 202.464844 189.277344 202.050781 194.84375 208.054688 201.125 C 209.023438 202.132812 210.105469 203.011719 211.289062 203.746094 C 222.808594 210.980469 243.550781 205.597656 254.875 190.679688 C 266.691406 175.109375 268.210938 154.445312 253.84375 146.683594 C 252.320312 145.863281 250.40625 146.867188 250.269531 148.589844 C 250.210938 149.320312 250.292969 150.089844 250.644531 150.808594 C 251.484375 152.507812 249.445312 153.429688 248.546875 154.574219 C 248.027344 155.238281 248.238281 156.222656 248.972656 156.625 C 249.257812 156.785156 249.613281 156.933594 250.015625 156.984375 C 250.105469 156.996094 250.136719 157.121094 250.058594 157.175781 C 249.375 157.617188 247.566406 158.890625 247.269531 160.140625 C 247.117188 160.769531 247.523438 161.410156 248.140625 161.617188 C 248.464844 161.722656 248.894531 161.828125 249.3125 161.800781 C 249.476562 161.785156 249.59375 161.949219 249.511719 162.089844 C 249.046875 162.929688 247.71875 165.066406 245.339844 167.046875 C 242.964844 169.023438 239.550781 170.84375 234.898438 171.074219 C 224.269531 171.589844 219.875 164.777344 219.875 164.777344 C 219.875 164.777344 217.003906 165.578125 213.84375 167.003906 C 209.410156 169 204.414062 172.222656 205.941406 176.195312 Z M 205.941406 176.195312 " fill-opacity="1" fill-rule="nonzero"/></g></g></g></g><g clip-path="url(#5fdb1c1953)"><g clip-path="url(#d13e04263e)"><g clip-path="url(#90820b2a12)"><g clip-path="url(#bd4bcce6ef)"><path fill="#d83705" d="M 214.378906 200.746094 C 214.210938 199.867188 215.394531 198.925781 216.453125 198.695312 C 217.496094 198.46875 218.882812 198.828125 219.105469 199.597656 C 219.363281 200.472656 218.097656 201.808594 216.734375 201.941406 C 215.773438 202.035156 214.53125 201.554688 214.378906 200.746094 Z M 214.378906 200.746094 " fill-opacity="1" fill-rule="nonzero"/></g></g></g></g><g clip-path="url(#a6a4a2155f)"><g clip-path="url(#8e9668db08)"><g clip-path="url(#1d6ba2f4d9)"><g clip-path="url(#e0ab7746a4)"><path fill="#d83705" d="M 218.238281 196.34375 C 217.605469 195.605469 218.195312 193.972656 219.140625 193.105469 C 220.175781 192.152344 222.023438 191.761719 222.6875 192.539062 C 223.320312 193.277344 222.726562 194.910156 221.785156 195.777344 C 220.75 196.730469 218.902344 197.121094 218.238281 196.34375 Z M 218.238281 196.34375 " fill-opacity="1" fill-rule="nonzero"/></g></g></g></g><g clip-path="url(#284c4cc50a)"><g clip-path="url(#31fd5cb75c)"><g clip-path="url(#dc31ecd241)"><g clip-path="url(#7d163eee07)"><path fill="#d83705" d="M 229.785156 189.632812 C 229.613281 189.035156 230.574219 188.121094 231.566406 187.871094 C 232.722656 187.582031 234.148438 188.136719 234.21875 188.773438 C 234.285156 189.382812 233.121094 190.0625 232.144531 190.238281 C 231.25 190.398438 229.960938 190.230469 229.785156 189.632812 Z M 229.785156 189.632812 " fill-opacity="1" fill-rule="nonzero"/></g></g></g></g><g clip-path="url(#9f21933ecb)"><g clip-path="url(#b42500db8c)"><g clip-path="url(#f0b05d834c)"><g clip-path="url(#431fae6814)"><path fill="#d83705" d="M 224.128906 198.746094 C 223.71875 197 226.46875 194.8125 228.875 194.054688 C 231.820312 193.121094 235.753906 193.847656 236.25 195.578125 C 236.761719 197.363281 233.617188 200.304688 230.316406 200.851562 C 227.847656 201.257812 224.53125 200.453125 224.128906 198.746094 Z M 224.128906 198.746094 " fill-opacity="1" fill-rule="nonzero"/></g></g></g></g><g clip-path="url(#b6d3bc42e7)"><g clip-path="url(#391c7a8f79)"><g clip-path="url(#3c8670237f)"><g clip-path="url(#92b20adeae)"><path fill="#d83705" d="M 239.199219 195.59375 C 238.296875 194.441406 239.953125 191.328125 242.183594 189.710938 C 243.855469 188.5 246.601562 187.582031 247.503906 188.566406 C 248.472656 189.625 247.203125 192.773438 245.109375 194.453125 C 243.171875 196.011719 240.054688 196.683594 239.199219 195.59375 Z M 239.199219 195.59375 " fill-opacity="1" fill-rule="nonzero"/></g></g></g></g><g clip-path="url(#1bb30ea317)"><g clip-path="url(#3efbdce3fe)"><g clip-path="url(#a115fb145d)"><g clip-path="url(#fe79cc77c6)"><path fill="#fc5538" d="M 122.273438 158.164062 C 122.59375 158.441406 123.070312 158.507812 123.464844 158.292969 C 130.59375 154.46875 139.253906 154.917969 139.339844 154.921875 C 139.925781 154.953125 140.425781 154.507812 140.460938 153.921875 C 140.492188 153.339844 140.046875 152.835938 139.460938 152.804688 C 139.082031 152.78125 130.109375 152.320312 122.460938 156.425781 C 121.945312 156.699219 121.75 157.34375 122.027344 157.859375 C 122.09375 157.980469 122.175781 158.082031 122.273438 158.164062 Z M 122.273438 158.164062 " fill-opacity="1" fill-rule="nonzero"/></g></g></g></g><g clip-path="url(#37eacfb8a1)"><g clip-path="url(#f391fe069a)"><g clip-path="url(#c69958e1c2)"><g clip-path="url(#4e6d2144f6)"><path fill="#d83705" d="M 208.003906 201.648438 C 208.800781 202.332031 209.367188 202.695312 209.390625 202.707031 C 209.515625 202.785156 209.679688 202.75 209.757812 202.625 C 209.835938 202.5 209.800781 202.335938 209.675781 202.257812 C 209.585938 202.203125 201.03125 196.703125 203.578125 187.558594 C 203.617188 187.417969 203.535156 187.269531 203.394531 187.230469 C 203.253906 187.191406 203.105469 187.273438 203.066406 187.414062 C 201.070312 194.578125 205.59375 199.578125 208.003906 201.648438 Z M 208.003906 201.648438 " fill-opacity="1" fill-rule="nonzero"/></g></g></g></g><g clip-path="url(#85ea6efc06)"><g clip-path="url(#dfe4f02849)"><g clip-path="url(#3adbf82d0f)"><g clip-path="url(#19bd6d9c1b)"><path fill="#d83705" d="M 189.1875 197.792969 C 189.28125 197.871094 189.417969 197.878906 189.519531 197.804688 C 189.640625 197.714844 189.660156 197.546875 189.574219 197.429688 C 189.527344 197.367188 184.863281 191.054688 188.496094 185.890625 C 188.578125 185.769531 188.550781 185.601562 188.429688 185.519531 C 188.308594 185.433594 188.144531 185.460938 188.058594 185.582031 C 186.460938 187.855469 186.144531 190.6875 187.144531 193.765625 C 187.894531 196.070312 189.097656 197.683594 189.148438 197.75 C 189.160156 197.765625 189.171875 197.78125 189.1875 197.792969 Z M 189.1875 197.792969 " fill-opacity="1" fill-rule="nonzero"/></g></g></g></g><g clip-path="url(#67d81ce846)"><g clip-path="url(#ce32bd8984)"><g clip-path="url(#f6ad908e4e)"><g clip-path="url(#decb79edad)"><path fill="#d83705" d="M 169.746094 189.480469 C 169.8125 189.539062 169.910156 189.5625 170.003906 189.53125 C 175.066406 187.808594 180.371094 183.195312 180.421875 183.148438 C 180.535156 183.050781 180.542969 182.882812 180.449219 182.773438 C 180.351562 182.664062 180.183594 182.648438 180.070312 182.746094 C 180.019531 182.792969 174.792969 187.339844 169.832031 189.027344 C 169.691406 189.074219 169.617188 189.226562 169.664062 189.363281 C 169.679688 189.410156 169.710938 189.449219 169.746094 189.480469 Z M 169.746094 189.480469 " fill-opacity="1" fill-rule="nonzero"/></g></g></g></g><g clip-path="url(#323fc412ea)"><g clip-path="url(#83d7db2aa1)"><g clip-path="url(#34776d935d)"><g clip-path="url(#269e6198f0)"><path fill="#d83705" d="M 162.148438 156.566406 C 162.214844 156.621094 162.308594 156.644531 162.398438 156.617188 C 167.980469 154.882812 173.21875 156.035156 173.273438 156.046875 C 173.417969 156.078125 173.558594 155.988281 173.589844 155.847656 C 173.625 155.703125 173.53125 155.558594 173.390625 155.527344 C 173.335938 155.515625 167.960938 154.332031 162.242188 156.109375 C 162.101562 156.152344 162.023438 156.300781 162.066406 156.441406 C 162.082031 156.492188 162.109375 156.535156 162.148438 156.566406 Z M 162.148438 156.566406 " fill-opacity="1" fill-rule="nonzero"/></g></g></g></g><g clip-path="url(#7bbe92416e)"><g clip-path="url(#b293a97aef)"><g clip-path="url(#e956c2f727)"><g clip-path="url(#989176db50)"><path fill="#d83705" d="M 171.5625 143.488281 C 174.164062 145.71875 176.207031 145.074219 176.335938 145.03125 C 176.476562 144.984375 176.546875 144.832031 176.5 144.695312 C 176.453125 144.554688 176.304688 144.480469 176.164062 144.527344 C 176.121094 144.542969 171.714844 145.875 167.617188 136.726562 C 167.554688 136.59375 167.398438 136.53125 167.265625 136.59375 C 167.128906 136.652344 167.070312 136.808594 167.128906 136.945312 C 168.628906 140.292969 170.175781 142.300781 171.5625 143.488281 Z M 171.5625 143.488281 " fill-opacity="1" fill-rule="nonzero"/></g></g></g></g><g clip-path="url(#5c6e4c6150)"><g clip-path="url(#11b45aa101)"><g clip-path="url(#7ff929ad69)"><g clip-path="url(#4552bf29cb)"><path fill="#d83705" d="M 179.894531 128.863281 C 182.109375 130.761719 184.050781 131.554688 184.089844 131.570312 C 184.226562 131.625 184.382812 131.558594 184.433594 131.421875 C 184.488281 131.285156 184.421875 131.128906 184.285156 131.078125 C 184.203125 131.042969 176.136719 127.738281 174.347656 118.296875 C 174.320312 118.152344 174.183594 118.058594 174.035156 118.082031 C 173.894531 118.109375 173.796875 118.25 173.824219 118.394531 C 174.785156 123.457031 177.5 126.808594 179.894531 128.863281 Z M 179.894531 128.863281 " fill-opacity="1" fill-rule="nonzero"/></g></g></g></g></svg>