<svg xmlns="http://www.w3.org/2000/svg" xmlns:xlink="http://www.w3.org/1999/xlink" width="500" zoomAndPan="magnify" viewBox="0 0 375 374.999991" height="500" preserveAspectRatio="xMidYMid meet" version="1.0"><defs><clipPath id="0ae7fd0150"><path d="M 57 73 L 331 73 L 331 320 L 57 320 Z M 57 73 " clip-rule="nonzero"/></clipPath><clipPath id="0eaadabff6"><path d="M 168.304688 0 L 374.746094 165.753906 L 207.113281 374.535156 L 0.671875 208.78125 Z M 168.304688 0 " clip-rule="nonzero"/></clipPath><clipPath id="a7b0712f92"><path d="M 168.304688 0 L 374.746094 165.753906 L 207.113281 374.535156 L 0.671875 208.78125 Z M 168.304688 0 " clip-rule="nonzero"/></clipPath></defs><g clip-path="url(#0ae7fd0150)"><g clip-path="url(#0eaadabff6)"><g clip-path="url(#a7b0712f92)"><path fill="#ffb380" d="M 59.609375 159.050781 C 52.734375 191.742188 60.453125 228.082031 79.769531 257.628906 C 100.414062 289.210938 134.476562 311.496094 171.519531 318.441406 C 207.546875 325.207031 244.761719 306.667969 272.042969 284.371094 C 293.832031 266.578125 312.441406 243.8125 322.511719 217.324219 C 331.230469 194.375 333.992188 168.105469 324.652344 144.886719 C 313.3125 116.675781 286.902344 98.875 259.398438 88.550781 C 209.28125 69.714844 145.28125 63.808594 99.621094 96.933594 C 77.601562 112.917969 64.660156 135.011719 59.609375 159.050781 Z M 59.609375 159.050781 " fill-opacity="1" fill-rule="nonzero"/></g></g></g></svg>