<svg xmlns="http://www.w3.org/2000/svg" xmlns:xlink="http://www.w3.org/1999/xlink" width="500" zoomAndPan="magnify" viewBox="0 0 375 374.999991" height="500" preserveAspectRatio="xMidYMid meet" version="1.0"><defs><g/><clipPath id="bb19a6a5ff"><path d="M 1 0.121094 L 306 0.121094 L 306 69 L 1 69 Z M 1 0.121094 " clip-rule="nonzero"/></clipPath><clipPath id="4968f009cd"><rect x="0" width="307" y="0" height="69"/></clipPath></defs><g transform="matrix(1, 0, 0, 1, 34, 153)"><g clip-path="url(#4968f009cd)"><g clip-path="url(#bb19a6a5ff)"><path fill="#d1bbd0" d="M 17.886719 0.867188 L 289.113281 0.867188 C 293.574219 0.867188 297.851562 2.640625 301.003906 5.792969 C 304.15625 8.945312 305.929688 13.222656 305.929688 17.683594 L 305.929688 51.316406 C 305.929688 55.777344 304.15625 60.054688 301.003906 63.207031 C 297.851562 66.359375 293.574219 68.132812 289.113281 68.132812 L 17.886719 68.132812 C 8.597656 68.132812 1.070312 60.605469 1.070312 51.316406 L 1.070312 17.683594 C 1.070312 8.394531 8.597656 0.867188 17.886719 0.867188 Z M 17.886719 0.867188 " fill-opacity="1" fill-rule="nonzero"/></g><g fill="#2f6f88" fill-opacity="1"><g transform="translate(17.962945, 47.792976)"><g><path d="M 26.4375 -24.453125 C 26.832031 -22.117188 26.617188 -19.941406 25.796875 -17.921875 C 24.984375 -15.910156 23.675781 -14.210938 21.875 -12.828125 C 20.070312 -11.453125 17.90625 -10.554688 15.375 -10.140625 C 14.8125 -10.023438 14.191406 -9.972656 13.515625 -9.984375 C 12.835938 -10.003906 12.160156 -10.023438 11.484375 -10.046875 C 11.148438 -10.078125 10.804688 -10.097656 10.453125 -10.109375 C 10.097656 -10.128906 9.753906 -10.140625 9.421875 -10.140625 L 8.953125 -10.140625 L 9 -9.03125 C 9.019531 -8.53125 9.046875 -7.925781 9.078125 -7.21875 C 9.109375 -6.519531 9.125 -5.941406 9.125 -5.484375 L 9.125 -5.109375 C 9.09375 -4.628906 9.054688 -4.148438 9.015625 -3.671875 C 8.972656 -3.191406 8.867188 -2.753906 8.703125 -2.359375 C 8.359375 -1.515625 7.925781 -0.929688 7.40625 -0.609375 C 6.882812 -0.285156 6.414062 -0.0976562 6 -0.046875 C 5.4375 0.0351562 4.914062 -0.00390625 4.4375 -0.171875 C 3.957031 -0.335938 3.601562 -0.546875 3.375 -0.796875 L 3.25 -0.890625 C 2.800781 -1.171875 2.535156 -1.570312 2.453125 -2.09375 C 2.367188 -2.613281 2.335938 -3.210938 2.359375 -3.890625 C 2.390625 -4.304688 2.414062 -4.722656 2.4375 -5.140625 C 2.46875 -5.566406 2.5 -6.007812 2.53125 -6.46875 C 2.59375 -7.28125 2.644531 -8.113281 2.6875 -8.96875 C 2.726562 -9.832031 2.75 -10.703125 2.75 -11.578125 C 2.75 -13.066406 2.679688 -14.570312 2.546875 -16.09375 C 2.421875 -17.613281 2.289062 -19.117188 2.15625 -20.609375 C 2.007812 -21.992188 1.878906 -23.390625 1.765625 -24.796875 C 1.660156 -26.203125 1.59375 -27.609375 1.5625 -29.015625 C 1.5625 -29.378906 1.566406 -29.738281 1.578125 -30.09375 C 1.597656 -30.445312 1.632812 -30.789062 1.6875 -31.125 C 1.914062 -32.25 2.507812 -32.96875 3.46875 -33.28125 C 3.71875 -33.332031 3.96875 -33.359375 4.21875 -33.359375 C 4.925781 -33.359375 5.578125 -33.078125 6.171875 -32.515625 C 6.253906 -32.460938 6.351562 -32.335938 6.46875 -32.140625 C 6.550781 -32.023438 6.617188 -31.925781 6.671875 -31.84375 L 6.96875 -31.46875 L 7.3125 -31.71875 C 9.28125 -33.09375 11.53125 -33.894531 14.0625 -34.125 C 16.257812 -34.289062 18.222656 -34.007812 19.953125 -33.28125 C 21.679688 -32.550781 23.109375 -31.4375 24.234375 -29.9375 C 25.367188 -28.445312 26.101562 -26.617188 26.4375 -24.453125 Z M 17.109375 -19.21875 C 18.847656 -20.875 19.351562 -22.71875 18.625 -24.75 C 18.289062 -25.644531 17.742188 -26.265625 16.984375 -26.609375 C 16.359375 -26.859375 15.625 -26.925781 14.78125 -26.8125 C 13.9375 -26.707031 13.140625 -26.445312 12.390625 -26.03125 C 11.648438 -25.625 11.097656 -25.113281 10.734375 -24.5 C 9.492188 -22.5 8.875 -20.09375 8.875 -17.28125 L 8.875 -16.84375 L 9.296875 -16.8125 C 9.628906 -16.8125 9.9375 -16.8125 10.21875 -16.8125 C 13.144531 -16.8125 15.441406 -17.613281 17.109375 -19.21875 Z M 17.109375 -19.21875 "/></g></g></g><g fill="#2f6f88" fill-opacity="1"><g transform="translate(46.172146, 47.792976)"><g><path d="M 21.703125 -8.453125 C 21.984375 -7.179688 22 -6.113281 21.75 -5.25 C 21.5 -4.394531 20.960938 -3.800781 20.140625 -3.46875 C 19.273438 -3.101562 18.414062 -3.109375 17.5625 -3.484375 C 16.71875 -3.859375 15.929688 -4.582031 15.203125 -5.65625 C 15.148438 -5.738281 15.078125 -5.828125 14.984375 -5.921875 C 14.898438 -6.023438 14.816406 -6.148438 14.734375 -6.296875 C 14.515625 -6.148438 14.3125 -6 14.125 -5.84375 C 13.945312 -5.6875 13.742188 -5.554688 13.515625 -5.453125 C 12.921875 -5.171875 12.328125 -4.863281 11.734375 -4.53125 C 11.148438 -4.207031 10.535156 -3.976562 9.890625 -3.84375 C 8.304688 -3.445312 6.859375 -3.515625 5.546875 -4.046875 C 4.242188 -4.585938 3.222656 -5.460938 2.484375 -6.671875 C 1.753906 -7.878906 1.460938 -9.300781 1.609375 -10.9375 C 1.691406 -12.257812 2.035156 -13.550781 2.640625 -14.8125 C 3.242188 -16.082031 4.015625 -17.257812 4.953125 -18.34375 C 5.898438 -19.4375 6.960938 -20.347656 8.140625 -21.078125 C 9.328125 -21.804688 10.539062 -22.269531 11.78125 -22.46875 C 13.1875 -22.71875 14.457031 -22.566406 15.59375 -22.015625 C 16.738281 -21.472656 17.832031 -20.804688 18.875 -20.015625 C 19.21875 -19.765625 19.460938 -19.367188 19.609375 -18.828125 C 19.765625 -18.296875 19.890625 -17.789062 19.984375 -17.3125 C 20.316406 -15.851562 20.609375 -14.375 20.859375 -12.875 C 21.117188 -11.382812 21.398438 -9.910156 21.703125 -8.453125 Z M 9.5 -9.96875 C 10.800781 -10.476562 11.785156 -11.421875 12.453125 -12.796875 C 13.128906 -14.171875 13.328125 -15.664062 13.046875 -17.28125 C 11.640625 -16.707031 10.535156 -15.90625 9.734375 -14.875 C 8.929688 -13.851562 8.289062 -12.679688 7.8125 -11.359375 C 7.757812 -11.160156 7.734375 -10.890625 7.734375 -10.546875 C 7.734375 -10.210938 7.785156 -10.019531 7.890625 -9.96875 C 8.117188 -9.851562 8.378906 -9.796875 8.671875 -9.796875 C 8.972656 -9.796875 9.25 -9.851562 9.5 -9.96875 Z M 9.5 -9.96875 "/></g></g></g><g fill="#2f6f88" fill-opacity="1"><g transform="translate(69.693888, 47.792976)"><g><path d="M 18.96875 -16.765625 C 19.070312 -16.367188 19.085938 -15.910156 19.015625 -15.390625 C 18.953125 -14.867188 18.796875 -14.46875 18.546875 -14.1875 C 18.316406 -13.90625 17.953125 -13.710938 17.453125 -13.609375 C 16.960938 -13.515625 16.507812 -13.484375 16.09375 -13.515625 C 15.664062 -13.546875 15.238281 -13.664062 14.8125 -13.875 C 14.394531 -14.082031 13.988281 -14.285156 13.59375 -14.484375 C 13.03125 -14.765625 12.535156 -14.84375 12.109375 -14.71875 C 11.691406 -14.59375 11.398438 -14.257812 11.234375 -13.71875 C 10.523438 -11.78125 9.945312 -9.785156 9.5 -7.734375 C 9.382812 -7.273438 9.363281 -6.800781 9.4375 -6.3125 C 9.507812 -5.820312 9.515625 -5.335938 9.453125 -4.859375 C 9.367188 -3.816406 8.984375 -2.960938 8.296875 -2.296875 C 7.609375 -1.640625 6.785156 -1.28125 5.828125 -1.21875 C 4.835938 -1.164062 3.976562 -1.425781 3.25 -2 C 2.519531 -2.582031 2.03125 -3.378906 1.78125 -4.390625 C 1.71875 -4.640625 1.664062 -4.890625 1.625 -5.140625 C 1.582031 -5.398438 1.5625 -5.671875 1.5625 -5.953125 C 1.59375 -8.460938 1.613281 -10.976562 1.625 -13.5 C 1.632812 -16.019531 1.65625 -18.53125 1.6875 -21.03125 C 1.6875 -21.28125 1.703125 -21.550781 1.734375 -21.84375 C 1.765625 -22.144531 1.863281 -22.378906 2.03125 -22.546875 C 2.3125 -22.890625 2.625 -23.25 2.96875 -23.625 C 3.320312 -24.007812 3.679688 -24.21875 4.046875 -24.25 C 4.421875 -24.269531 4.820312 -24.144531 5.25 -23.875 C 5.6875 -23.613281 6.0625 -23.3125 6.375 -22.96875 C 6.625 -22.6875 6.8125 -22.328125 6.9375 -21.890625 C 7.070312 -21.460938 7.222656 -21.019531 7.390625 -20.5625 C 10.097656 -22.03125 12.773438 -22.085938 15.421875 -20.734375 C 16.285156 -20.316406 17.023438 -19.78125 17.640625 -19.125 C 18.265625 -18.476562 18.707031 -17.691406 18.96875 -16.765625 Z M 18.96875 -16.765625 "/></g></g></g><g fill="#2f6f88" fill-opacity="1"><g transform="translate(90.344033, 47.792976)"><g><path d="M 17.65625 -7.34375 C 17.875 -6.695312 17.882812 -6.101562 17.6875 -5.5625 C 17.5 -5.03125 17.164062 -4.539062 16.6875 -4.09375 C 15.976562 -3.445312 15.085938 -3.007812 14.015625 -2.78125 C 12.953125 -2.5625 11.851562 -2.539062 10.71875 -2.71875 C 9.59375 -2.90625 8.625 -3.320312 7.8125 -3.96875 C 5.84375 -5.457031 4.734375 -7.441406 4.484375 -9.921875 C 4.367188 -10.765625 4.296875 -11.625 4.265625 -12.5 C 4.234375 -13.375 4.207031 -14.234375 4.1875 -15.078125 C 4.1875 -15.503906 4.117188 -15.847656 3.984375 -16.109375 C 3.859375 -16.378906 3.597656 -16.582031 3.203125 -16.71875 C 2.640625 -16.945312 2.195312 -17.269531 1.875 -17.6875 C 1.550781 -18.113281 1.472656 -18.609375 1.640625 -19.171875 C 1.785156 -19.597656 2.035156 -20.015625 2.390625 -20.421875 C 2.742188 -20.828125 3.113281 -21.101562 3.5 -21.25 C 4.007812 -21.46875 4.394531 -21.71875 4.65625 -22 C 4.925781 -22.28125 5.078125 -22.703125 5.109375 -23.265625 C 5.140625 -23.773438 5.203125 -24.273438 5.296875 -24.765625 C 5.398438 -25.265625 5.492188 -25.765625 5.578125 -26.265625 C 5.890625 -27.984375 6.632812 -28.828125 7.8125 -28.796875 C 9.019531 -28.773438 9.753906 -27.90625 10.015625 -26.1875 C 10.097656 -25.59375 10.144531 -24.992188 10.15625 -24.390625 C 10.164062 -23.785156 10.171875 -23.1875 10.171875 -22.59375 C 10.171875 -21.800781 10.566406 -21.394531 11.359375 -21.375 C 11.867188 -21.34375 12.375 -21.304688 12.875 -21.265625 C 13.382812 -21.222656 13.878906 -21.144531 14.359375 -21.03125 C 15.148438 -20.832031 15.753906 -20.429688 16.171875 -19.828125 C 16.597656 -19.222656 16.78125 -18.566406 16.71875 -17.859375 C 16.664062 -17.128906 16.367188 -16.503906 15.828125 -15.984375 C 15.296875 -15.460938 14.640625 -15.175781 13.859375 -15.125 C 13.296875 -15.0625 12.707031 -15.035156 12.09375 -15.046875 C 11.488281 -15.066406 10.796875 -15.078125 10.015625 -15.078125 C 10.117188 -14.234375 10.210938 -13.378906 10.296875 -12.515625 C 10.390625 -11.660156 10.503906 -10.8125 10.640625 -9.96875 C 10.753906 -9.457031 11 -9.085938 11.375 -8.859375 C 11.757812 -8.640625 12.207031 -8.554688 12.71875 -8.609375 C 13.050781 -8.671875 13.378906 -8.734375 13.703125 -8.796875 C 14.023438 -8.867188 14.359375 -8.921875 14.703125 -8.953125 C 15.347656 -9.003906 15.929688 -8.910156 16.453125 -8.671875 C 16.972656 -8.429688 17.375 -7.988281 17.65625 -7.34375 Z M 17.65625 -7.34375 "/></g></g></g><g fill="#2f6f88" fill-opacity="1"><g transform="translate(109.769536, 47.792976)"><g><path d="M 19.265625 -21.25 C 20.046875 -20.875 20.597656 -20.28125 20.921875 -19.46875 C 21.242188 -18.65625 21.222656 -17.710938 20.859375 -16.640625 C 20.410156 -15.265625 19.925781 -13.890625 19.40625 -12.515625 C 18.882812 -11.148438 18.300781 -9.804688 17.65625 -8.484375 C 16.269531 -5.617188 14.84375 -2.769531 13.375 0.0625 C 11.914062 2.894531 10.457031 5.71875 9 8.53125 C 8.769531 8.957031 8.515625 9.378906 8.234375 9.796875 C 7.953125 10.222656 7.613281 10.535156 7.21875 10.734375 C 6.257812 11.234375 5.234375 11.375 4.140625 11.15625 C 3.578125 11.039062 3.140625 10.734375 2.828125 10.234375 C 2.515625 9.742188 2.375 9.203125 2.40625 8.609375 C 2.40625 8.109375 2.445312 7.601562 2.53125 7.09375 C 2.613281 6.582031 2.742188 6.101562 2.921875 5.65625 C 3.367188 4.53125 3.832031 3.40625 4.3125 2.28125 C 4.789062 1.15625 5.296875 0.0390625 5.828125 -1.0625 C 5.992188 -1.476562 6.082031 -1.851562 6.09375 -2.1875 C 6.113281 -2.53125 6.023438 -2.914062 5.828125 -3.34375 C 5.179688 -4.800781 4.535156 -6.269531 3.890625 -7.75 C 3.242188 -9.226562 2.664062 -10.710938 2.15625 -12.203125 C 1.875 -13.046875 1.71875 -13.914062 1.6875 -14.8125 C 1.65625 -15.71875 1.613281 -16.609375 1.5625 -17.484375 C 1.53125 -18.015625 1.613281 -18.503906 1.8125 -18.953125 C 2.007812 -19.410156 2.40625 -19.722656 3 -19.890625 C 3.644531 -20.054688 4.148438 -19.960938 4.515625 -19.609375 C 4.878906 -19.265625 5.175781 -18.835938 5.40625 -18.328125 C 5.882812 -17.316406 6.347656 -16.296875 6.796875 -15.265625 C 7.242188 -14.234375 7.707031 -13.195312 8.1875 -12.15625 C 8.332031 -11.875 8.492188 -11.585938 8.671875 -11.296875 C 8.859375 -11.003906 9.066406 -10.644531 9.296875 -10.21875 C 9.597656 -10.78125 9.875 -11.285156 10.125 -11.734375 C 10.382812 -12.191406 10.640625 -12.628906 10.890625 -13.046875 C 11.546875 -14.117188 12.1875 -15.1875 12.8125 -16.25 C 13.445312 -17.320312 14.101562 -18.378906 14.78125 -19.421875 C 15.40625 -20.378906 16.109375 -21.015625 16.890625 -21.328125 C 17.679688 -21.640625 18.472656 -21.613281 19.265625 -21.25 Z M 19.265625 -21.25 "/></g></g></g><g fill="#2f6f88" fill-opacity="1"><g transform="translate(132.488927, 47.792976)"><g/></g></g><g fill="#2f6f88" fill-opacity="1"><g transform="translate(144.608746, 47.792976)"><g><path d="M 23.109375 -27.828125 C 24.566406 -26.390625 25.695312 -24.695312 26.5 -22.75 C 27.300781 -20.8125 27.703125 -18.773438 27.703125 -16.640625 C 27.703125 -12.046875 25.882812 -8.414062 22.25 -5.75 C 17.601562 -2.34375 12.507812 -0.507812 6.96875 -0.25 C 5.675781 -0.195312 4.410156 -0.535156 3.171875 -1.265625 C 2.378906 -1.691406 1.882812 -2.328125 1.6875 -3.171875 C 1.40625 -4.148438 1.585938 -5.175781 2.234375 -6.25 C 2.773438 -7.125 3.054688 -8.039062 3.078125 -9 C 3.109375 -10.769531 3.132812 -12.539062 3.15625 -14.3125 C 3.1875 -16.09375 3.21875 -17.882812 3.25 -19.6875 C 3.28125 -20.894531 3.300781 -22.109375 3.3125 -23.328125 C 3.332031 -24.554688 3.351562 -25.773438 3.375 -26.984375 C 3.375 -27.828125 3.453125 -28.488281 3.609375 -28.96875 C 3.765625 -29.445312 4.046875 -29.828125 4.453125 -30.109375 C 4.859375 -30.390625 5.457031 -30.660156 6.25 -30.921875 C 6.875 -31.117188 7.519531 -31.289062 8.1875 -31.4375 C 8.863281 -31.59375 9.523438 -31.742188 10.171875 -31.890625 C 10.398438 -31.941406 10.625 -31.988281 10.84375 -32.03125 C 11.070312 -32.070312 11.300781 -32.125 11.53125 -32.1875 L 11.578125 -31.921875 L 11.953125 -31.921875 C 14.085938 -32.015625 16.117188 -31.707031 18.046875 -31 C 19.984375 -30.289062 21.671875 -29.234375 23.109375 -27.828125 Z M 16.9375 -12.25 C 17.925781 -12.84375 18.691406 -13.648438 19.234375 -14.671875 C 19.785156 -15.703125 20.046875 -16.804688 20.015625 -17.984375 C 20.015625 -19.222656 19.71875 -20.363281 19.125 -21.40625 C 18.539062 -22.445312 17.738281 -23.28125 16.71875 -23.90625 C 15.851562 -24.4375 14.929688 -24.789062 13.953125 -24.96875 C 12.984375 -25.15625 12.019531 -25.304688 11.0625 -25.421875 C 10.863281 -25.453125 10.664062 -25.476562 10.46875 -25.5 C 10.269531 -25.53125 10.0625 -25.5625 9.84375 -25.59375 L 9.296875 -25.671875 L 10.09375 -8.65625 L 10.734375 -9 C 11.097656 -9.195312 11.453125 -9.378906 11.796875 -9.546875 C 12.148438 -9.710938 12.5 -9.878906 12.84375 -10.046875 C 13.570312 -10.390625 14.273438 -10.734375 14.953125 -11.078125 C 15.628906 -11.429688 16.289062 -11.820312 16.9375 -12.25 Z M 16.9375 -12.25 "/></g></g></g><g fill="#2f6f88" fill-opacity="1"><g transform="translate(173.915914, 47.792976)"><g><path d="M 18.203125 -20.4375 C 19.273438 -19.34375 19.894531 -18.15625 20.0625 -16.875 C 20.226562 -15.59375 19.972656 -14.410156 19.296875 -13.328125 C 18.617188 -12.242188 17.566406 -11.445312 16.140625 -10.9375 C 14.984375 -10.539062 13.773438 -10.265625 12.515625 -10.109375 C 11.265625 -9.960938 9.976562 -9.757812 8.65625 -9.5 C 9.050781 -9.382812 9.429688 -9.265625 9.796875 -9.140625 C 10.160156 -9.015625 10.523438 -8.925781 10.890625 -8.875 C 11.628906 -8.726562 12.367188 -8.617188 13.109375 -8.546875 C 13.859375 -8.484375 14.582031 -8.335938 15.28125 -8.109375 C 16.300781 -7.773438 16.914062 -7.203125 17.125 -6.390625 C 17.332031 -5.585938 17.054688 -4.804688 16.296875 -4.046875 C 15.910156 -3.628906 15.421875 -3.257812 14.828125 -2.9375 C 14.234375 -2.613281 13.65625 -2.421875 13.09375 -2.359375 C 10.5 -2.109375 8.316406 -2.441406 6.546875 -3.359375 C 4.773438 -4.273438 3.460938 -5.578125 2.609375 -7.265625 C 1.765625 -8.953125 1.429688 -10.835938 1.609375 -12.921875 C 1.722656 -14.210938 1.945312 -15.457031 2.28125 -16.65625 C 2.613281 -17.851562 3.148438 -19.003906 3.890625 -20.109375 C 4.816406 -21.535156 6.007812 -22.566406 7.46875 -23.203125 C 8.9375 -23.835938 10.515625 -23.988281 12.203125 -23.65625 C 14.597656 -23.226562 16.597656 -22.15625 18.203125 -20.4375 Z M 14.484375 -16.390625 C 14.546875 -16.390625 14.609375 -16.410156 14.671875 -16.453125 C 14.742188 -16.492188 14.835938 -16.539062 14.953125 -16.59375 C 14.421875 -17.351562 13.75 -17.894531 12.9375 -18.21875 C 12.132812 -18.539062 11.382812 -18.609375 10.6875 -18.421875 C 10.039062 -18.222656 9.5625 -17.890625 9.25 -17.421875 C 8.9375 -16.953125 8.695312 -16.394531 8.53125 -15.75 C 9.570312 -15.863281 10.582031 -15.96875 11.5625 -16.0625 C 12.550781 -16.164062 13.523438 -16.273438 14.484375 -16.390625 Z M 14.484375 -16.390625 "/></g></g></g><g fill="#2f6f88" fill-opacity="1"><g transform="translate(195.621793, 47.792976)"><g><path d="M 19.71875 -16.21875 C 20.9375 -13.738281 21.359375 -11.117188 20.984375 -8.359375 C 20.816406 -7.203125 20.394531 -6.128906 19.71875 -5.140625 C 19.039062 -4.160156 18.1875 -3.332031 17.15625 -2.65625 C 16.132812 -1.976562 15.007812 -1.5 13.78125 -1.21875 C 12.5625 -0.9375 11.316406 -0.894531 10.046875 -1.09375 C 9.828125 -1.125 9.597656 -1.160156 9.359375 -1.203125 C 9.117188 -1.242188 8.828125 -1.289062 8.484375 -1.34375 C 8.484375 -0.164062 8.488281 0.976562 8.5 2.09375 C 8.519531 3.207031 8.515625 4.296875 8.484375 5.359375 C 8.484375 5.816406 8.453125 6.269531 8.390625 6.71875 C 8.335938 7.164062 8.257812 7.601562 8.15625 8.03125 C 7.894531 8.8125 7.441406 9.40625 6.796875 9.8125 C 6.148438 10.226562 5.445312 10.40625 4.6875 10.34375 C 3.925781 10.257812 3.265625 9.957031 2.703125 9.4375 C 2.140625 8.914062 1.773438 8.257812 1.609375 7.46875 C 1.609375 7.445312 1.597656 7.40625 1.578125 7.34375 C 1.566406 7.289062 1.5625 7.238281 1.5625 7.1875 C 1.726562 5.070312 1.757812 2.953125 1.65625 0.828125 C 1.5625 -1.296875 1.539062 -3.414062 1.59375 -5.53125 C 1.65625 -7.644531 1.96875 -9.757812 2.53125 -11.875 C 2.8125 -12.914062 3.015625 -13.984375 3.140625 -15.078125 C 3.273438 -16.171875 3.46875 -17.253906 3.71875 -18.328125 C 3.914062 -19.140625 4.296875 -19.617188 4.859375 -19.765625 C 5.421875 -19.910156 6.007812 -19.6875 6.625 -19.09375 C 6.6875 -19.03125 6.75 -18.960938 6.8125 -18.890625 C 6.882812 -18.828125 6.953125 -18.753906 7.015625 -18.671875 C 7.691406 -18.953125 8.359375 -19.234375 9.015625 -19.515625 C 9.679688 -19.796875 10.363281 -20.019531 11.0625 -20.1875 C 13.007812 -20.71875 14.710938 -20.640625 16.171875 -19.953125 C 17.640625 -19.265625 18.820312 -18.019531 19.71875 -16.21875 Z M 10.765625 -8.40625 C 12.710938 -8.238281 14 -8.585938 14.625 -9.453125 C 15.257812 -10.328125 15.367188 -11.765625 14.953125 -13.765625 C 14.703125 -15.003906 13.925781 -15.441406 12.625 -15.078125 C 11.726562 -14.847656 11 -14.445312 10.4375 -13.875 C 9.875 -13.300781 9.378906 -12.632812 8.953125 -11.875 C 8.191406 -10.519531 7.921875 -9.625 8.140625 -9.1875 C 8.367188 -8.75 9.242188 -8.488281 10.765625 -8.40625 Z M 10.765625 -8.40625 "/></g></g></g><g fill="#2f6f88" fill-opacity="1"><g transform="translate(218.341173, 47.792976)"><g><path d="M 14.90625 -19.84375 C 16.175781 -19.644531 17.273438 -19.1875 18.203125 -18.46875 C 19.128906 -17.757812 19.816406 -16.867188 20.265625 -15.796875 C 20.722656 -14.722656 20.851562 -13.554688 20.65625 -12.296875 C 20.457031 -10.773438 20.054688 -9.359375 19.453125 -8.046875 C 18.847656 -6.734375 17.992188 -5.546875 16.890625 -4.484375 C 15.085938 -2.734375 12.90625 -1.875 10.34375 -1.90625 C 9.46875 -2.101562 8.585938 -2.273438 7.703125 -2.421875 C 6.816406 -2.578125 5.953125 -2.796875 5.109375 -3.078125 C 3.453125 -3.671875 2.242188 -4.613281 1.484375 -5.90625 C 0.722656 -7.207031 0.46875 -8.726562 0.71875 -10.46875 C 1.03125 -12.53125 1.726562 -14.328125 2.8125 -15.859375 C 3.894531 -17.390625 5.320312 -18.691406 7.09375 -19.765625 C 8.613281 -20.671875 10.25 -20.882812 12 -20.40625 C 12.476562 -20.257812 12.960938 -20.144531 13.453125 -20.0625 C 13.941406 -19.976562 14.425781 -19.90625 14.90625 -19.84375 Z M 13.6875 -11.703125 C 14.019531 -12.710938 13.765625 -13.515625 12.921875 -14.109375 C 12.128906 -14.671875 11.519531 -15.03125 11.09375 -15.1875 C 10.675781 -15.34375 10.296875 -15.269531 9.953125 -14.96875 C 9.617188 -14.675781 9.1875 -14.132812 8.65625 -13.34375 C 8.488281 -13.09375 8.347656 -12.882812 8.234375 -12.71875 C 7.421875 -11.28125 7.164062 -10.269531 7.46875 -9.6875 C 7.78125 -9.113281 8.753906 -8.785156 10.390625 -8.703125 C 11.234375 -8.671875 11.882812 -8.875 12.34375 -9.3125 C 12.8125 -9.75 13.257812 -10.546875 13.6875 -11.703125 Z M 13.6875 -11.703125 "/></g></g></g><g fill="#2f6f88" fill-opacity="1"><g transform="translate(240.089295, 47.792976)"><g><path d="M 16.09375 -12.25 C 17.382812 -11.039062 18.140625 -9.75 18.359375 -8.375 C 18.585938 -7.007812 18.328125 -5.734375 17.578125 -4.546875 C 16.835938 -3.367188 15.640625 -2.472656 13.984375 -1.859375 C 13.191406 -1.546875 12.359375 -1.296875 11.484375 -1.109375 C 10.609375 -0.929688 9.765625 -0.867188 8.953125 -0.921875 C 8.191406 -0.984375 7.421875 -1.160156 6.640625 -1.453125 C 5.867188 -1.753906 5.148438 -2.113281 4.484375 -2.53125 C 3.691406 -3.039062 3.1875 -3.707031 2.96875 -4.53125 C 2.757812 -5.363281 2.8125 -6.132812 3.125 -6.84375 C 3.4375 -7.519531 3.953125 -8.007812 4.671875 -8.3125 C 5.390625 -8.625 6.226562 -8.722656 7.1875 -8.609375 C 7.851562 -8.523438 8.515625 -8.453125 9.171875 -8.390625 C 9.835938 -8.335938 10.5 -8.285156 11.15625 -8.234375 C 11.175781 -8.316406 11.203125 -8.398438 11.234375 -8.484375 C 11.265625 -8.566406 11.289062 -8.664062 11.3125 -8.78125 C 10.8125 -8.945312 10.300781 -9.113281 9.78125 -9.28125 C 9.257812 -9.457031 8.757812 -9.660156 8.28125 -9.890625 C 7.4375 -10.304688 6.59375 -10.710938 5.75 -11.109375 C 4.90625 -11.503906 4.144531 -11.992188 3.46875 -12.578125 C 2.363281 -13.515625 1.738281 -14.613281 1.59375 -15.875 C 1.457031 -17.144531 1.710938 -18.414062 2.359375 -19.6875 C 3.015625 -20.925781 3.957031 -21.953125 5.1875 -22.765625 C 6.425781 -23.578125 7.769531 -24.125 9.21875 -24.40625 C 10.675781 -24.6875 12.066406 -24.617188 13.390625 -24.203125 C 14.398438 -23.890625 15.226562 -23.398438 15.875 -22.734375 C 16.519531 -22.078125 16.898438 -21.226562 17.015625 -20.1875 C 17.078125 -19.757812 17.03125 -19.304688 16.875 -18.828125 C 16.71875 -18.359375 16.5 -17.953125 16.21875 -17.609375 C 15.882812 -17.191406 15.476562 -17.035156 15 -17.140625 C 14.519531 -17.253906 14.050781 -17.425781 13.59375 -17.65625 C 12.582031 -18.21875 11.675781 -18.425781 10.875 -18.28125 C 10.070312 -18.144531 9.289062 -17.625 8.53125 -16.71875 C 8.894531 -16.550781 9.234375 -16.394531 9.546875 -16.25 C 9.859375 -16.113281 10.15625 -15.960938 10.4375 -15.796875 C 11.394531 -15.234375 12.378906 -14.679688 13.390625 -14.140625 C 14.398438 -13.609375 15.300781 -12.976562 16.09375 -12.25 Z M 16.09375 -12.25 "/></g></g></g><g fill="#2f6f88" fill-opacity="1"><g transform="translate(260.14823, 47.792976)"><g><path d="M 7.859375 -18.03125 C 7.859375 -17.550781 7.859375 -16.851562 7.859375 -15.9375 C 7.859375 -15.03125 7.847656 -14.054688 7.828125 -13.015625 C 7.816406 -11.972656 7.800781 -11.023438 7.78125 -10.171875 C 7.769531 -9.328125 7.765625 -8.738281 7.765625 -8.40625 C 7.742188 -7.976562 7.710938 -7.550781 7.671875 -7.125 C 7.628906 -6.707031 7.5625 -6.289062 7.46875 -5.875 C 7.28125 -4.75 6.890625 -3.878906 6.296875 -3.265625 C 5.703125 -2.660156 5.023438 -2.390625 4.265625 -2.453125 C 3.503906 -2.503906 2.84375 -2.851562 2.28125 -3.5 C 1.71875 -4.15625 1.492188 -5.03125 1.609375 -6.125 C 1.773438 -8.207031 2.023438 -10.28125 2.359375 -12.34375 C 2.703125 -14.414062 3.054688 -16.492188 3.421875 -18.578125 C 3.535156 -19.140625 3.8125 -19.585938 4.25 -19.921875 C 4.6875 -20.265625 5.226562 -20.394531 5.875 -20.3125 C 6.519531 -20.257812 7.003906 -20.015625 7.328125 -19.578125 C 7.648438 -19.140625 7.828125 -18.625 7.859375 -18.03125 Z M 4.6875 -23.953125 C 4.007812 -23.972656 3.4375 -24.242188 2.96875 -24.765625 C 2.507812 -25.285156 2.28125 -25.914062 2.28125 -26.65625 C 2.28125 -27.382812 2.53125 -28.007812 3.03125 -28.53125 C 3.539062 -29.050781 4.164062 -29.3125 4.90625 -29.3125 C 5.601562 -29.3125 6.195312 -29.0625 6.6875 -28.5625 C 7.1875 -28.070312 7.421875 -27.460938 7.390625 -26.734375 C 7.390625 -25.972656 7.113281 -25.3125 6.5625 -24.75 C 6.019531 -24.1875 5.394531 -23.921875 4.6875 -23.953125 Z M 4.6875 -23.953125 "/></g></g></g><g fill="#2f6f88" fill-opacity="1"><g transform="translate(269.607614, 47.792976)"><g><path d="M 17.65625 -7.34375 C 17.875 -6.695312 17.882812 -6.101562 17.6875 -5.5625 C 17.5 -5.03125 17.164062 -4.539062 16.6875 -4.09375 C 15.976562 -3.445312 15.085938 -3.007812 14.015625 -2.78125 C 12.953125 -2.5625 11.851562 -2.539062 10.71875 -2.71875 C 9.59375 -2.90625 8.625 -3.320312 7.8125 -3.96875 C 5.84375 -5.457031 4.734375 -7.441406 4.484375 -9.921875 C 4.367188 -10.765625 4.296875 -11.625 4.265625 -12.5 C 4.234375 -13.375 4.207031 -14.234375 4.1875 -15.078125 C 4.1875 -15.503906 4.117188 -15.847656 3.984375 -16.109375 C 3.859375 -16.378906 3.597656 -16.582031 3.203125 -16.71875 C 2.640625 -16.945312 2.195312 -17.269531 1.875 -17.6875 C 1.550781 -18.113281 1.472656 -18.609375 1.640625 -19.171875 C 1.785156 -19.597656 2.035156 -20.015625 2.390625 -20.421875 C 2.742188 -20.828125 3.113281 -21.101562 3.5 -21.25 C 4.007812 -21.46875 4.394531 -21.71875 4.65625 -22 C 4.925781 -22.28125 5.078125 -22.703125 5.109375 -23.265625 C 5.140625 -23.773438 5.203125 -24.273438 5.296875 -24.765625 C 5.398438 -25.265625 5.492188 -25.765625 5.578125 -26.265625 C 5.890625 -27.984375 6.632812 -28.828125 7.8125 -28.796875 C 9.019531 -28.773438 9.753906 -27.90625 10.015625 -26.1875 C 10.097656 -25.59375 10.144531 -24.992188 10.15625 -24.390625 C 10.164062 -23.785156 10.171875 -23.1875 10.171875 -22.59375 C 10.171875 -21.800781 10.566406 -21.394531 11.359375 -21.375 C 11.867188 -21.34375 12.375 -21.304688 12.875 -21.265625 C 13.382812 -21.222656 13.878906 -21.144531 14.359375 -21.03125 C 15.148438 -20.832031 15.753906 -20.429688 16.171875 -19.828125 C 16.597656 -19.222656 16.78125 -18.566406 16.71875 -17.859375 C 16.664062 -17.128906 16.367188 -16.503906 15.828125 -15.984375 C 15.296875 -15.460938 14.640625 -15.175781 13.859375 -15.125 C 13.296875 -15.0625 12.707031 -15.035156 12.09375 -15.046875 C 11.488281 -15.066406 10.796875 -15.078125 10.015625 -15.078125 C 10.117188 -14.234375 10.210938 -13.378906 10.296875 -12.515625 C 10.390625 -11.660156 10.503906 -10.8125 10.640625 -9.96875 C 10.753906 -9.457031 11 -9.085938 11.375 -8.859375 C 11.757812 -8.640625 12.207031 -8.554688 12.71875 -8.609375 C 13.050781 -8.671875 13.378906 -8.734375 13.703125 -8.796875 C 14.023438 -8.867188 14.359375 -8.921875 14.703125 -8.953125 C 15.347656 -9.003906 15.929688 -8.910156 16.453125 -8.671875 C 16.972656 -8.429688 17.375 -7.988281 17.65625 -7.34375 Z M 17.65625 -7.34375 "/></g></g></g></g></g></svg>