<svg xmlns="http://www.w3.org/2000/svg" xmlns:xlink="http://www.w3.org/1999/xlink" width="500" zoomAndPan="magnify" viewBox="0 0 375 374.999991" height="500" preserveAspectRatio="xMidYMid meet" version="1.0"><defs><clipPath id="fd93c095e6"><path d="M 66 58 L 327 58 L 327 333 L 66 333 Z M 66 58 " clip-rule="nonzero"/></clipPath><clipPath id="f11fdb3fa7"><path d="M 164.089844 0 L 372.328125 156.097656 L 208.136719 375.140625 L -0.105469 219.042969 Z M 164.089844 0 " clip-rule="nonzero"/></clipPath><clipPath id="a67382dc8a"><path d="M 164.089844 0 L 372.328125 156.097656 L 208.136719 375.140625 L -0.105469 219.042969 Z M 164.089844 0 " clip-rule="nonzero"/></clipPath></defs><g clip-path="url(#fd93c095e6)"><g clip-path="url(#f11fdb3fa7)"><g clip-path="url(#a67382dc8a)"><path fill="#f6a7b1" d="M 67.457031 161.667969 C 63.636719 188.574219 69.65625 216.226562 80.273438 240.941406 C 92.546875 269.585938 111.660156 302.683594 138.476562 319.78125 C 149.109375 326.566406 163.476562 331.863281 176.152344 332.488281 C 181.546875 332.753906 186.964844 332.542969 192.324219 331.863281 C 202.898438 330.519531 213.183594 327.359375 222.855469 322.902344 C 242.859375 313.667969 260.152344 299.199219 274.863281 282.964844 C 286.96875 269.609375 297.519531 254.808594 306.480469 239.175781 C 320.789062 214.210938 329.484375 185.1875 324.789062 156.269531 C 320.0625 127.390625 301.28125 102.855469 277.050781 87.148438 C 250.953125 70.257812 220.070312 63.273438 189.496094 60.097656 C 159.671875 57.023438 130.714844 58.226562 108.554688 80.902344 C 87.828125 102.0625 71.640625 132.261719 67.457031 161.667969 Z M 67.457031 161.667969 " fill-opacity="1" fill-rule="nonzero"/></g></g></g></svg>