<svg xmlns="http://www.w3.org/2000/svg" xmlns:xlink="http://www.w3.org/1999/xlink" width="500" zoomAndPan="magnify" viewBox="0 0 375 374.999991" height="500" preserveAspectRatio="xMidYMid meet" version="1.0"><defs><clipPath id="24fd2b1b73"><path d="M 159 132 L 169 132 L 169 154 L 159 154 Z M 159 132 " clip-rule="nonzero"/></clipPath><clipPath id="0f55aed892"><path d="M 168.726562 132.375 L 173.898438 215.460938 L 163.417969 216.113281 L 158.246094 133.027344 Z M 168.726562 132.375 " clip-rule="nonzero"/></clipPath><clipPath id="92711b1b4d"><path d="M 168.726562 132.375 L 173.898438 215.460938 L 163.417969 216.113281 L 158.246094 133.027344 Z M 168.726562 132.375 " clip-rule="nonzero"/></clipPath><clipPath id="579edc330e"><path d="M 162 153 L 171 153 L 171 216 L 162 216 Z M 162 153 " clip-rule="nonzero"/></clipPath><clipPath id="84111cd158"><path d="M 168.726562 132.375 L 173.898438 215.460938 L 163.417969 216.113281 L 158.246094 133.027344 Z M 168.726562 132.375 " clip-rule="nonzero"/></clipPath><clipPath id="1281b4a8f0"><path d="M 168.726562 132.375 L 173.898438 215.460938 L 163.417969 216.113281 L 158.246094 133.027344 Z M 168.726562 132.375 " clip-rule="nonzero"/></clipPath><clipPath id="9e0a6dd307"><path d="M 162 136 L 168 136 L 168 187 L 162 187 Z M 162 136 " clip-rule="nonzero"/></clipPath><clipPath id="97b1ac3f28"><path d="M 168.726562 132.375 L 173.898438 215.460938 L 163.417969 216.113281 L 158.246094 133.027344 Z M 168.726562 132.375 " clip-rule="nonzero"/></clipPath><clipPath id="a096ad36ce"><path d="M 168.726562 132.375 L 173.898438 215.460938 L 163.417969 216.113281 L 158.246094 133.027344 Z M 168.726562 132.375 " clip-rule="nonzero"/></clipPath><clipPath id="a506058d02"><path d="M 203 159 L 219 159 L 219 171 L 203 171 Z M 203 159 " clip-rule="nonzero"/></clipPath><clipPath id="69eb94db2d"><path d="M 220.710938 162.121094 L 167.394531 204.734375 L 162.246094 198.289062 L 215.558594 155.675781 Z M 220.710938 162.121094 " clip-rule="nonzero"/></clipPath><clipPath id="03c7af33d3"><path d="M 220.710938 162.121094 L 167.394531 204.734375 L 162.246094 198.289062 L 215.558594 155.675781 Z M 220.710938 162.121094 " clip-rule="nonzero"/></clipPath><clipPath id="b43c76f919"><path d="M 164 168 L 205 168 L 205 202 L 164 202 Z M 164 168 " clip-rule="nonzero"/></clipPath><clipPath id="bf35d1baf7"><path d="M 220.710938 162.121094 L 167.394531 204.734375 L 162.246094 198.289062 L 215.558594 155.675781 Z M 220.710938 162.121094 " clip-rule="nonzero"/></clipPath><clipPath id="ab3ec3295c"><path d="M 220.710938 162.121094 L 167.394531 204.734375 L 162.246094 198.289062 L 215.558594 155.675781 Z M 220.710938 162.121094 " clip-rule="nonzero"/></clipPath><clipPath id="027418cea6"><path d="M 183 161 L 217 161 L 217 187 L 183 187 Z M 183 161 " clip-rule="nonzero"/></clipPath><clipPath id="4f3eda54f0"><path d="M 220.710938 162.121094 L 167.394531 204.734375 L 162.246094 198.289062 L 215.558594 155.675781 Z M 220.710938 162.121094 " clip-rule="nonzero"/></clipPath><clipPath id="c8b6a02ca9"><path d="M 220.710938 162.121094 L 167.394531 204.734375 L 162.246094 198.289062 L 215.558594 155.675781 Z M 220.710938 162.121094 " clip-rule="nonzero"/></clipPath><clipPath id="3626bc4d34"><path d="M 150 176 L 209 176 L 209 239 L 150 239 Z M 150 176 " clip-rule="nonzero"/></clipPath><clipPath id="330c5c7892"><path d="M 184.886719 122.128906 L 246.039062 152.4375 L 197.078125 251.21875 L 135.925781 220.910156 Z M 184.886719 122.128906 " clip-rule="nonzero"/></clipPath><clipPath id="8bba898606"><path d="M 184.886719 122.128906 L 246.039062 152.4375 L 197.078125 251.21875 L 135.925781 220.910156 Z M 184.886719 122.128906 " clip-rule="nonzero"/></clipPath><clipPath id="883de0c032"><path d="M 166 127 L 232 127 L 232 199 L 166 199 Z M 166 127 " clip-rule="nonzero"/></clipPath><clipPath id="1d748ee47e"><path d="M 184.886719 122.128906 L 246.039062 152.4375 L 197.078125 251.21875 L 135.925781 220.910156 Z M 184.886719 122.128906 " clip-rule="nonzero"/></clipPath><clipPath id="619dd2833e"><path d="M 184.886719 122.128906 L 246.039062 152.4375 L 197.078125 251.21875 L 135.925781 220.910156 Z M 184.886719 122.128906 " clip-rule="nonzero"/></clipPath><clipPath id="6dd5af1285"><path d="M 171 143 L 220 143 L 220 197 L 171 197 Z M 171 143 " clip-rule="nonzero"/></clipPath><clipPath id="9e82821383"><path d="M 184.886719 122.128906 L 246.039062 152.4375 L 197.078125 251.21875 L 135.925781 220.910156 Z M 184.886719 122.128906 " clip-rule="nonzero"/></clipPath><clipPath id="a98e9d7a33"><path d="M 184.886719 122.128906 L 246.039062 152.4375 L 197.078125 251.21875 L 135.925781 220.910156 Z M 184.886719 122.128906 " clip-rule="nonzero"/></clipPath><clipPath id="d166d58ee4"><path d="M 161 129 L 231 129 L 231 237 L 161 237 Z M 161 129 " clip-rule="nonzero"/></clipPath><clipPath id="9afac2c998"><path d="M 184.886719 122.128906 L 246.039062 152.4375 L 197.078125 251.21875 L 135.925781 220.910156 Z M 184.886719 122.128906 " clip-rule="nonzero"/></clipPath><clipPath id="7e8ae8b6f6"><path d="M 184.886719 122.128906 L 246.039062 152.4375 L 197.078125 251.21875 L 135.925781 220.910156 Z M 184.886719 122.128906 " clip-rule="nonzero"/></clipPath><clipPath id="c868542915"><path d="M 180 139 L 188 139 L 188 156 L 180 156 Z M 180 139 " clip-rule="nonzero"/></clipPath><clipPath id="3e1a0ed024"><path d="M 189.292969 139.214844 L 184.597656 207.300781 L 176.367188 206.734375 L 181.0625 138.648438 Z M 189.292969 139.214844 " clip-rule="nonzero"/></clipPath><clipPath id="e744a60c57"><path d="M 189.292969 139.214844 L 184.597656 207.300781 L 176.367188 206.734375 L 181.0625 138.648438 Z M 189.292969 139.214844 " clip-rule="nonzero"/></clipPath><clipPath id="7114134af7"><path d="M 179 156 L 186 156 L 186 208 L 179 208 Z M 179 156 " clip-rule="nonzero"/></clipPath><clipPath id="8cf82607db"><path d="M 189.292969 139.214844 L 184.597656 207.300781 L 176.367188 206.734375 L 181.0625 138.648438 Z M 189.292969 139.214844 " clip-rule="nonzero"/></clipPath><clipPath id="aa1363986c"><path d="M 189.292969 139.214844 L 184.597656 207.300781 L 176.367188 206.734375 L 181.0625 138.648438 Z M 189.292969 139.214844 " clip-rule="nonzero"/></clipPath><clipPath id="66cbf56bca"><path d="M 181 142 L 186 142 L 186 183 L 181 183 Z M 181 142 " clip-rule="nonzero"/></clipPath><clipPath id="81a954c834"><path d="M 189.292969 139.214844 L 184.597656 207.300781 L 176.367188 206.734375 L 181.0625 138.648438 Z M 189.292969 139.214844 " clip-rule="nonzero"/></clipPath><clipPath id="6ff00d77b8"><path d="M 189.292969 139.214844 L 184.597656 207.300781 L 176.367188 206.734375 L 181.0625 138.648438 Z M 189.292969 139.214844 " clip-rule="nonzero"/></clipPath><clipPath id="ac5390fb98"><path d="M 141 143 L 152 143 L 152 162 L 141 162 Z M 141 143 " clip-rule="nonzero"/></clipPath><clipPath id="4989444cb8"><path d="M 145.726562 141.722656 L 176.40625 209.335938 L 168.210938 213.054688 L 137.53125 145.441406 Z M 145.726562 141.722656 " clip-rule="nonzero"/></clipPath><clipPath id="da2e32ba07"><path d="M 145.726562 141.722656 L 176.40625 209.335938 L 168.210938 213.054688 L 137.53125 145.441406 Z M 145.726562 141.722656 " clip-rule="nonzero"/></clipPath><clipPath id="72cbe29bea"><path d="M 148 160 L 174 160 L 174 212 L 148 212 Z M 148 160 " clip-rule="nonzero"/></clipPath><clipPath id="577976c41b"><path d="M 145.726562 141.722656 L 176.40625 209.335938 L 168.210938 213.054688 L 137.53125 145.441406 Z M 145.726562 141.722656 " clip-rule="nonzero"/></clipPath><clipPath id="75b7e96ec7"><path d="M 145.726562 141.722656 L 176.40625 209.335938 L 168.210938 213.054688 L 137.53125 145.441406 Z M 145.726562 141.722656 " clip-rule="nonzero"/></clipPath><clipPath id="e6bb8ee7ae"><path d="M 143 146 L 162 146 L 162 188 L 143 188 Z M 143 146 " clip-rule="nonzero"/></clipPath><clipPath id="23e353e5db"><path d="M 145.726562 141.722656 L 176.40625 209.335938 L 168.210938 213.054688 L 137.53125 145.441406 Z M 145.726562 141.722656 " clip-rule="nonzero"/></clipPath><clipPath id="d0c64b21a0"><path d="M 145.726562 141.722656 L 176.40625 209.335938 L 168.210938 213.054688 L 137.53125 145.441406 Z M 145.726562 141.722656 " clip-rule="nonzero"/></clipPath><clipPath id="88299f9e9a"><path d="M 135 173 L 214 173 L 214 245 L 135 245 Z M 135 173 " clip-rule="nonzero"/></clipPath><clipPath id="381b57db0e"><path d="M 128.894531 180.222656 L 204.6875 165.28125 L 219.050781 238.125 L 143.257812 253.070312 Z M 128.894531 180.222656 " clip-rule="nonzero"/></clipPath><clipPath id="b4cc08f877"><path d="M 128.894531 180.222656 L 204.6875 165.28125 L 219.050781 238.125 L 143.257812 253.070312 Z M 128.894531 180.222656 " clip-rule="nonzero"/></clipPath><clipPath id="03fca1e3ab"><path d="M 128.894531 180.222656 L 204.6875 165.28125 L 219.050781 238.125 L 143.257812 253.070312 Z M 128.894531 180.222656 " clip-rule="nonzero"/></clipPath><clipPath id="558df5a6db"><path d="M 156 174 L 177 174 L 177 241 L 156 241 Z M 156 174 " clip-rule="nonzero"/></clipPath><clipPath id="60e45438a9"><path d="M 128.894531 180.222656 L 204.6875 165.28125 L 219.050781 238.125 L 143.257812 253.070312 Z M 128.894531 180.222656 " clip-rule="nonzero"/></clipPath><clipPath id="5b586386dc"><path d="M 128.894531 180.222656 L 204.6875 165.28125 L 219.050781 238.125 L 143.257812 253.070312 Z M 128.894531 180.222656 " clip-rule="nonzero"/></clipPath><clipPath id="af4d37b7b8"><path d="M 128.894531 180.222656 L 204.6875 165.28125 L 219.050781 238.125 L 143.257812 253.070312 Z M 128.894531 180.222656 " clip-rule="nonzero"/></clipPath><clipPath id="1d6f89e2c4"><path d="M 156 176 L 184 176 L 184 241 L 156 241 Z M 156 176 " clip-rule="nonzero"/></clipPath><clipPath id="57aa46d86c"><path d="M 128.894531 180.222656 L 204.6875 165.28125 L 219.050781 238.125 L 143.257812 253.070312 Z M 128.894531 180.222656 " clip-rule="nonzero"/></clipPath><clipPath id="d5b57b1105"><path d="M 128.894531 180.222656 L 204.6875 165.28125 L 219.050781 238.125 L 143.257812 253.070312 Z M 128.894531 180.222656 " clip-rule="nonzero"/></clipPath><clipPath id="9b53877a5d"><path d="M 128.894531 180.222656 L 204.6875 165.28125 L 219.050781 238.125 L 143.257812 253.070312 Z M 128.894531 180.222656 " clip-rule="nonzero"/></clipPath><clipPath id="0bef4cd202"><path d="M 156 178 L 190 178 L 190 241 L 156 241 Z M 156 178 " clip-rule="nonzero"/></clipPath><clipPath id="b896dc9003"><path d="M 128.894531 180.222656 L 204.6875 165.28125 L 219.050781 238.125 L 143.257812 253.070312 Z M 128.894531 180.222656 " clip-rule="nonzero"/></clipPath><clipPath id="618b46429d"><path d="M 128.894531 180.222656 L 204.6875 165.28125 L 219.050781 238.125 L 143.257812 253.070312 Z M 128.894531 180.222656 " clip-rule="nonzero"/></clipPath><clipPath id="3f4fbb70ee"><path d="M 128.894531 180.222656 L 204.6875 165.28125 L 219.050781 238.125 L 143.257812 253.070312 Z M 128.894531 180.222656 " clip-rule="nonzero"/></clipPath><clipPath id="8c34e0eb4f"><path d="M 157 182 L 198 182 L 198 241 L 157 241 Z M 157 182 " clip-rule="nonzero"/></clipPath><clipPath id="adcd639de4"><path d="M 128.894531 180.222656 L 204.6875 165.28125 L 219.050781 238.125 L 143.257812 253.070312 Z M 128.894531 180.222656 " clip-rule="nonzero"/></clipPath><clipPath id="5563b533f0"><path d="M 128.894531 180.222656 L 204.6875 165.28125 L 219.050781 238.125 L 143.257812 253.070312 Z M 128.894531 180.222656 " clip-rule="nonzero"/></clipPath><clipPath id="276e0bed1a"><path d="M 128.894531 180.222656 L 204.6875 165.28125 L 219.050781 238.125 L 143.257812 253.070312 Z M 128.894531 180.222656 " clip-rule="nonzero"/></clipPath><clipPath id="30f21cc8d0"><path d="M 157 189 L 204 189 L 204 241 L 157 241 Z M 157 189 " clip-rule="nonzero"/></clipPath><clipPath id="0e2cd317ca"><path d="M 128.894531 180.222656 L 204.6875 165.28125 L 219.050781 238.125 L 143.257812 253.070312 Z M 128.894531 180.222656 " clip-rule="nonzero"/></clipPath><clipPath id="247cabdd07"><path d="M 128.894531 180.222656 L 204.6875 165.28125 L 219.050781 238.125 L 143.257812 253.070312 Z M 128.894531 180.222656 " clip-rule="nonzero"/></clipPath><clipPath id="6b5c14e910"><path d="M 128.894531 180.222656 L 204.6875 165.28125 L 219.050781 238.125 L 143.257812 253.070312 Z M 128.894531 180.222656 " clip-rule="nonzero"/></clipPath><clipPath id="13b71d733a"><path d="M 157 196 L 209 196 L 209 241 L 157 241 Z M 157 196 " clip-rule="nonzero"/></clipPath><clipPath id="a286b6f93a"><path d="M 128.894531 180.222656 L 204.6875 165.28125 L 219.050781 238.125 L 143.257812 253.070312 Z M 128.894531 180.222656 " clip-rule="nonzero"/></clipPath><clipPath id="ea6a00e234"><path d="M 128.894531 180.222656 L 204.6875 165.28125 L 219.050781 238.125 L 143.257812 253.070312 Z M 128.894531 180.222656 " clip-rule="nonzero"/></clipPath><clipPath id="9ceba7b12c"><path d="M 128.894531 180.222656 L 204.6875 165.28125 L 219.050781 238.125 L 143.257812 253.070312 Z M 128.894531 180.222656 " clip-rule="nonzero"/></clipPath><clipPath id="0655f09d77"><path d="M 157 204 L 213 204 L 213 241 L 157 241 Z M 157 204 " clip-rule="nonzero"/></clipPath><clipPath id="f52c626921"><path d="M 128.894531 180.222656 L 204.6875 165.28125 L 219.050781 238.125 L 143.257812 253.070312 Z M 128.894531 180.222656 " clip-rule="nonzero"/></clipPath><clipPath id="ea40b7be3c"><path d="M 128.894531 180.222656 L 204.6875 165.28125 L 219.050781 238.125 L 143.257812 253.070312 Z M 128.894531 180.222656 " clip-rule="nonzero"/></clipPath><clipPath id="9a36542d45"><path d="M 128.894531 180.222656 L 204.6875 165.28125 L 219.050781 238.125 L 143.257812 253.070312 Z M 128.894531 180.222656 " clip-rule="nonzero"/></clipPath><clipPath id="dd3a747d27"><path d="M 156 173 L 170 173 L 170 241 L 156 241 Z M 156 173 " clip-rule="nonzero"/></clipPath><clipPath id="f967223538"><path d="M 128.894531 180.222656 L 204.6875 165.28125 L 219.050781 238.125 L 143.257812 253.070312 Z M 128.894531 180.222656 " clip-rule="nonzero"/></clipPath><clipPath id="d0b2319320"><path d="M 128.894531 180.222656 L 204.6875 165.28125 L 219.050781 238.125 L 143.257812 253.070312 Z M 128.894531 180.222656 " clip-rule="nonzero"/></clipPath><clipPath id="9301c6a9f3"><path d="M 128.894531 180.222656 L 204.6875 165.28125 L 219.050781 238.125 L 143.257812 253.070312 Z M 128.894531 180.222656 " clip-rule="nonzero"/></clipPath><clipPath id="71bdd78f79"><path d="M 155 174 L 163 174 L 163 241 L 155 241 Z M 155 174 " clip-rule="nonzero"/></clipPath><clipPath id="ba5e047511"><path d="M 128.894531 180.222656 L 204.6875 165.28125 L 219.050781 238.125 L 143.257812 253.070312 Z M 128.894531 180.222656 " clip-rule="nonzero"/></clipPath><clipPath id="2dd613422e"><path d="M 128.894531 180.222656 L 204.6875 165.28125 L 219.050781 238.125 L 143.257812 253.070312 Z M 128.894531 180.222656 " clip-rule="nonzero"/></clipPath><clipPath id="facac26ae4"><path d="M 128.894531 180.222656 L 204.6875 165.28125 L 219.050781 238.125 L 143.257812 253.070312 Z M 128.894531 180.222656 " clip-rule="nonzero"/></clipPath><clipPath id="81fd40421b"><path d="M 151 177 L 157 177 L 157 241 L 151 241 Z M 151 177 " clip-rule="nonzero"/></clipPath><clipPath id="2084e1eea6"><path d="M 128.894531 180.222656 L 204.6875 165.28125 L 219.050781 238.125 L 143.257812 253.070312 Z M 128.894531 180.222656 " clip-rule="nonzero"/></clipPath><clipPath id="f3edece941"><path d="M 128.894531 180.222656 L 204.6875 165.28125 L 219.050781 238.125 L 143.257812 253.070312 Z M 128.894531 180.222656 " clip-rule="nonzero"/></clipPath><clipPath id="668851aaea"><path d="M 128.894531 180.222656 L 204.6875 165.28125 L 219.050781 238.125 L 143.257812 253.070312 Z M 128.894531 180.222656 " clip-rule="nonzero"/></clipPath><clipPath id="b34d012a2a"><path d="M 146 181 L 156 181 L 156 241 L 146 241 Z M 146 181 " clip-rule="nonzero"/></clipPath><clipPath id="2623d0121d"><path d="M 128.894531 180.222656 L 204.6875 165.28125 L 219.050781 238.125 L 143.257812 253.070312 Z M 128.894531 180.222656 " clip-rule="nonzero"/></clipPath><clipPath id="364fec669e"><path d="M 128.894531 180.222656 L 204.6875 165.28125 L 219.050781 238.125 L 143.257812 253.070312 Z M 128.894531 180.222656 " clip-rule="nonzero"/></clipPath><clipPath id="05e833dd87"><path d="M 128.894531 180.222656 L 204.6875 165.28125 L 219.050781 238.125 L 143.257812 253.070312 Z M 128.894531 180.222656 " clip-rule="nonzero"/></clipPath><clipPath id="58c663e2ee"><path d="M 141 187 L 156 187 L 156 241 L 141 241 Z M 141 187 " clip-rule="nonzero"/></clipPath><clipPath id="81a22add18"><path d="M 128.894531 180.222656 L 204.6875 165.28125 L 219.050781 238.125 L 143.257812 253.070312 Z M 128.894531 180.222656 " clip-rule="nonzero"/></clipPath><clipPath id="2936519570"><path d="M 128.894531 180.222656 L 204.6875 165.28125 L 219.050781 238.125 L 143.257812 253.070312 Z M 128.894531 180.222656 " clip-rule="nonzero"/></clipPath><clipPath id="664d08df9f"><path d="M 128.894531 180.222656 L 204.6875 165.28125 L 219.050781 238.125 L 143.257812 253.070312 Z M 128.894531 180.222656 " clip-rule="nonzero"/></clipPath><clipPath id="5d21cc1908"><path d="M 137 194 L 156 194 L 156 241 L 137 241 Z M 137 194 " clip-rule="nonzero"/></clipPath><clipPath id="1234053c1a"><path d="M 128.894531 180.222656 L 204.6875 165.28125 L 219.050781 238.125 L 143.257812 253.070312 Z M 128.894531 180.222656 " clip-rule="nonzero"/></clipPath><clipPath id="878e8eeb44"><path d="M 128.894531 180.222656 L 204.6875 165.28125 L 219.050781 238.125 L 143.257812 253.070312 Z M 128.894531 180.222656 " clip-rule="nonzero"/></clipPath><clipPath id="83c497bac5"><path d="M 128.894531 180.222656 L 204.6875 165.28125 L 219.050781 238.125 L 143.257812 253.070312 Z M 128.894531 180.222656 " clip-rule="nonzero"/></clipPath><clipPath id="4d8701c850"><path d="M 135 203 L 156 203 L 156 241 L 135 241 Z M 135 203 " clip-rule="nonzero"/></clipPath><clipPath id="359b9bc6fd"><path d="M 128.894531 180.222656 L 204.6875 165.28125 L 219.050781 238.125 L 143.257812 253.070312 Z M 128.894531 180.222656 " clip-rule="nonzero"/></clipPath><clipPath id="19ab5284bc"><path d="M 128.894531 180.222656 L 204.6875 165.28125 L 219.050781 238.125 L 143.257812 253.070312 Z M 128.894531 180.222656 " clip-rule="nonzero"/></clipPath><clipPath id="b898653802"><path d="M 128.894531 180.222656 L 204.6875 165.28125 L 219.050781 238.125 L 143.257812 253.070312 Z M 128.894531 180.222656 " clip-rule="nonzero"/></clipPath><clipPath id="ab330162af"><path d="M 158 217 L 210 217 L 210 244 L 158 244 Z M 158 217 " clip-rule="nonzero"/></clipPath><clipPath id="0ad13037e5"><path d="M 128.894531 180.222656 L 204.6875 165.28125 L 219.050781 238.125 L 143.257812 253.070312 Z M 128.894531 180.222656 " clip-rule="nonzero"/></clipPath><clipPath id="9c19974a9b"><path d="M 128.894531 180.222656 L 204.6875 165.28125 L 219.050781 238.125 L 143.257812 253.070312 Z M 128.894531 180.222656 " clip-rule="nonzero"/></clipPath><clipPath id="3fdbc4656f"><path d="M 128.894531 180.222656 L 204.6875 165.28125 L 219.050781 238.125 L 143.257812 253.070312 Z M 128.894531 180.222656 " clip-rule="nonzero"/></clipPath><clipPath id="e77b08ade4"><path d="M 157 237 L 197 237 L 197 241 L 157 241 Z M 157 237 " clip-rule="nonzero"/></clipPath><clipPath id="2722dac9a1"><path d="M 128.894531 180.222656 L 204.6875 165.28125 L 219.050781 238.125 L 143.257812 253.070312 Z M 128.894531 180.222656 " clip-rule="nonzero"/></clipPath><clipPath id="0a9792c02d"><path d="M 128.894531 180.222656 L 204.6875 165.28125 L 219.050781 238.125 L 143.257812 253.070312 Z M 128.894531 180.222656 " clip-rule="nonzero"/></clipPath><clipPath id="fbd2a58323"><path d="M 128.894531 180.222656 L 204.6875 165.28125 L 219.050781 238.125 L 143.257812 253.070312 Z M 128.894531 180.222656 " clip-rule="nonzero"/></clipPath><clipPath id="c47a0ef37d"><path d="M 158 234 L 200 234 L 200 240 L 158 240 Z M 158 234 " clip-rule="nonzero"/></clipPath><clipPath id="59d5eb2a83"><path d="M 128.894531 180.222656 L 204.6875 165.28125 L 219.050781 238.125 L 143.257812 253.070312 Z M 128.894531 180.222656 " clip-rule="nonzero"/></clipPath><clipPath id="ec8e592437"><path d="M 128.894531 180.222656 L 204.6875 165.28125 L 219.050781 238.125 L 143.257812 253.070312 Z M 128.894531 180.222656 " clip-rule="nonzero"/></clipPath><clipPath id="008fc71306"><path d="M 128.894531 180.222656 L 204.6875 165.28125 L 219.050781 238.125 L 143.257812 253.070312 Z M 128.894531 180.222656 " clip-rule="nonzero"/></clipPath><clipPath id="7698e583b7"><path d="M 158 230 L 204 230 L 204 240 L 158 240 Z M 158 230 " clip-rule="nonzero"/></clipPath><clipPath id="5be9dfefd9"><path d="M 128.894531 180.222656 L 204.6875 165.28125 L 219.050781 238.125 L 143.257812 253.070312 Z M 128.894531 180.222656 " clip-rule="nonzero"/></clipPath><clipPath id="4cc1190a91"><path d="M 128.894531 180.222656 L 204.6875 165.28125 L 219.050781 238.125 L 143.257812 253.070312 Z M 128.894531 180.222656 " clip-rule="nonzero"/></clipPath><clipPath id="d2e632ce5d"><path d="M 128.894531 180.222656 L 204.6875 165.28125 L 219.050781 238.125 L 143.257812 253.070312 Z M 128.894531 180.222656 " clip-rule="nonzero"/></clipPath><clipPath id="5f9d2ec802"><path d="M 157 225 L 208 225 L 208 240 L 157 240 Z M 157 225 " clip-rule="nonzero"/></clipPath><clipPath id="f93e46540b"><path d="M 128.894531 180.222656 L 204.6875 165.28125 L 219.050781 238.125 L 143.257812 253.070312 Z M 128.894531 180.222656 " clip-rule="nonzero"/></clipPath><clipPath id="c662c89eaf"><path d="M 128.894531 180.222656 L 204.6875 165.28125 L 219.050781 238.125 L 143.257812 253.070312 Z M 128.894531 180.222656 " clip-rule="nonzero"/></clipPath><clipPath id="a7a5eb937a"><path d="M 128.894531 180.222656 L 204.6875 165.28125 L 219.050781 238.125 L 143.257812 253.070312 Z M 128.894531 180.222656 " clip-rule="nonzero"/></clipPath><clipPath id="3c7e70970c"><path d="M 157 221 L 210 221 L 210 240 L 157 240 Z M 157 221 " clip-rule="nonzero"/></clipPath><clipPath id="dc3f5ce12d"><path d="M 128.894531 180.222656 L 204.6875 165.28125 L 219.050781 238.125 L 143.257812 253.070312 Z M 128.894531 180.222656 " clip-rule="nonzero"/></clipPath><clipPath id="161a64f6f4"><path d="M 128.894531 180.222656 L 204.6875 165.28125 L 219.050781 238.125 L 143.257812 253.070312 Z M 128.894531 180.222656 " clip-rule="nonzero"/></clipPath><clipPath id="778d6477b4"><path d="M 128.894531 180.222656 L 204.6875 165.28125 L 219.050781 238.125 L 143.257812 253.070312 Z M 128.894531 180.222656 " clip-rule="nonzero"/></clipPath><clipPath id="8d1b09f822"><path d="M 157 216 L 213 216 L 213 240 L 157 240 Z M 157 216 " clip-rule="nonzero"/></clipPath><clipPath id="c06ee8e0cd"><path d="M 128.894531 180.222656 L 204.6875 165.28125 L 219.050781 238.125 L 143.257812 253.070312 Z M 128.894531 180.222656 " clip-rule="nonzero"/></clipPath><clipPath id="e16b81fe08"><path d="M 128.894531 180.222656 L 204.6875 165.28125 L 219.050781 238.125 L 143.257812 253.070312 Z M 128.894531 180.222656 " clip-rule="nonzero"/></clipPath><clipPath id="d23e874ebe"><path d="M 128.894531 180.222656 L 204.6875 165.28125 L 219.050781 238.125 L 143.257812 253.070312 Z M 128.894531 180.222656 " clip-rule="nonzero"/></clipPath><clipPath id="30a1ab742e"><path d="M 157 210 L 213 210 L 213 241 L 157 241 Z M 157 210 " clip-rule="nonzero"/></clipPath><clipPath id="a0093987ef"><path d="M 128.894531 180.222656 L 204.6875 165.28125 L 219.050781 238.125 L 143.257812 253.070312 Z M 128.894531 180.222656 " clip-rule="nonzero"/></clipPath><clipPath id="687d921c4c"><path d="M 128.894531 180.222656 L 204.6875 165.28125 L 219.050781 238.125 L 143.257812 253.070312 Z M 128.894531 180.222656 " clip-rule="nonzero"/></clipPath><clipPath id="ae3ddfd091"><path d="M 128.894531 180.222656 L 204.6875 165.28125 L 219.050781 238.125 L 143.257812 253.070312 Z M 128.894531 180.222656 " clip-rule="nonzero"/></clipPath></defs><g clip-path="url(#24fd2b1b73)"><g clip-path="url(#0f55aed892)"><g clip-path="url(#92711b1b4d)"><path fill="#d1bbd1" d="M 162.492188 153.320312 C 162.492188 153.320312 159.582031 150.90625 159.710938 145.558594 C 159.84375 140.210938 164.003906 133.539062 164.003906 133.539062 L 164.632812 134.609375 L 165.171875 132.921875 C 165.171875 132.921875 167.191406 137.472656 168.492188 143.460938 C 169.789062 149.445312 166.941406 153.109375 166.941406 153.109375 C 164.417969 151.332031 162.492188 153.320312 162.492188 153.320312 Z M 162.492188 153.320312 C 162.492188 153.320312 159.582031 150.90625 159.710938 145.558594 C 159.84375 140.210938 164.003906 133.539062 164.003906 133.539062 L 164.632812 134.609375 L 165.171875 132.921875 C 165.171875 132.921875 167.191406 137.472656 168.492188 143.460938 C 169.789062 149.445312 166.941406 153.109375 166.941406 153.109375 C 164.417969 151.332031 162.492188 153.320312 162.492188 153.320312 Z M 162.492188 153.320312 " fill-opacity="1" fill-rule="nonzero"/></g></g></g><g clip-path="url(#579edc330e)"><g clip-path="url(#84111cd158)"><g clip-path="url(#1281b4a8f0)"><path fill="#a83b24" d="M 168.878906 181.316406 C 168.410156 174.027344 167.972656 166.449219 167.515625 160.691406 C 166.960938 153.671875 165.699219 153.863281 164.84375 153.882812 C 164.015625 153.902344 162.5 152.921875 162.917969 160.152344 C 163.257812 166.148438 164.21875 174.648438 164.703125 181.925781 C 165.804688 198.550781 166.28125 215.480469 169.390625 215.285156 C 171.484375 215.15625 169.957031 198.09375 168.878906 181.316406 Z M 168.878906 181.316406 C 168.410156 174.027344 167.972656 166.449219 167.515625 160.691406 C 166.960938 153.671875 165.699219 153.863281 164.84375 153.882812 C 164.015625 153.902344 162.5 152.921875 162.917969 160.152344 C 163.257812 166.148438 164.21875 174.648438 164.703125 181.925781 C 165.804688 198.550781 166.28125 215.480469 169.390625 215.285156 C 171.484375 215.15625 169.957031 198.09375 168.878906 181.316406 Z M 168.878906 181.316406 " fill-opacity="1" fill-rule="nonzero"/></g></g></g><g clip-path="url(#9e0a6dd307)"><g clip-path="url(#97b1ac3f28)"><g clip-path="url(#a096ad36ce)"><path fill="#1c2546" d="M 165.015625 136.519531 C 165.015625 136.519531 165.992188 139.714844 165.636719 142.761719 C 165.339844 141.671875 164.894531 137.484375 165.015625 136.519531 Z M 167.78125 178.015625 C 167.851562 176.226562 166.824219 162.109375 166.644531 159.707031 C 167.144531 159.773438 167.445312 159.855469 167.445312 159.855469 C 167.445312 159.855469 167.328125 158.257812 166.941406 153.09375 C 166.117188 152.316406 165.359375 152.101562 164.683594 152.140625 C 164.738281 151.691406 165.117188 147.652344 164.3125 144.859375 C 164.261719 145.589844 164.195312 150.898438 164.585938 152.148438 C 164.273438 152.183594 163.980469 152.269531 163.722656 152.382812 C 163.613281 151.152344 163.183594 146.382812 162.722656 143.207031 C 162.324219 144.238281 162.796875 151.019531 163.578125 152.441406 C 162.90625 152.796875 162.492188 153.304688 162.492188 153.304688 C 162.492188 153.304688 162.605469 156.207031 162.917969 160.136719 C 164.253906 159.558594 165.660156 159.585938 166.542969 159.695312 C 166.351562 162.203125 167.46875 177.753906 167.78125 178.015625 Z M 166.789062 186.207031 C 166.679688 182.082031 166.066406 175.378906 166.066406 175.378906 C 165.722656 175.996094 166.265625 184.457031 166.789062 186.207031 Z M 166.789062 186.207031 " fill-opacity="1" fill-rule="nonzero"/></g></g></g><g clip-path="url(#a506058d02)"><g clip-path="url(#69eb94db2d)"><g clip-path="url(#03c7af33d3)"><path fill="#9aaba2" d="M 203.613281 167.859375 C 203.613281 167.859375 203.863281 164.753906 207.527344 162.3125 C 211.191406 159.871094 217.65625 159.519531 217.65625 159.519531 L 217.230469 160.449219 L 218.625 160.015625 C 218.625 160.015625 216.511719 163.527344 213.09375 167.234375 C 209.675781 170.941406 205.859375 170.757812 205.859375 170.757812 C 205.863281 168.214844 203.613281 167.859375 203.613281 167.859375 Z M 203.613281 167.859375 C 203.613281 167.859375 203.863281 164.753906 207.527344 162.3125 C 211.191406 159.871094 217.65625 159.519531 217.65625 159.519531 L 217.230469 160.449219 L 218.625 160.015625 C 218.625 160.015625 216.511719 163.527344 213.09375 167.234375 C 209.675781 170.941406 205.859375 170.757812 205.859375 170.757812 C 205.863281 168.214844 203.613281 167.859375 203.613281 167.859375 Z M 203.613281 167.859375 " fill-opacity="1" fill-rule="nonzero"/></g></g></g><g clip-path="url(#b43c76f919)"><g clip-path="url(#bf35d1baf7)"><g clip-path="url(#ab3ec3295c)"><path fill="#a83b24" d="M 187.769531 185.40625 C 192.460938 181.640625 197.355469 177.761719 201.019531 174.730469 C 205.488281 171.035156 204.761719 170.277344 204.34375 169.707031 C 203.941406 169.160156 203.882812 167.675781 199.210938 171.378906 C 195.332031 174.441406 190.054688 179.109375 185.382812 182.878906 C 174.703125 191.484375 163.519531 199.8125 165.125 201.820312 C 166.199219 203.167969 176.976562 194.066406 187.769531 185.40625 Z M 187.769531 185.40625 C 192.460938 181.640625 197.355469 177.761719 201.019531 174.730469 C 205.488281 171.035156 204.761719 170.277344 204.34375 169.707031 C 203.941406 169.160156 203.882812 167.675781 199.210938 171.378906 C 195.332031 174.441406 190.054688 179.109375 185.382812 182.878906 C 174.703125 191.484375 163.519531 199.8125 165.125 201.820312 C 166.199219 203.167969 176.976562 194.066406 187.769531 185.40625 Z M 187.769531 185.40625 " fill-opacity="1" fill-rule="nonzero"/></g></g></g><g clip-path="url(#027418cea6)"><g clip-path="url(#4f3eda54f0)"><g clip-path="url(#c8b6a02ca9)"><path fill="#1c2546" d="M 216.125 161.613281 C 216.125 161.613281 214.433594 163.78125 212.214844 164.980469 C 212.804688 164.265625 215.417969 161.988281 216.125 161.613281 Z M 189.476562 183.105469 C 190.714844 182.304688 199.738281 174.933594 201.273438 173.675781 C 201.460938 174.042969 201.550781 174.285156 201.550781 174.285156 C 201.550781 174.285156 202.574219 173.453125 205.871094 170.75 C 206 169.824219 205.789062 169.210938 205.441406 168.777344 C 205.769531 168.601562 208.671875 166.945312 210.171875 165.082031 C 209.65625 165.390625 206.046875 167.859375 205.390625 168.714844 C 205.21875 168.519531 205.023438 168.363281 204.824219 168.246094 C 205.605469 167.589844 208.613281 165.042969 210.535156 163.230469 C 209.652344 163.449219 205.304688 166.976562 204.71875 168.175781 C 204.160156 167.890625 203.621094 167.851562 203.621094 167.851562 C 203.621094 167.851562 201.722656 169.300781 199.21875 171.367188 C 200.242188 171.996094 200.886719 172.957031 201.230469 173.601562 C 199.453125 174.660156 189.503906 182.769531 189.476562 183.105469 Z M 183.484375 186.308594 C 186.210938 184.285156 190.4375 180.699219 190.4375 180.699219 C 189.863281 180.761719 184.417969 185.128906 183.484375 186.308594 Z M 183.484375 186.308594 " fill-opacity="1" fill-rule="nonzero"/></g></g></g><g clip-path="url(#3626bc4d34)"><g clip-path="url(#330c5c7892)"><g clip-path="url(#8bba898606)"><path fill="#aed2d5" d="M 204.566406 201.273438 C 203.53125 201.042969 203.355469 201.828125 203.050781 202.363281 C 202.003906 204.214844 200.820312 205.984375 199.730469 207.8125 C 198.460938 209.9375 197.105469 212.015625 195.800781 214.125 C 194.957031 215.492188 194.148438 216.878906 193.308594 218.246094 C 192.199219 220.058594 191.066406 221.855469 189.953125 223.667969 C 189.101562 225.054688 188.277344 226.457031 187.433594 227.847656 C 186.511719 229.359375 185.578125 230.867188 184.660156 232.378906 C 184.0625 233.359375 183.472656 234.34375 182.886719 235.328125 C 182.523438 235.9375 182.171875 236.554688 181.816406 237.167969 C 181.414062 237.867188 180.75 238.117188 180 238.234375 C 177.71875 238.59375 175.492188 238.21875 173.300781 237.65625 C 170.0625 236.824219 166.910156 235.742188 164.285156 234.359375 C 160.175781 232.359375 156.746094 230.039062 153.664062 227.21875 C 152.472656 226.128906 151.460938 224.875 150.792969 223.375 C 150.554688 222.84375 150.558594 222.316406 150.765625 221.792969 C 151.40625 220.183594 152.070312 218.585938 152.703125 216.976562 C 153.332031 215.390625 153.921875 213.785156 154.546875 212.195312 C 155.15625 210.640625 155.792969 209.101562 156.398438 207.546875 C 157.011719 205.976562 157.601562 204.390625 158.214844 202.820312 C 158.785156 201.34375 159.382812 199.875 159.953125 198.398438 C 160.546875 196.863281 161.121094 195.320312 161.714844 193.785156 C 162.269531 192.34375 162.839844 190.914062 163.398438 189.472656 C 163.972656 187.972656 164.53125 186.46875 165.109375 184.972656 C 165.355469 184.332031 165.589844 183.679688 165.898438 183.066406 C 166.082031 182.703125 166.0625 182.464844 165.765625 182.207031 C 164.988281 181.53125 164.695312 180.660156 164.722656 179.644531 C 164.773438 178.070312 165.789062 177.300781 167.074219 176.730469 C 168.375 176.152344 169.703125 176.460938 170.992188 176.683594 C 172.992188 177.023438 174.867188 177.816406 176.761719 178.523438 C 178.964844 179.351562 181.109375 180.339844 183.304688 181.183594 C 186.402344 182.375 189.363281 183.839844 192.25 185.433594 C 194.980469 186.941406 197.703125 188.484375 200.328125 190.1875 C 202.078125 191.320312 203.90625 192.34375 205.449219 193.753906 C 206.679688 194.875 207.808594 196.039062 207.992188 197.882812 C 208.191406 199.902344 206.257812 201.648438 204.566406 201.273438 Z M 204.566406 201.273438 " fill-opacity="1" fill-rule="nonzero"/></g></g></g><g clip-path="url(#883de0c032)"><g clip-path="url(#1d748ee47e)"><g clip-path="url(#619dd2833e)"><path fill="#fde4be" d="M 185.140625 128.492188 C 185.152344 127.398438 185.570312 127.070312 186.636719 127.183594 C 188.546875 127.386719 190.46875 127.542969 192.378906 127.78125 C 195.003906 128.105469 197.007812 128.75 199.574219 130.03125 C 201.148438 130.726562 202.6875 131.945312 204.40625 132.859375 C 204.945312 133.144531 204.9375 133.769531 204.4375 134.363281 C 202.589844 136.558594 200.726562 138.734375 198.746094 140.8125 C 197.511719 142.101562 196.167969 143.257812 194.746094 144.339844 C 193.601562 145.21875 191.792969 145.035156 190.902344 143.96875 C 187.160156 139.476562 185.089844 134.382812 185.140625 128.492188 Z M 204.597656 195.054688 C 202.253906 192.8125 199.644531 190.914062 196.800781 189.382812 C 194 187.878906 191.109375 186.539062 188.257812 185.125 C 184.910156 183.589844 181.738281 181.683594 178.304688 180.332031 C 175.730469 179.3125 173.085938 178.523438 170.332031 178.136719 C 169.304688 177.992188 168.34375 178.195312 167.40625 178.628906 C 166.875 178.871094 166.902344 179.113281 167.238281 179.5 C 167.945312 180.316406 168.804688 180.949219 169.722656 181.476562 C 171.644531 182.585938 173.628906 183.582031 175.550781 184.6875 C 177.34375 185.726562 179.226562 186.605469 181.046875 187.59375 C 183.125 188.71875 185.160156 189.933594 187.332031 190.878906 C 188.792969 191.511719 190.261719 192.128906 191.691406 192.824219 C 195.210938 194.53125 198.785156 196.136719 202.382812 197.671875 C 203.375 198.09375 204.417969 198.40625 205.523438 198.460938 C 206 198.484375 206.203125 198.375 206.089844 197.828125 C 205.863281 196.746094 205.390625 195.816406 204.597656 195.054688 Z M 230.152344 153.34375 C 230.273438 153.140625 230.519531 152.722656 229.980469 152.730469 C 229.464844 152.742188 228.933594 152.734375 228.425781 152.910156 C 227.300781 153.304688 226.167969 153.6875 225.046875 154.089844 C 222.488281 155.015625 219.878906 155.808594 217.445312 157.050781 C 215.800781 157.890625 214.253906 158.886719 213.132812 160.847656 C 212.460938 162.578125 212.5 164.628906 213.007812 166.695312 C 213.097656 167.054688 213.269531 167.40625 213.464844 167.722656 C 214.511719 169.433594 214.992188 169.910156 217.15625 168.984375 C 219.925781 167.804688 221.96875 165.6875 223.605469 163.199219 C 225.4375 160.433594 227.21875 157.632812 229.109375 154.90625 C 229.46875 154.390625 229.835938 153.882812 230.152344 153.34375 Z M 207.023438 151.539062 C 207.992188 152.269531 209.023438 152.90625 210.070312 153.507812 C 211.484375 154.324219 212.136719 154.214844 213.132812 152.933594 C 215.550781 149.828125 218.335938 147.042969 220.832031 144.007812 C 221.605469 143.066406 221.578125 143.144531 220.785156 142.238281 C 219.5625 140.839844 218.097656 139.800781 216.484375 138.929688 C 216.1875 138.769531 215.902344 138.574219 215.707031 138.308594 C 215.308594 137.777344 214.757812 137.425781 214.292969 136.980469 C 213.878906 136.578125 213.625 136.699219 213.332031 137.121094 C 211.421875 139.867188 209.75 142.757812 208.273438 145.621094 C 207.589844 147.050781 206.964844 148.375 206.484375 149.761719 C 206.183594 150.640625 206.289062 150.984375 207.023438 151.539062 Z M 231.015625 180.738281 C 229.59375 178.039062 228.511719 175.183594 227.203125 172.429688 C 226.171875 170.253906 224.953125 168.183594 223.8125 166.070312 C 223.660156 165.789062 223.351562 165.605469 223.09375 165.898438 C 222.808594 166.222656 222.457031 166.476562 222.226562 166.867188 C 221.789062 167.609375 221.414062 168.378906 221.011719 169.136719 C 219.8125 171.515625 218.984375 174.046875 218.046875 176.53125 C 217.953125 176.773438 217.921875 177.011719 218.058594 177.253906 C 218.375 177.820312 218.667969 178.394531 218.863281 179.011719 C 219.011719 179.472656 219.328125 179.695312 219.800781 179.695312 C 220.390625 179.691406 220.96875 179.792969 221.535156 179.941406 C 224.34375 180.675781 227.15625 181.421875 229.972656 182.140625 C 230.421875 182.253906 230.941406 182.4375 231.3125 181.960938 C 231.722656 181.445312 231.210938 181.109375 231.015625 180.738281 Z M 193.488281 160.605469 C 194.375 162.007812 195.308594 162.191406 196.53125 161.066406 C 197.441406 160.230469 198.042969 159.183594 198.511719 158.140625 C 199.300781 156.625 199.839844 155.082031 200.472656 153.585938 C 200.929688 152.511719 201.355469 151.417969 201.71875 150.3125 C 201.992188 149.492188 201.546875 148.691406 200.675781 148.183594 C 199.898438 147.734375 199.300781 147.800781 198.625 148.425781 C 196.660156 150.21875 194.859375 152.136719 193.582031 154.519531 C 192.484375 156.5625 192.179688 158.53125 193.488281 160.605469 Z M 176.863281 158.96875 C 177.125 157.652344 176.9375 156.34375 176.746094 155.039062 C 176.339844 152.203125 175.683594 149.414062 175.042969 146.625 C 174.835938 145.710938 174.636719 144.796875 174.410156 143.761719 C 174.253906 143.9375 174.203125 143.972656 174.175781 144.023438 C 172.4375 147.234375 171.410156 150.648438 171.273438 154.308594 C 171.234375 155.421875 171.226562 156.554688 171.699219 157.578125 C 172.351562 158.980469 173.144531 160.246094 174.996094 160.296875 C 176.113281 160.328125 176.644531 160.070312 176.863281 158.96875 Z M 176.863281 158.96875 " fill-opacity="1" fill-rule="nonzero"/></g></g></g><g clip-path="url(#6dd5af1285)"><g clip-path="url(#9e82821383)"><g clip-path="url(#a98e9d7a33)"><path fill="#cd592c" d="M 178.6875 185.746094 C 178.558594 186.121094 178.378906 186.261719 178.003906 186.019531 C 177.796875 185.886719 177.558594 185.792969 177.332031 185.683594 C 176.285156 185.121094 176.285156 185.125 176.640625 183.933594 C 177.449219 181.210938 178.46875 178.558594 179.398438 175.878906 C 180.238281 173.457031 181.070312 171.027344 181.933594 168.609375 C 182.644531 166.625 183.386719 164.652344 184.132812 162.679688 C 185.03125 160.300781 185.851562 157.890625 186.640625 155.472656 C 187.566406 152.613281 188.496094 149.757812 189.417969 146.894531 C 189.710938 145.980469 189.996094 145.0625 190.265625 144.144531 C 190.523438 143.257812 191.167969 142.914062 192.046875 143.210938 C 192.511719 143.367188 193.023438 143.328125 193.46875 143.609375 C 193.984375 143.929688 194.269531 144.261719 194.070312 144.925781 C 193.617188 146.449219 192.988281 147.90625 192.484375 149.410156 C 191.796875 151.46875 191.078125 153.515625 190.355469 155.558594 C 189.773438 157.191406 189.199219 158.824219 188.566406 160.4375 C 187.457031 163.273438 186.320312 166.101562 185.175781 168.925781 C 184.621094 170.300781 184.019531 171.65625 183.457031 173.027344 C 182.324219 175.789062 181.222656 178.5625 180.25 181.382812 C 179.75 182.847656 179.207031 184.292969 178.6875 185.746094 Z M 204.234375 163.277344 C 205.296875 161.679688 206.339844 160.070312 207.371094 158.453125 C 208.164062 157.207031 208.855469 155.882812 209.726562 154.691406 C 210.574219 153.53125 209.984375 152.683594 208.816406 152.28125 C 208.328125 152.113281 208.011719 152.238281 207.699219 152.65625 C 206.839844 153.8125 206.082031 155.03125 205.273438 156.222656 C 203.929688 158.210938 202.605469 160.207031 201.273438 162.199219 C 200.097656 163.949219 198.90625 165.683594 197.753906 167.441406 C 196.453125 169.429688 195.191406 171.449219 193.902344 173.445312 C 192.402344 175.753906 190.910156 178.0625 189.382812 180.355469 C 187.695312 182.886719 185.984375 185.40625 184.261719 187.910156 C 183.507812 189.003906 183.480469 188.984375 184.6875 189.605469 C 184.757812 189.644531 184.835938 189.679688 184.910156 189.714844 C 184.910156 189.71875 184.910156 189.71875 184.910156 189.722656 C 185.019531 189.777344 185.132812 189.832031 185.246094 189.890625 C 186.246094 190.390625 186.238281 190.386719 186.847656 189.40625 C 187.507812 188.34375 188.179688 187.285156 188.859375 186.234375 C 190.351562 183.949219 191.847656 181.664062 193.347656 179.386719 C 194.507812 177.628906 195.667969 175.875 196.847656 174.128906 C 198.140625 172.210938 199.457031 170.308594 200.757812 168.398438 C 201.921875 166.691406 203.089844 164.992188 204.234375 163.277344 Z M 214.402344 169.808594 C 214.679688 169.507812 215.535156 169.132812 214.675781 168.511719 C 214.65625 168.496094 214.664062 168.429688 214.671875 168.390625 C 214.828125 167.648438 214.359375 167.167969 214.023438 166.585938 C 213.679688 165.992188 213.425781 166.121094 213.078125 166.453125 C 212.351562 167.140625 211.628906 167.832031 210.933594 168.558594 C 207.398438 172.273438 203.96875 176.09375 200.386719 179.765625 C 196.835938 183.410156 193.3125 187.082031 189.78125 190.75 C 188.972656 191.59375 188.980469 191.605469 190.164062 192.171875 C 190.441406 192.308594 190.851562 192.460938 191.261719 192.613281 C 192.347656 193.007812 192.335938 193.015625 193.136719 192.179688 C 197.335938 187.789062 201.546875 183.414062 205.738281 179.015625 C 208.648438 175.964844 211.539062 172.898438 214.402344 169.808594 Z M 219.355469 178.878906 C 219.183594 178.410156 218.800781 178.09375 218.59375 177.671875 C 218.296875 177.054688 218.226562 177 217.714844 177.503906 C 217.011719 178.191406 216.257812 178.824219 215.476562 179.417969 C 210.828125 182.945312 206.324219 186.652344 201.976562 190.546875 C 200.40625 191.953125 198.894531 193.421875 197.335938 194.84375 C 196.96875 195.179688 197.023438 195.335938 197.453125 195.53125 C 198.121094 195.828125 198.777344 196.15625 199.257812 196.519531 C 199.96875 196.882812 199.96875 196.882812 200.480469 196.488281 C 200.632812 196.375 200.78125 196.261719 200.929688 196.144531 C 205.410156 192.609375 209.730469 188.882812 213.988281 185.082031 C 215.746094 183.507812 217.539062 181.972656 219.101562 180.191406 C 219.46875 179.773438 219.539062 179.390625 219.355469 178.878906 Z M 175.925781 172.390625 C 176.011719 168.523438 176.15625 164.652344 176.113281 160.785156 C 176.105469 160.011719 175.664062 159.46875 175.039062 159.417969 C 173.894531 159.328125 173.816406 159.390625 173.652344 160.53125 C 173.632812 160.675781 173.605469 160.820312 173.59375 160.964844 C 173.003906 168.09375 172.414062 175.222656 171.8125 182.347656 C 171.796875 182.574219 171.855469 182.691406 172.050781 182.796875 C 172.730469 183.167969 173.402344 183.550781 174.167969 183.980469 C 174.296875 184.046875 174.535156 184.140625 174.746094 184.273438 C 175.195312 184.558594 175.324219 184.449219 175.355469 183.921875 C 175.589844 180.078125 175.84375 176.238281 175.925781 172.390625 Z M 184.667969 182.515625 C 186.285156 179.179688 187.949219 175.871094 189.597656 172.550781 C 189.59375 172.550781 189.59375 172.550781 189.59375 172.546875 C 191.210938 169.285156 192.820312 166.015625 194.453125 162.761719 C 194.855469 161.957031 195.316406 161.183594 194.371094 160.4375 C 194.339844 160.417969 194.332031 160.363281 194.316406 160.328125 C 194.09375 159.839844 193.867188 159.785156 193.539062 160.199219 C 193.265625 160.542969 193.03125 160.917969 192.816406 161.296875 C 191.535156 163.597656 190.226562 165.882812 188.996094 168.210938 C 187.4375 171.148438 185.9375 174.117188 184.429688 177.082031 C 183.570312 178.761719 182.792969 180.484375 181.878906 182.128906 C 181.105469 183.519531 180.453125 184.96875 179.695312 186.367188 C 179.597656 186.554688 179.484375 186.746094 179.761719 186.898438 C 180.421875 187.261719 181.078125 187.625 181.730469 188.003906 C 182.035156 188.175781 182.167969 188.058594 182.292969 187.773438 C 183.074219 186.011719 183.828125 184.242188 184.667969 182.515625 Z M 184.667969 182.515625 " fill-opacity="1" fill-rule="nonzero"/></g></g></g><g clip-path="url(#d166d58ee4)"><g clip-path="url(#9afac2c998)"><g clip-path="url(#7e8ae8b6f6)"><path fill="#724d46" d="M 183.847656 188.042969 C 184.335938 187.289062 184.820312 186.539062 185.316406 185.792969 C 186.359375 184.210938 187.40625 182.632812 188.460938 181.058594 C 189.660156 179.257812 190.867188 177.464844 192.066406 175.664062 C 193.058594 174.175781 194.050781 172.6875 195.027344 171.191406 C 196.199219 169.394531 197.359375 167.589844 198.511719 165.78125 C 199.445312 164.324219 200.355469 162.851562 201.285156 161.394531 C 202.789062 159.039062 204.371094 156.746094 206.171875 154.605469 C 206.332031 154.414062 206.480469 154.160156 206.878906 154.140625 C 206.582031 154.984375 206.066406 155.644531 205.605469 156.324219 C 203.628906 159.25 201.789062 162.265625 199.914062 165.257812 C 197.25 169.503906 194.476562 173.675781 191.652344 177.816406 C 189.3125 181.25 187.039062 184.730469 184.738281 188.1875 C 184.667969 188.292969 184.613281 188.414062 184.53125 188.503906 C 184.363281 188.6875 184.152344 188.792969 183.917969 188.644531 C 183.671875 188.488281 183.710938 188.257812 183.847656 188.042969 Z M 197.410156 205.246094 C 197.050781 205.925781 196.734375 206.628906 196.410156 207.324219 C 195.957031 208.292969 195.601562 209.3125 195.058594 210.222656 C 192.0625 215.28125 189.148438 220.382812 186.3125 225.535156 C 185.078125 227.765625 183.6875 229.90625 182.371094 232.089844 C 181.308594 233.851562 180.070312 235.3125 177.90625 235.675781 C 177.734375 235.703125 177.480469 235.78125 177.496094 235.996094 C 177.519531 236.273438 177.808594 236.21875 178.003906 236.234375 C 178.210938 236.25 178.421875 236.238281 178.628906 236.214844 C 180.199219 236.042969 181.320312 235.210938 182.167969 233.902344 C 183.808594 231.371094 185.382812 228.804688 186.851562 226.171875 C 189.183594 221.988281 191.472656 217.777344 193.871094 213.628906 C 195.558594 210.714844 197.417969 207.898438 198.839844 204.835938 C 198.1875 204.457031 197.769531 204.558594 197.410156 205.246094 Z M 195.917969 197.8125 C 193.667969 196.851562 191.375 195.984375 189.128906 195.011719 C 183.996094 192.785156 179.03125 190.210938 174.105469 187.5625 C 172.121094 186.496094 170.171875 185.359375 168.398438 183.945312 C 167.960938 183.597656 167.492188 183.285156 167.027344 182.96875 C 166.890625 182.871094 166.714844 182.816406 166.585938 182.996094 C 166.472656 183.152344 166.492188 183.320312 166.613281 183.460938 C 166.71875 183.585938 166.839844 183.703125 166.972656 183.804688 C 167.78125 184.398438 168.582031 185.003906 169.410156 185.570312 C 171.972656 187.324219 174.714844 188.761719 177.464844 190.1875 C 185.695312 194.457031 194.050781 198.441406 203.015625 200.96875 C 202.941406 200.941406 202.863281 200.921875 202.796875 200.886719 C 200.574219 199.703125 198.230469 198.796875 195.917969 197.8125 Z M 209.4375 174.085938 C 209.363281 174.160156 209.285156 174.226562 209.214844 174.304688 C 203.824219 179.945312 198.515625 185.660156 193.261719 191.433594 C 192.914062 191.816406 192.574219 192.207031 192.332031 192.480469 C 192.179688 192.8125 192.050781 193.015625 192.269531 193.1875 C 192.464844 193.339844 192.671875 193.25 192.847656 193.125 C 192.980469 193.027344 193.09375 192.902344 193.207031 192.78125 C 195.847656 189.980469 198.476562 187.175781 201.121094 184.378906 C 204.152344 181.171875 207.15625 177.945312 209.90625 174.488281 C 210.027344 174.332031 210.28125 174.175781 209.980469 173.921875 C 209.679688 173.671875 209.589844 173.933594 209.4375 174.085938 Z M 213.195312 180.726562 C 207.800781 185.265625 202.632812 190.058594 197.363281 194.738281 C 197.253906 194.835938 197.160156 194.949219 197.074219 195.066406 C 196.953125 195.242188 196.839844 195.425781 197.035156 195.628906 C 197.230469 195.835938 197.449219 195.792969 197.660156 195.664062 C 197.785156 195.589844 197.898438 195.492188 198.007812 195.394531 C 201.984375 191.820312 205.964844 188.253906 209.933594 184.671875 C 211.511719 183.246094 213.09375 181.820312 214.597656 180.207031 C 213.921875 180.007812 213.566406 180.40625 213.195312 180.726562 Z M 189.941406 171.75 C 190.519531 170.542969 191.027344 169.300781 191.5625 168.074219 C 191.628906 167.921875 191.730469 167.742188 191.53125 167.628906 C 191.320312 167.511719 191.179688 167.660156 191.078125 167.835938 C 190.824219 168.269531 190.558594 168.695312 190.328125 169.140625 C 187.503906 174.65625 184.761719 180.207031 182.300781 185.894531 C 182.09375 186.371094 181.933594 186.875 181.777344 187.371094 C 181.71875 187.554688 181.738281 187.761719 181.945312 187.859375 C 182.144531 187.957031 182.304688 187.839844 182.445312 187.699219 C 182.675781 187.472656 182.78125 187.171875 182.90625 186.886719 C 184.207031 183.917969 185.542969 180.960938 186.855469 177.992188 C 187.882812 175.914062 188.933594 173.839844 189.941406 171.75 Z M 171.5625 182.136719 C 171.558594 182.382812 171.550781 182.6875 171.910156 182.691406 C 172.242188 182.695312 172.292969 182.421875 172.316406 182.160156 C 172.363281 181.617188 172.398438 181.074219 172.445312 180.535156 C 172.921875 175.519531 173.417969 170.511719 173.789062 165.488281 C 173.828125 164.945312 173.84375 164.402344 173.75 163.863281 C 173.726562 163.734375 173.679688 163.613281 173.53125 163.59375 C 173.363281 163.570312 173.335938 163.71875 173.238281 163.929688 C 173.203125 164.132812 173.132812 164.4375 173.089844 164.746094 C 172.5625 168.488281 172.3125 172.253906 171.964844 176.015625 C 171.773438 178.054688 171.59375 180.089844 171.5625 182.136719 Z M 219.832031 158 C 218.625 158.585938 217.511719 159.320312 216.613281 160.328125 C 215.773438 161.265625 215.015625 162.265625 214.699219 163.519531 C 214.625 163.800781 214.582031 164.164062 214.925781 164.277344 C 215.277344 164.394531 215.277344 163.992188 215.378906 163.796875 C 216.253906 162.066406 217.414062 160.597656 219.097656 159.578125 C 220.207031 158.90625 221.386719 158.363281 222.539062 157.769531 C 224.09375 156.964844 225.644531 156.148438 227.019531 155.050781 C 227.519531 154.824219 227.867188 154.414062 228.335938 153.945312 C 227.78125 154.171875 227.320312 154.28125 226.945312 154.59375 C 224.574219 155.726562 222.199219 156.855469 219.832031 158 Z M 165.71875 189.855469 C 166.109375 188.890625 166.441406 187.902344 167.089844 187.050781 C 167.285156 186.792969 167.386719 186.351562 166.957031 186.136719 C 166.550781 185.933594 166.355469 186.230469 166.199219 186.558594 C 165.992188 186.996094 165.773438 187.425781 165.558594 187.855469 C 164.84375 189.214844 164.449219 190.695312 163.902344 192.117188 C 163.136719 194.109375 162.242188 196.050781 161.5625 198.078125 C 161.464844 198.371094 161.125 198.847656 161.558594 199.027344 C 162.066406 199.238281 162.109375 198.632812 162.234375 198.332031 C 163.414062 195.515625 164.566406 192.6875 165.71875 189.855469 Z M 173.089844 155.734375 C 172.394531 153.761719 172.617188 151.835938 173.304688 149.910156 C 173.652344 148.929688 174.101562 147.976562 174.257812 146.933594 C 174.289062 146.730469 174.363281 146.519531 174.152344 146.363281 C 173.796875 146.289062 173.726562 146.566406 173.636719 146.789062 C 173.230469 147.777344 172.804688 148.753906 172.441406 149.753906 C 171.953125 151.097656 171.644531 152.480469 171.800781 153.925781 C 171.910156 154.9375 172.253906 155.878906 172.679688 156.792969 C 172.765625 156.984375 172.894531 157.179688 173.152344 157.113281 C 173.414062 157.046875 173.34375 156.824219 173.3125 156.644531 C 173.25 156.339844 173.191406 156.027344 173.089844 155.734375 Z M 195.222656 143.308594 C 195.753906 143.152344 195.972656 142.800781 196.207031 142.492188 C 197.84375 140.367188 199.46875 138.238281 201.085938 136.105469 C 201.65625 135.355469 202.242188 134.613281 202.675781 133.773438 C 202.738281 133.652344 202.851562 133.488281 202.699219 133.378906 C 202.5625 133.277344 202.417969 133.398438 202.3125 133.496094 C 202.21875 133.578125 202.148438 133.683594 202.066406 133.78125 C 200.117188 136.148438 198.179688 138.527344 196.425781 141.042969 C 195.957031 141.714844 195.4375 142.382812 195.222656 143.308594 Z M 212.695312 151.265625 C 213.03125 151.519531 213.363281 151.101562 213.582031 150.839844 C 215.511719 148.511719 217.457031 146.195312 219.25 143.757812 C 219.421875 143.527344 219.800781 143.292969 219.550781 143.007812 C 219.421875 142.859375 219.152344 143.183594 219.007812 143.375 C 218.125 144.144531 217.402344 145.0625 216.625 145.921875 C 215.324219 147.355469 214.03125 148.800781 212.933594 150.398438 C 212.761719 150.644531 212.371094 151.019531 212.695312 151.265625 Z M 208.765625 148.675781 C 209.078125 148.851562 209.230469 148.417969 209.367188 148.191406 C 211.046875 145.347656 212.644531 142.457031 214.082031 139.484375 C 214.195312 139.246094 214.355469 139.003906 214.261719 138.628906 C 213.976562 138.800781 213.839844 139.03125 213.703125 139.261719 C 213.257812 139.992188 212.800781 140.71875 212.371094 141.460938 C 211.148438 143.578125 209.863281 145.65625 208.847656 147.886719 C 208.726562 148.140625 208.484375 148.519531 208.765625 148.675781 Z M 230.371094 181.355469 C 230.371094 181.171875 230.167969 181.167969 230.042969 181.132812 C 227.449219 180.421875 224.851562 179.710938 222.152344 179.519531 C 221.949219 179.507812 221.664062 179.414062 221.59375 179.652344 C 221.519531 179.917969 221.824219 180.007812 221.992188 180.136719 C 222.183594 180.195312 222.355469 180.269531 222.539062 180.308594 C 224.636719 180.75 226.738281 181.195312 228.839844 181.625 C 229.226562 181.707031 229.625 181.734375 230.019531 181.652344 C 230.191406 181.617188 230.371094 181.554688 230.371094 181.355469 Z M 190.5625 139.503906 C 190.328125 136.03125 189.222656 132.894531 188.375 129.699219 C 188.019531 130.289062 189.929688 138.851562 190.5625 139.503906 Z M 194.144531 156.832031 C 194.496094 157.03125 194.621094 156.550781 194.816406 156.332031 C 194.871094 156.273438 194.902344 156.191406 194.949219 156.121094 C 195.890625 154.566406 196.828125 153.011719 197.902344 151.238281 C 198.03125 150.976562 198.273438 150.492188 198.507812 150.003906 C 198.582031 149.855469 198.679688 149.648438 198.523438 149.546875 C 198.3125 149.414062 198.203125 149.640625 198.097656 149.789062 C 196.722656 151.804688 195.339844 153.820312 194.265625 156.023438 C 194.140625 156.273438 193.777344 156.621094 194.144531 156.832031 Z M 219.640625 174.832031 C 219.917969 175.011719 220.09375 174.722656 220.253906 174.542969 C 220.363281 174.421875 220.449219 174.273438 220.523438 174.125 C 220.964844 173.246094 221.402344 172.363281 221.835938 171.480469 C 221.871094 171.5 221.90625 171.515625 221.941406 171.53125 C 222.402344 170.476562 222.871094 169.421875 223.324219 168.363281 C 223.382812 168.222656 223.492188 168.03125 223.273438 167.925781 C 223.105469 167.847656 223.011719 168.007812 222.921875 168.121094 C 222.84375 168.21875 222.761719 168.316406 222.699219 168.421875 C 221.636719 170.324219 220.542969 172.207031 219.65625 174.199219 C 219.570312 174.40625 219.40625 174.671875 219.640625 174.832031 Z M 178.472656 234.90625 C 178.644531 234.816406 178.835938 234.707031 178.761719 234.484375 C 178.699219 234.289062 178.488281 234.3125 178.328125 234.324219 C 177.320312 234.367188 176.324219 234.246094 175.328125 234.109375 C 174.832031 234.039062 174.339844 233.945312 173.847656 233.871094 C 173.582031 233.835938 173.230469 233.722656 173.140625 234.058594 C 173.050781 234.382812 173.414062 234.476562 173.636719 234.613281 C 173.652344 234.625 173.675781 234.632812 173.695312 234.644531 C 175.140625 235.109375 176.613281 235.351562 178.128906 235.046875 C 178.246094 235.023438 178.363281 234.964844 178.472656 234.90625 Z M 219.105469 165.898438 C 220.34375 165.15625 221.316406 164.132812 222.148438 162.964844 C 222.445312 162.546875 222.773438 162.132812 222.835938 161.484375 C 222.601562 161.640625 222.445312 161.714844 222.328125 161.828125 C 221.105469 163.003906 219.886719 164.1875 218.667969 165.371094 C 218.492188 165.542969 218.226562 165.753906 218.429688 166 C 218.625 166.230469 218.898438 166.023438 219.105469 165.898438 Z M 164.90625 196.277344 C 165.007812 196.019531 165.160156 195.753906 165.054688 195.4375 C 164.730469 195.492188 164.640625 195.75 164.511719 195.949219 C 163.554688 197.457031 162.882812 199.101562 162.238281 200.757812 C 162.15625 200.980469 161.964844 201.257812 162.3125 201.402344 C 162.648438 201.542969 162.796875 201.261719 162.9375 201.027344 C 162.992188 200.941406 163.035156 200.84375 163.074219 200.746094 C 163.683594 199.257812 164.300781 197.769531 164.90625 196.277344 Z M 199.644531 134.828125 C 198.613281 135.273438 196.253906 139.132812 196.441406 140.113281 C 197.714844 138.398438 198.828125 136.710938 199.644531 134.828125 Z M 195.378906 157.46875 C 195.625 157.609375 195.757812 157.296875 195.878906 157.117188 C 196.761719 155.816406 197.488281 154.425781 198.109375 152.980469 C 198.183594 152.816406 198.261719 152.636719 198.164062 152.441406 C 197.957031 152.476562 197.847656 152.632812 197.738281 152.777344 C 196.777344 154.027344 195.96875 155.367188 195.40625 156.84375 C 195.324219 157.046875 195.140625 157.335938 195.378906 157.46875 Z M 209.640625 149.636719 C 209.84375 149.722656 209.976562 149.507812 210.070312 149.355469 C 210.523438 148.628906 210.964844 147.898438 211.40625 147.167969 C 211.394531 147.160156 211.382812 147.152344 211.367188 147.144531 C 211.644531 146.585938 211.933594 146.03125 212.195312 145.460938 C 212.269531 145.308594 212.433594 145.082031 212.234375 144.953125 C 212.011719 144.808594 211.847656 145.042969 211.734375 145.195312 C 210.832031 146.40625 210.082031 147.703125 209.601562 149.136719 C 209.542969 149.304688 209.410156 149.535156 209.640625 149.636719 Z M 220.78125 175.199219 C 220.984375 175.320312 221.117188 175.125 221.238281 174.980469 C 221.980469 174.117188 222.507812 173.125 222.9375 172.078125 C 223.015625 171.886719 223.117188 171.648438 222.867188 171.527344 C 222.632812 171.414062 222.496094 171.621094 222.375 171.796875 C 221.984375 172.363281 221.625 172.949219 221.398438 173.421875 C 221.136719 173.945312 220.945312 174.316406 220.773438 174.695312 C 220.703125 174.855469 220.566406 175.070312 220.78125 175.199219 Z M 191.074219 137.359375 C 191.101562 137.484375 191.191406 137.582031 191.332031 137.601562 C 191.496094 137.617188 191.527344 137.476562 191.628906 137.3125 C 191.832031 136.15625 191.679688 134.972656 191.289062 133.808594 C 191.246094 133.683594 191.105469 133.640625 190.972656 133.675781 C 190.804688 133.722656 190.746094 133.867188 190.742188 134.015625 C 190.699219 135.144531 190.824219 136.257812 191.074219 137.359375 Z M 175.875 157.585938 C 176.023438 157.589844 176.066406 157.441406 176.167969 157.234375 C 176.386719 156.253906 176.4375 155.183594 176.074219 154.121094 C 176.011719 153.933594 175.867188 153.785156 175.644531 153.828125 C 175.410156 153.871094 175.371094 154.078125 175.382812 154.269531 C 175.457031 155.269531 175.542969 156.269531 175.636719 157.265625 C 175.652344 157.40625 175.691406 157.582031 175.875 157.585938 Z M 218.558594 176.777344 C 218.351562 176.722656 218.082031 176.417969 217.871094 176.714844 C 217.679688 176.988281 218.027344 177.152344 218.195312 177.296875 C 218.574219 177.625 218.773438 178.042969 218.925781 178.5 C 219.015625 178.773438 219.070312 179.0625 219.28125 179.289062 C 219.417969 179.4375 219.570312 179.550781 219.769531 179.472656 C 219.992188 179.386719 220.058594 179.171875 220.011719 178.957031 C 219.8125 178.058594 219.457031 177.257812 218.558594 176.777344 Z M 191.113281 143.617188 C 191.980469 143.664062 192.863281 143.632812 193.753906 144.285156 C 193.828125 144.328125 193.984375 144.347656 194.054688 144.234375 C 194.164062 144.054688 194.050781 143.917969 193.9375 143.792969 C 193.164062 142.929688 192.15625 142.804688 191.085938 142.914062 C 190.828125 142.941406 190.460938 142.964844 190.476562 143.316406 C 190.488281 143.699219 190.859375 143.605469 191.113281 143.617188 Z M 213.429688 166.40625 C 213.730469 166.578125 213.933594 166.835938 214.109375 167.121094 C 214.363281 167.53125 214.53125 167.980469 214.671875 168.441406 C 214.75 168.695312 214.8125 169.070312 215.125 169.03125 C 215.386719 169 215.371094 168.621094 215.363281 168.382812 C 215.332031 167.335938 214.726562 166.617188 214.003906 166.015625 C 213.863281 165.953125 213.769531 165.894531 213.667969 165.875 C 213.472656 165.835938 213.230469 165.734375 213.128906 166.007812 C 213.039062 166.25 213.273438 166.320312 213.429688 166.40625 Z M 175.480469 159.953125 C 175.714844 160.019531 176.011719 160.40625 176.1875 159.9375 C 176.324219 159.574219 175.996094 159.355469 175.695312 159.25 C 175.1875 159.078125 174.664062 159.082031 174.148438 159.234375 C 173.960938 159.292969 173.785156 159.410156 173.832031 159.636719 C 173.878906 159.855469 174.082031 159.8125 174.25 159.792969 C 174.667969 159.75 175.085938 159.707031 175.480469 159.953125 Z M 193.632812 159.828125 C 193.492188 159.871094 193.394531 160.003906 193.546875 160.09375 C 194.0625 160.386719 194.15625 160.972656 194.488281 161.386719 C 194.625 161.5625 194.777344 161.714844 195.011719 161.582031 C 195.199219 161.476562 195.210938 161.273438 195.164062 161.082031 C 195.027344 160.578125 194.746094 160.179688 194.261719 159.882812 C 194.085938 159.8125 193.863281 159.761719 193.632812 159.828125 Z M 187.855469 152.769531 C 187.878906 152.683594 187.898438 152.597656 187.917969 152.511719 C 187.988281 152.34375 188.066406 152.171875 188.125 151.996094 C 188.183594 151.84375 188.28125 151.628906 188.101562 151.554688 C 187.914062 151.476562 187.753906 151.667969 187.683594 151.839844 C 187.507812 152.257812 187.359375 152.691406 187.199219 153.117188 C 186.972656 153.65625 186.695312 154.175781 186.515625 154.734375 C 185.765625 157.105469 184.820312 159.40625 183.988281 161.746094 C 182.804688 165.078125 181.5625 168.386719 180.390625 171.71875 C 178.910156 175.917969 177.476562 180.132812 176.015625 184.339844 C 175.910156 184.648438 175.757812 184.980469 176.171875 185.132812 C 176.566406 185.28125 176.730469 184.972656 176.839844 184.65625 C 177.992188 181.449219 179.15625 178.242188 180.296875 175.027344 C 182.210938 169.648438 184.070312 164.25 185.863281 158.828125 C 186.503906 156.882812 187.222656 154.960938 187.769531 152.984375 C 187.859375 152.933594 187.882812 152.863281 187.855469 152.769531 Z M 187.855469 152.769531 " fill-opacity="1" fill-rule="nonzero"/></g></g></g><g clip-path="url(#c868542915)"><g clip-path="url(#3e1a0ed024)"><g clip-path="url(#e744a60c57)"><path fill="#eda87d" d="M 181.949219 155.683594 C 181.949219 155.683594 179.835938 153.402344 180.515625 149.050781 C 181.195312 144.703125 185.3125 139.703125 185.3125 139.703125 L 185.710938 140.644531 L 186.332031 139.324219 C 186.332031 139.324219 187.492188 143.257812 187.90625 148.28125 C 188.320312 153.308594 185.605469 155.992188 185.605469 155.992188 C 183.734375 154.269531 181.949219 155.683594 181.949219 155.683594 Z M 181.949219 155.683594 C 181.949219 155.683594 179.835938 153.402344 180.515625 149.050781 C 181.195312 144.703125 185.3125 139.703125 185.3125 139.703125 L 185.710938 140.644531 L 186.332031 139.324219 C 186.332031 139.324219 187.492188 143.257812 187.90625 148.28125 C 188.320312 153.308594 185.605469 155.992188 185.605469 155.992188 C 183.734375 154.269531 181.949219 155.683594 181.949219 155.683594 Z M 181.949219 155.683594 " fill-opacity="1" fill-rule="nonzero"/></g></g></g><g clip-path="url(#7114134af7)"><g clip-path="url(#8cf82607db)"><g clip-path="url(#aa1363986c)"><path fill="#a83b24" d="M 184.152344 179.222656 C 184.550781 173.222656 185.007812 166.992188 185.253906 162.242188 C 185.558594 156.453125 184.511719 156.472656 183.808594 156.398438 C 183.132812 156.324219 182 155.363281 181.5625 161.308594 C 181.195312 166.238281 181.0625 173.28125 180.675781 179.269531 C 179.789062 192.957031 178.355469 206.828125 180.914062 207.003906 C 182.636719 207.121094 183.226562 193.03125 184.152344 179.222656 Z M 184.152344 179.222656 C 184.550781 173.222656 185.007812 166.992188 185.253906 162.242188 C 185.558594 156.453125 184.511719 156.472656 183.808594 156.398438 C 183.132812 156.324219 182 155.363281 181.5625 161.308594 C 181.195312 166.238281 181.0625 173.28125 180.675781 179.269531 C 179.789062 192.957031 178.355469 206.828125 180.914062 207.003906 C 182.636719 207.121094 183.226562 193.03125 184.152344 179.222656 Z M 184.152344 179.222656 " fill-opacity="1" fill-rule="nonzero"/></g></g></g><g clip-path="url(#66cbf56bca)"><g clip-path="url(#81a954c834)"><g clip-path="url(#6ff00d77b8)"><path fill="#1c2546" d="M 185.816406 142.242188 C 185.816406 142.242188 186.269531 144.957031 185.652344 147.40625 C 185.527344 146.484375 185.613281 143.019531 185.816406 142.242188 Z M 183.609375 176.410156 C 183.859375 174.957031 184.539062 163.324219 184.648438 161.34375 C 185.050781 161.453125 185.289062 161.550781 185.289062 161.550781 C 185.289062 161.550781 185.367188 160.234375 185.605469 155.976562 C 185.015625 155.257812 184.421875 154.996094 183.867188 154.960938 C 183.957031 154.597656 184.699219 151.339844 184.347656 148.976562 C 184.222656 149.566406 183.597656 153.894531 183.785156 154.953125 C 183.527344 154.949219 183.277344 154.988281 183.054688 155.054688 C 183.097656 154.035156 183.261719 150.097656 183.226562 147.457031 C 182.789062 148.253906 182.445312 153.839844 182.929688 155.085938 C 182.34375 155.304688 181.953125 155.671875 181.953125 155.671875 C 181.953125 155.671875 181.734375 158.050781 181.5625 161.292969 C 182.714844 160.964844 183.859375 161.140625 184.570312 161.324219 C 184.144531 163.351562 183.382812 176.164062 183.609375 176.410156 Z M 181.917969 182.992188 C 182.273438 179.613281 182.492188 174.074219 182.492188 174.074219 C 182.148438 174.539062 181.679688 181.503906 181.917969 182.992188 Z M 181.917969 182.992188 " fill-opacity="1" fill-rule="nonzero"/></g></g></g><g clip-path="url(#ac5390fb98)"><g clip-path="url(#4989444cb8)"><g clip-path="url(#da2e32ba07)"><path fill="#f6a7b1" d="M 147.203125 161.292969 C 147.203125 161.292969 143.996094 160.199219 142.398438 155.679688 C 140.804688 151.15625 142.164062 144.242188 142.164062 144.242188 L 143.03125 144.9375 L 142.945312 143.351562 C 142.945312 143.351562 146.085938 146.519531 149.082031 151.121094 C 152.078125 155.71875 150.863281 159.695312 150.863281 159.695312 C 148.183594 159.011719 147.203125 161.292969 147.203125 161.292969 Z M 147.203125 161.292969 C 147.203125 161.292969 143.996094 160.199219 142.398438 155.679688 C 140.804688 151.15625 142.164062 144.242188 142.164062 144.242188 L 143.03125 144.9375 L 142.945312 143.351562 C 142.945312 143.351562 146.085938 146.519531 149.082031 151.121094 C 152.078125 155.71875 150.863281 159.695312 150.863281 159.695312 C 148.183594 159.011719 147.203125 161.292969 147.203125 161.292969 Z M 147.203125 161.292969 " fill-opacity="1" fill-rule="nonzero"/></g></g></g><g clip-path="url(#72cbe29bea)"><g clip-path="url(#577976c41b)"><g clip-path="url(#75b7e96ec7)"><path fill="#a83b24" d="M 161.480469 182.707031 C 158.761719 176.746094 155.976562 170.542969 153.757812 165.867188 C 151.058594 160.160156 150.0625 160.722656 149.351562 161.015625 C 148.664062 161.292969 147.082031 160.957031 149.738281 166.878906 C 151.933594 171.792969 155.449219 178.609375 158.175781 184.546875 C 164.398438 198.121094 170.195312 212.148438 172.742188 210.992188 C 174.449219 210.21875 167.734375 196.414062 161.480469 182.707031 Z M 161.480469 182.707031 C 158.761719 176.746094 155.976562 170.542969 153.757812 165.867188 C 151.058594 160.160156 150.0625 160.722656 149.351562 161.015625 C 148.664062 161.292969 147.082031 160.957031 149.738281 166.878906 C 151.933594 171.792969 155.449219 178.609375 158.175781 184.546875 C 164.398438 198.121094 170.195312 212.148438 172.742188 210.992188 C 174.449219 210.21875 167.734375 196.414062 161.480469 182.707031 Z M 161.480469 182.707031 " fill-opacity="1" fill-rule="nonzero"/></g></g></g><g clip-path="url(#e6bb8ee7ae)"><g clip-path="url(#23e353e5db)"><g clip-path="url(#d0c64b21a0)"><path fill="#1c2546" d="M 143.960938 146.414062 C 143.960938 146.414062 145.796875 148.777344 146.46875 151.445312 C 145.871094 150.628906 144.167969 147.261719 143.960938 146.414062 Z M 159.507812 180.289062 C 158.996094 178.769531 153.632812 167.269531 152.714844 165.316406 C 153.15625 165.214844 153.433594 165.1875 153.433594 165.1875 C 153.433594 165.1875 152.828125 163.886719 150.855469 159.683594 C 149.917969 159.296875 149.214844 159.355469 148.664062 159.605469 C 148.566406 159.210938 147.59375 155.707031 146.03125 153.625 C 146.21875 154.253906 147.855469 158.722656 148.582031 159.644531 C 148.332031 159.773438 148.113281 159.9375 147.9375 160.113281 C 147.449219 159.117188 145.570312 155.261719 144.171875 152.746094 C 144.167969 153.738281 146.722656 159.269531 147.832031 160.210938 C 147.382812 160.722656 147.195312 161.277344 147.195312 161.277344 C 147.195312 161.277344 148.21875 163.671875 149.730469 166.867188 C 150.667969 165.953125 151.855469 165.53125 152.628906 165.339844 C 153.269531 167.5 159.160156 180.171875 159.507812 180.289062 Z M 161.289062 187.46875 C 159.882812 184.046875 157.226562 178.628906 157.226562 178.628906 C 157.136719 179.253906 160.292969 186.167969 161.289062 187.46875 Z M 161.289062 187.46875 " fill-opacity="1" fill-rule="nonzero"/></g></g></g><g clip-path="url(#88299f9e9a)"><g clip-path="url(#381b57db0e)"><g clip-path="url(#b4cc08f877)"><g clip-path="url(#03fca1e3ab)"><path fill="#dbd8c3" d="M 154.539062 239.898438 C 154.539062 239.898438 139.746094 220.683594 136.894531 213.714844 C 134.28125 207.332031 135.625 204.21875 135.625 204.21875 C 135.625 204.21875 135.179688 199.835938 135.363281 198.546875 C 135.546875 197.261719 136.941406 196.320312 137.386719 195.738281 C 137.835938 195.160156 138.371094 193.667969 138.371094 193.667969 C 138.550781 193.015625 138.789062 192.386719 139.085938 191.78125 C 139.539062 190.902344 141.488281 189.851562 141.488281 189.851562 L 142.246094 188.027344 C 142.695312 186.683594 143.332031 185.414062 144.136719 184.25 C 145.371094 182.566406 146.847656 183.019531 146.847656 183.019531 L 147.859375 181.476562 C 147.859375 181.476562 150.765625 178.070312 151.628906 177.804688 C 152.492188 177.535156 153.382812 178.992188 153.382812 178.992188 L 154.433594 177.457031 C 154.433594 177.457031 157.175781 175.058594 158.003906 174.878906 C 159.203125 174.609375 161.355469 175.589844 161.355469 175.589844 L 162.511719 174.285156 C 162.511719 174.285156 164.3125 173.234375 165.164062 173.191406 C 165.851562 173.152344 168.03125 174.921875 168.03125 174.921875 L 169.347656 173.636719 C 169.347656 173.636719 171.441406 172.84375 172.664062 173.035156 C 173.410156 173.148438 174.699219 175.304688 174.746094 175.539062 C 174.792969 175.769531 176.308594 174.300781 176.308594 174.300781 C 177.492188 174.0625 178.710938 174.035156 179.902344 174.226562 C 181.640625 174.554688 181.753906 176.84375 181.753906 176.84375 C 181.753906 176.84375 185.234375 175.878906 186.8125 176.378906 C 188.386719 176.878906 187.695312 179.308594 187.695312 179.308594 L 189.726562 178.351562 C 189.726562 178.351562 192.296875 178.6875 193.121094 179.039062 C 194.734375 179.722656 195.292969 183.292969 195.292969 183.292969 C 195.867188 182.886719 196.550781 182.664062 197.253906 182.652344 C 197.707031 182.667969 198.878906 183.167969 199.574219 183.476562 C 201.875 184.503906 201.726562 189.503906 201.726562 189.503906 C 201.726562 189.503906 202.988281 189.089844 203.683594 189.242188 C 204.378906 189.390625 206.496094 191.21875 207.027344 191.976562 C 207.5625 192.734375 206.84375 196.46875 206.84375 196.46875 L 208.671875 196.351562 C 209.609375 197.175781 210.355469 198.195312 210.851562 199.339844 C 211.644531 201.214844 210.421875 204.335938 210.421875 204.335938 L 212.28125 204.664062 C 212.566406 205.621094 212.777344 206.597656 212.914062 207.589844 C 213.078125 209.003906 211.714844 210.566406 211.714844 210.566406 L 212.746094 211.441406 C 213.179688 212.382812 213.382812 213.417969 213.339844 214.453125 C 213.269531 216.207031 211.335938 216.316406 211.335938 216.316406 L 212.355469 217.3125 C 212.375 218.289062 212.347656 219.269531 212.265625 220.242188 C 212.070312 221.671875 208.667969 221.574219 208.667969 221.574219 L 209.769531 222.457031 C 209.769531 222.457031 210.71875 223.613281 209.664062 225.515625 C 209.371094 226.039062 206.519531 226.574219 206.519531 226.574219 C 206.519531 226.574219 207.574219 227.0625 207.578125 227.550781 C 207.582031 228.035156 207.9375 228.703125 207.359375 229.613281 C 206.753906 230.566406 202.722656 231.101562 202.722656 231.101562 C 202.722656 231.101562 203.894531 231.839844 203.8125 232.03125 C 203.792969 232.09375 203.820312 233.535156 202.992188 234.6875 C 202.117188 235.898438 200.058594 236.261719 199.957031 236.46875 C 199.742188 236.917969 199.621094 238.140625 198.921875 239.023438 C 198.3125 239.800781 196.617188 240.710938 196.230469 240.898438 C 195.402344 241.292969 194.824219 242.480469 193.617188 242.910156 C 192.40625 243.34375 181.796875 245.472656 178.265625 244.023438 C 175.894531 243.042969 170.21875 240.484375 166.0625 239.542969 C 164.035156 239.082031 162.546875 239.5625 161.636719 239.734375 C 158.964844 240.222656 158.914062 241.289062 157.261719 241.5 C 155.964844 241.652344 154.539062 239.898438 154.539062 239.898438 " fill-opacity="1" fill-rule="nonzero"/></g></g></g></g><g clip-path="url(#558df5a6db)"><g clip-path="url(#60e45438a9)"><g clip-path="url(#5b586386dc)"><g clip-path="url(#af4d37b7b8)"><path fill="#aeaa89" d="M 174.8125 175.585938 C 174.8125 175.585938 167.542969 189.636719 163.398438 205.175781 C 159.25 220.71875 156.636719 240.234375 156.636719 240.234375 C 156.636719 240.234375 159.390625 222.546875 163.925781 206.679688 C 168.460938 190.8125 176.390625 174.285156 176.390625 174.285156 L 174.8125 175.585938 " fill-opacity="1" fill-rule="nonzero"/></g></g></g></g><g clip-path="url(#1d6f89e2c4)"><g clip-path="url(#57aa46d86c)"><g clip-path="url(#d5b57b1105)"><g clip-path="url(#9b53877a5d)"><path fill="#aeaa89" d="M 181.800781 176.96875 C 181.800781 176.96875 172.6875 190.945312 167.027344 206.007812 C 161.367188 221.066406 156.800781 240.28125 156.800781 240.28125 C 156.800781 240.28125 161.320312 222.886719 167.40625 207.558594 C 173.492188 192.226562 183.007812 176.554688 183.007812 176.554688 L 181.800781 176.96875 " fill-opacity="1" fill-rule="nonzero"/></g></g></g></g><g clip-path="url(#0bef4cd202)"><g clip-path="url(#b896dc9003)"><g clip-path="url(#618b46429d)"><g clip-path="url(#3f4fbb70ee)"><path fill="#aeaa89" d="M 187.738281 179.304688 C 187.738281 179.304688 177.796875 191.601562 170.613281 205.996094 C 167.558594 212.121094 164.628906 219.292969 162.273438 225.511719 C 159.09375 233.910156 156.957031 240.582031 156.957031 240.582031 C 156.957031 240.582031 163.203125 222.195312 170.832031 207.578125 C 178.460938 192.960938 189.550781 178.34375 189.550781 178.34375 L 187.738281 179.304688 " fill-opacity="1" fill-rule="nonzero"/></g></g></g></g><g clip-path="url(#8c34e0eb4f)"><g clip-path="url(#adcd639de4)"><g clip-path="url(#5563b533f0)"><g clip-path="url(#276e0bed1a)"><path fill="#aeaa89" d="M 195.304688 183.285156 C 195.304688 183.285156 183.953125 194.289062 175.089844 207.695312 C 170.402344 214.785156 165.648438 223.527344 162.207031 230.191406 C 159.132812 236.136719 157.109375 240.445312 157.109375 240.445312 C 157.109375 240.445312 165.769531 222.875 175.109375 209.28125 C 184.453125 195.683594 197.210938 182.53125 197.210938 182.53125 L 195.304688 183.285156 " fill-opacity="1" fill-rule="nonzero"/></g></g></g></g><g clip-path="url(#30f21cc8d0)"><g clip-path="url(#0e2cd317ca)"><g clip-path="url(#247cabdd07)"><g clip-path="url(#6b5c14e910)"><path fill="#aeaa89" d="M 201.757812 189.605469 C 201.757812 189.605469 189.082031 199.050781 178.5625 211.207031 C 172.578125 218.128906 166.582031 226.523438 162.523438 232.472656 C 159.457031 236.96875 157.5 240.070312 157.5 240.070312 C 157.5 240.070312 167.367188 225.074219 178.382812 212.796875 C 189.402344 200.515625 203.75 189.125 203.75 189.125 L 201.757812 189.605469 " fill-opacity="1" fill-rule="nonzero"/></g></g></g></g><g clip-path="url(#13b71d733a)"><g clip-path="url(#a286b6f93a)"><g clip-path="url(#ea6a00e234)"><g clip-path="url(#9ceba7b12c)"><path fill="#aeaa89" d="M 206.753906 196.453125 C 206.753906 196.453125 192.964844 204.179688 180.964844 214.875 C 174.132812 220.960938 167.105469 228.515625 162.3125 233.867188 C 158.6875 237.933594 157.210938 240.074219 157.210938 240.074219 C 157.210938 240.074219 168.070312 227.160156 180.578125 216.410156 C 193.082031 205.660156 208.785156 196.226562 208.785156 196.226562 L 206.753906 196.453125 " fill-opacity="1" fill-rule="nonzero"/></g></g></g></g><g clip-path="url(#0655f09d77)"><g clip-path="url(#f52c626921)"><g clip-path="url(#ea40b7be3c)"><g clip-path="url(#9a36542d45)"><path fill="#aeaa89" d="M 210.304688 204.609375 C 210.304688 204.609375 195.191406 209.785156 181.898438 218.816406 C 174.339844 223.960938 157.195312 240.113281 157.195312 240.113281 C 157.195312 240.113281 168.171875 228.988281 181.976562 219.964844 C 195.78125 210.9375 212.355469 204.65625 212.355469 204.65625 L 210.304688 204.609375 " fill-opacity="1" fill-rule="nonzero"/></g></g></g></g><g clip-path="url(#dd3a747d27)"><g clip-path="url(#f967223538)"><g clip-path="url(#d0b2319320)"><g clip-path="url(#9301c6a9f3)"><path fill="#aeaa89" d="M 168.035156 175.003906 C 168.035156 175.003906 162.148438 189.6875 159.519531 205.5625 C 156.894531 221.433594 156.480469 240.234375 156.480469 240.234375 C 156.480469 240.234375 157.199219 223.234375 160.191406 207.015625 C 163.183594 190.792969 169.476562 173.5625 169.476562 173.5625 L 168.035156 175.003906 " fill-opacity="1" fill-rule="nonzero"/></g></g></g></g><g clip-path="url(#71bdd78f79)"><g clip-path="url(#ba5e047511)"><g clip-path="url(#2dd613422e)"><g clip-path="url(#facac26ae4)"><path fill="#aeaa89" d="M 161.375 175.742188 C 161.375 175.742188 156.722656 190.867188 155.410156 206.90625 C 154.101562 222.945312 156.378906 240.296875 156.378906 240.296875 C 156.378906 240.296875 154.558594 224.71875 156.199219 208.289062 C 157.839844 191.863281 162.683594 174.1875 162.683594 174.1875 L 161.375 175.742188 " fill-opacity="1" fill-rule="nonzero"/></g></g></g></g><g clip-path="url(#81fd40421b)"><g clip-path="url(#2084e1eea6)"><g clip-path="url(#f3edece941)"><g clip-path="url(#668851aaea)"><path fill="#aeaa89" d="M 153.414062 179.082031 C 153.414062 179.082031 150.785156 194.6875 151.582031 210.753906 C 152.132812 220.804688 153.648438 230.78125 156.109375 240.542969 C 156.109375 240.542969 153.0625 228.527344 152.539062 212.027344 C 152.015625 195.527344 154.511719 177.359375 154.511719 177.359375 L 153.414062 179.082031 " fill-opacity="1" fill-rule="nonzero"/></g></g></g></g><g clip-path="url(#b34d012a2a)"><g clip-path="url(#2623d0121d)"><g clip-path="url(#364fec669e)"><g clip-path="url(#05e833dd87)"><path fill="#aeaa89" d="M 146.976562 183.0625 C 146.617188 193.109375 147.140625 203.164062 148.539062 213.121094 C 150.847656 229.039062 155.921875 240.347656 155.921875 240.347656 C 155.921875 240.347656 151.285156 229.117188 149.210938 212.738281 C 147.132812 196.359375 147.90625 181.230469 147.90625 181.230469 L 146.976562 183.0625 " fill-opacity="1" fill-rule="nonzero"/></g></g></g></g><g clip-path="url(#58c663e2ee)"><g clip-path="url(#81a22add18)"><g clip-path="url(#2936519570)"><g clip-path="url(#664d08df9f)"><path fill="#aeaa89" d="M 141.621094 189.777344 C 141.621094 189.777344 141.453125 201.414062 146.261719 216.757812 C 150.714844 230.984375 155.820312 240.332031 155.820312 240.332031 C 152.285156 232.523438 149.304688 224.472656 146.902344 216.242188 C 143.152344 203.183594 142.3125 187.847656 142.3125 187.847656 L 141.621094 189.777344 " fill-opacity="1" fill-rule="nonzero"/></g></g></g></g><g clip-path="url(#5d21cc1908)"><g clip-path="url(#1234053c1a)"><g clip-path="url(#878e8eeb44)"><g clip-path="url(#83c497bac5)"><path fill="#aeaa89" d="M 137.628906 195.453125 C 137.628906 195.453125 138.320312 202.042969 143.695312 217.199219 C 149.066406 232.351562 155.628906 240.203125 155.628906 240.203125 C 155.628906 240.203125 149.246094 232.257812 144.019531 216.59375 C 138.792969 200.929688 138.308594 194.003906 138.308594 194.003906 L 137.628906 195.453125 " fill-opacity="1" fill-rule="nonzero"/></g></g></g></g><g clip-path="url(#4d8701c850)"><g clip-path="url(#359b9bc6fd)"><g clip-path="url(#19ab5284bc)"><g clip-path="url(#b898653802)"><path fill="#aeaa89" d="M 135.867188 205.816406 C 135.867188 205.816406 135.898438 206.496094 142.5625 221.136719 C 149.222656 235.777344 155.269531 240.039062 155.269531 240.039062 C 155.269531 240.039062 149.71875 235.902344 142.941406 220.851562 C 136.652344 206.902344 135.660156 203.589844 135.660156 203.589844 L 135.867188 205.816406 " fill-opacity="1" fill-rule="nonzero"/></g></g></g></g><g clip-path="url(#ab330162af)"><g clip-path="url(#0ad13037e5)"><g clip-path="url(#9c19974a9b)"><g clip-path="url(#3fdbc4656f)"><path fill="#c5c3a4" d="M 158.335938 238.949219 C 158.335938 238.949219 183.25 223.160156 188.109375 221.289062 C 192.964844 219.417969 209.324219 215.3125 209.164062 218.300781 C 208.945312 222.222656 197.472656 240.613281 192.9375 242.007812 C 188.402344 243.402344 182.144531 244.46875 177.234375 242.695312 C 172.324219 240.921875 167.253906 238.351562 164.671875 238.699219 C 162.085938 239.042969 158.335938 238.949219 158.335938 238.949219 " fill-opacity="1" fill-rule="nonzero"/></g></g></g></g><g clip-path="url(#e77b08ade4)"><g clip-path="url(#2722dac9a1)"><g clip-path="url(#0a9792c02d)"><g clip-path="url(#fbd2a58323)"><path fill="#aeaa89" d="M 195.171875 239.761719 C 195.171875 239.761719 181.410156 237.3125 172.035156 237.09375 C 162.921875 236.886719 157.644531 240.507812 157.644531 240.507812 C 157.644531 240.507812 163.117188 236.53125 174.941406 237.722656 C 184.546875 238.691406 196.277344 240.769531 196.277344 240.769531 L 195.171875 239.761719 " fill-opacity="1" fill-rule="nonzero"/></g></g></g></g><g clip-path="url(#c47a0ef37d)"><g clip-path="url(#59d5eb2a83)"><g clip-path="url(#ec8e592437)"><g clip-path="url(#008fc71306)"><path fill="#aeaa89" d="M 198.800781 235.355469 C 198.800781 235.355469 185.441406 234.53125 179.816406 234.675781 C 168.492188 234.964844 158.113281 239.882812 158.113281 239.882812 C 158.113281 239.882812 169.023438 235.191406 179.59375 235.335938 C 189.25 235.46875 199.914062 236.355469 199.914062 236.355469 L 198.800781 235.355469 " fill-opacity="1" fill-rule="nonzero"/></g></g></g></g><g clip-path="url(#7698e583b7)"><g clip-path="url(#5be9dfefd9)"><g clip-path="url(#4cc1190a91)"><g clip-path="url(#d2e632ce5d)"><path fill="#aeaa89" d="M 202.753906 230.9375 C 202.753906 230.9375 189.886719 229.683594 180.632812 231.195312 C 166.265625 233.546875 158.058594 239.773438 158.058594 239.773438 C 158.058594 239.773438 166.730469 233.421875 182.496094 231.6875 C 192.089844 230.625 203.871094 231.945312 203.871094 231.945312 L 202.753906 230.9375 " fill-opacity="1" fill-rule="nonzero"/></g></g></g></g><g clip-path="url(#5f9d2ec802)"><g clip-path="url(#f93e46540b)"><g clip-path="url(#c662c89eaf)"><g clip-path="url(#a7a5eb937a)"><path fill="#aeaa89" d="M 206.585938 226.4375 C 206.585938 226.4375 195.867188 225.171875 186.65625 226.886719 C 171.320312 229.722656 157.628906 239.785156 157.628906 239.785156 C 157.628906 239.785156 173.089844 229.25 187.085938 227.648438 C 196.675781 226.546875 207.707031 227.445312 207.707031 227.445312 L 206.585938 226.4375 " fill-opacity="1" fill-rule="nonzero"/></g></g></g></g><g clip-path="url(#3c7e70970c)"><g clip-path="url(#dc3f5ce12d)"><g clip-path="url(#161a64f6f4)"><g clip-path="url(#778d6477b4)"><path fill="#aeaa89" d="M 208.769531 221.554688 C 208.769531 221.554688 199.167969 220.664062 190.054688 222.859375 C 176.933594 226.007812 157.953125 239.25 157.953125 239.25 C 157.953125 239.25 175.320312 227.148438 190.332031 223.703125 C 199.742188 221.542969 209.878906 222.5625 209.878906 222.5625 L 208.769531 221.554688 " fill-opacity="1" fill-rule="nonzero"/></g></g></g></g><g clip-path="url(#8d1b09f822)"><g clip-path="url(#c06ee8e0cd)"><g clip-path="url(#e16b81fe08)"><g clip-path="url(#d23e874ebe)"><path fill="#aeaa89" d="M 211.386719 216.210938 C 211.386719 216.210938 198.679688 217.203125 189.648438 219.722656 C 181.859375 221.894531 157.9375 239.203125 157.9375 239.203125 C 157.9375 239.203125 178.675781 224.695312 188.011719 221.4375 C 197.117188 218.25 212.503906 217.226562 212.503906 217.226562 L 211.386719 216.210938 " fill-opacity="1" fill-rule="nonzero"/></g></g></g></g><g clip-path="url(#30a1ab742e)"><g clip-path="url(#a0093987ef)"><g clip-path="url(#687d921c4c)"><g clip-path="url(#ae3ddfd091)"><path fill="#aeaa89" d="M 211.652344 210.347656 C 211.652344 210.347656 197.066406 214.875 188.324219 218.261719 C 176.355469 222.90625 157.378906 240.316406 157.378906 240.316406 C 157.378906 240.316406 177.554688 222.742188 188.710938 218.894531 C 197.839844 215.75 212.765625 211.367188 212.765625 211.367188 L 211.652344 210.347656 " fill-opacity="1" fill-rule="nonzero"/></g></g></g></g></svg>