<svg xmlns="http://www.w3.org/2000/svg" xmlns:xlink="http://www.w3.org/1999/xlink" width="500" zoomAndPan="magnify" viewBox="0 0 375 374.999991" height="500" preserveAspectRatio="xMidYMid meet" version="1.0"><defs><clipPath id="100810bdb6"><path d="M 109 119 L 266 119 L 266 257 L 109 257 Z M 109 119 " clip-rule="nonzero"/></clipPath><clipPath id="adc412587d"><path d="M 149.285156 119.171875 L 265.574219 193.476562 L 225.59375 256.042969 L 109.304688 181.738281 Z M 149.285156 119.171875 " clip-rule="nonzero"/></clipPath><clipPath id="df1e97ebf4"><path d="M 76 72 L 136 72 L 136 130 L 76 130 Z M 76 72 " clip-rule="nonzero"/></clipPath><clipPath id="bb05a68104"><path d="M 40.285156 0.171875 L 156.574219 74.476562 L 116.59375 137.042969 L 0.304688 62.738281 Z M 40.285156 0.171875 " clip-rule="nonzero"/></clipPath><clipPath id="9cf7d2896e"><path d="M 156.554688 74.464844 L 40.265625 0.15625 L 0.285156 62.726562 L 116.574219 137.03125 Z M 156.554688 74.464844 " clip-rule="nonzero"/></clipPath><clipPath id="3d2e552696"><path d="M 156.554688 74.464844 L 40.265625 0.15625 L 0.285156 62.726562 L 116.574219 137.03125 Z M 156.554688 74.464844 " clip-rule="nonzero"/></clipPath><clipPath id="347b4b65c1"><path d="M 51 9 L 107 9 L 107 76 L 51 76 Z M 51 9 " clip-rule="nonzero"/></clipPath><clipPath id="8fc47978a0"><path d="M 40.285156 0.171875 L 156.574219 74.476562 L 116.59375 137.042969 L 0.304688 62.738281 Z M 40.285156 0.171875 " clip-rule="nonzero"/></clipPath><clipPath id="ec29e21b40"><path d="M 156.554688 74.464844 L 40.265625 0.15625 L 0.285156 62.726562 L 116.574219 137.03125 Z M 156.554688 74.464844 " clip-rule="nonzero"/></clipPath><clipPath id="02322e8afc"><path d="M 156.554688 74.464844 L 40.265625 0.15625 L 0.285156 62.726562 L 116.574219 137.03125 Z M 156.554688 74.464844 " clip-rule="nonzero"/></clipPath><clipPath id="0cf21a5f18"><path d="M 33 37 L 84 37 L 84 74 L 33 74 Z M 33 37 " clip-rule="nonzero"/></clipPath><clipPath id="50391dea6a"><path d="M 40.285156 0.171875 L 156.574219 74.476562 L 116.59375 137.042969 L 0.304688 62.738281 Z M 40.285156 0.171875 " clip-rule="nonzero"/></clipPath><clipPath id="9fe01f8982"><path d="M 156.554688 74.464844 L 40.265625 0.15625 L 0.285156 62.726562 L 116.574219 137.03125 Z M 156.554688 74.464844 " clip-rule="nonzero"/></clipPath><clipPath id="b267f1534a"><path d="M 156.554688 74.464844 L 40.265625 0.15625 L 0.285156 62.726562 L 116.574219 137.03125 Z M 156.554688 74.464844 " clip-rule="nonzero"/></clipPath><clipPath id="aeae887f7d"><path d="M 30 13 L 94 13 L 94 73 L 30 73 Z M 30 13 " clip-rule="nonzero"/></clipPath><clipPath id="ec21b3b797"><path d="M 40.285156 0.171875 L 156.574219 74.476562 L 116.59375 137.042969 L 0.304688 62.738281 Z M 40.285156 0.171875 " clip-rule="nonzero"/></clipPath><clipPath id="65b7424e38"><path d="M 156.554688 74.464844 L 40.265625 0.15625 L 0.285156 62.726562 L 116.574219 137.03125 Z M 156.554688 74.464844 " clip-rule="nonzero"/></clipPath><clipPath id="c5a37b0da9"><path d="M 156.554688 74.464844 L 40.265625 0.15625 L 0.285156 62.726562 L 116.574219 137.03125 Z M 156.554688 74.464844 " clip-rule="nonzero"/></clipPath><clipPath id="f1a3b6b12f"><rect x="0" width="157" y="0" height="138"/></clipPath></defs><g clip-path="url(#100810bdb6)"><g clip-path="url(#adc412587d)"><g transform="matrix(1, 0, 0, 1, 109, 119)"><g clip-path="url(#f1a3b6b12f)"><g clip-path="url(#df1e97ebf4)"><g clip-path="url(#bb05a68104)"><g clip-path="url(#9cf7d2896e)"><g clip-path="url(#3d2e552696)"><path fill="#f0c36e" d="M 86.84375 74.519531 C 89.199219 72.875 92.886719 74.703125 98.707031 77.820312 C 100.800781 78.941406 103.960938 80.632812 104.84375 80.652344 C 105.859375 80.625 109.492188 78.359375 111.660156 77.007812 C 116.902344 73.746094 119.972656 71.941406 122.160156 72.859375 C 124.964844 74.035156 124.300781 78.703125 123.386719 85.15625 C 123.03125 87.667969 122.492188 91.460938 122.773438 92.367188 C 123.179688 93.226562 126.132812 95.554688 128.089844 97.097656 C 132.949219 100.933594 135.695312 103.21875 135.703125 105.617188 C 135.707031 106.339844 135.585938 107.289062 134.609375 108.210938 C 133.164062 109.578125 130.167969 110.0625 124.992188 110.796875 C 122.320312 111.175781 117.890625 111.804688 116.835938 112.523438 C 116.230469 113.347656 114.824219 117.003906 113.890625 119.441406 C 112.488281 123.09375 111.582031 125.394531 110.8125 126.554688 L 110.78125 126.601562 C 110.203125 127.476562 109 129.300781 106.929688 129.289062 C 104.457031 129.277344 102.71875 126.035156 99.613281 119.816406 C 98.542969 117.675781 96.929688 114.445312 96.273438 113.867188 C 95.382812 113.355469 91.09375 113.066406 88.523438 112.898438 C 83.628906 112.566406 80.09375 112.332031 78.324219 111.175781 C 77.601562 110.703125 77.175781 110.082031 77.066406 109.238281 C 77.019531 109.074219 76.953125 108.785156 76.972656 108.421875 C 77.078125 106.480469 79.039062 104.351562 83.828125 99.597656 C 85.625 97.8125 88.332031 95.121094 88.75 94.242188 C 88.949219 93.164062 87.863281 89.015625 87.207031 86.523438 C 85.421875 79.714844 84.59375 76.085938 86.835938 74.523438 Z M 86.84375 74.519531 " fill-opacity="1" fill-rule="nonzero"/></g></g></g></g><g clip-path="url(#347b4b65c1)"><g clip-path="url(#8fc47978a0)"><g clip-path="url(#ec29e21b40)"><g clip-path="url(#02322e8afc)"><path fill="#ddb068" d="M 102.308594 75.480469 C 103.007812 75.925781 103.910156 76 104.703125 75.597656 C 105.898438 74.992188 106.382812 73.535156 105.78125 72.339844 C 94.089844 49.050781 77.238281 28.144531 55.691406 10.203125 C 54.667969 9.34375 53.136719 9.488281 52.28125 10.519531 C 51.425781 11.550781 51.5625 13.078125 52.589844 13.933594 C 73.625 31.449219 90.066406 51.835938 101.453125 74.527344 C 101.65625 74.929688 101.957031 75.253906 102.308594 75.480469 Z M 102.308594 75.480469 " fill-opacity="1" fill-rule="nonzero"/></g></g></g></g><g clip-path="url(#0cf21a5f18)"><g clip-path="url(#50391dea6a)"><g clip-path="url(#9fe01f8982)"><g clip-path="url(#b267f1534a)"><path fill="#ddb068" d="M 79.949219 73.058594 C 80.847656 73.632812 82.054688 73.503906 82.8125 72.691406 C 83.667969 71.777344 83.621094 70.347656 82.710938 69.496094 C 70.789062 58.328125 56.300781 48.382812 37.121094 38.195312 C 36.019531 37.609375 34.652344 38.03125 34.066406 39.132812 C 33.476562 40.238281 33.898438 41.605469 34.996094 42.195312 C 53.816406 52.1875 67.992188 61.914062 79.617188 72.804688 C 79.722656 72.902344 79.832031 72.988281 79.945312 73.0625 Z M 79.949219 73.058594 " fill-opacity="1" fill-rule="nonzero"/></g></g></g></g><g clip-path="url(#aeae887f7d)"><g clip-path="url(#ec21b3b797)"><g clip-path="url(#65b7424e38)"><g clip-path="url(#c5a37b0da9)"><path fill="#ddb068" d="M 90.117188 72.042969 C 90.886719 72.535156 91.910156 72.527344 92.6875 71.945312 C 93.6875 71.199219 93.898438 69.78125 93.148438 68.777344 C 75.859375 45.585938 56.015625 27.089844 34.1875 13.816406 C 33.121094 13.167969 31.730469 13.511719 31.082031 14.578125 C 30.433594 15.644531 30.78125 17.03125 31.832031 17.683594 C 53.175781 30.664062 72.582031 48.765625 89.523438 71.492188 C 89.695312 71.714844 89.894531 71.902344 90.117188 72.042969 Z M 90.117188 72.042969 " fill-opacity="1" fill-rule="nonzero"/></g></g></g></g></g></g></g></g></svg>