<svg xmlns="http://www.w3.org/2000/svg" xmlns:xlink="http://www.w3.org/1999/xlink" width="500" zoomAndPan="magnify" viewBox="0 0 375 374.999991" height="500" preserveAspectRatio="xMidYMid meet" version="1.0"><defs><clipPath id="3b0d6e10e4"><path d="M 0 174 L 375 174 L 375 201.703125 L 0 201.703125 Z M 0 174 " clip-rule="nonzero"/></clipPath></defs><g clip-path="url(#3b0d6e10e4)"><path fill="#2f6f88" d="M 372.300781 196.859375 C 361.007812 196.113281 351.042969 188.363281 346.589844 176.6875 C 345.265625 173.203125 340.695312 173.21875 339.367188 176.691406 C 334.691406 188.980469 323.914062 196.917969 311.910156 196.917969 C 299.886719 196.917969 289.097656 188.976562 284.40625 176.6875 C 283.082031 173.203125 278.511719 173.21875 277.183594 176.691406 C 272.507812 188.980469 261.726562 196.917969 249.722656 196.917969 C 249.046875 196.917969 248.371094 196.882812 247.703125 196.832031 C 247.386719 196.808594 247.070312 196.769531 246.753906 196.734375 C 246.347656 196.6875 245.945312 196.648438 245.546875 196.585938 C 245.230469 196.535156 244.921875 196.46875 244.609375 196.410156 C 244.210938 196.335938 243.816406 196.257812 243.429688 196.164062 C 243.117188 196.09375 242.816406 196.007812 242.507812 195.921875 C 242.121094 195.816406 241.738281 195.707031 241.355469 195.585938 C 241.054688 195.488281 240.761719 195.382812 240.464844 195.273438 C 240.085938 195.136719 239.710938 194.996094 239.335938 194.84375 C 239.046875 194.726562 238.761719 194.597656 238.476562 194.46875 C 238.105469 194.304688 237.738281 194.128906 237.375 193.945312 C 237.097656 193.808594 236.824219 193.664062 236.554688 193.511719 C 236.191406 193.316406 235.832031 193.109375 235.480469 192.898438 C 235.21875 192.738281 234.957031 192.582031 234.699219 192.410156 C 234.347656 192.183594 234 191.949219 233.65625 191.703125 C 233.410156 191.53125 233.160156 191.351562 232.917969 191.167969 C 232.582031 190.910156 232.242188 190.640625 231.917969 190.371094 C 231.683594 190.179688 231.449219 189.988281 231.222656 189.789062 C 230.894531 189.5 230.574219 189.199219 230.257812 188.894531 C 230.042969 188.691406 229.824219 188.488281 229.617188 188.273438 C 229.300781 187.957031 228.996094 187.621094 228.691406 187.289062 C 228.492188 187.070312 228.296875 186.859375 228.105469 186.636719 C 227.800781 186.285156 227.511719 185.917969 227.222656 185.546875 C 227.050781 185.324219 226.867188 185.105469 226.695312 184.871094 C 226.410156 184.484375 226.136719 184.082031 225.863281 183.679688 C 225.707031 183.449219 225.546875 183.226562 225.394531 182.992188 C 225.121094 182.558594 224.859375 182.109375 224.601562 181.660156 C 224.472656 181.4375 224.335938 181.222656 224.210938 181 C 223.941406 180.496094 223.6875 179.976562 223.433594 179.457031 C 223.339844 179.269531 223.242188 179.089844 223.152344 178.894531 C 222.824219 178.175781 222.507812 177.441406 222.222656 176.6875 C 221.5625 174.945312 220.085938 174.078125 218.613281 174.082031 C 217.136719 174.082031 215.660156 174.957031 214.996094 176.691406 C 210.324219 188.980469 199.542969 196.917969 187.539062 196.917969 C 186.035156 196.917969 184.554688 196.792969 183.097656 196.554688 C 182.371094 196.433594 181.652344 196.285156 180.941406 196.101562 C 171.683594 193.785156 163.847656 186.671875 160.039062 176.6875 C 159.707031 175.816406 159.171875 175.164062 158.539062 174.730469 C 157.265625 173.863281 155.585938 173.863281 154.316406 174.734375 C 153.679688 175.171875 153.144531 175.824219 152.8125 176.691406 C 152.523438 177.441406 152.21875 178.175781 151.886719 178.890625 C 151.78125 179.121094 151.660156 179.34375 151.546875 179.570312 C 151.316406 180.050781 151.085938 180.527344 150.832031 180.988281 C 150.6875 181.253906 150.527344 181.507812 150.375 181.773438 C 150.140625 182.179688 149.90625 182.585938 149.65625 182.976562 C 149.484375 183.246094 149.300781 183.503906 149.121094 183.769531 C 148.871094 184.136719 148.625 184.5 148.363281 184.855469 C 148.167969 185.121094 147.960938 185.371094 147.757812 185.628906 C 147.496094 185.960938 147.234375 186.292969 146.960938 186.613281 C 146.746094 186.867188 146.523438 187.109375 146.300781 187.355469 C 146.023438 187.660156 145.742188 187.964844 145.457031 188.253906 C 145.222656 188.488281 144.984375 188.71875 144.742188 188.945312 C 144.449219 189.226562 144.15625 189.503906 143.855469 189.765625 C 143.605469 189.988281 143.351562 190.195312 143.09375 190.410156 C 142.785156 190.660156 142.480469 190.90625 142.164062 191.148438 C 141.902344 191.347656 141.632812 191.542969 141.363281 191.734375 C 141.042969 191.957031 140.71875 192.179688 140.390625 192.394531 C 140.113281 192.574219 139.832031 192.75 139.546875 192.917969 C 139.214844 193.121094 138.878906 193.3125 138.542969 193.496094 C 138.25 193.65625 137.957031 193.8125 137.664062 193.960938 C 137.316406 194.132812 136.96875 194.296875 136.613281 194.457031 C 136.316406 194.59375 136.015625 194.726562 135.714844 194.847656 C 135.355469 195 134.992188 195.132812 134.625 195.269531 C 134.316406 195.375 134.011719 195.488281 133.703125 195.589844 C 133.332031 195.707031 132.957031 195.8125 132.578125 195.917969 C 132.265625 196.003906 131.953125 196.09375 131.636719 196.167969 C 131.253906 196.257812 130.867188 196.335938 130.476562 196.410156 C 130.160156 196.46875 129.847656 196.535156 129.53125 196.585938 C 129.128906 196.648438 128.726562 196.6875 128.324219 196.734375 C 128.007812 196.769531 127.695312 196.808594 127.378906 196.832031 C 126.707031 196.882812 126.035156 196.917969 125.355469 196.917969 C 113.332031 196.917969 102.542969 188.976562 97.851562 176.6875 C 96.53125 173.203125 91.957031 173.21875 90.625 176.691406 C 85.953125 188.980469 75.175781 196.917969 63.171875 196.917969 C 51.148438 196.917969 40.355469 188.976562 35.667969 176.6875 C 34.34375 173.203125 29.773438 173.21875 28.441406 176.691406 C 24 188.367188 14.050781 196.113281 2.777344 196.859375 C 1.78125 196.925781 0.984375 197.976562 0.984375 199.308594 C 0.984375 200.722656 1.878906 201.828125 2.941406 201.761719 C 15.523438 200.933594 26.683594 192.152344 31.726562 178.917969 L 32.394531 178.910156 C 37.699219 192.828125 49.777344 201.824219 63.171875 201.824219 C 76.546875 201.824219 88.613281 192.835938 93.910156 178.917969 L 94.578125 178.910156 C 99.882812 192.828125 111.964844 201.824219 125.355469 201.824219 C 125.960938 201.824219 126.554688 201.785156 127.148438 201.746094 C 127.203125 201.75 127.253906 201.761719 127.308594 201.761719 C 127.402344 201.753906 127.496094 201.738281 127.585938 201.730469 C 127.945312 201.703125 128.300781 201.660156 128.660156 201.617188 C 129.105469 201.570312 129.546875 201.519531 129.984375 201.449219 C 130.34375 201.394531 130.699219 201.320312 131.054688 201.253906 C 131.488281 201.167969 131.917969 201.082031 132.34375 200.980469 C 132.699219 200.894531 133.046875 200.796875 133.402344 200.695312 C 133.820312 200.578125 134.234375 200.460938 134.652344 200.324219 C 134.996094 200.207031 135.34375 200.085938 135.683594 199.957031 C 136.089844 199.808594 136.496094 199.65625 136.894531 199.488281 C 137.238281 199.347656 137.574219 199.195312 137.910156 199.042969 C 138.304688 198.863281 138.691406 198.675781 139.078125 198.480469 C 139.40625 198.3125 139.734375 198.136719 140.0625 197.957031 C 140.441406 197.746094 140.816406 197.527344 141.1875 197.300781 C 141.503906 197.109375 141.820312 196.910156 142.132812 196.707031 C 142.496094 196.464844 142.859375 196.214844 143.214844 195.960938 C 143.519531 195.742188 143.824219 195.523438 144.121094 195.296875 C 144.472656 195.027344 144.816406 194.746094 145.160156 194.457031 C 145.449219 194.21875 145.734375 193.980469 146.015625 193.730469 C 146.351562 193.429688 146.679688 193.121094 147.007812 192.804688 C 147.277344 192.546875 147.550781 192.285156 147.8125 192.015625 C 148.132812 191.683594 148.445312 191.34375 148.753906 191 C 149.007812 190.722656 149.261719 190.449219 149.503906 190.160156 C 149.808594 189.796875 150.101562 189.417969 150.394531 189.046875 C 150.625 188.753906 150.859375 188.464844 151.078125 188.164062 C 151.375 187.765625 151.644531 187.351562 151.925781 186.9375 C 152.128906 186.640625 152.335938 186.34375 152.53125 186.039062 C 152.8125 185.59375 153.078125 185.128906 153.34375 184.667969 C 153.515625 184.375 153.695312 184.085938 153.859375 183.785156 C 154.144531 183.261719 154.40625 182.714844 154.667969 182.175781 C 154.792969 181.917969 154.929688 181.671875 155.050781 181.410156 C 155.421875 180.597656 155.773438 179.765625 156.09375 178.917969 L 156.761719 178.910156 C 157.089844 179.78125 157.449219 180.632812 157.832031 181.460938 C 158.984375 183.953125 160.359375 186.261719 161.925781 188.363281 C 168.191406 196.765625 177.496094 201.824219 187.539062 201.824219 C 200.917969 201.824219 212.980469 192.835938 218.28125 178.917969 L 218.945312 178.910156 C 219.273438 179.765625 219.621094 180.597656 220 181.410156 C 220.101562 181.632812 220.214844 181.84375 220.324219 182.0625 C 220.601562 182.644531 220.886719 183.230469 221.191406 183.792969 C 221.335938 184.054688 221.492188 184.304688 221.640625 184.5625 C 221.929688 185.066406 222.214844 185.566406 222.523438 186.054688 C 222.695312 186.324219 222.878906 186.578125 223.058594 186.84375 C 223.363281 187.292969 223.667969 187.746094 223.988281 188.183594 C 224.179688 188.449219 224.386719 188.703125 224.589844 188.960938 C 224.910156 189.371094 225.230469 189.785156 225.566406 190.179688 C 225.785156 190.433594 226.011719 190.679688 226.238281 190.929688 C 226.578125 191.304688 226.914062 191.679688 227.265625 192.039062 C 227.503906 192.28125 227.746094 192.511719 227.992188 192.75 C 228.34375 193.089844 228.703125 193.425781 229.066406 193.75 C 229.324219 193.980469 229.585938 194.199219 229.851562 194.417969 C 230.214844 194.726562 230.585938 195.027344 230.96875 195.316406 C 231.242188 195.527344 231.519531 195.726562 231.800781 195.929688 C 232.179688 196.199219 232.566406 196.46875 232.957031 196.722656 C 233.25 196.914062 233.542969 197.097656 233.84375 197.28125 C 234.234375 197.519531 234.628906 197.75 235.03125 197.972656 C 235.339844 198.144531 235.648438 198.308594 235.960938 198.464844 C 236.367188 198.671875 236.773438 198.867188 237.183594 199.054688 C 237.503906 199.199219 237.824219 199.34375 238.152344 199.480469 C 238.566406 199.652344 238.984375 199.8125 239.40625 199.96875 C 239.738281 200.085938 240.070312 200.207031 240.410156 200.320312 C 240.832031 200.460938 241.261719 200.578125 241.6875 200.699219 C 242.03125 200.796875 242.375 200.894531 242.722656 200.980469 C 243.15625 201.082031 243.59375 201.167969 244.027344 201.253906 C 244.382812 201.320312 244.730469 201.394531 245.085938 201.449219 C 245.53125 201.519531 245.976562 201.570312 246.425781 201.617188 C 246.78125 201.660156 247.132812 201.703125 247.492188 201.730469 C 247.585938 201.738281 247.679688 201.753906 247.773438 201.761719 C 247.828125 201.761719 247.878906 201.75 247.933594 201.75 C 248.527344 201.785156 249.125 201.824219 249.722656 201.824219 C 263.101562 201.824219 275.167969 192.835938 280.464844 178.917969 L 281.128906 178.910156 C 286.4375 192.828125 298.519531 201.824219 311.910156 201.824219 C 325.285156 201.824219 337.351562 192.835938 342.648438 178.917969 L 343.316406 178.910156 C 348.359375 192.148438 359.539062 200.933594 372.140625 201.761719 C 373.199219 201.828125 374.09375 200.722656 374.09375 199.308594 C 374.09375 197.976562 373.300781 196.925781 372.300781 196.859375 " fill-opacity="1" fill-rule="nonzero"/></g></svg>